<?xml version="1.0" standalone="no"?>
<!DOCTYPE svg PUBLIC "-//W3C//DTD SVG 1.1//EN" "http://www.w3.org/Graphics/SVG/1.1/DTD/svg11.dtd" >
<svg xmlns="http://www.w3.org/2000/svg" xmlns:xlink="http://www.w3.org/1999/xlink" version="1.1">
<metadata></metadata>
<defs>
<font id="my_fontregular" horiz-adv-x="706" >
<font-face units-per-em="2048" ascent="1638" descent="-410" />
<missing-glyph horiz-adv-x="411" />
<glyph horiz-adv-x="0" />
<glyph horiz-adv-x="682" />
<glyph unicode=" "  horiz-adv-x="411" />
<glyph unicode="&#x09;" horiz-adv-x="411" />
<glyph unicode="&#xa0;" horiz-adv-x="411" />
<glyph unicode="!" horiz-adv-x="358" d="M102 -6q0 -31 21.5 -52.5t52.5 -21.5q29 0 50.5 21.5t21.5 52.5q0 29 -21.5 50.5t-50.5 21.5q-31 0 -52.5 -21.5t-21.5 -50.5zM119 1178q0 -232 14 -977q1 -26 12.5 -41t26.5 -15q16 0 27.5 13.5t11.5 34.5q2 165 23.5 583t21.5 555v19q0 28 -70 28q-65 0 -65 -26z" />
<glyph unicode="&#x22;" horiz-adv-x="430" d="M102 1272q0 -40 7 -72q8 -37 28.5 -52t38.5 -15l6 2q0 103 21 213v2q0 12 -28 23t-46 11l-6 -2q-21 -38 -21 -110zM227 1274q0 -44 6 -74q8 -37 29 -52t39 -15l8 2v32q0 78 19 181v2q0 12 -28 23t-46 11l-6 -2q-21 -38 -21 -108z" />
<glyph unicode="#" horiz-adv-x="913" d="M102 465q0 -7 6 -13t13 -6q4 0 10 3q69 40 162 51v-154q-77 -14 -141 -49q-11 -5 -11 -16q0 -7 5.5 -13t13.5 -6q6 0 10 2q63 34 123 43l2 -258q1 -23 18.5 -36t40.5 -13q20 0 34.5 11t14.5 32q3 132 3 268q60 -5 122 -22l2 -240q1 -23 18.5 -36t41.5 -13q20 0 34.5 11 t14.5 32q2 72 2 219q30 -6 57 -6q48 0 99 20q14 6 14 17q0 6 -5 11t-11 5l-9 -2q-44 -16 -79 -16q-24 0 -66 10v154q27 -6 53 -6q46 0 105 20q12 6 12 18q0 8 -5.5 14.5t-12.5 6.5l-7 -2q-53 -19 -94 -19q-28 0 -51 5v301q0 10 -16 16t-39 6q-21 0 -37.5 -5.5t-16.5 -14.5 l-4 -277q-80 17 -122 21v254q0 10 -16.5 16t-39.5 6q-21 0 -37 -5.5t-16 -14.5q-2 -76 -2 -258q-98 -6 -182 -56q-11 -5 -11 -16zM406 350v150q42 -4 122 -21v-151q-65 17 -122 22z" />
<glyph unicode="$" horiz-adv-x="759" d="M10 864q0 -93 35 -170q26 -59 63.5 -115t107.5 -143.5t85 -107.5v-133q-63 -1 -109.5 -22.5t-71.5 -56t-36.5 -70.5t-11.5 -73q0 -43 14 -75q30 -68 88 -102t129 -34v-41q0 -29 12 -45t27 -16t25 14.5t10 40.5v58q87 23 147 88.5t60 156.5v19q-5 96 -55.5 186.5 t-141.5 204.5l6 293q70 21 121.5 79t75.5 127.5t24 139.5q0 127 -67 176q-68 51 -144 57v113q0 13 -14.5 21t-34.5 8q-19 0 -34 -7.5t-15 -19.5q0 -74 -2 -125q-123 -34 -208 -156t-85 -270zM109 -27q0 70 46.5 127t145.5 60v-353l-31 -4q-43 0 -82.5 28t-66.5 83 q-12 21 -12 59zM156 858q0 87 41 167t106 132q-2 -172 -2 -620q-100 136 -127 213q-18 56 -18 108zM377 -150l6 355q49 -88 55 -170v-23q0 -104 -61 -162zM393 758q2 98 8 454q25 7 45 7q38 0 68 -21q55 -36 55 -143q0 -91 -45.5 -176t-130.5 -121z" />
<glyph unicode="%" horiz-adv-x="821" d="M-20 -252q0 -17 8 -28t20 -11q26 0 43 39q74 150 395.5 777.5t374.5 736.5l2 8q0 17 -23 32t-44 15q-18 0 -23 -10q-91 -175 -375 -758t-368 -762q-10 -23 -10 -39zM152 1069q0 -67 36 -106q42 -45 101 -45h2q61 1 96 51t35 116q0 57 -28 98t-79 44h-12q-73 0 -112 -47.5 t-39 -110.5zM229 1061q0 57 23.5 104t62.5 47q36 0 58 -37t24 -85v-5q0 -66 -27 -99.5t-65 -33.5q-19 0 -45 15q-31 25 -31 94zM379 -51q0 -65 37 -105q42 -45 100 -45h2q62 1 97.5 52t35.5 116q0 58 -27.5 98.5t-78.5 43.5h-13q-74 0 -113.5 -47.5t-39.5 -112.5zM457 -57 q0 59 23.5 105t62.5 46q36 0 58 -37.5t24 -85.5v-4q0 -65 -26.5 -98t-63.5 -33q-28 0 -48 14q-30 24 -30 93z" />
<glyph unicode="&#x26;" horiz-adv-x="847" d="M-20 219q0 -133 79.5 -205.5t202.5 -72.5q144 0 277 90q96 -197 227 -367q5 -8 16 -8q9 0 13 4q8 8 8 16l-4 11q-139 183 -230 366q100 80 156.5 194t56.5 224q0 88 -35.5 156t-105.5 102l11 16.5t11 16t10 15t10.5 14.5t10 12t10 11t10 8t10 5.5t9.5 1.5h8q9 0 14 6.5 t5 14.5q0 15 -17 18h-12q-30 0 -59.5 -23t-49.5 -50.5t-46.5 -50.5t-51.5 -23q-6 0 -22 4h-4q-10 0 -17.5 -19t-7.5 -42q0 -28 12 -31q15 -6 31 -6q51 0 98 65q60 -30 91.5 -88.5t31.5 -132.5q0 -98 -49.5 -200t-138.5 -175q-153 317 -199 660q252 332 252 520q0 69 -34 104 t-83 35q-64 0 -102 -47q-86 -106 -86 -379q0 -37 4 -115q-61 -78 -88 -116q-233 -312 -233 -539zM109 213q0 220 210 500q52 -329 199 -639q-119 -82 -219 -82q-86 0 -138 59t-52 162zM336 922v47q0 133 21 230.5t57 141.5q26 33 53 33q19 0 32 -20t13 -54q0 -142 -176 -378 z" />
<glyph unicode="'" horiz-adv-x="305" d="M102 1278q0 -40 7 -72q8 -37 28.5 -52t38.5 -15l6 2q0 103 21 213v2q0 12 -28 23.5t-46 11.5l-6 -2q-21 -37 -21 -111z" />
<glyph unicode="(" horiz-adv-x="2050" d="M0 360q0 -87 66 -178q66 -90 188 -147q129 -60 307 -60q123 0 248 23q116 21 248 98q149 -33 309 -33q253 0 457 80q200 79 266 219l8 17q0 20 -20 20q-16 0 -19 -6q-53 -126 -256 -209q-209 -84 -448 -84q-121 0 -246 35q195 168 195 367v22q-21 193 -166 246 q-30 10 -60 10q-92 0 -168 -88q-129 228 -282 228q-155 -15 -201 -168q-10 -38 -10 -78q0 -222 258 -416q115 -83 254 -129q-106 -58 -185 -72q-82 -15 -180 -18q-327 0 -465 188q-57 75 -57 152q0 31 8 55q0 25 -16 25q-12 0 -21 -21q-12 -38 -12 -78zM465 688q0 33 8 57 q30 109 127 109q136 0 262 -231q-28 -48 -28 -86q0 -44 28 -60q15 -12 35 -12t35 12q26 20 26 68q0 40 -26 102q64 76 129 76q9 0 29 -4q93 -35 108 -197v-18q0 -189 -213 -340q-137 40 -256 125q-149 112 -205 215q-59 106 -59 184zM881 539q0 12 6 30q10 -38 10 -47 l-2 -12l-2 2q-12 9 -12 27z" />
<glyph unicode=")" horiz-adv-x="1929" d="M-16 397q0 -17 22 -63q30 -66 97.5 -116.5t157.5 -80t188.5 -44.5t201.5 -15q122 0 221 18q126 -73 237 -97t257 -24q131 0 241 34.5t178.5 91t106 124t37.5 137.5q0 38 -12 76q-6 21 -21 21q-6 0 -11 -6t-5 -15l2 -10q6 -21 6 -47q0 -57 -34 -116.5t-94.5 -110.5 t-156.5 -83t-208 -32h-31q-113 3 -190 20t-175 70q145 48 254 129q135 99 197.5 208.5t62.5 209.5q0 38 -10 76q-21 70 -68.5 115t-111.5 51l-23 2q-76 0 -149.5 -59.5t-132.5 -168.5q-76 88 -168 88q-27 0 -57 -10q-70 -22 -115 -88.5t-51 -157.5v-26q0 -100 49.5 -194 t142.5 -169q-79 -12 -172 -12q-98 0 -193.5 14.5t-180.5 43t-146.5 76t-83.5 108.5q6 15 6 28q0 18 -12 23q-9 6 -21 6q-16 0 -26 -10q-6 -6 -6 -15zM731 502v20q5 77 34 130.5t75 66.5q20 4 28 4q63 0 127 -76q-24 -57 -24 -100q0 -49 26 -70q15 -12 33 -12q22 0 37 12 q27 19 27 60q0 20 -9 41q-6 20 -20 45q57 109 126 170t136 61h14q41 -4 72 -33.5t43 -75.5q6 -24 6 -55q0 -90 -63 -196t-201 -205q-115 -84 -254 -125q-104 69 -158.5 156.5t-54.5 181.5zM1030 522q0 18 10 47l4 -8q3 -9 3 -20q0 -18 -9 -27l-6 -4q-2 4 -2 12z" />
<glyph unicode="*" horiz-adv-x="575" d="M102 1309q0 -11 9 -17l131 -88v-20l-121 -99q-6 -6 -6 -14t5.5 -14t12.5 -6q8 0 12 4l97 80l2 -86q0 -20 14 -31.5t33 -11.5q17 0 29 9.5t12 28.5q2 43 2 99l108 -74l11 -4q7 0 13.5 7t6.5 15q0 10 -8 15l-131 88v20l121 99q6 6 6 14t-6 14t-15 6q-8 0 -12 -4l-94 -79 v110q0 8 -13.5 13.5t-29.5 5.5q-45 0 -45 -19q-1 -21 -1.5 -47.5t-1 -43t-1.5 -28.5l-109 74l-12 4q-7 0 -13 -6t-6 -14z" />
<glyph unicode="+" horiz-adv-x="3065" d="M-12 406q0 -17 28 -82q39 -86 129.5 -153.5t210 -108t255 -61.5t276.5 -21q172 0 311 26q239 -160 516 -160q173 0 321.5 64t233.5 174q78 -41 189 -41q180 0 372.5 97t280.5 231q2 2 2 8q0 13 -8 18l-10 4q-10 0 -17 -10q-79 -117 -254.5 -206t-333.5 -89 q-112 0 -182 47q59 104 59 189q0 65 -36.5 102t-85.5 37q-51 0 -90 -37t-39 -102q0 -24 10 -66q25 -99 106 -157q-80 -90 -199.5 -140.5t-258.5 -50.5q-218 0 -433 123q216 67 373 184q180 132 265 278.5t85 282.5q0 140 -80 234t-196 94q-100 0 -202 -79t-187 -242 q-103 129 -236 129q-113 0 -198 -95.5t-95 -244.5l-2 -35q0 -143 77 -275.5t208 -232.5q-131 -23 -264 -23q-137 0 -270.5 20.5t-253 61t-206 109t-116.5 155.5q10 30 10 39q0 15 -12 23q-9 6 -23 6q-16 0 -26 -10q-4 -4 -4 -14zM989 553v27q9 133 66 209.5t137 76.5 q99 0 188 -114q-37 -81 -37 -144q0 -46 21.5 -71t50.5 -25q30 0 52 23.5t22 62.5q0 28 -10 53q-11 35 -31 68q87 167 186 248.5t189 81.5q87 0 142.5 -67.5t55.5 -174.5q0 -128 -89.5 -274.5t-278.5 -282.5q-168 -122 -361 -178q-138 92 -220.5 217t-82.5 264zM1401 578 q0 31 26 96q3 -6 9 -19t8 -16q6 -18 6 -33q0 -23 -10.5 -39t-22.5 -16q-16 0 -16 27zM2198 356q0 38 16 58t39 20q29 0 51.5 -29.5t22.5 -78.5q0 -74 -50 -156q-49 46 -69 119q-10 34 -10 67z" />
<glyph unicode="," horiz-adv-x="344" d="M61 74q0 -31 21.5 -52.5t52.5 -21.5h10q-7 -43 -57 -78q-8 -5 -8 -14q0 -8 5.5 -14.5t12.5 -6.5l11 4q52 33 78 78t26 88q0 38 -21 63t-57 25q-31 0 -52.5 -21t-21.5 -50z" />
<glyph unicode="-" horiz-adv-x="614" d="M4 461q0 -19 16 -19h7l5 1q6 1 16.5 2.5t25.5 3t37 3.5t47 3.5t59 2.5t70 1q88 0 205 -6h2q8 0 13 5.5t5 12.5q0 18 -18 18q-140 7 -207 7q-51 0 -97 -2t-76 -4.5t-51.5 -4.5t-32.5 -4l-12 -2q-14 -3 -14 -18z" />
<glyph unicode="." horiz-adv-x="315" d="M53 74q0 -31 21.5 -52.5t52.5 -21.5q29 0 50.5 21.5t21.5 52.5q0 29 -21.5 50t-50.5 21q-31 0 -52.5 -21t-21.5 -50z" />
<glyph unicode="/" horiz-adv-x="1040" d="M-43 -203q0 -13 8 -23t19 -10q25 0 45 33q82 120 489 700.5t483 692.5q3 6 3 10q0 18 -22.5 35.5t-43.5 17.5q-13 0 -18 -8q-111 -157 -473.5 -694t-473.5 -707q-16 -24 -16 -47z" />
<glyph unicode="0" horiz-adv-x="768" d="M4 465q0 -147 33.5 -275t87 -213t120 -133.5t132.5 -48.5q289 0 289 684q0 154 -38.5 294.5t-99.5 224t-127 83.5q-60 0 -110 -75l-4 -13q0 -6 8 -14l12 -4q11 0 15 8q36 59 77 59q54 0 107.5 -80.5t88 -212.5t34.5 -270q0 -287 -66.5 -466t-167.5 -179l-18 2 q-62 12 -116 95.5t-88 228t-34 315.5q0 91 18 202t49 213.5t80.5 171t104.5 68.5q9 0 15 16t6 36q0 43 -17 43h-16q-59 0 -113 -37t-94 -99t-72.5 -141t-53 -164.5t-31.5 -167t-11 -151.5z" />
<glyph unicode="1" horiz-adv-x="299" d="M-51 1092q0 -7 6 -13t14 -6q9 0 15 6q56 66 79 84q-2 -47 -2 -209q0 -418 19 -1099q1 -28 17.5 -45t39.5 -17q22 0 36.5 16.5t14.5 45.5l2 735q0 493 7 598q0 14 -30.5 24.5t-62.5 10.5q-25 0 -34 -9q-30 -13 -117 -110q-4 -4 -4 -12z" />
<glyph unicode="2" horiz-adv-x="686" d="M-29 -172v-4q0 -10 27.5 -20.5t52.5 -10.5l12 2l9 5q10 4 27 12t39.5 17t50.5 18t57.5 17t63.5 12.5t65 4.5q113 0 176 -63q6 -6 12 -6q9 0 15 6t6 14t-6 14q-83 80 -250 80q-102 0 -197 -30q31 55 95 166.5t98.5 173.5t87 159.5t82 163t60.5 143t44.5 140.5t13.5 116 q0 59 -22 111q-30 66 -101 105.5t-151 39.5q-107 0 -174 -67q-44 -44 -68 -110.5t-24 -139.5q0 -45 8 -84q4 -16 18 -16h4q15 4 15 20v4q-8 50 -8 76q0 65 22.5 124t61.5 97q56 56 129 56q54 0 98 -30.5t59 -76.5q15 -43 15 -96q0 -81 -30 -183t-93 -230.5t-116.5 -227 t-146.5 -260.5t-137 -242z" />
<glyph unicode="3" horiz-adv-x="735" d="M-2 49q4 -125 76.5 -190.5t179.5 -65.5q67 0 133.5 26.5t121.5 73.5t89.5 121.5t34.5 161.5q0 105 -24.5 182.5t-69.5 124t-95.5 71.5t-115.5 38q103 58 165 164t62 215q0 29 -2 43h2q-14 97 -92 153t-174 56q-108 0 -176 -68q-44 -44 -69.5 -111t-25.5 -139q0 -43 9 -84 q3 -16 18 -16q7 0 12.5 5t5.5 13v6q-8 50 -8 74q0 66 22 125.5t62 97.5q56 56 131 56q59 0 105 -36t59 -97q8 -50 8 -91q0 -53 -9 -103.5t-28.5 -102t-57 -91.5t-89.5 -59q-14 -4 -14 -20t18 -19q130 -14 193 -101t63 -278v-8q-1 -77 -28 -141t-69.5 -104.5t-93.5 -62.5 t-102 -22q-80 0 -134 53t-54 152q0 19 -19 19q-20 0 -20 -21z" />
<glyph unicode="4" horiz-adv-x="724" d="M10 350q0 -22 150 -22l276 2l-4 -469q1 -29 23.5 -46.5t50.5 -17.5q27 0 46 15t19 41l4 477l68 -2q21 0 21 20q0 7 -5.5 13t-15.5 6l-68 2q13 698 13 829q-1 13 -22 21t-48 8q-26 0 -46.5 -7.5t-20.5 -19.5q-9 -377 -15 -831l-327 2q138 624 219 821v2q0 13 -39 27 t-68 14q-21 0 -24 -8q-23 -57 -50 -165.5t-50 -225t-42 -222t-31.5 -182.5t-13.5 -80v-2z" />
<glyph unicode="5" horiz-adv-x="733" d="M-16 61q4 -128 79.5 -198t182.5 -70q69 0 136 30t123.5 86.5t91 148t34.5 204.5q0 238 -117.5 356.5t-333.5 118.5l-76 -4q2 28 14.5 185t16.5 229l377 -21q20 0 20 54q0 53 -20 53h-430q-9 0 -15 -12.5t-6 -28.5q0 -28 7.5 -35.5t27.5 -7.5q-4 -69 -12.5 -177 t-14.5 -182l-6 -75v-2q0 -7 6.5 -13t14.5 -6h4q18 4 55 4q147 0 245.5 -117.5t98.5 -293.5v-25q-4 -91 -33.5 -167.5t-74.5 -124t-96 -73.5t-101 -26q-70 0 -114.5 48.5t-44.5 141.5q0 8 -6 13.5t-13 5.5q-8 0 -14 -5t-6 -14z" />
<glyph unicode="6" horiz-adv-x="770" d="M6 264q0 -85 13.5 -155.5t34 -118t49.5 -84.5t57 -58t59.5 -35t52.5 -19t41 -7l31 -2q54 0 104.5 19t96.5 58t77.5 109.5t41.5 163.5q2 18 2 53q0 163 -90 275t-230 112q-92 0 -180 -49q38 311 122.5 481.5t200.5 170.5h3q10 0 17 7t7 15q0 11 -14 14h-15 q-104 0 -206 -113.5t-173.5 -301.5t-93.5 -400q-8 -98 -8 -135zM147 287q0 71 13 182q91 68 184 68q120 0 202.5 -103.5t82.5 -249.5l-2 -45q-13 -133 -83 -214t-157 -81q-100 0 -170 112t-70 331z" />
<glyph unicode="7" horiz-adv-x="659" d="M-2 1163q0 -53 18 -53h29q296 0 459 64q-84 -257 -228 -708.5t-190 -608.5q-2 -6 -2 -19q0 -28 24 -46.5t54 -18.5q42 0 53 37q18 57 205 646t231 732v4q0 17 -34 33t-64 16q-17 0 -23 -4q-102 -37 -280 -37q-56 0 -114.5 3.5t-89.5 6.5l-30 4q-18 0 -18 -51z" />
<glyph unicode="8" horiz-adv-x="823" d="M-2 123q0 -68 20 -126t59.5 -104.5t106 -74t152.5 -29.5h12q167 0 280 101.5t113 240.5q0 109 -73 203q-14 18 -29 35.5t-27 31t-29.5 31t-27.5 27t-29.5 27t-26.5 24t-28.5 25t-26.5 22.5q65 57 104.5 154t39.5 198q0 139 -70 226q-71 88 -156 88q-98 0 -171.5 -99.5 t-73.5 -234.5q0 -175 133 -311q-116 -72 -184 -198.5t-68 -256.5zM119 193q0 110 44 207.5t118 144.5q16 -15 60 -56t72 -67.5t71 -71t81 -88.5q82 -95 82 -190q0 -99 -79.5 -168.5t-180.5 -69.5q-83 0 -150.5 54.5t-99.5 166.5q-18 67 -18 138zM250 874q0 139 43.5 214 t103.5 75q49 0 84 -41q68 -74 68 -209q0 -87 -34.5 -172.5t-104.5 -154.5q-53 47 -84 83.5t-53.5 90t-22.5 114.5z" />
<glyph unicode="9" horiz-adv-x="763" d="M2 780q0 -152 86.5 -256t228.5 -104q63 0 136 24q-82 -286 -185.5 -441t-212.5 -155l-28 2q-10 0 -16.5 -6t-6.5 -14q0 -11 12 -14q14 -4 43 -4q101 0 213 100t206 269.5t145 365.5q39 150 39 266q0 70 -13 129t-36 98.5t-48 69t-54.5 47.5t-50 27t-40.5 14 q-42 10 -80 10q-49 0 -95 -16t-90 -49.5t-80 -94t-57 -141.5q-16 -69 -16 -127zM41 784q0 58 14 113q31 120 103.5 188t152.5 68q88 0 147.5 -83.5t59.5 -244.5q0 -147 -51 -325q-78 -41 -154 -41q-120 0 -196 94.5t-76 230.5z" />
<glyph unicode=":" horiz-adv-x="315" d="M53 74q0 -31 21.5 -52.5t52.5 -21.5q29 0 50.5 21.5t21.5 52.5q0 29 -21.5 50t-50.5 21q-31 0 -52.5 -21t-21.5 -50zM53 557q0 -29 21.5 -50.5t52.5 -21.5q29 0 50.5 21.5t21.5 50.5q0 31 -21.5 52.5t-50.5 21.5q-31 0 -52.5 -21.5t-21.5 -52.5z" />
<glyph unicode=";" horiz-adv-x="337" d="M61 555q0 -29 21.5 -50.5t52.5 -21.5q29 0 50.5 21.5t21.5 50.5q0 31 -21.5 52.5t-50.5 21.5q-31 0 -52.5 -21.5t-21.5 -52.5zM70 74q0 -31 21 -52.5t52 -21.5h11q-7 -43 -58 -78q-8 -5 -8 -14q0 -8 5.5 -14.5t12.5 -6.5l11 4q52 33 78 78t26 88q0 38 -21 63t-57 25 q-31 0 -52 -21t-21 -50z" />
<glyph unicode="&#x3c;" horiz-adv-x="669" d="M102 317q0 -33 33 -55h-2q14 -10 147 -92t195 -127l12 -4q7 0 13 6t6 14q0 7 -6 13q-54 39 -178 116t-132 82q53 41 191 142.5t182 136.5q4 2 4 10q0 20 -24 49t-41 29l-6 -2q-50 -39 -375 -283q-19 -16 -19 -35z" />
<glyph unicode="=" horiz-adv-x="626" d="M0 377q0 -6 5.5 -12.5t12.5 -6.5h5l8 1q8 1 22 3t33 4t43.5 4.5t51 4.5t58 3t62.5 1q107 0 199 -14h4q7 0 12.5 6t5.5 12q0 15 -16 18q-99 17 -209 17q-67 0 -136.5 -5.5t-104 -10.5t-40.5 -7q-16 -3 -16 -18zM2 557q0 -6 5.5 -12t12.5 -6h5l8 1q8 1 22 3t33 4t43.5 4 t51 4t58 3t62.5 1q107 0 199 -14h4q8 0 13 5.5t5 12.5q0 16 -14 19q-93 16 -209 16q-68 0 -138 -5.5t-104.5 -10.5t-40.5 -7q-16 -3 -16 -18z" />
<glyph unicode="&#x3e;" horiz-adv-x="579" d="M12 113q0 -19 23.5 -47.5t40.5 -28.5l6 2q140 108 377 283q18 15 18 36q0 15 -9.5 30.5t-23.5 23.5q-17 13 -148.5 94t-191.5 125q-4 4 -12 4q-9 0 -14.5 -5.5t-5.5 -13.5q0 -9 8 -14q26 -19 58 -40.5t70 -45t64.5 -40t66 -40.5t50.5 -30q-61 -47 -197.5 -148.5 t-175.5 -132.5q-4 -2 -4 -12z" />
<glyph unicode="?" horiz-adv-x="753" d="M102 1069q0 -43 9 -84q3 -14 20 -14h4q15 4 15 18v4q-9 37 -9 78q0 65 22.5 124t61.5 97q56 56 129 56q54 0 98.5 -30.5t59.5 -76.5q14 -43 14 -100q0 -74 -26.5 -171.5t-64.5 -196.5t-76.5 -200t-67 -210.5t-31.5 -198.5q0 -19 35 -19q15 0 27 5.5t12 13.5l-2 35 q0 83 33 182t79.5 190.5t93.5 182t80 184.5t33 170q0 68 -30 133q-32 66 -102 105.5t-150 39.5q-105 0 -172 -67q-44 -44 -69.5 -111t-25.5 -139zM225 2q0 -31 21.5 -52.5t52.5 -21.5q29 0 50.5 21.5t21.5 52.5q0 29 -21.5 50.5t-50.5 21.5q-31 0 -52.5 -21.5t-21.5 -50.5z " />
<glyph unicode="@" horiz-adv-x="1179" d="M6 317q0 -97 36.5 -186.5t106 -161t181 -114.5t250.5 -43q92 0 175.5 23.5t134 51.5t97.5 69t59.5 56.5t25.5 33.5l1 1l4 10q0 9 -6 15t-14 6q-10 0 -15 -8l-1 -1q-8 -11 -18.5 -23t-38.5 -41t-65.5 -53t-86.5 -48.5t-114.5 -39t-137.5 -14.5q-129 0 -233.5 39.5 t-169 105.5t-98.5 147.5t-34 170.5t34 171.5t98 149t166.5 106.5t229.5 40q90 0 162.5 -24.5t119.5 -64.5t78 -95t44.5 -113t13.5 -121q0 -64 -19 -127t-45.5 -106.5t-54.5 -70.5t-47 -27q-14 0 -20 18l-1 5q-2 6 -4 16t-5 24.5t-5.5 34.5t-4.5 42.5t-3.5 51.5t-1.5 60 q0 161 35 333v2q0 13 -34 23t-70 10q-42 0 -45 -14q-9 -62 -11 -96q-33 54 -85.5 82t-114.5 28q-102 0 -184.5 -75.5t-100.5 -213.5l-4 -47q0 -129 79.5 -222t180.5 -93q69 0 128 49.5t97 151.5q10 -120 47 -177t90 -57q54 0 111 54.5t95 148t38 192.5q0 66 -15.5 129 t-50.5 123t-86.5 105t-130.5 72.5t-176 27.5q-137 0 -247.5 -43t-179 -114.5t-104.5 -160t-36 -184.5zM313 299q0 17 4 57q14 114 64.5 173t114.5 59q54 0 96.5 -42t54.5 -112q-7 -181 -60.5 -272.5t-123.5 -91.5q-61 0 -105.5 64t-44.5 165z" />
<glyph unicode="A" d="M-78 399q0 -8 5 -14t14 -6h67q-8 -145 -8 -432v-172q0 -9 6 -15t14 -6q6 0 12.5 6t6.5 15q0 399 8 604h381q-6 -150 -6 -287q0 -134 8 -213q23 -231 154 -282l8 -3q9 0 14.5 7.5t5.5 17.5q0 14 -10 21q-38 28 -41 258v73q0 117 8.5 360t8.5 355q0 76 -2.5 139t-9.5 126 t-18 112t-28.5 92t-40.5 71.5t-55 45.5t-72 18h-4q-295 0 -338 -872h-69q-8 0 -13.5 -6t-5.5 -13zM49 418q41 827 295 833q102 -10 102 -372q0 -94 -8.5 -266t-9.5 -195h-379z" />
<glyph unicode="B" horiz-adv-x="864" d="M-4 -119v-53q1 -29 23 -45t51 -16q27 0 45 14.5t18 40.5v8q0 5 1 11q12 62 42 335q13 116 20.5 178.5t22.5 178.5t28 184.5t32.5 163.5t40.5 151.5t47 112t57.5 81t67.5 25.5q37 0 58 -49t21 -129q0 -92 -27 -189.5t-92 -194t-157 -148.5q-16 -10 -16 -27q0 -15 14 -18 q180 -38 257 -121.5t77 -263.5q0 -82 -29 -156.5t-76.5 -125t-107.5 -80.5t-121 -30q-24 0 -66 11l-6 2q-7 0 -12.5 -6.5t-5.5 -14.5q0 -15 16 -18q70 -17 117 -17q178 0 301 125.5t123 307.5q0 187 -98 287t-300 130q110 52 187.5 137.5t111 175.5t33.5 181 q0 117 -54 193.5t-148 76.5h-3q-41 0 -77 -24t-65 -76.5t-52.5 -108.5t-44 -147t-35 -164.5t-30 -188.5t-24.5 -190t-22 -198q11 671 11 673v60q0 26 -70 26q-66 0 -66 -26q-18 -768 -18 -1045z" />
<glyph unicode="C" horiz-adv-x="753" d="M2 385q0 -182 41 -334q61 -240 303 -289q10 -2 29 -2q77 0 143 66q68 68 119 164q55 99 94 200q27 67 66 183l2 8q0 8 -6 14q-8 4 -13 4q-11 0 -20 -18q-42 -132 -109 -270q-65 -127 -139 -217q-75 -87 -133 -87q-5 0 -25 5q-119 46 -166 278q-20 103 -20 283 q0 126 16 286q1 21 6.5 60.5t6.5 46.5q135 44 213 92q87 52 133 107q43 56 51 94q8 39 8 67q0 68 -35 115t-112 47q-112 0 -195 -80q-84 -84 -141 -213q-59 -133 -86 -293q-31 -164 -31 -317zM203 805q12 68 30 137q34 128 95 215q58 82 149 82h15q36 -6 55 -37 q16 -32 16 -74q0 -16 -10 -61q-8 -35 -51 -88q-37 -46 -129 -100q-67 -40 -170 -74z" />
<glyph unicode="D" horiz-adv-x="847" d="M-4 -119v-53q1 -29 23 -45t51 -16q27 0 45 14.5t18 40.5v8q0 5 1 11q12 62 42 335q6 51 17 158q11 108 17.5 164t19 157.5t23.5 158.5t27 136.5t33.5 124.5t40 90.5t50 65.5t59.5 20q62 0 103.5 -183.5t41.5 -434.5q0 -164 -20 -315.5t-61 -286t-114.5 -221t-170.5 -99.5 q-17 0 -17 -16q0 -8 5 -14.5t14 -6.5h2q105 13 190 71.5t141.5 145.5t95 200.5t55.5 233t17 246.5q0 187 -35 351t-100.5 266t-146.5 102h-2q-50 0 -90.5 -37.5t-69.5 -103.5t-52 -157.5t-39 -195.5t-30 -223t-26 -235q-10 -97 -15 -145q11 671 11 673v60q0 26 -70 26 q-66 0 -66 -26q-18 -768 -18 -1045z" />
<glyph unicode="E" horiz-adv-x="733" d="M-29 176q0 -108 37 -201q38 -96 113 -153q78 -60 188 -60q100 0 176 54q73 54 123 133q48 80 86 176q33 88 62 176q3 10 11 34.5t11 37.5l2 8q0 8 -6 14q-8 4 -12 4q-12 0 -21 -18q-62 -228 -155 -393q-95 -167 -271 -176h-2q-69 0 -118 55q-50 56 -74 145 q-25 92 -25 187q0 147 58 272q57 124 180 158q6 6 8 14q4 12 4 23q0 6 -4 18q-3 6 -14 6q-102 0 -123 55q-1 3 -3 9.5t-3 9.5q129 63 200 131q74 69 111 137q33 62 33 96q0 66 -35 113t-113 47q-87 0 -157 -61q-72 -63 -113 -152q-43 -90 -43 -184q0 -80 39 -139 q36 -62 121 -90q-133 -65 -201 -201q-70 -137 -70 -285zM188 838q0 68 29 170q27 95 78 163q53 68 125 68h10q36 -6 55 -37q19 -32 19 -76q0 -28 -35 -90q-33 -63 -111 -131q-65 -59 -168 -106q-2 12 -2 39z" />
<glyph unicode="F" horiz-adv-x="471" d="M-76 651q0 -8 5 -14t14 -6h67l-6 -555q-3 -228 -41 -258q-10 -5 -10 -21q0 -9 5.5 -16.5t12.5 -7.5l9 2q72 28 107 98.5t46 183.5l1 31q0 32 1 89t2.5 126t3 158t2.5 170h248q21 0 21 20q0 7 -5.5 13t-15.5 6h-248q4 152 4 219q0 75 14.5 136.5t36.5 100t53.5 67.5 t59.5 43t61.5 22.5t51.5 10t37 1.5h41q20 0 20 20q0 7 -5 13t-15 6h-70q-23 0 -49 -2.5t-68.5 -12t-80 -25.5t-79 -46.5t-71.5 -72t-50 -105.5t-22 -142q0 -26 -1 -95t-1 -138h-67q-8 0 -13.5 -6t-5.5 -13z" />
<glyph unicode="G" horiz-adv-x="978" d="M-39 -127q0 -63 37 -121q36 -58 111 -100q71 -41 178 -41q72 0 151 31q74 29 140 104q63 69 98 197h2q82 0 141 47q65 52 101 114q42 73 65 144q23 67 39 127v6q0 9 -6 12q-8 4 -12 4q-13 0 -19 -12q-19 -81 -53 -158q-42 -97 -98 -168q-60 -75 -142 -75h-8q8 45 14 180 q1 31 3.5 124.5t3.5 147.5q2 96 2 254v109q0 13 -21 22q-21 6 -49 6q-24 0 -45 -6q-21 -9 -21 -20l-4 -172q-30 -197 -92 -324t-133 -127q-12 0 -27 6q-118 46 -165 277q-11 75 -11 137q0 58 6 119q156 51 252 135q91 80 131 164q35 78 35 110q0 68 -35 115t-112 47 q-115 0 -213 -98q-100 -97 -162 -252q-61 -155 -61 -324q0 -98 24 -192q64 -245 303 -289l27 -2q59 0 102 43q39 39 76 111q30 67 51 147q-1 -27 -2 -77.5t-2 -73.5v-131q-2 -33 -2 -74q-1 -7 -2 -22t-2 -21q-1 -5 -6 -35v-6q-1 0 -33 14q-67 36 -186 62q-62 12 -113 12 q-131 0 -192 -64q-64 -64 -64 -143zM16 -119q0 61 54 109q53 47 163 47q49 0 113 -12q106 -25 162 -58q8 -4 33 -14q-27 -136 -95 -211q-69 -72 -161 -72q-126 0 -197 68q-72 69 -72 143zM152 754q9 64 24 129q34 146 103 254q65 102 163 102h13q36 -6 55 -37q16 -32 16 -74 q0 -35 -32 -100q-35 -75 -123 -154q-70 -65 -219 -120z" />
<glyph unicode="H" horiz-adv-x="755" d="M-115 399q0 -8 5 -14t14 -6h94l2 -543q1 -29 23 -45t51 -16q27 0 45 14.5t18 40.5q2 135 2 549h328l-2 -260q0 -238 32 -361t130 -161l8 -3q9 0 14.5 7.5t5.5 17.5q0 14 -10 21q-43 31 -43 374q0 131 4 365h70q20 0 20 20q0 7 -5 13t-15 6h-68q2 149 7.5 455.5t5.5 388.5 q0 26 -70 26q-27 0 -47.5 -6.5t-20.5 -19.5q-1 -48 -7.5 -352.5t-8.5 -491.5h-328v694q0 13 -20.5 21t-48.5 8q-26 0 -46 -7.5t-20 -19.5q-6 -220 -6 -696h-94q-8 0 -13.5 -6t-5.5 -13z" />
<glyph unicode="I" horiz-adv-x="364" d="M-66 901l3 -96q2 -80 23.5 -227t51.5 -201q5 -10 17 -10q8 0 14 5.5t6 12.5l-4 10q-27 50 -47.5 191.5t-22.5 220.5l-2 117q0 140 13 204t39 93q18 18 28 18q24 0 27 -88v-25q1 -26 2 -71t2 -105.5t2 -132.5t2 -149t2 -158.5t2 -157t1.5 -148t0.5 -128.5 q-3 -230 -41 -258q-10 -7 -10 -21q0 -9 5.5 -16.5t14.5 -7.5l9 2q71 28 106.5 99t46.5 183q8 73 8 301q0 225 -6.5 492t-11.5 297q-13 72 -48.5 107.5t-80.5 35.5q-53 0 -90 -43q-62 -69 -62 -346z" />
<glyph unicode="J" horiz-adv-x="749" d="M-143 -162q0 -95 58 -161t171 -66q57 0 109 17.5t101.5 54.5t89 103.5t63.5 156.5h2q45 0 85.5 17t71.5 43.5t58.5 65t46.5 76t36 82.5t27 78.5t19 69.5v6q0 7 -6 11.5t-13 4.5q-15 0 -18 -12q-14 -60 -38 -122.5t-61 -129t-90 -108t-112 -41.5q22 116 22 706 q0 386 -12 457q-25 143 -115 143q-40 0 -89 -33.5t-99 -99.5t-92.5 -152t-71 -203t-31.5 -241v-18q0 -88 41 -168q7 -10 17 -10q8 0 14 5.5t6 12.5l-2 10q-33 71 -33 139v21q2 128 36.5 256t80.5 215t92.5 142t75.5 55q34 0 37 -70q8 -250 8 -553q0 -456 -23 -606 q-8 3 -43 17.5t-81.5 31t-94.5 27.5q-24 6 -49 6q-88 0 -141 -71t-53 -165zM-96 -164q0 76 45 136.5t119 60.5q27 0 51 -8q39 -12 77 -26t74 -28.5t43 -17.5q-29 -137 -96 -210t-160 -73q-74 0 -113.5 48t-39.5 118z" />
<glyph unicode="K" horiz-adv-x="759" d="M2 391q0 -453 2 -555q1 -29 23 -45t51 -16q27 0 45 14.5t18 40.5l2 676q34 -27 65.5 -65t55 -81t42 -84t33.5 -85t23.5 -73t16.5 -59t8 -32q83 -254 170 -254l14 2q40 9 74.5 58t59.5 128t41.5 147.5t33.5 155t23 111.5v6q0 18 -17 18t-20 -18q-3 -13 -22.5 -115.5 t-35 -168.5t-46.5 -139t-66 -91l-8 -2q-44 0 -84 198q-1 5 -8.5 42t-13.5 64t-19.5 73t-28 80t-38.5 74t-50.5 66t-63.5 44.5t-79 19.5q88 24 158 105.5t108.5 186.5t58 206.5t19.5 185.5q0 8 -6 13.5t-13 5.5q-8 0 -14 -5t-6 -14q0 -51 -9 -114.5t-27 -136t-48.5 -141 t-69 -126t-93.5 -95.5t-118 -44v709q0 26 -69 26q-66 0 -66 -26q-6 -240 -6 -871z" />
<glyph unicode="L" horiz-adv-x="471" d="M6 391q0 -453 2 -555q1 -29 23.5 -46t50.5 -17q19 0 39 10q25 14 74 14q34 0 128.5 -11t147.5 -11q155 0 231 82q7 7 7 14q0 4 -4 8t-9 4q-9 0 -14 -8q-45 -45 -131 -45q-44 0 -144.5 17.5t-150.5 17.5q-58 0 -111 -21q2 336 2 1418q0 26 -69 26q-66 0 -66 -26 q-6 -240 -6 -871z" />
<glyph unicode="M" horiz-adv-x="1275" d="M2 502l4 -666q1 -29 23 -45t51 -16q27 0 45 14.5t18 40.5q1 128 36.5 393.5t96 546t117.5 395.5q34 66 47 66t16 -92q0 -9 1 -27v-6v-64l-4 -698l4 -407q0 -29 21.5 -46.5t51.5 -17.5q27 0 45.5 14.5t18.5 40.5v47q30 133 64 268t73 272.5t76 224t61 87.5q27 0 27 -92 q0 -62 -22.5 -303t-22.5 -366q0 -318 121 -328h6q40 0 81 39.5t72.5 95t65 136.5t53.5 140.5t43 133t29 90.5l2 8q0 7 -6 12.5t-12 5.5q-15 0 -21 -18q-38 -125 -86 -249t-105 -225.5t-94 -101.5q-4 0 -14 5q-8 36 -8 104q0 75 17.5 296.5t17.5 330.5q0 73 -6 129t-20 103 t-40.5 73t-64.5 28h-2q-26 0 -52.5 -31t-53 -92t-49.5 -125t-48.5 -157.5t-42.5 -159.5t-39 -159q0 114 3 307t3 272q0 267 -27 397q-32 162 -100 162q-53 0 -108 -96q-75 -134 -132 -403.5t-90 -546.5l-2 680q0 13 -20.5 20.5t-48.5 7.5q-26 0 -46 -7t-20 -19z" />
<glyph unicode="N" horiz-adv-x="915" d="M0 502l4 -666q1 -29 23 -45t51 -16q27 0 45 14.5t18 40.5v37q17 226 115.5 676t183.5 622q34 66 49 66q21 0 21 -125v-156q0 -199 -6 -473.5t-6 -351.5q0 -203 26 -292t101 -95h6q47 0 93 51t84 138.5t64.5 163.5t54 169.5t34.5 112.5l2 8q0 7 -6.5 12.5t-12.5 5.5 q-14 0 -20 -18q-41 -134 -83.5 -251.5t-97 -221t-90.5 -103.5q-4 0 -14 5q-12 47 -12 186q0 76 7 322.5t7 398.5q0 251 -14 409q-7 82 -33.5 123t-63.5 41q-29 0 -60.5 -26t-57.5 -72q-80 -144 -157.5 -439.5t-113.5 -545.5l-2 715q0 13 -20.5 20.5t-48.5 7.5q-26 0 -46 -7 t-20 -19z" />
<glyph unicode="O" horiz-adv-x="806" d="M-2 410q0 -161 44.5 -303t131.5 -235.5t197 -98.5h10q100 0 175.5 101.5t112 259t36.5 341.5q0 234 -62 437.5t-180 304.5q-82 71 -170 71q-44 0 -76.5 -17.5t-44.5 -45.5q-8 -16 -8 -45q0 -46 31 -123q-73 -114 -130 -273t-65 -311zM141 389q0 55 2 82q7 104 43.5 219.5 t85.5 210.5q16 -30 44 -78t45 -78t35 -65t27 -60t9 -42q0 -18 -12 -27q-10 -7 -10 -16q0 -8 6.5 -14.5t13.5 -6.5l10 4q52 35 52 96q0 29 -9.5 63t-31 78t-37 72t-48.5 83.5t-44 74.5q23 33 43 47q2 2 2 8q0 23 -35 72t-53 49l-5 -2q-10 -7 -20 -20q-2 8 -2 26q0 19 4 27 q24 49 72 49q49 0 110 -53q113 -98 170.5 -279.5t57.5 -390.5q0 -170 -35 -318.5t-102.5 -242.5t-153.5 -94h-2q-65 1 -118.5 75t-83.5 194.5t-30 256.5z" />
<glyph unicode="P" horiz-adv-x="843" d="M4 236q0 -316 4 -414q1 -28 23 -45t51 -17q26 0 44.5 15t18.5 41v10v6t0.5 5t2 11.5t3 21t4.5 38t6.5 59t9 87t11.5 118.5q11 116 17.5 179t19.5 179.5t25 185.5t29.5 164.5t37.5 152t45 112.5t56 82t67 26h2q57 0 92 -101t35 -245q0 -99 -19 -194t-56.5 -180t-104 -141 t-152.5 -66q-16 -3 -16 -23t16 -20h5q96 12 174.5 51t130.5 94.5t87 126t50.5 144t15.5 151.5q0 115 -32 215.5t-91.5 163.5t-132.5 63h-4q-42 -1 -78 -25.5t-64.5 -78t-51.5 -109t-42 -148.5t-32.5 -165t-27 -189.5t-21 -190.5t-19.5 -198l2 463q0 199 -2 271 q0 11 -20.5 18.5t-46.5 7.5q-28 0 -48.5 -7.5t-21.5 -20.5z" />
<glyph unicode="Q" horiz-adv-x="817" d="M4 412q0 -167 49 -316t135 -235q-69 -8 -159 -31q-13 -3 -13 -33q0 -20 7 -38.5t16 -18.5h4q156 39 256 49q46 -16 86 -16q33 0 66 10q125 -18 231 -113q4 -4 12 -4t14.5 7t6.5 14q0 8 -6 14q-94 82 -193 121q91 77 143 258t52 397q0 234 -61.5 436.5t-180.5 303.5 q-82 71 -170 71q-44 0 -76.5 -17.5t-44.5 -45.5q-10 -23 -10 -62q0 -49 16 -131q-68 -115 -119 -265t-59 -294zM147 389q0 41 3 82q11 161 86 338q77 -305 94 -416q12 -81 12 -139q0 -99 -39 -141q-8 -8 -8 -17q0 -8 5.5 -14t12.5 -6q9 0 13 4q96 73 96 258q0 45 -6.5 99 t-14 97.5t-23.5 109t-25 99.5t-28.5 105t-25.5 92q42 68 72 92q2 2 2 8q0 23 -35 72t-53 49l-4 -2l-23 -22v18q0 21 4 37q24 49 72 49q49 0 110 -53q113 -98 170.5 -279.5t57.5 -390.5q0 -170 -35 -318.5t-102.5 -242.5t-153.5 -94h-2q-65 1 -118.5 75t-83.5 194.5 t-30 256.5z" />
<glyph unicode="R" horiz-adv-x="884" d="M0 236q0 -316 4 -414q1 -28 23 -45t51 -17q26 0 44.5 15t18.5 41v10v6t0.5 5t2 11.5t3 21t4.5 38t6.5 59t9 87t11.5 118.5q11 116 17.5 179t19.5 179.5t25 185.5t29.5 164.5t37.5 152t45 112.5t56 82t67 26h2q57 0 92 -75.5t35 -184.5q0 -74 -19 -145.5t-56.5 -136.5 t-104 -109.5t-152.5 -54.5q-16 -3 -16 -21q0 -4 3 -9.5t3 -8.5q63 -46 109 -117.5t73.5 -149.5t50 -154t50.5 -150.5t63 -118.5q38 -47 76 -47t78 49q43 54 75 153.5t61 247.5t30 152l2 8q0 18 -19 18q-17 0 -20 -20q-3 -12 -22.5 -115t-35 -168.5t-46.5 -139t-66 -91.5 l-10 -2q-19 0 -34 33.5t-27.5 87.5t-26.5 120.5t-36 135t-50 127t-73.5 100.5t-103.5 53q98 24 172 70.5t117.5 106t64.5 124t21 133.5q0 137 -73 237.5t-183 100.5h-4q-42 -1 -78 -25.5t-64.5 -78t-51.5 -109t-42 -148.5t-32.5 -165t-27 -189.5t-21 -190.5t-19.5 -198 l2 463q0 199 -2 271q0 11 -20.5 18.5t-46.5 7.5q-28 0 -48.5 -7.5t-21.5 -20.5z" />
<glyph unicode="S" horiz-adv-x="819" d="M-23 860q0 -83 35 -170q34 -70 84 -141q-51 -56 -88 -158l-2 -6q0 -10 6 -16q12 -4 15 -4q12 0 18 14q37 87 72 137q11 15 24.5 -2t30.5 -52.5t27 -47.5q85 -105 137 -189q-122 -20 -215 -82q-88 -58 -88 -157q0 -45 20 -92q29 -66 92 -101q56 -33 129 -33q65 0 132 31 q61 25 104 88q41 59 41 141q0 83 -49 187q14 0 20 2q115 9 209 39q93 26 131 123l2 6q0 10 -6 16q-12 4 -14 4q-13 0 -19 -14q-31 -78 -116 -102q-93 -25 -191 -31l-37 -4q-70 112 -153 211q-75 90 -107 139q159 74 252 158q89 82 123 153q31 73 31 113q0 140 -113 219 q-80 57 -170 57q-144 0 -254 -131q-113 -131 -113 -305zM70 -16q0 85 88 137q83 51 198 69q50 -103 50 -182q0 -93 -52 -151t-116 -58q-42 0 -82 27q-42 28 -68 84q-18 40 -18 74zM123 854q0 142 98 252q95 108 193 108q38 0 67 -20q84 -66 84 -188q0 -40 -24 -101 q-23 -62 -107 -137q-75 -69 -231 -141q-35 59 -62 118q-18 56 -18 109z" />
<glyph unicode="T" horiz-adv-x="620" d="M-100 1077q0 -54 32.5 -131.5t82 -165.5t101.5 -184t97.5 -216.5t62.5 -234.5q4 -300 5 -323q1 -28 22.5 -45t50.5 -17q26 0 45 15t19 41l-2 278l2 801q0 276 -2 350l-4 8q159 0 285.5 -20t150.5 -53q6 -9 14 -9t14.5 6t6.5 15l-4 10q-29 39 -160 63.5t-293 24.5 q-173 0 -311.5 -30.5t-186.5 -92.5q-28 -38 -28 -90zM-61 1079q0 40 20 66q62 81 322 102v-4q-5 -430 -5 -934q-33 112 -94 240t-112.5 215.5t-91 175t-39.5 139.5z" />
<glyph unicode="U" horiz-adv-x="870" d="M2 598q0 -410 37 -557q33 -129 93 -199.5t128 -70.5q54 0 105 47.5t88 140.5q87 214 149 684q-8 -390 -8 -496q0 -265 33 -388.5t131 -161.5l8 -3q9 0 14.5 7.5t5.5 17.5q0 14 -10 21q-43 33 -43 378q0 128 9.5 539t9.5 664v41q0 26 -70 26q-27 0 -47.5 -6.5t-20.5 -19.5 q0 -45 -2 -74q-11 -174 -30.5 -368t-66.5 -453.5t-105 -386.5q-27 -58 -59 -90.5t-64 -32.5q-90 0 -125 235q-15 108 -15 336v729q0 13 -20.5 21t-48.5 8q-27 0 -46.5 -7t-19.5 -20q-1 -33 -3.5 -138.5t-4.5 -215t-2 -207.5z" />
<glyph unicode="V" horiz-adv-x="770" d="M-88 1264q1 -9 33 -211t53 -330t53 -317.5t57 -317.5t42 -186q37 -127 95.5 -189.5t102.5 -62.5q18 0 25 10q38 38 99 189t119.5 347t101 428t42.5 406q0 209 -65 313q-57 84 -152 84q-23 0 -35 -2q-16 -4 -16 -18v-4q4 -17 18 -17l33 3q74 0 119 -66q55 -83 55 -270 q0 -288 -116.5 -700t-241.5 -623q-32 63 -81.5 332t-112.5 663.5t-95 560.5q-3 19 -43 19q-32 0 -61 -11.5t-29 -27.5v-2z" />
<glyph unicode="W" horiz-adv-x="1171" d="M2 387q0 -117 10 -215q23 -215 80 -310t131 -95q37 0 84 28q59 38 109 218t88 425q7 -347 69.5 -541t151.5 -194q45 0 91.5 55t88.5 162q81 203 145 508t64 551q0 100 -12 179t-38 140.5t-71 95t-106 33.5l-35 -2q-16 -3 -16 -18q0 -8 5.5 -14.5t12.5 -6.5l31 3 q50 0 87 -29t58.5 -82t32 -122t10.5 -155q0 -241 -70 -556.5t-155 -518.5q-47 -108 -86 -108q-60 0 -94.5 225.5t-34.5 513.5q0 229 22 383v2q0 16 -34 16q-33 0 -65.5 -11.5t-33.5 -28.5q-8 -75 -10 -125q-24 -216 -56 -412.5t-78 -360.5t-91 -192q-13 -8 -27 -8 q-86 0 -110 346q-9 124 -9 194q0 239 40.5 455t131.5 320l4 8q0 17 -37 36t-67 19q-14 0 -20 -6q-98 -93 -144.5 -323t-46.5 -482z" />
<glyph unicode="X" horiz-adv-x="925" d="M-113 -193q0 -5 7 -12q23 -20 51 -20q42 0 87.5 44.5t89 122t78.5 151t75 162.5t59 126q61 -204 143 -412q38 -97 85 -148.5t97 -51.5q46 0 91 43.5t84 130.5q46 100 82.5 225.5t52.5 204.5v6q0 9 -5.5 14.5t-13.5 5.5q-15 0 -18 -20q-16 -84 -55.5 -202.5t-85.5 -199.5 q-56 -100 -91 -100q-23 0 -41.5 33t-50.5 112l-6 15q-113 285 -176 522q15 28 106 228.5t164 328t115 127.5l16 -4q7 0 13 8t6 17q0 11 -10 18q-12 6 -25 6q-36 0 -80.5 -52.5t-90 -139.5t-85 -172.5t-81 -180.5t-62.5 -135q-12 48 -49.5 212.5t-67 280.5t-45.5 134 q-34 59 -103 59q-45 0 -75 -24q-21 -19 -46.5 -62.5t-57.5 -153t-44 -251.5q-4 -39 -4 -103q0 -65 7.5 -115.5t25 -91t28.5 -60.5t35 -56q5 -10 17 -10q16 0 16 18q0 8 -4 14q-29 45 -42 68.5t-28.5 86t-15.5 140.5q0 66 4 105q8 84 22.5 154.5t31 115t35.5 75t35 43.5 t30 13q17 0 26 -26q20 -98 77.5 -346t98.5 -396q-22 -39 -61 -125t-75.5 -164t-78 -156.5t-82.5 -125.5t-75 -47q-16 0 -31 12q-4 4 -10 4t-12.5 -7t-6.5 -16z" />
<glyph unicode="Y" horiz-adv-x="985" d="M-33 -127q0 -102 88 -182t238 -80q46 0 90 10t90.5 35t85 62t71.5 95t52 130h2q234 0 346 432v6q0 7 -5.5 11.5t-12.5 4.5q-16 0 -19 -12q-11 -43 -27 -89.5t-43.5 -104t-59 -102t-74.5 -75t-89 -30.5h-8q23 123 23 1278q0 26 -70 26q-65 0 -65 -26q-5 -239 -46.5 -497 t-123.5 -435q-26 -59 -59.5 -92t-65.5 -33q-41 0 -74 58.5t-49 178.5q-3 25 -7 47t-5 30t-2 24t-1 45v569q0 13 -20.5 21t-48.5 8q-26 0 -46 -7.5t-20 -19.5q-1 -40 -5.5 -175t-4.5 -212q0 -234 37 -381q33 -129 93 -199.5t128 -70.5q54 0 105 47.5t88 140.5q76 188 116 430 q-2 -110 -3 -237.5t-1.5 -199.5t-2 -142.5t-3 -109.5t-4.5 -58q-7 2 -42.5 18.5t-82 32.5t-94.5 25q-62 12 -113 12q-124 0 -190 -59.5t-66 -147.5zM23 -119q0 66 55.5 111t161.5 45q48 0 112 -12q40 -8 78.5 -22t73.5 -30.5t43 -19.5q-28 -137 -94.5 -210t-161.5 -73 q-119 0 -193.5 65t-74.5 146z" />
<glyph unicode="Z" horiz-adv-x="880" d="M-100 -127q0 -63 37 -121q36 -59 110 -100q71 -41 178 -41q73 0 152 31q74 29 158 133q81 100 96 250q143 6 231 172q35 66 53 141l9 41q0 18 -19 18q-14 0 -20 -20q-34 -162 -121 -252q-53 -56 -129 -59v22q0 90 -27 154q-24 57 -69 112q-45 52 -84 88q-47 44 -74 80 q-31 42 -31 88q0 22 6 43q69 130 183 265q86 106 112 155q0 16 -26 33q-41 23 -60 31q-35 12 -55 12q-15 0 -21 -6q-119 -29 -178 -29q-82 0 -82 70q0 16 11 65q0 12 -21 21q-15 6 -49 14q-40 4 -57 4q-53 0 -56 -16q-8 -36 -8 -74q0 -131 162 -131q106 0 260 37 q-46 -89 -133 -201q-46 -61 -102 -145q-46 -70 -46 -135q3 -87 46 -136q34 -39 92 -77q33 -18 82 -60q37 -34 61 -90q25 -61 25 -154v-12q-142 53 -254 53q-165 -3 -252 -90q-90 -90 -90 -184zM-45 -119q0 78 80 152q80 71 215 71q130 0 244 -51q-3 -167 -88 -274 q-89 -109 -183 -109q-125 0 -196 68q-72 69 -72 143z" />
<glyph unicode="[" horiz-adv-x="1638" d="M0 362q0 -18 24.5 -45.5t41.5 -27.5l6 2q96 71 278 71q108 0 341.5 -40.5t400.5 -40.5q334 0 575 92q6 9 6 16q0 16 -16 19q-201 -84 -496 -84q-120 0 -250 18.5t-223.5 40.5t-207.5 40.5t-204 18.5q-178 0 -272 -71q-4 -4 -4 -9z" />
<glyph unicode="\" horiz-adv-x="868" d="M-188 1202l4 -10q73 -110 478.5 -689t491.5 -706q18 -30 45 -30q12 0 19.5 9.5t7.5 24.5q0 21 -14 43q-127 192 -484 721.5t-464 681.5q-5 8 -19 8q-19 0 -42 -18t-23 -35z" />
<glyph unicode="]" horiz-adv-x="1482" d="M-4 336l33 -14q25 101 68 141.5t126 40.5q37 0 93.5 -8.5t104 -18.5t148 -32t164.5 -35q243 -52 434 -52q97 0 175 14t102.5 23.5t34.5 16.5q4 2 4 14q0 24 -18 59t-33 35l-5 -2q-5 -5 -13 -11.5t-40 -24.5t-70 -31t-104.5 -24t-142.5 -11q-145 0 -314 37 q-53 11 -137.5 29.5t-127 27.5t-98.5 19.5t-95 15t-72 4.5q-96 0 -145 -47.5t-72 -165.5z" />
<glyph unicode="^" horiz-adv-x="585" d="M0 686q0 -7 6 -12.5t12 -5.5q9 0 15 6q30 40 59 86t64 104t41 68q43 -55 105 -144.5t95 -130.5q2 -4 11 -4q19 0 47 22.5t28 39.5q0 6 -2 8q-96 127 -127.5 174.5t-72.5 103.5q-16 19 -35 19q-34 0 -56 -33v2q-10 -14 -75.5 -121.5t-110.5 -169.5z" />
<glyph unicode="_" horiz-adv-x="616" d="M0 -74q0 -18 18 -18h5l7 1q8 1 21.5 2.5t31 3.5t41 4t48.5 3.5t55.5 2.5t59.5 1q120 0 213 -16h4q7 0 12.5 6t5.5 12q0 16 -16 19q-95 18 -221 18q-65 0 -131 -5t-99.5 -9t-38.5 -6q-16 -3 -16 -19z" />
<glyph unicode="a" horiz-adv-x="913" d="M-4 313q0 -128 79.5 -220.5t180.5 -92.5q69 0 128 49.5t97 151.5q9 -110 56.5 -172t115.5 -62q85 0 169.5 104t133.5 304l2 8q0 7 -5.5 11.5t-12.5 4.5q-17 0 -20 -18q-16 -73 -50.5 -141t-73 -112.5t-75 -71.5t-59.5 -27q-21 0 -27 20q-23 73 -23 207q0 197 31 360v2 q0 13 -34 23t-68 10q-42 0 -45 -14l-13 -96q-33 54 -85.5 82t-112.5 28q-103 0 -185 -75.5t-100 -213.5zM141 301l4 55q16 115 67 173.5t114 58.5q54 0 96.5 -42t54.5 -112q-7 -182 -60.5 -273t-123.5 -91q-61 0 -106.5 64.5t-45.5 166.5z" />
<glyph unicode="b" horiz-adv-x="890" d="M-2 518q0 -294 37 -485q4 -19 24 -30t43 -11q22 0 36 9.5t14 27.5l-5 53q8 103 50 223.5t97 202.5t97 84h2q48 0 71 -88.5t23 -222.5t-18 -242q-65 -3 -97 -4.5t-69 -7.5t-59 -15q-32 -15 -52 -46t-20 -68t22.5 -68t69.5 -47q21 -8 51 -8q81 0 163.5 64t121.5 165 q89 18 157 70t105.5 123.5t49.5 103t21 66.5l1 2q4 8 4 14q0 16 -20 16q-15 0 -21 -12q-1 -6 -4 -15.5t-13.5 -39t-23.5 -57.5t-37 -64t-51.5 -64.5t-67.5 -54.5t-86 -39q23 112 23 223q0 76 -11.5 141t-35.5 119.5t-67 85.5t-101 31l-31 -2q-48 -7 -101.5 -77t-92.5 -157 t-62 -171q-8 188 -8 313q0 141 4 213q140 93 225.5 263.5t85.5 326.5q0 158 -92 215v2l-20 10h-4q-15 6 -35 6q-27 0 -51 -12q-78 -38 -134.5 -209.5t-82 -393.5t-25.5 -462zM133 821q26 546 146 695q10 12 28 12q5 0 13 -2t12 -2q57 -42 57 -164q0 -135 -69.5 -292 t-186.5 -247zM221 -94q0 27 20 48t60 28q28 5 158 12q-23 -78 -66 -125t-88 -47h-2q-34 1 -58 26.5t-24 57.5z" />
<glyph unicode="c" horiz-adv-x="661" d="M-2 311q0 -137 85.5 -238.5t209.5 -101.5h10q142 0 250 108t152 296l2 8q0 7 -6 11.5t-13 4.5q-17 0 -20 -18q-34 -165 -124 -249.5t-192 -84.5q-54 0 -106 27q-43 28 -73 92t-30 143l4 47q16 114 66 174t109 60q50 0 85 -43t35 -115q0 -18 17 -18q10 0 18 7.5t8 18.5 q0 99 -57.5 155t-140.5 56q-101 0 -184 -75.5t-101 -213.5z" />
<glyph unicode="d" horiz-adv-x="964" d="M-2 315q0 -129 81 -222t183 -93q74 0 137 56t101 173q6 -51 10.5 -83t14.5 -94t23 -103t30.5 -85t42 -66.5t53.5 -22.5q21 0 37 8q46 22 86.5 68t69.5 99t57 131.5t45.5 141t40.5 152.5v6q0 18 -17 18t-20 -18q-37 -167 -114 -333t-146 -185h-4q-42 0 -68.5 199.5 t-26.5 476.5q0 115 2 172q138 119 205.5 284.5t67.5 323.5q0 120 -35.5 197t-93.5 77q-18 0 -41 -10q-72 -34 -127 -178t-81 -330t-26 -379l4 -123h-2v-18q-70 98 -194 98q-104 0 -188.5 -76.5t-102.5 -214.5zM143 305l4 51q16 115 69 174.5t118 59.5q54 0 97 -40t56 -108 q0 -44 2 -67v-2q-23 -154 -75.5 -229.5t-114.5 -75.5t-109 68.5t-47 168.5zM618 768q11 255 47.5 460t92.5 288q5 8 12 8q20 0 37.5 -64t17.5 -155q0 -137 -48.5 -280.5t-158.5 -256.5z" />
<glyph unicode="e" horiz-adv-x="661" d="M-2 311q0 -137 85.5 -238.5t209.5 -101.5h10q142 0 250 108t152 296l2 8q0 7 -6 11.5t-13 4.5q-17 0 -20 -18q-35 -162 -123 -249t-187 -87q-80 0 -139.5 59t-71.5 162q58 10 119.5 39.5t108.5 69.5q90 76 90 145q0 57 -53.5 94t-128.5 37q-100 0 -181 -71.5t-100 -217.5 zM145 305v4q0 131 54.5 211t115.5 80q40 0 58 -35q12 -18 12 -49q0 -62 -57 -120.5t-183 -90.5z" />
<glyph unicode="f" horiz-adv-x="589" d="M-2 211q0 -62 4 -172v-53q0 -120 14 -225t42.5 -191t78 -136t113.5 -50q54 0 101.5 82.5t47.5 191.5q0 70 -21 135t-76 132.5t-140 117.5q89 4 176 41t147.5 89t100.5 107t49 99v4q0 8 -6 13t-13 5q-15 0 -18 -14q-30 -108 -158.5 -193.5t-310.5 -89.5l-2 136q0 75 4 231 q137 94 220 263t83 321q0 156 -86 213l2 4q-27 18 -59 18q-27 0 -51 -12q-78 -39 -134.5 -211t-82 -394t-25.5 -462zM131 -8q97 -54 140.5 -149t43.5 -201q0 -77 -19.5 -132t-45.5 -55q-9 0 -17 8q-77 79 -102 529zM133 522q11 242 47.5 426.5t98.5 259.5q13 15 30 15h8 q64 -40 64 -170q0 -133 -67 -286t-181 -245z" />
<glyph unicode="g" horiz-adv-x="903" d="M-96 -610q0 -118 59.5 -209.5t167.5 -116.5q41 -10 90 -10q97 0 174.5 52t125.5 139.5t73.5 196t26.5 228.5v58q75 80 135.5 174.5t98 184.5t59.5 158.5t36 133.5v4q0 18 -20 18q-16 0 -19 -14q-17 -83 -44.5 -166.5t-92.5 -201.5t-153 -214q0 681 24 811v2q0 13 -34 23 t-68 10q-42 0 -45 -14q-19 -122 -19 -295q-25 -139 -74 -205.5t-108 -66.5q-62 0 -109 67.5t-47 167.5l4 51q14 112 62 171t104 59q48 0 82.5 -42.5t34.5 -111.5q3 -18 21 -18q8 0 15 7.5t7 18.5q0 99 -57 155t-138 56q-97 0 -177.5 -75.5t-98.5 -213.5l-4 -47 q0 -129 81 -222t183 -93q67 0 125.5 46.5t97.5 143.5l6 -507q-88 -71 -178 -119v8q0 75 -36 129.5t-97 54.5q-55 0 -115 -43q-77 -55 -118 -142t-41 -181zM-47 -598q0 80 35 153t102 119q30 21 53 21q34 0 54 -35t20 -90q0 -15 -4 -51q-72 -39 -72 -90q0 -20 12.5 -33.5 t32.5 -13.5q12 0 27 6q57 25 84 94q93 47 190 123q-5 -98 -24.5 -183.5t-53 -153.5t-85.5 -107.5t-117 -39.5q-12 0 -57 9q-94 22 -145.5 98.5t-51.5 173.5z" />
<glyph unicode="h" horiz-adv-x="851" d="M-2 516q0 -295 37 -483q4 -19 24 -30t43 -11q22 0 36 9.5t14 27.5v6q9 88 44 217t89.5 239.5t103.5 110.5h2q13 -1 21 -18t11.5 -59t4 -74.5t0.5 -100.5l-2 -133q0 -67 2.5 -122t12 -117.5t25.5 -105t44.5 -71t67.5 -28.5l16 2q24 4 47.5 17t44.5 38.5t39 49.5t36 65 t30.5 68t28 76.5t23 72t20 73t15.5 61.5t13 54q1 6 2 9t2 8t2 8l2 8q0 7 -5.5 11.5t-12.5 4.5q-18 0 -21 -18q-31 -144 -89 -290t-114 -206q-30 -35 -51 -35q-29 0 -35 78l-5 113l3 129q0 66 -1.5 114t-6.5 108t-16 102t-28.5 79.5t-45 56.5t-63.5 19h-9q-47 -2 -90 -47 t-75 -119.5t-54.5 -149.5t-40.5 -161q-14 182 -14 373q0 113 6 227q139 94 224 265t85 325q0 157 -90 215v2q-34 18 -63 18q-71 0 -128.5 -97.5t-91.5 -257t-51.5 -346t-17.5 -380.5zM133 823q3 75 13 175t29.5 229.5t55.5 216t82 86.5l17 -4q57 -42 57 -166 q0 -135 -69 -290.5t-185 -246.5z" />
<glyph unicode="i" horiz-adv-x="417" d="M0 317q0 -71 7.5 -130t23.5 -110.5t46.5 -80.5t72.5 -29h16q59 7 124.5 82.5t109.5 164t63 161.5v6q0 18 -19 18q-17 0 -20 -18q-16 -74 -50.5 -142.5t-72 -112.5t-72 -70.5t-53.5 -26.5q-14 0 -20 18q-21 64 -21 168q0 153 35 346v2q0 13 -34.5 23t-69.5 10 q-43 0 -46 -14q-20 -140 -20 -265zM41 735q0 -33 20.5 -51t49.5 -18t49 18t20 51t-20.5 51.5t-48.5 18.5q-29 0 -49.5 -18.5t-20.5 -51.5z" />
<glyph unicode="j" horiz-adv-x="407" d="M-573 -610q0 -118 59.5 -209.5t167.5 -116.5q41 -10 90 -10q97 0 174.5 52t125.5 139.5t73 196t26 228.5v56q230 243 312 653v4q0 14 -15 18h-4q-13 0 -20 -14q-14 -70 -28.5 -123.5t-44.5 -138t-81 -167.5t-119 -157q0 624 25 760v2q0 13 -35 23t-70 10q-40 0 -43 -14 q-20 -122 -20 -338q0 -98 5.5 -289.5t6.5 -273.5q-88 -71 -178 -119v8q0 76 -36 131t-99 55q-53 0 -113 -43q-77 -55 -118 -142t-41 -181zM-524 -598q0 80 35 153t102 119q30 21 53 21q34 0 54 -35t20 -90q0 -15 -4 -51q-72 -39 -72 -90q0 -20 12.5 -33.5t32.5 -13.5 q12 0 27 6q60 26 82 92q99 49 192 123q-5 -97 -25 -182t-53.5 -153t-85.5 -107.5t-116 -39.5q-13 0 -58 9q-94 22 -145 98.5t-51 173.5zM39 735q0 -33 21 -51t51 -18q29 0 49 18t20 51t-20.5 51.5t-48.5 18.5q-30 0 -51 -18.5t-21 -51.5z" />
<glyph unicode="k" horiz-adv-x="841" d="M-2 520q0 -305 37 -487q3 -19 22.5 -30t44.5 -11q45 0 48 31h2l2 22q3 22 9 60.5t15.5 82.5t28.5 95t43 92q16 -16 29 -44.5t22 -65.5t14 -65t10.5 -66t6.5 -46q27 -154 79 -235.5t117 -81.5q63 0 128 73t122 215q78 193 109 316v6q0 18 -17 18q-16 0 -22 -18 q-13 -72 -107 -313q-44 -103 -90.5 -169.5t-85.5 -66.5q-36 0 -59 62q-28 76 -47.5 163.5t-28.5 136t-34.5 96.5t-71.5 77q128 3 198 51.5t70 109.5q0 38 -30.5 64t-84.5 26q-70 -1 -142.5 -69.5t-125 -173.5t-70.5 -215q-14 194 -14 403l4 209q140 94 225.5 265t85.5 325 q0 157 -90 215v2q-33 20 -65 20q-72 0 -129 -98t-90.5 -257.5t-50.5 -345t-17 -378.5zM131 821q4 82 14 178t30 227.5t55.5 216.5t80.5 85l19 -4q57 -42 57 -164q0 -135 -69.5 -292t-186.5 -247zM262 395q101 164 172 164q20 0 30.5 -13t10.5 -34q0 -31 -26.5 -63t-77.5 -48 q-40 -10 -76 -10q-25 0 -33 4z" />
<glyph unicode="l" horiz-adv-x="495" d="M-12 662q0 -234 32 -394q25 -133 79 -221t128 -88q52 0 109 45q64 53 117 153t86 216l2 8q0 18 -19 18q-14 0 -20 -18q-39 -128 -93.5 -209t-107.5 -106q-26 -11 -39 -11q-18 0 -33 8.5t-26.5 29t-19.5 38t-16 52t-11.5 53.5t-10.5 59q-30 175 -30 422q159 141 234 303.5 t75 310.5q0 116 -42.5 190t-107.5 74q-24 0 -51 -12q-72 -34 -127 -180t-81.5 -340t-26.5 -401zM115 766q2 253 41 458t106 292q15 18 31 18q31 0 55.5 -56t24.5 -141q0 -124 -61 -273t-197 -298z" />
<glyph unicode="m" horiz-adv-x="1259" d="M0 393q0 -102 4 -340q1 -31 21.5 -48t48.5 -17q23 0 42.5 12.5t26.5 34.5l13 106q18 132 51 259t77.5 218t86.5 91h2q23 -1 30 -51.5t7 -149.5v-98q0 -217 28 -304q13 -42 43 -70t66 -36h6q17 0 20 18q6 110 42 245.5t91.5 237t106.5 101.5h2q23 -1 30 -54t7 -159v-133 q0 -57 1 -99t4.5 -95.5t9.5 -91.5t17 -77.5t26.5 -64t38.5 -40t52 -15.5l17 2q37 6 70 34t59 75t47 97t39 113.5t29.5 109t24 100t16.5 71.5v6q0 18 -17 18t-20 -18q-88 -391 -183 -496q-35 -35 -51 -35q-31 0 -37 78q-2 29 -2 95l2 229q0 87 -6 150t-22.5 124t-51 93 t-86.5 32h-6q-83 -4 -156.5 -131.5t-113.5 -329.5q-2 35 -2.5 96t-1.5 108.5t-5 105.5t-14 100t-27.5 79.5t-47 57t-70.5 19.5h-4q-143 -5 -231 -404q4 225 6 266q0 13 -35.5 23t-71.5 10q-43 0 -43 -14q-6 -105 -6 -244z" />
<glyph unicode="n" horiz-adv-x="845" d="M2 393q0 -102 4 -340q1 -31 21.5 -48t48.5 -17q23 0 42.5 12.5t26.5 34.5v2q0 6 9.5 70.5t30.5 167t49 199t72 166t93 69.5q24 0 31.5 -62t7.5 -186v-217q0 -78 2.5 -136t11 -125t24 -109.5t44 -71.5t68.5 -29l16 2q42 6 81 46.5t65 90.5t52 127t39 127.5t30 123t20 85.5 v6q0 18 -17 18q-16 0 -22 -18q-34 -160 -82 -299t-102 -197q-32 -35 -52 -35q-23 0 -30.5 40t-7.5 118q0 37 2 117.5t2 118.5v71q0 96 -6 166t-23.5 137t-53.5 102.5t-91 35.5q-44 0 -83.5 -35t-71 -98t-56.5 -141t-45 -173q4 269 6 309q0 13 -35.5 23t-71.5 10 q-43 0 -43 -14q-6 -105 -6 -244z" />
<glyph unicode="o" horiz-adv-x="737" d="M0 326q0 -153 74 -254q75 -101 180 -101q66 0 122.5 45t90.5 134h10q103 0 183.5 57t119.5 168l2 6q0 9 -6 14.5t-14 5.5q-13 0 -19 -14q-21 -58 -53 -99.5t-69.5 -62t-71.5 -29t-70 -8.5q21 74 21 152q0 104 -37 188t-107 119q-40 19 -75 19q-91 0 -162 -95 q-42 25 -47 25q-4 0 -4 -2q-30 -46 -49 -118t-19 -150zM133 291l2 43q40 -69 121 -118.5t168 -61.5q-24 -49 -61.5 -76t-77.5 -27q-63 0 -107.5 62t-44.5 178zM162 465v6q6 23 16 47v2q0 2 -6 8q26 42 62 66t73 24q63 0 108.5 -66.5t49.5 -195.5q0 -96 -25 -166 q-117 13 -197.5 98t-80.5 177z" />
<glyph unicode="p" horiz-adv-x="903" d="M-178 -930q0 -20 20 -20q47 0 86.5 24.5t68.5 70.5t52 103.5t38 133t26 148.5t17 160t9 158t4 152v102q13 101 59 216.5t101.5 193.5t95.5 80h2q49 0 73 -89.5t24 -223.5q0 -126 -19 -240q-66 -2 -98 -4t-68.5 -7.5t-58.5 -15.5q-32 -15 -52 -47t-20 -67q0 -37 22.5 -68 t69.5 -47q21 -8 52 -8q81 0 163 64t119 165q56 10 104.5 35t81 52t60.5 67.5t42 66t27.5 65t15.5 47.5t6 29l1 3q4 8 4 12q0 11 -10 16l-8 2q-17 0 -23 -12q-1 -6 -3 -15.5t-11 -39t-21.5 -57.5t-35.5 -64t-51.5 -64.5t-71 -54.5t-92.5 -39q24 105 24 228q0 75 -11.5 139 t-36 117.5t-68 84.5t-101.5 31l-31 -2q-43 -6 -93.5 -63.5t-91 -133.5t-69.5 -157q4 266 9 321q0 13 -35.5 23t-71.5 10q-43 0 -43 -14q-6 -102 -6 -240q0 -132 4 -426l2 -164q0 -124 -4 -222.5t-14.5 -194.5t-28.5 -160t-47.5 -103.5t-69.5 -39.5q-18 0 -18 -17zM229 -94 q0 27 20 48t60 28q29 5 160 12q-23 -78 -67 -125t-89 -47h-2q-34 1 -58 26.5t-24 57.5z" />
<glyph unicode="q" horiz-adv-x="968" d="M-2 295q0 -146 76.5 -234t181.5 -88q78 0 149 54.5t115 160.5v-63q0 -72 -6 -258t-6 -283q0 -116 8 -204.5t28.5 -167t61 -120.5t99.5 -42q70 0 128 114.5t58 262.5q0 115 -43 221.5t-135 185.5q32 18 60 40.5t50 45t42.5 54t35 56t29.5 63.5t24.5 65t22 71t19 71 t18.5 75v6q0 18 -17 18q-19 0 -22 -18q-39 -191 -126.5 -330.5t-195.5 -171.5q1 36 2.5 167.5t3.5 220.5t8 194t15 155v2q0 13 -34 23t-68 10q-42 0 -45 -14q-19 -122 -19 -303q-28 -147 -88.5 -225t-126.5 -78q-65 0 -109.5 70t-44.5 194q0 27 3 61q10 114 55 172t102 58 q50 0 85.5 -42.5t35.5 -111.5q3 -18 18 -18q10 0 17.5 7.5t7.5 18.5q0 99 -57 155t-138 56q-96 0 -176 -75.5t-98 -213.5q-4 -46 -4 -67zM635 -559q0 67 3.5 145t7.5 144.5t5 85.5q87 -59 126.5 -160t39.5 -217q0 -122 -35 -221t-73 -99q-10 0 -21 11q-53 56 -53 311z" />
<glyph unicode="r" horiz-adv-x="606" d="M-70 625q0 -51 22.5 -75t78.5 -30q-5 -60 -25 -137v-8q0 -10 5.5 -16.5t13.5 -6.5q11 0 18 17q19 73 29 149q56 0 118 10q-14 -103 -14 -254q0 -94 7.5 -176.5t24.5 -158.5t50 -120t78 -44l16 2v-2q29 4 56 22.5t50.5 49.5t43 65t37.5 81t31.5 84.5t27 88.5t21 81 t17.5 73.5t13 54.5l2 8q0 7 -5.5 11.5t-12.5 4.5q-18 0 -21 -18q-18 -108 -53.5 -212t-73.5 -173t-72.5 -111.5t-54.5 -42.5q-11 0 -14 15l-2 9q-1 9 -4 26t-6.5 39.5t-6.5 53t-6 64t-4.5 74.5t-1.5 82q0 176 29 321v2q0 16 -35.5 24.5t-70.5 8.5h-15q-31 -4 -76 -4 q-40 0 -54.5 10.5t-14.5 38.5q0 30 12 88v2q0 13 -34 23t-70 10q-42 0 -45 -14q-9 -53 -9 -90z" />
<glyph unicode="s" horiz-adv-x="540" d="M-43 2q0 -46 34 -83.5t93 -49.5q10 -2 31 -2q46 0 92 20.5t80.5 67t34.5 108.5q0 27 -9 62q116 30 188 98.5t83 149.5v4q0 10 -6 16t-13 6q-17 0 -20 -20q-3 -11 -6 -21t-20.5 -41.5t-41 -56.5t-70 -53.5t-104.5 -44.5q-26 71 -80 141q-123 172 -123 256q0 35 19.5 51.5 t46.5 16.5q36 0 53 -17q6 -6 14 -6q14 0 28.5 18.5t14.5 34.5q0 7 -4 11q-30 24 -77 24q-76 0 -143.5 -59.5t-67.5 -147.5q0 -96 88 -202q15 -21 35.5 -46t35.5 -46t29 -46h-4q-102 0 -156.5 -42t-54.5 -101zM2 -6q0 44 42.5 77t119.5 33h29q18 -43 18 -79q0 -52 -33 -82.5 t-76 -30.5l-22 2q-38 7 -58 29.5t-20 50.5z" />
<glyph unicode="t" horiz-adv-x="497" d="M-133 743q0 -18 16 -18h125q-1 -65 -3.5 -177.5t-2.5 -168.5q0 -604 215 -604h16q29 0 58 20.5t52 50.5t47 78.5t40.5 90.5t36 101.5t30 96.5t25 90.5t19.5 69.5l2 8q0 18 -19 18q-14 0 -20 -18q-73 -254 -143.5 -394.5t-127.5 -140.5q-29 0 -53 37q-45 87 -45 424 q0 70 3.5 209t4.5 209h119q17 0 17 18q0 17 -17 17h-119q1 25 2.5 145t3 226t3.5 122q0 14 -32.5 25.5t-64.5 11.5q-36 0 -39 -14q-2 -30 -4.5 -263.5t-3.5 -252.5h-125q-7 0 -11.5 -5.5t-4.5 -11.5z" />
<glyph unicode="u" horiz-adv-x="849" d="M0 350q0 -164 27 -246q18 -51 56.5 -80.5t92.5 -29.5q78 0 142 97t110 261v-39q0 -540 154 -540q23 0 55 16q38 20 72.5 65.5t57.5 94t47 120.5t35.5 116.5t27 111.5t18.5 78v6q0 18 -16 18q-17 0 -23 -18q-24 -112 -43.5 -185.5t-57 -167t-81.5 -141.5q-34 -39 -60 -39 q-51 0 -51 207l2 109q1 133 11 269.5t20 182.5v2q0 13 -34 23t-68 10q-42 0 -45 -14q-10 -59 -22 -118t-37 -149t-51.5 -156t-64.5 -114.5t-79 -48.5q-58 0 -58 203q0 179 31 362v2q0 13 -34 23t-68 10q-43 0 -46 -14q-20 -140 -20 -287z" />
<glyph unicode="v" horiz-adv-x="718" d="M-39 623q11 -120 57.5 -310.5t98.5 -271.5q47 -74 127 -74h6q93 10 174 252q5 12 22 70q55 -115 136 -115q61 0 114.5 62.5t69.5 140.5v4q0 18 -21 18q-15 0 -18 -14q-16 -67 -58.5 -116.5t-90.5 -49.5q-33 0 -64 31t-53 96q55 207 55 311q0 52 -14 66q-15 18 -35 18 q-32 0 -53 -65.5t-21 -155.5q0 -96 27 -176q-26 -107 -68.5 -199t-81.5 -92q-23 0 -41 37q-46 99 -78 271t-42 280q0 14 -43 14q-36 0 -70.5 -9.5t-34.5 -22.5zM434 524q0 99 21 154q12 27 16 27q8 0 8 -31q0 -74 -39 -246q-6 46 -6 96z" />
<glyph unicode="w" horiz-adv-x="1069" d="M0 350q0 -164 27 -246q18 -51 56.5 -80.5t92.5 -29.5q71 0 127 123.5t96 328.5q24 -238 74.5 -359.5t114.5 -121.5q55 0 109 84t98 240q57 -115 135 -115q61 0 114.5 62.5t69.5 140.5v4q0 18 -20 18q-16 0 -19 -14q-16 -67 -58.5 -116.5t-90.5 -49.5q-33 0 -64 31t-53 96 q55 207 55 311q0 52 -14 66q-15 18 -35 18q-32 0 -53 -65.5t-21 -155.5q0 -96 27 -176q-36 -143 -74.5 -212t-70.5 -69q-26 0 -39 43q-47 152 -47 474v59q0 20 -68 20q-32 0 -57 -6.5t-25 -17.5q0 -43 -14.5 -135.5t-38.5 -194.5t-62 -178t-77 -76q-58 0 -58 203 q0 179 31 362v2q0 13 -34 23t-68 10q-43 0 -46 -14q-20 -140 -20 -287zM782 524q0 99 21 154q12 27 16 27q8 0 8 -31q0 -74 -39 -246q-6 46 -6 96z" />
<glyph unicode="x" horiz-adv-x="542" d="M-70 -4q0 -6 6 -11t13 -5t14 10q52 98 113 196q19 -48 34.5 -80t39.5 -68t55 -54.5t67 -18.5l31 4q49 14 113.5 92.5t111 167t60.5 146.5l2 8q0 7 -5.5 11.5t-11.5 4.5q-16 0 -22 -18q-38 -120 -109.5 -216t-126.5 -102h-6q-22 0 -35 15t-28 47q-33 61 -78 209 q33 61 80.5 137.5t77.5 122t32 47.5q2 4 2 10t-5 11.5t-11 5.5q-8 0 -14 -9q-102 -147 -176 -278q-18 64 -62 264q-3 10 -26 10q-32 0 -75.5 -16.5t-43.5 -30.5v-2q59 -238 112 -379q-30 -48 -61.5 -103t-48.5 -87t-17 -33z" />
<glyph unicode="y" horiz-adv-x="839" d="M-147 -610q0 -118 59.5 -209.5t167.5 -116.5q41 -10 90 -10q97 0 174.5 52t125.5 139.5t73 196t26 228.5v68q232 255 316 641v4q0 6 -5.5 11t-11.5 7h-4q-14 0 -18 -14q-68 -336 -277 -571v143q0 524 23 657v2q0 13 -34 23t-69 10q-42 0 -45 -14q-7 -45 -12 -105 q-44 -223 -103 -347t-110 -124q-35 0 -56.5 62t-21.5 178q0 131 29 315v2q0 13 -34 23t-68 10q-42 0 -45 -14q-21 -147 -21 -287q0 -164 27 -246q15 -49 52 -80.5t83 -31.5q70 0 140 83.5t120 262.5q0 -112 6.5 -335t7.5 -312q-83 -71 -178 -121q0 75 -36 130.5t-97 55.5 q-55 0 -115 -43q-77 -55 -118 -142t-41 -181zM-98 -598q0 80 35 153t102 119q30 21 53 21q34 0 54 -35t20 -90q0 -15 -4 -51q-72 -39 -72 -90q0 -20 12.5 -33.5t32.5 -13.5q12 0 27 6q59 27 86 100q95 50 188 127q-5 -135 -35.5 -243t-94 -178.5t-150.5 -70.5q-23 0 -58 7 q-94 22 -145 98.5t-51 173.5z" />
<glyph unicode="z" horiz-adv-x="671" d="M-236 -610q0 -118 60 -209.5t168 -116.5q49 -12 94 -12q83 0 151 38.5t112.5 103t75 153.5t43.5 186.5t13 204.5q34 47 62.5 97.5t51.5 106t38.5 96.5t31 102t22 86.5t19 86t13.5 66.5v4q0 18 -21 18q-15 0 -18 -14q-2 -11 -15 -73.5t-20 -93t-25 -94.5t-36 -108.5 t-47 -103t-64 -107.5q-13 54 -37 98.5t-48 72.5t-46.5 55t-36.5 59t-14 72q0 116 129 352v4q0 15 -46.5 38.5t-74.5 23.5l-10 -2q-6 -1 -37 -8.5t-58 -12t-49 -4.5q-69 0 -69 49v4q0 13 1.5 23t5 25.5t5.5 27.5v2q0 13 -34 23t-68 10q-42 0 -45 -14q-11 -61 -11 -87 q0 -45 22.5 -68.5t80.5 -29.5q-9 -65 -27 -137v-8q0 -10 5.5 -16.5t13.5 -6.5q11 0 18 17q24 91 29 149q29 0 59.5 3t48 6.5t49 10.5t43.5 9q-86 -227 -86 -357q0 -59 17 -106.5t41.5 -81t49 -69t41.5 -90.5t17 -126v-24q-96 -78 -180 -123q0 75 -36 130.5t-97 55.5 q-55 0 -115 -43q-77 -55 -118.5 -142t-41.5 -181zM-186 -598q0 80 35 153t102 119q30 21 53 21q34 0 54 -35t20 -90q0 -15 -4 -51q-72 -39 -72 -90q0 -20 12.5 -33.5t32.5 -13.5q12 0 27 6q59 27 86 100q95 52 188 125q-5 -135 -35.5 -242.5t-94 -177.5t-150.5 -70 q-23 0 -58 7q-94 22 -145 98.5t-51 173.5z" />
<glyph unicode="{" horiz-adv-x="542" d="M102 504q0 -9 5 -14.5t9 -7.5l5 -1h6q11 0 20 -1.5t15.5 -6.5t11.5 -8t8 -12.5t5 -13t3 -16t1.5 -15t1 -17.5t0.5 -16q2 -61 6 -296t6 -286q3 -83 61 -135q50 -45 131 -45q5 0 9.5 0.5t7.5 0.5t5 0.5t3 0.5q16 4 16 16v4q-4 17 -16 17h-21q-70 0 -110 35q-31 26 -31 106 q2 54 5 295.5t5 308.5v9q0 55 -45 90q48 25 54 97v5q3 100 4.5 244t3 236t5.5 186t14 145t26 61q16 11 45 11q13 0 33 -4l12 -2q13 0 18 12l2 6q0 4 -4 7.5t-8 5.5l-4 1q-21 6 -43 6q-30 0 -68 -10q-42 -13 -71 -58t-43.5 -117.5t-20.5 -150.5t-6 -178q0 -80 4.5 -221 t5.5 -180q0 -69 -47 -74h-16q-19 -2 -19 -20z" />
<glyph unicode="|" horiz-adv-x="307" d="M102 328q0 -552 2 -654q1 -29 12.5 -45t26.5 -16t25 14.5t10 40.5q1 139 14 821.5t13 845.5v31q0 13 -14.5 21t-34.5 8q-19 0 -33 -7.5t-14 -19.5q-7 -284 -7 -1040z" />
<glyph unicode="}" horiz-adv-x="454" d="M14 -365q0 -6 3.5 -10t7.5 -5l4 -1q14 -4 45 -4q38 0 65 8q42 13 71 50.5t44 97.5t21 125.5t6 150.5q0 67 -5 192.5t-6 174.5q0 70 49 75l15 -2q18 5 18 23q0 9 -4.5 14t-9.5 6h-4h-6q-11 0 -20 1.5t-15.5 7t-11.5 8.5t-8 12.5t-5 13.5t-3 16.5t-1.5 15.5t-1 17.5 t-0.5 16.5q-2 63 -6 354t-6 340q-3 83 -62 135q-50 45 -131 45q-6 0 -11.5 -0.5t-8.5 -1t-4 -0.5q-7 0 -12 -6t-5 -14q4 -16 19 -16h22q70 0 107 -35q31 -26 31 -107q-2 -54 -5.5 -352t-5.5 -365v-8q0 -57 45 -92q-7 -4 -13.5 -8.5t-11.5 -9t-9 -11t-6.5 -11t-4.5 -12 t-3 -11t-2 -11.5t-1.5 -10t-1.5 -10v-8q-3 -99 -4.5 -232t-3 -208t-5.5 -152t-13 -115.5t-25 -48.5q-21 -12 -47 -12q-13 0 -33 4l-12 2q-15 0 -17 -10z" />
<glyph unicode="~" d="M0 696q0 -24 20 -24q21 0 27 22q10 27 29.5 45.5t41.5 26t35.5 10t22.5 2.5q32 0 62.5 -18.5t53 -41t60.5 -41t82 -18.5q61 0 108 51.5t60 96.5l2 12q0 25 -18 25q-22 0 -31 -29q-12 -32 -43 -51t-66 -19q-33 0 -65.5 19t-56.5 41.5t-62.5 41.5t-81.5 19 q-61 0 -114.5 -53.5t-63.5 -103.5z" />
<glyph unicode="&#xa1;" horiz-adv-x="358" d="M102 -1010v-20q0 -13 21 -21t49 -8q27 0 46.5 7t19.5 20l2 174q0 178 -15 977q0 27 -12 41t-27 14q-16 0 -27.5 -12.5t-11.5 -34.5q-2 -165 -23.5 -582.5t-21.5 -554.5zM111 328q0 -31 21 -52.5t50 -21.5q31 0 52.5 21.5t21.5 52.5q0 29 -21.5 50t-52.5 21q-29 0 -50 -21 t-21 -50z" />
<glyph unicode="&#xa2;" horiz-adv-x="661" d="M4 500q0 -82 27.5 -154t86 -123.5t138.5 -62.5v-103q1 -29 13 -46t28 -17q13 0 23 14.5t10 40.5l2 115q83 18 154 102.5t71 130.5q0 12 -6 15l-6 2q-11 0 -29.5 -26t-38 -57t-58 -58.5t-85.5 -30.5q2 85 18 530q42 -11 68 -51.5t26 -102.5q0 -18 17 -18q10 0 18 8t8 19 q0 80 -37.5 131t-97.5 69q2 68 2 187q0 26 -49 26q-47 0 -47 -26l-4 -178q-120 -18 -186 -114.5t-66 -221.5zM133 496q0 78 32.5 147.5t90.5 108.5q-2 -162 -2 -492q-59 32 -90 96t-31 140z" />
<glyph unicode="&#xa3;" horiz-adv-x="878" d="M-100 -102q0 -50 32.5 -88.5t85.5 -38.5l31 4q94 11 158 78q75 -90 174 -142.5t194 -52.5q120 0 195 84q6 6 6 12t-6.5 11.5t-13.5 5.5q-8 0 -15 -7q-53 -53 -125 -53q-86 0 -180.5 66t-171.5 162q48 102 55 591h87q10 0 15 6t5 13q0 18 -20 18h-84q0 347 16 432 q22 118 61.5 177t81.5 59q38 0 64.5 -42t27.5 -110q0 -18 21 -18q7 0 12.5 5t5.5 13q-2 31 -12 63.5t-30.5 66.5t-59.5 55.5t-90 21.5q-172 0 -223 -278q-13 -75 -21 -445h-94q-19 0 -19 -18q0 -7 5.5 -13t13.5 -6h94q0 -5 -1.5 -148t-4.5 -237t-8 -133q-56 21 -105 21 q-29 0 -57 -8q-49 -14 -74.5 -49.5t-25.5 -77.5zM-63 -104q0 31 18.5 56.5t54.5 35.5l17 2q56 0 116 -60q-18 -58 -49.5 -88t-83.5 -30q-2 0 -2 -2q-33 4 -52 29t-19 57z" />
<glyph unicode="&#xa4;" horiz-adv-x="598" d="M-8 123q0 -7 6 -13t12 -6q8 0 15 7l49 53q65 -72 166 -72h8q101 3 164 86l51 -57q6 -6 14 -6t13.5 5.5t5.5 14.5q0 8 -4 12l-60 64q39 71 39 166q0 113 -53 180l49 55q6 6 6 13q0 9 -6 14.5t-14 5.5q-7 0 -13 -6l-49 -53q-44 38 -100 43l-39 2q-91 0 -150 -43l-53 57 q-6 6 -14 6t-13.5 -5.5t-5.5 -12.5q0 -8 4 -12l54 -58q-74 -77 -74 -194q0 -103 51 -174l-53 -60q-6 -6 -6 -12zM139 336q0 63 18 123.5t53 101.5t77 41q63 0 101.5 -64t41.5 -147v-4q0 -115 -46.5 -174t-111.5 -59q-42 0 -77 24q-56 45 -56 158z" />
<glyph unicode="&#xa5;" horiz-adv-x="854" d="M-2 -186q0 -18 16 -29q86 -57 211 -57q92 0 179 43.5t147 136.5q63 104 78 227h104q10 0 15.5 6.5t5.5 14.5q0 7 -5.5 12.5t-15.5 5.5h-102l4 55h98q10 0 15.5 6t5.5 13q0 18 -21 18h-98q2 41 2 129q10 379 10 819q-3 27 -69 27q-27 0 -47.5 -7t-20.5 -20 q-3 -172 -32.5 -369.5t-82.5 -357.5q-43 -127 -88 -127q-62 0 -94 240q-16 125 -16 281l2 229q0 13 -21 21t-49 8q-26 0 -46 -7.5t-20 -19.5q-4 -164 -4 -219q0 -196 31 -344q27 -130 80.5 -203.5t112.5 -73.5q48 0 89 49t66 146q39 143 64 289q-2 -62 -3 -121.5t-1.5 -127 t-1.5 -106.5q0 -86 -2 -135h-111q-18 0 -18 -18q0 -7 5 -13t13 -6h111l-5 -55h-106q-8 0 -13 -5.5t-5 -12.5q0 -21 18 -21h104q-15 -109 -38 -168q-35 -88 -93.5 -134t-134.5 -46q-103 0 -174 49q-11 8 -20 8q-12 0 -20.5 -9t-8.5 -21z" />
<glyph unicode="&#xa7;" horiz-adv-x="761" d="M10 627q0 -93 35 -170q24 -55 64.5 -100.5t82.5 -73t87.5 -58.5t81.5 -58.5t60.5 -71t27.5 -97.5v-23q0 -93 -49.5 -149.5t-116.5 -56.5q-99 0 -152 108q-18 41 -18 76q0 50 43 96q4 4 4 12q0 7 -7 14t-14 7q-6 0 -12 -6q-53 -59 -53 -123q0 -40 22 -92q29 -66 87 -99.5 t128 -33.5q110 0 196.5 71.5t86.5 184.5v18q-5 104 -82 184q82 72 82 181v18q-4 64 -31 115.5t-66 85t-87.5 68.5t-92.5 65t-84 76t-59 100q-18 55 -18 109q0 91 46 176t113.5 134.5t130.5 49.5q38 0 68 -18q40 -26 63 -76t23 -111q0 -137 -104 -244q-7 -7 -7 -14t6.5 -13.5 t14.5 -6.5t14 6q135 138 135 282q0 68 -30 126.5t-82 95.5q-76 57 -168 57q-94 0 -180 -61.5t-137.5 -163.5t-51.5 -213q0 -102 43 -187q-43 -97 -43 -196zM154 621q0 23 8 69q16 -13 58.5 -39.5t78.5 -52t74 -60.5t60 -79.5t22 -93.5q0 -51 -27 -109q-12 9 -56.5 40 t-63.5 46t-50.5 44t-51 59.5t-32.5 66.5q-20 53 -20 109z" />
<glyph unicode="&#xa9;" horiz-adv-x="970" d="M10 332q0 -76 16.5 -147t53 -135t88 -112t127.5 -76t166 -28q81 0 151.5 22t113.5 51t76.5 63.5t46 53.5t15.5 27q2 2 2 8q0 14 -8 17l-10 2q-14 0 -17 -10q0 -2 -12.5 -21t-42.5 -49t-70.5 -58t-105.5 -48.5t-139 -20.5q-103 0 -184.5 39.5t-130 105.5t-74 147 t-25.5 169q0 80 26 153t76.5 132.5t134 95t189.5 35.5q275 0 320 -273q8 -39 8 -86q0 -149 -86.5 -245.5t-194.5 -96.5q-13 0 -41 4q-24 5 -57 23q-42 25 -71 89t-29 140q0 17 4 53q14 114 63.5 174t108.5 60q50 0 85 -43t35 -115q0 -18 19 -18q8 0 16.5 7.5t8.5 18.5 q0 99 -58 155t-141 56q-101 0 -184 -75.5t-101 -213.5l-4 -51q0 -139 85.5 -239.5t209.5 -100.5h10q81 0 151 38.5t115.5 101t71 140.5t25.5 159q0 74 -22 140.5t-65.5 119.5t-116 84.5t-165.5 31.5q-115 0 -206 -39t-146 -104t-83 -144.5t-28 -166.5z" />
<glyph unicode="&#xaa;" horiz-adv-x="583" d="M102 1040q0 -67 42 -115t96 -48q75 0 116 104q6 -57 31 -90t59 -33q45 0 89.5 54.5t70.5 160.5v4q0 8 -8 8q-10 0 -12 -10q-17 -73 -62 -128.5t-73 -55.5q-12 0 -15 10q-10 34 -10 107q0 104 16 192q0 7 -18 12t-37 5q-22 0 -22 -7l-7 -51q-37 58 -104 58 q-55 0 -98 -39.5t-52 -110.5zM178 1034l2 29q9 60 35 90.5t59 30.5q29 0 51.5 -21.5t28.5 -58.5q-4 -96 -32 -143.5t-64 -47.5q-32 0 -56 34t-24 87z" />
<glyph unicode="&#xab;" horiz-adv-x="806" d="M102 350q0 -33 33 -55h-2q14 -10 147 -92t195 -127l12 -4q7 0 13 6t6 14q0 6 -6 12q-54 39 -180 117.5t-130 81.5q53 41 191 142.5t182 136.5q4 2 4 10q0 20 -24 49t-41 29l-6 -2q-50 -39 -375 -283q-19 -16 -19 -35zM315 324q0 -36 33 -58q19 -14 124.5 -77t166.5 -107 l12 -4q7 0 13 6t6 14q0 7 -6 13q-40 29 -89 60t-99.5 61t-69.5 42q52 41 151.5 113t142.5 107q5 2 5 12q0 19 -23.5 47.5t-40.5 28.5l-6 -2q-100 -77 -141.5 -107.5t-74 -52.5t-85.5 -62q-19 -16 -19 -34z" />
<glyph unicode="&#xad;" horiz-adv-x="614" d="M4 461q0 -19 16 -19h7l5 1q6 1 16.5 2.5t25.5 3t37 3.5t47 3.5t59 2.5t70 1q88 0 205 -6h2q8 0 13 5.5t5 12.5q0 18 -18 18q-140 7 -207 7q-51 0 -97 -2t-76 -4.5t-51.5 -4.5t-32.5 -4l-12 -2q-14 -3 -14 -18z" />
<glyph unicode="&#xae;" horiz-adv-x="1003" d="M4 289q0 -209 120.5 -341t311.5 -132q99 0 179 28t132.5 74t88 109t50.5 129.5t15 138.5q0 87 -30 169.5t-85.5 150t-143 108.5t-193.5 41q-197 0 -321 -132t-124 -343zM41 289q0 193 114 315.5t294 122.5q98 0 178.5 -37t130.5 -98.5t77 -138t27 -158.5 q0 -207 -113 -323.5t-313 -116.5q-98 0 -175.5 37t-124.5 99t-71 138t-24 160zM197 -20q0 -13 12 -13q122 0 162 82q26 52 30 197q44 -32 109 -137q23 -37 34.5 -55t31 -42.5t37.5 -34.5t38 -10q24 0 56 19q24 16 24 30q0 13 -16 13q-11 0 -17 -6q-10 -7 -16 -7 q-13 0 -24.5 18t-28.5 53.5t-31 57.5q-65 99 -137 119q97 11 158 62t61 125q0 54 -22 94t-57.5 61.5t-75 32t-81.5 10.5h-24q-102 -7 -156.5 -63.5t-54.5 -128.5q0 -60 39 -105q2 -2 6 -2q6 0 12 6t6 13q0 4 -2 6q-32 35 -32 86q0 63 50.5 111.5t133.5 48.5q151 0 151 -170 q0 -161 -172 -164q6 262 7 276q0 8 -24.5 14.5t-49.5 6.5q-31 0 -31 -9q-2 -35 -2 -106l2 -236q0 -58 -3.5 -97.5t-13 -75t-29.5 -53t-50 -17.5q-10 0 -10 -10z" />
<glyph unicode="&#xb0;" horiz-adv-x="374" d="M0 1057q0 -67 37 -107q42 -45 100 -45h2q62 1 97.5 52t35.5 116q0 58 -27.5 98t-78.5 43h-12q-75 0 -114.5 -46.5t-39.5 -110.5zM78 1049q0 59 23.5 105t62.5 46q36 0 58 -37.5t24 -85.5v-4q0 -65 -26.5 -98t-63.5 -33q-27 0 -47 14q-31 25 -31 93z" />
<glyph unicode="&#xb1;" horiz-adv-x="606" d="M-4 528q0 -20 18 -20h4q10 10 177 16l4 -276q0 -23 16.5 -36t40.5 -13q22 0 36.5 11.5t14.5 33.5q0 178 2 280q42 0 174 -4h2q19 0 19 19q0 7 -5.5 12.5t-13.5 5.5q-102 6 -176 6v223q0 10 -16 16.5t-37 6.5q-23 0 -39 -6.5t-16 -16.5q-1 -102 -3.5 -144t-2.5 -81 q-158 -3 -185 -16q-14 -3 -14 -17zM2 90q0 -6 5.5 -12t12.5 -6h5l7 1q8 1 21 3t31 4t42 4t50 4t58.5 3t64.5 1q77 0 182 -10h2q9 0 14 6t5 14q0 16 -17 19q-110 10 -184 10q-73 0 -143 -5t-104 -10t-36 -7q-16 -3 -16 -19z" />
<glyph unicode="&#xb2;" horiz-adv-x="503" d="M102 627q0 -9 15.5 -16t29.5 -7q4 0 27.5 10t56.5 19.5t60 9.5q44 0 69 -25q6 -6 13 -6t12.5 5.5t5.5 13.5q0 6 -6 12q-37 37 -115 37q-40 0 -71 -8q6 11 38.5 67t42 74t35.5 66t36 72t24.5 60.5t20 63.5t5.5 51q0 31 -10 54q-13 31 -46 50t-71 19q-52 0 -84 -32 q-45 -42 -45 -117q0 -9 5 -39q3 -12 16 -12q18 0 18 16l-4 37q0 60 35 90q22 22 51 22q49 0 62 -40q6 -18 6 -39q0 -43 -25 -109.5t-51 -115.5t-80.5 -145.5t-73.5 -131.5z" />
<glyph unicode="&#xb3;" horiz-adv-x="503" d="M102 719q1 -59 36 -90t85 -31q69 0 123.5 48t54.5 128q0 152 -122 189q40 29 64 74t24 89q0 84 -82 113q-32 8 -45 8q-57 0 -93 -44t-36 -107q0 -11 4 -39q3 -15 16 -15q7 0 13 6t6 13l-5 37q0 46 24.5 80t59.5 34l21 -4q51 -14 51 -92q0 -46 -22 -89.5t-56 -55.5 q-10 -3 -10 -17q0 -13 14 -16q49 -7 77 -39t28 -117v-8q0 -62 -38 -99.5t-83 -37.5q-31 0 -52.5 21.5t-21.5 60.5q0 18 -16 18q-19 0 -19 -18z" />
<glyph unicode="&#xb7;" horiz-adv-x="382" d="M53 332q0 -27 19 -43q19 -19 43 -19q26 0 45 19q18 15 18 43q0 27 -18 45q-19 16 -45 16q-24 0 -43 -16q-19 -19 -19 -45z" />
<glyph unicode="&#xb9;" horiz-adv-x="331" d="M102 1192q0 -7 6.5 -12.5t12.5 -5.5t12 6l19 22v-47q0 -96 8 -512q1 -16 11 -25.5t22 -9.5q13 0 22.5 9.5t9.5 27.5q2 59 2 232l-2 180q0 114 4 176v2q0 10 -15 16t-34 6q-12 0 -20 -4q-22 -13 -54 -51q-4 -8 -4 -10z" />
<glyph unicode="&#xba;" horiz-adv-x="487" d="M102 1053q0 -79 39 -135q39 -54 95 -54q33 0 62.5 24t47.5 70h6q54 0 95.5 30t62.5 89l2 4q0 9 -10 9q-6 0 -10 -7q-37 -104 -138 -104q11 46 11 78q0 55 -19.5 99.5t-56.5 64.5q-16 8 -39 8q-48 0 -86 -49q-23 14 -25 14l-2 -2q-35 -58 -35 -139zM174 1032v23 q21 -36 64 -62t88 -32q-28 -54 -74 -54q-33 0 -55.5 32t-22.5 93zM186 1124v2q8 21 11 25q0 4 -4 6q27 47 69 47q33 0 57 -34.5t27 -102.5q0 -51 -12 -86q-61 6 -104.5 50.5t-43.5 92.5z" />
<glyph unicode="&#xbb;" horiz-adv-x="751" d="M47 180q0 -19 23.5 -47.5t40.5 -28.5l6 2q100 77 141.5 107.5t74 52.5t85.5 62q18 15 18 37q0 33 -33 55q-19 14 -124 77t-166 107q-4 4 -13 4q-8 0 -13 -5t-5 -13q0 -10 8 -15q52 -37 149 -96t109 -67q-57 -44 -156.5 -115.5t-140.5 -103.5q-4 -2 -4 -13zM186 92 q0 -19 23.5 -47.5t40.5 -28.5l6 2q140 108 377 283q18 15 18 35q0 37 -33 55q-16 12 -147.5 93t-194.5 126q-4 4 -12 4q-7 0 -12.5 -6t-5.5 -12q0 -8 6 -14q41 -30 96 -65t130.5 -81.5t82.5 -50.5q-59 -47 -195.5 -148.5t-175.5 -132.5q-4 -2 -4 -12z" />
<glyph unicode="&#xbf;" horiz-adv-x="456" d="M-102 -780q0 -73 28 -133q32 -66 103 -106t149 -40q104 0 172 68q45 44 70.5 110.5t25.5 139.5q0 36 -10 84q-4 14 -20 14h-4q-15 -4 -15 -19v-4q9 -40 9 -77q0 -65 -22.5 -124.5t-61.5 -97.5q-55 -55 -127 -55q-55 0 -100 30.5t-60 76.5q-15 47 -15 100q0 74 26.5 171.5 t65 196.5t77 200t67 210.5t31.5 198.5q0 18 -35 18q-39 0 -39 -20l2 -33q0 -83 -32.5 -182t-79.5 -190.5t-93.5 -182t-79 -184.5t-32.5 -170zM176 326q0 -29 21.5 -50.5t50.5 -21.5q31 0 52.5 21.5t21.5 50.5q0 31 -21.5 52t-52.5 21q-30 0 -51 -21.5t-21 -51.5z" />
<glyph unicode="&#xc0;" d="M-78 399q0 -8 5 -14t14 -6h67q-8 -145 -8 -432v-172q0 -9 6 -15t14 -6q6 0 12.5 6t6.5 15q0 399 8 604h381q-6 -150 -6 -287q0 -134 8 -213q23 -231 154 -282l8 -3q9 0 14.5 7.5t5.5 17.5q0 14 -10 21q-38 28 -41 258v73q0 117 8.5 360t8.5 355q0 76 -2.5 139t-9.5 126 t-18 112t-28.5 92t-40.5 71.5t-55 45.5t-72 18h-4q-295 0 -338 -872h-69q-8 0 -13.5 -6t-5.5 -13zM49 418q41 827 295 833q102 -10 102 -372q0 -94 -8.5 -266t-9.5 -195h-379zM238 1485q116 -160 118 -160q12 0 28.5 13.5t16.5 25.5l-4 8q-27 37 -48 67.5t-28.5 42.5 t-14 19.5t-13.5 11.5q-6 3 -12 3q-10 0 -22.5 -9.5t-20.5 -21.5z" />
<glyph unicode="&#xc1;" d="M-78 399q0 -8 5 -14t14 -6h67q-8 -145 -8 -432v-172q0 -9 6 -15t14 -6q6 0 12.5 6t6.5 15q0 399 8 604h381q-6 -150 -6 -287q0 -134 8 -213q23 -231 154 -282l8 -3q9 0 14.5 7.5t5.5 17.5q0 14 -10 21q-38 28 -41 258v73q0 117 8.5 360t8.5 355q0 76 -2.5 139t-9.5 126 t-18 112t-28.5 92t-40.5 71.5t-55 45.5t-72 18h-4q-295 0 -338 -872h-69q-8 0 -13.5 -6t-5.5 -13zM49 418q41 827 295 833q102 -10 102 -372q0 -94 -8.5 -266t-9.5 -195h-379zM291 1364q0 -12 16.5 -25.5t28.5 -13.5q3 0 119 160q-19 31 -45 31q-7 0 -13 -3q-8 -4 -14 -13 t-30.5 -45t-59.5 -83q-2 -2 -2 -8z" />
<glyph unicode="&#xc2;" d="M-78 399q0 -8 5 -14t14 -6h67q-8 -145 -8 -432v-172q0 -9 6 -15t14 -6q6 0 12.5 6t6.5 15q0 399 8 604h381q-6 -150 -6 -287q0 -134 8 -213q23 -231 154 -282l8 -3q9 0 14.5 7.5t5.5 17.5q0 14 -10 21q-38 28 -41 258v73q0 117 8.5 360t8.5 355q0 76 -2.5 139t-9.5 126 t-18 112t-28.5 92t-40.5 71.5t-55 45.5t-72 18h-4q-295 0 -338 -872h-69q-8 0 -13.5 -6t-5.5 -13zM49 418q41 827 295 833q102 -10 102 -372q0 -94 -8.5 -266t-9.5 -195h-379zM223 1350q0 -8 5.5 -13.5t13.5 -5.5q4 0 12 8q29 39 72 113q22 -29 40.5 -54.5t26 -37.5t14 -21 t9.5 -11.5t8 -2.5q14 0 29.5 13.5t15.5 25.5q0 6 -2 8q-55 73 -61 86q-12 19 -17 26.5t-13 17.5t-13.5 13t-12.5 3q-13 0 -35 -19q-8 -10 -39.5 -61.5t-48.5 -75.5q-4 -8 -4 -12z" />
<glyph unicode="&#xc3;" d="M-78 399q0 -8 5 -14t14 -6h67q-8 -145 -8 -432v-172q0 -9 6 -15t14 -6q6 0 12.5 6t6.5 15q0 399 8 604h381q-6 -150 -6 -287q0 -134 8 -213q23 -231 154 -282l8 -3q9 0 14.5 7.5t5.5 17.5q0 14 -10 21q-38 28 -41 258v73q0 117 8.5 360t8.5 355q0 76 -2.5 139t-9.5 126 t-18 112t-28.5 92t-40.5 71.5t-55 45.5t-72 18h-4q-295 0 -338 -872h-69q-8 0 -13.5 -6t-5.5 -13zM49 418q41 827 295 833q102 -10 102 -372q0 -94 -8.5 -266t-9.5 -195h-379zM180 1348q0 -9 6.5 -14t14.5 -5q13 0 16 14q0 3 4 11.5t17.5 19t31.5 10.5h6q23 -1 61.5 -30 t82.5 -29q39 0 62 27t30 55v6q0 17 -18 17q-13 0 -19 -15q-10 -31 -61 -31q-25 0 -60.5 27t-72.5 29h-7q-39 0 -62.5 -28t-31.5 -60v-4z" />
<glyph unicode="&#xc4;" d="M-78 399q0 -8 5 -14t14 -6h67q-8 -145 -8 -432v-172q0 -9 6 -15t14 -6q6 0 12.5 6t6.5 15q0 399 8 604h381q-6 -150 -6 -287q0 -134 8 -213q23 -231 154 -282l8 -3q9 0 14.5 7.5t5.5 17.5q0 14 -10 21q-38 28 -41 258v73q0 117 8.5 360t8.5 355q0 76 -2.5 139t-9.5 126 t-18 112t-28.5 92t-40.5 71.5t-55 45.5t-72 18h-4q-295 0 -338 -872h-69q-8 0 -13.5 -6t-5.5 -13zM49 418q41 827 295 833q102 -10 102 -372q0 -94 -8.5 -266t-9.5 -195h-379zM190 1389q0 -26 19 -45t45 -19t43.5 18.5t17.5 45.5q0 26 -17.5 43.5t-43.5 17.5 q-27 0 -45.5 -17.5t-18.5 -43.5zM377 1389q0 -27 17.5 -45.5t43.5 -18.5t45 19t19 45t-18.5 43.5t-45.5 17.5q-26 0 -43.5 -17.5t-17.5 -43.5z" />
<glyph unicode="&#xc5;" d="M-78 399q0 -8 5 -14t14 -6h67q-8 -145 -8 -432v-172q0 -9 6 -15t14 -6q6 0 12.5 6t6.5 15q0 399 8 604h381q-6 -150 -6 -287q0 -134 8 -213q23 -231 154 -282l8 -3q9 0 14.5 7.5t5.5 17.5q0 14 -10 21q-38 28 -41 258v73q0 117 8.5 360t8.5 355q0 76 -2.5 139t-9.5 126 t-18 112t-28.5 92t-40.5 71.5t-55 45.5t-72 18h-4q-295 0 -338 -872h-69q-8 0 -13.5 -6t-5.5 -13zM49 418q41 827 295 833q102 -10 102 -372q0 -94 -8.5 -266t-9.5 -195h-379zM252 1415q0 -36 26 -63t70 -27h4q42 1 65 28t23 64q0 32 -19 55.5t-54 24.5h-15q-49 0 -74.5 -24 t-25.5 -58zM317 1415q0 26 13 45t35 19h4q24 0 38.5 -17t16.5 -41q0 -34 -16 -51.5t-41 -17.5q-23 0 -36.5 19t-13.5 44z" />
<glyph unicode="&#xc6;" horiz-adv-x="1200" d="M-78 399q0 -8 6 -14q3 -6 13 -6h67q-8 -193 -8 -432v-172q0 -12 6 -15q6 -6 14 -6q7 0 13 6q6 3 6 15q0 333 8 604h381q-6 -153 -6 -287q0 -132 8 -213q9 -100 45 -178q35 -74 109 -104l8 -3q8 0 14 9t6 16q0 11 -10 21q-35 41 -41 200q4 -3 12.5 -9t12.5 -9 q78 -60 188 -60q100 0 176 54q73 54 123 133q48 80 86 176q33 88 62 176q3 10 11 34.5t11 37.5l2 8q0 8 -6 14q-8 4 -12 4q-12 0 -21 -18q-62 -228 -155 -393q-95 -167 -271 -176h-2q-70 0 -119 55q-48 54 -73 145q-16 56 -23 133q0 48 4 150q11 85 51 176q57 123 181 158 q6 6 8 14q4 12 4 23q0 6 -4 18q-3 6 -14 6q-102 0 -123 55q-1 3 -3 9.5t-3 9.5q123 57 200 131q74 69 111 137q33 62 33 96q0 66 -35 113t-113 47q-88 0 -158 -61q-71 -62 -112 -152q-17 -36 -31 -82q-15 133 -65 213q-50 81 -142 84h-4q-104 0 -168 -94q-65 -95 -100 -235 q-33 -136 -49 -287q-19 -187 -21 -256h-69q-10 0 -13 -6q-6 -6 -6 -13zM49 418q2 107 29 321q21 191 86 346q62 154 180 166q61 -9 82 -116q20 -103 20 -256q0 -163 -12 -326q-3 -73 -6 -135h-379zM575 565q3 61 3 121v80q3 -9 8 -14q36 -62 121 -90q-75 -37 -132 -97z M653 838q0 68 29 170q27 95 78 163q53 68 125 68h10q36 -6 55 -37q19 -32 19 -76q0 -28 -35 -90q-33 -63 -111 -131q-59 -56 -168 -106q-2 12 -2 39z" />
<glyph unicode="&#xc7;" horiz-adv-x="753" d="M2 385q0 -182 41 -334q61 -240 303 -289h8v-28v-21q0 -10 2 -12q12 4 19 4q2 2 8 2q51 -3 78 -24q24 -24 24 -48q-3 -41 -22 -55q-22 -16 -49 -16q-34 0 -62 14q-3 0 -6 -14q-2 -10 -2 -31q0 -16 2 -22q0 -9 4 -13q30 -10 56 -10q41 0 81 29q35 27 35 92v8q0 50 -43 84 q-45 31 -92 31v28q71 6 131 66q68 68 119 164q55 99 94 200q27 67 66 183l2 8q0 8 -6 14q-8 4 -13 4q-11 0 -20 -18q-42 -132 -109 -270q-65 -127 -139 -217q-75 -87 -133 -87q-5 0 -25 5q-119 46 -166 278q-20 103 -20 283q0 126 16 286q3 47 13 107q139 46 213 92 q87 52 133 107q43 56 51 94q8 39 8 67q0 68 -35 115t-112 47q-112 0 -195 -80q-84 -84 -141 -213q-59 -133 -86 -293q-31 -164 -31 -317zM203 805q12 68 30 137q34 128 95 215q58 82 149 82h15q36 -6 55 -37q16 -32 16 -74q0 -16 -10 -61q-8 -35 -51 -88q-37 -46 -129 -100 q-61 -38 -170 -74z" />
<glyph unicode="&#xc8;" horiz-adv-x="733" d="M-29 176q0 -108 37 -201q38 -96 113 -153q78 -60 188 -60q100 0 176 54q73 54 123 133q48 80 86 176q33 88 62 176q3 10 11 34.5t11 37.5l2 8q0 8 -6 14q-8 4 -12 4q-12 0 -21 -18q-62 -228 -155 -393q-95 -167 -271 -176h-2q-69 0 -118 55q-50 56 -74 145 q-25 92 -25 187q0 147 58 272q57 124 180 158q6 6 8 14q4 12 4 23q0 6 -4 18q-3 6 -14 6q-102 0 -123 55q-1 3 -3 9.5t-3 9.5q129 63 200 131q74 69 111 137q33 62 33 96q0 66 -35 113t-113 47q-87 0 -157 -61q-72 -63 -113 -152q-43 -90 -43 -184q0 -80 39 -139 q36 -62 121 -90q-133 -65 -201 -201q-70 -137 -70 -285zM188 838q0 68 29 170q27 95 78 163q53 68 125 68h10q36 -6 55 -37q19 -32 19 -76q0 -28 -35 -90q-33 -63 -111 -131q-65 -59 -168 -106q-2 12 -2 39zM268 1483q116 -160 119 -160q12 0 28.5 13.5t16.5 25.5l-4 8 q-27 37 -48 67.5t-28.5 42.5t-14 19.5t-13.5 11.5q-4 2 -13 2q-24 0 -43 -30z" />
<glyph unicode="&#xc9;" horiz-adv-x="733" d="M-29 176q0 -108 37 -201q38 -96 113 -153q78 -60 188 -60q100 0 176 54q73 54 123 133q48 80 86 176q33 88 62 176q3 10 11 34.5t11 37.5l2 8q0 8 -6 14q-8 4 -12 4q-12 0 -21 -18q-62 -228 -155 -393q-95 -167 -271 -176h-2q-69 0 -118 55q-50 56 -74 145 q-25 92 -25 187q0 147 58 272q57 124 180 158q6 6 8 14q4 12 4 23q0 6 -4 18q-3 6 -14 6q-102 0 -123 55q-1 3 -3 9.5t-3 9.5q129 63 200 131q74 69 111 137q33 62 33 96q0 66 -35 113t-113 47q-87 0 -157 -61q-72 -63 -113 -152q-43 -90 -43 -184q0 -80 39 -139 q36 -62 121 -90q-133 -65 -201 -201q-70 -137 -70 -285zM188 838q0 68 29 170q27 95 78 163q53 68 125 68h10q36 -6 55 -37q19 -32 19 -76q0 -28 -35 -90q-33 -63 -111 -131q-65 -59 -168 -106q-2 12 -2 39zM322 1362q0 -12 16.5 -25.5t28.5 -13.5q2 0 118 160 q-19 30 -45 30q-8 0 -12 -2q-8 -4 -14 -13t-30.5 -45t-59.5 -83q-2 -2 -2 -8z" />
<glyph unicode="&#xca;" horiz-adv-x="733" d="M-29 176q0 -108 37 -201q38 -96 113 -153q78 -60 188 -60q100 0 176 54q73 54 123 133q48 80 86 176q33 88 62 176q3 10 11 34.5t11 37.5l2 8q0 8 -6 14q-8 4 -12 4q-12 0 -21 -18q-62 -228 -155 -393q-95 -167 -271 -176h-2q-69 0 -118 55q-50 56 -74 145 q-25 92 -25 187q0 147 58 272q57 124 180 158q6 6 8 14q4 12 4 23q0 6 -4 18q-3 6 -14 6q-102 0 -123 55q-1 3 -3 9.5t-3 9.5q129 63 200 131q74 69 111 137q33 62 33 96q0 66 -35 113t-113 47q-87 0 -157 -61q-72 -63 -113 -152q-43 -90 -43 -184q0 -80 39 -139 q36 -62 121 -90q-133 -65 -201 -201q-70 -137 -70 -285zM188 838q0 68 29 170q27 95 78 163q53 68 125 68h10q36 -6 55 -37q19 -32 19 -76q0 -28 -35 -90q-33 -63 -111 -131q-65 -59 -168 -106q-2 12 -2 39zM254 1348q0 -8 5.5 -13.5t12.5 -5.5q5 0 13 8q25 33 71 113 q22 -29 40.5 -54.5t26.5 -37.5t14.5 -21t9.5 -11.5t8 -2.5q14 0 29.5 13.5t15.5 25.5q0 6 -2 8q-58 77 -62 86q-32 50 -43 57q-6 3 -12 3q-13 0 -35 -19q-8 -10 -39.5 -61.5t-48.5 -75.5q-4 -8 -4 -12z" />
<glyph unicode="&#xcb;" horiz-adv-x="733" d="M-29 176q0 -108 37 -201q38 -96 113 -153q78 -60 188 -60q100 0 176 54q73 54 123 133q48 80 86 176q33 88 62 176q3 10 11 34.5t11 37.5l2 8q0 8 -6 14q-8 4 -12 4q-12 0 -21 -18q-62 -228 -155 -393q-95 -167 -271 -176h-2q-69 0 -118 55q-50 56 -74 145 q-25 92 -25 187q0 147 58 272q57 124 180 158q6 6 8 14q4 12 4 23q0 6 -4 18q-3 6 -14 6q-102 0 -123 55q-1 3 -3 9.5t-3 9.5q129 63 200 131q74 69 111 137q33 62 33 96q0 66 -35 113t-113 47q-87 0 -157 -61q-72 -63 -113 -152q-43 -90 -43 -184q0 -80 39 -139 q36 -62 121 -90q-133 -65 -201 -201q-70 -137 -70 -285zM188 838q0 68 29 170q27 95 78 163q53 68 125 68h10q36 -6 55 -37q19 -32 19 -76q0 -28 -35 -90q-33 -63 -111 -131q-65 -59 -168 -106q-2 12 -2 39zM221 1386q0 -26 19 -44.5t45 -18.5t43.5 18.5t17.5 44.5t-17.5 44 t-43.5 18t-45 -18t-19 -44zM408 1386q0 -26 17.5 -44.5t43.5 -18.5t44.5 18.5t18.5 44.5t-18.5 44t-44.5 18t-43.5 -18t-17.5 -44z" />
<glyph unicode="&#xcc;" horiz-adv-x="364" d="M-66 901l3 -96q2 -80 23.5 -227t51.5 -201q5 -10 17 -10q8 0 14 5.5t6 12.5l-4 10q-27 50 -47.5 191.5t-22.5 220.5l-2 117q0 140 13 204t39 93q18 18 28 18q24 0 27 -88v-25q1 -26 2 -71t2 -105.5t2 -132.5t2 -149t2 -158.5t2 -157t1.5 -148t0.5 -128.5 q-3 -230 -41 -258q-10 -7 -10 -21q0 -9 5.5 -16.5t14.5 -7.5l9 2q71 28 106.5 99t46.5 183q8 73 8 301q0 225 -6.5 492t-11.5 297q-13 72 -48.5 107.5t-80.5 35.5q-53 0 -90 -43q-62 -69 -62 -346zM-33 1485q116 -160 119 -160q12 0 28.5 13.5t16.5 25.5l-4 8 q-27 37 -48 67.5t-28.5 42.5t-14 19.5t-13.5 11.5q-6 3 -13 3q-10 0 -22.5 -9.5t-20.5 -21.5z" />
<glyph unicode="&#xcd;" horiz-adv-x="364" d="M-66 901l3 -96q2 -80 23.5 -227t51.5 -201q5 -10 17 -10q8 0 14 5.5t6 12.5l-4 10q-27 50 -47.5 191.5t-22.5 220.5l-2 117q0 140 13 204t39 93q18 18 28 18q24 0 27 -88v-25q1 -26 2 -71t2 -105.5t2 -132.5t2 -149t2 -158.5t2 -157t1.5 -148t0.5 -128.5 q-3 -230 -41 -258q-10 -7 -10 -21q0 -9 5.5 -16.5t14.5 -7.5l9 2q71 28 106.5 99t46.5 183q8 73 8 301q0 225 -6.5 492t-11.5 297q-13 72 -48.5 107.5t-80.5 35.5q-53 0 -90 -43q-62 -69 -62 -346zM20 1364q0 -12 17 -25.5t29 -13.5q2 0 118 160q-19 31 -45 31q-6 0 -12 -3 q-8 -4 -14 -13t-30.5 -45t-59.5 -83q-3 -3 -3 -8z" />
<glyph unicode="&#xce;" horiz-adv-x="364" d="M-66 901l3 -96q2 -80 23.5 -227t51.5 -201q5 -10 17 -10q8 0 14 5.5t6 12.5l-4 10q-27 50 -47.5 191.5t-22.5 220.5l-2 117q0 140 13 204t39 93q18 18 28 18q24 0 27 -88v-25q1 -26 2 -71t2 -105.5t2 -132.5t2 -149t2 -158.5t2 -157t1.5 -148t0.5 -128.5 q-3 -230 -41 -258q-10 -7 -10 -21q0 -9 5.5 -16.5t14.5 -7.5l9 2q71 28 106.5 99t46.5 183q8 73 8 301q0 225 -6.5 492t-11.5 297q-13 72 -48.5 107.5t-80.5 35.5q-53 0 -90 -43q-62 -69 -62 -346zM-47 1350q0 -8 5.5 -13.5t12.5 -5.5q5 0 13 8q25 33 71 113 q22 -29 40.5 -54.5t26.5 -37.5t14.5 -21t9.5 -11.5t8 -2.5q14 0 29.5 13.5t15.5 25.5q0 6 -2 8q-58 77 -62 86q-32 50 -43 57q-6 3 -12 3q-13 0 -35 -19q-8 -10 -39.5 -61.5t-48.5 -75.5q-4 -8 -4 -12z" />
<glyph unicode="&#xcf;" horiz-adv-x="364" d="M-80 1389q0 -26 19 -45t45 -19t43.5 18.5t17.5 45.5q0 26 -17.5 43.5t-43.5 17.5q-27 0 -45.5 -17.5t-18.5 -43.5zM-66 901l3 -96q2 -80 23.5 -227t51.5 -201q5 -10 17 -10q8 0 14 5.5t6 12.5l-4 10q-27 50 -47.5 191.5t-22.5 220.5l-2 117q0 140 13 204t39 93 q18 18 28 18q24 0 27 -88v-25q1 -26 2 -71t2 -105.5t2 -132.5t2 -149t2 -158.5t2 -157t1.5 -148t0.5 -128.5q-3 -230 -41 -258q-10 -7 -10 -21q0 -9 5.5 -16.5t14.5 -7.5l9 2q71 28 106.5 99t46.5 183q8 73 8 301q0 225 -6.5 492t-11.5 297q-13 72 -48.5 107.5t-80.5 35.5 q-53 0 -90 -43q-62 -69 -62 -346zM106 1389q0 -26 18 -45t44 -19t44.5 19t18.5 45t-18.5 43.5t-44.5 17.5t-44 -17.5t-18 -43.5z" />
<glyph unicode="&#xd1;" horiz-adv-x="915" d="M0 502l4 -666q1 -29 23 -45t51 -16q27 0 45 14.5t18 40.5v37q17 226 115.5 676t183.5 622q34 66 49 66q21 0 21 -125v-156q0 -199 -6 -473.5t-6 -351.5q0 -203 26 -292t101 -95h6q47 0 93 51t84 138.5t64.5 163.5t54 169.5t34.5 112.5l2 8q0 7 -6.5 12.5t-12.5 5.5 q-14 0 -20 -18q-41 -134 -83.5 -251.5t-97 -221t-90.5 -103.5q-4 0 -14 5q-12 47 -12 186q0 76 7 322.5t7 398.5q0 251 -14 409q-7 82 -33.5 123t-63.5 41q-29 0 -60.5 -26t-57.5 -72q-80 -144 -157.5 -439.5t-113.5 -545.5l-2 715q0 13 -20.5 20.5t-48.5 7.5q-26 0 -46 -7 t-20 -19zM315 1348q0 -9 6.5 -14t14.5 -5q13 0 16 14q0 3 4.5 11.5t18 19t31.5 10.5h6q21 -1 40.5 -15.5t44 -29t58.5 -14.5q39 0 62 27t30 55v6q0 17 -18 17q-13 0 -19 -15q-10 -31 -61 -31q-25 0 -60.5 27t-72.5 29h-6q-39 0 -63 -28t-32 -60v-4z" />
<glyph unicode="&#xd2;" horiz-adv-x="806" d="M-2 410q0 -161 44.5 -303t131.5 -235.5t197 -98.5h10q100 0 175.5 101.5t112 259t36.5 341.5q0 234 -62 437.5t-180 304.5q-82 71 -170 71q-44 0 -76.5 -17.5t-44.5 -45.5q-8 -16 -8 -45q0 -46 31 -123q-73 -114 -130 -273t-65 -311zM141 389q0 55 2 82q7 104 43.5 219.5 t85.5 210.5q16 -30 44 -78t45 -78t35 -65t27 -60t9 -42q0 -18 -12 -27q-10 -7 -10 -16q0 -8 6.5 -14.5t13.5 -6.5l10 4q52 35 52 96q0 29 -9.5 63t-31 78t-37 72t-48.5 83.5t-44 74.5q23 33 43 47q2 2 2 8q0 23 -35 72t-53 49l-5 -2q-10 -7 -20 -20q-2 8 -2 26q0 19 4 27 q24 49 72 49q49 0 110 -53q113 -98 170.5 -279.5t57.5 -390.5q0 -170 -35 -318.5t-102.5 -242.5t-153.5 -94h-2q-65 1 -118.5 75t-83.5 194.5t-30 256.5zM233 1483q116 -160 119 -160q12 0 28.5 13.5t16.5 25.5l-4 8q-27 37 -48 67.5t-28.5 42.5t-14 19.5t-13.5 11.5 q-4 2 -13 2q-24 0 -43 -30z" />
<glyph unicode="&#xd3;" horiz-adv-x="806" d="M-2 410q0 -161 44.5 -303t131.5 -235.5t197 -98.5h10q100 0 175.5 101.5t112 259t36.5 341.5q0 234 -62 437.5t-180 304.5q-82 71 -170 71q-44 0 -76.5 -17.5t-44.5 -45.5q-8 -16 -8 -45q0 -46 31 -123q-73 -114 -130 -273t-65 -311zM141 389q0 55 2 82q7 104 43.5 219.5 t85.5 210.5q16 -30 44 -78t45 -78t35 -65t27 -60t9 -42q0 -18 -12 -27q-10 -7 -10 -16q0 -8 6.5 -14.5t13.5 -6.5l10 4q52 35 52 96q0 29 -9.5 63t-31 78t-37 72t-48.5 83.5t-44 74.5q23 33 43 47q2 2 2 8q0 23 -35 72t-53 49l-5 -2q-10 -7 -20 -20q-2 8 -2 26q0 19 4 27 q24 49 72 49q49 0 110 -53q113 -98 170.5 -279.5t57.5 -390.5q0 -170 -35 -318.5t-102.5 -242.5t-153.5 -94h-2q-65 1 -118.5 75t-83.5 194.5t-30 256.5zM260 1362q0 -12 16.5 -25.5t28.5 -13.5q3 0 119 160q-19 30 -45 30q-8 0 -12 -2q-5 -3 -9 -7t-11 -14t-15.5 -23 t-27.5 -39.5t-42 -57.5q-2 -2 -2 -8z" />
<glyph unicode="&#xd4;" horiz-adv-x="806" d="M-2 410q0 -161 44.5 -303t131.5 -235.5t197 -98.5h10q100 0 175.5 101.5t112 259t36.5 341.5q0 234 -62 437.5t-180 304.5q-82 71 -170 71q-44 0 -76.5 -17.5t-44.5 -45.5q-8 -16 -8 -45q0 -46 31 -123q-73 -114 -130 -273t-65 -311zM141 389q0 55 2 82q7 104 43.5 219.5 t85.5 210.5q16 -30 44 -78t45 -78t35 -65t27 -60t9 -42q0 -18 -12 -27q-10 -7 -10 -16q0 -8 6.5 -14.5t13.5 -6.5l10 4q52 35 52 96q0 29 -9.5 63t-31 78t-37 72t-48.5 83.5t-44 74.5q23 33 43 47q2 2 2 8q0 23 -35 72t-53 49l-5 -2q-10 -7 -20 -20q-2 8 -2 26q0 19 4 27 q24 49 72 49q49 0 110 -53q113 -98 170.5 -279.5t57.5 -390.5q0 -170 -35 -318.5t-102.5 -242.5t-153.5 -94h-2q-65 1 -118.5 75t-83.5 194.5t-30 256.5zM223 1348q0 -8 5.5 -13.5t13.5 -5.5q4 0 12 8q29 39 72 113q22 -29 40.5 -54.5t26 -37.5t14 -21t9.5 -11.5t8 -2.5 q14 0 29.5 13.5t15.5 25.5q0 6 -2 8q-55 73 -61 86q-12 19 -17 26.5t-13 17.5t-13.5 13t-12.5 3q-13 0 -35 -19q-8 -10 -39.5 -61.5t-48.5 -75.5q-4 -8 -4 -12z" />
<glyph unicode="&#xd5;" horiz-adv-x="806" d="M-2 410q0 -161 44.5 -303t131.5 -235.5t197 -98.5h10q100 0 175.5 101.5t112 259t36.5 341.5q0 234 -62 437.5t-180 304.5q-82 71 -170 71q-44 0 -76.5 -17.5t-44.5 -45.5q-8 -16 -8 -45q0 -46 31 -123q-73 -114 -130 -273t-65 -311zM141 389q0 55 2 82q7 104 43.5 219.5 t85.5 210.5q16 -30 44 -78t45 -78t35 -65t27 -60t9 -42q0 -18 -12 -27q-10 -7 -10 -16q0 -8 6.5 -14.5t13.5 -6.5l10 4q52 35 52 96q0 29 -9.5 63t-31 78t-37 72t-48.5 83.5t-44 74.5q23 33 43 47q2 2 2 8q0 23 -35 72t-53 49l-5 -2q-10 -7 -20 -20q-2 8 -2 26q0 19 4 27 q24 49 72 49q49 0 110 -53q113 -98 170.5 -279.5t57.5 -390.5q0 -170 -35 -318.5t-102.5 -242.5t-153.5 -94h-2q-65 1 -118.5 75t-83.5 194.5t-30 256.5zM176 1343q0 -18 21 -18q13 0 16 14q0 3 4 11.5t17.5 19t31.5 10.5h6q23 -1 61.5 -30t82.5 -29q39 0 62 27t30 55v6 q0 16 -19 16q-12 0 -18 -14q-10 -31 -61 -31q-25 0 -61 27t-73 29h-6q-39 0 -62.5 -28t-31.5 -60v-5z" />
<glyph unicode="&#xd6;" horiz-adv-x="806" d="M-2 410q0 -161 44.5 -303t131.5 -235.5t197 -98.5h10q100 0 175.5 101.5t112 259t36.5 341.5q0 234 -62 437.5t-180 304.5q-82 71 -170 71q-44 0 -76.5 -17.5t-44.5 -45.5q-8 -16 -8 -45q0 -46 31 -123q-73 -114 -130 -273t-65 -311zM141 389q0 55 2 82q7 104 43.5 219.5 t85.5 210.5q16 -30 44 -78t45 -78t35 -65t27 -60t9 -42q0 -18 -12 -27q-10 -7 -10 -16q0 -8 6.5 -14.5t13.5 -6.5l10 4q52 35 52 96q0 29 -9.5 63t-31 78t-37 72t-48.5 83.5t-44 74.5q23 33 43 47q2 2 2 8q0 23 -35 72t-53 49l-5 -2q-10 -7 -20 -20q-2 8 -2 26q0 19 4 27 q24 49 72 49q49 0 110 -53q113 -98 170.5 -279.5t57.5 -390.5q0 -170 -35 -318.5t-102.5 -242.5t-153.5 -94h-2q-65 1 -118.5 75t-83.5 194.5t-30 256.5zM184 1384q0 -26 19 -44.5t45 -18.5t43.5 18.5t17.5 44.5t-17.5 44t-43.5 18t-45 -18t-19 -44zM371 1384 q0 -26 17.5 -44.5t43.5 -18.5t45 18.5t19 44.5t-19 44t-45 18t-43.5 -18t-17.5 -44z" />
<glyph unicode="&#xd7;" horiz-adv-x="555" d="M4 309q0 -22 18.5 -39.5t40.5 -17.5q20 0 31 14q13 14 43.5 48t57.5 63.5t51 54.5l174 -141q9 -6 16 -6q8 0 13.5 5.5t5.5 12.5q0 8 -11 19q-89 65 -174 139q90 97 148 164q2 2 2 8q0 17 -27.5 41t-46.5 24q-6 0 -10 -4q-35 -41 -146 -164q-41 36 -73 66.5t-44 43.5 l-12 13q-8 11 -20 11q-7 0 -12.5 -4.5t-5.5 -10.5q0 -8 6 -14q11 -21 135 -133q-100 -108 -148 -162q-12 -15 -12 -31z" />
<glyph unicode="&#xd8;" horiz-adv-x="806" d="M-113 -94q3 -33 27 -33q22 0 45 33q1 2 104 147q16 -39 35 -71q99 -194 273 -209h10q107 0 176 100q72 104 111 262q37 157 37 340q0 213 -56 414l21 29q95 141 137 202q2 2 2 10q0 17 -23 37q-24 17 -43 17q-13 0 -18 -8q-40 -58 -117 -172q-56 133 -145 213 q-47 41 -88 55q-50 16 -82 16q-87 0 -121 -63q-8 -19 -8 -45q0 -50 31 -123q-66 -103 -125 -260q-58 -155 -70 -324l-2 -63q0 -138 35 -263q-49 -73 -129 -194q-17 -31 -17 -47zM141 389q0 55 2 82q27 236 129 430q13 -25 52 -88q45 -75 69 -127q-42 -62 -125 -186 t-125 -185q-2 25 -2 74zM160 188q88 131 198 287q12 17 37 52t37 53v-2q0 -18 -12 -27q-10 -10 -10 -16q0 -9 6 -15t14 -6l10 4q52 37 52 96q0 8 -5 43q87 126 138 195q41 -166 41 -334q0 -165 -35 -317q-37 -147 -103 -244q-64 -94 -153 -94h-2q-102 9 -166 164 q-33 81 -47 161zM252 1165q0 11 4 27q11 21 27 35q14 14 45 14q42 0 110 -53q96 -87 148 -217q-31 -48 -80 -121q-49 -70 -57 -84q-54 98 -87 147q-3 5 -17.5 31.5t-22.5 40.5q23 33 43 47q2 2 2 8q0 12 -17 43q-18 32 -37 54q-21 24 -34 24l-5 -2q-13 -9 -20 -20 q-2 10 -2 26z" />
<glyph unicode="&#xd9;" horiz-adv-x="870" d="M2 598q0 -410 37 -557q33 -129 93 -199.5t128 -70.5q54 0 105 47.5t88 140.5q87 214 149 684q-8 -390 -8 -496q0 -265 33 -388.5t131 -161.5l8 -3q9 0 14.5 7.5t5.5 17.5q0 14 -10 21q-43 33 -43 378q0 128 9.5 539t9.5 664v41q0 26 -70 26q-27 0 -47.5 -6.5t-20.5 -19.5 q0 -45 -2 -74q-11 -174 -30.5 -368t-66.5 -453.5t-105 -386.5q-27 -58 -59 -90.5t-64 -32.5q-90 0 -125 235q-15 108 -15 336v729q0 13 -20.5 21t-48.5 8q-27 0 -46.5 -7t-19.5 -20q-1 -33 -3.5 -138.5t-4.5 -215t-2 -207.5zM287 1483q116 -160 119 -160q12 0 28.5 13.5 t16.5 25.5l-5 8q-27 37 -48 67.5t-28.5 42.5t-14 19.5t-13.5 11.5q-4 2 -12 2q-24 0 -43 -30z" />
<glyph unicode="&#xda;" horiz-adv-x="870" d="M2 598q0 -410 37 -557q33 -129 93 -199.5t128 -70.5q54 0 105 47.5t88 140.5q87 214 149 684q-8 -390 -8 -496q0 -265 33 -388.5t131 -161.5l8 -3q9 0 14.5 7.5t5.5 17.5q0 14 -10 21q-43 33 -43 378q0 128 9.5 539t9.5 664v41q0 26 -70 26q-27 0 -47.5 -6.5t-20.5 -19.5 q0 -45 -2 -74q-11 -174 -30.5 -368t-66.5 -453.5t-105 -386.5q-27 -58 -59 -90.5t-64 -32.5q-90 0 -125 235q-15 108 -15 336v729q0 13 -20.5 21t-48.5 8q-27 0 -46.5 -7t-19.5 -20q-1 -33 -3.5 -138.5t-4.5 -215t-2 -207.5zM340 1362q0 -12 16.5 -25.5t28.5 -13.5 q3 0 119 160q-19 30 -45 30q-9 0 -13 -2q-8 -4 -14 -13t-30.5 -45t-59.5 -83q-2 -2 -2 -8z" />
<glyph unicode="&#xdb;" horiz-adv-x="870" d="M2 598q0 -410 37 -557q33 -129 93 -199.5t128 -70.5q54 0 105 47.5t88 140.5q87 214 149 684q-8 -390 -8 -496q0 -265 33 -388.5t131 -161.5l8 -3q9 0 14.5 7.5t5.5 17.5q0 14 -10 21q-43 33 -43 378q0 128 9.5 539t9.5 664v41q0 26 -70 26q-27 0 -47.5 -6.5t-20.5 -19.5 q0 -45 -2 -74q-11 -174 -30.5 -368t-66.5 -453.5t-105 -386.5q-27 -58 -59 -90.5t-64 -32.5q-90 0 -125 235q-15 108 -15 336v729q0 13 -20.5 21t-48.5 8q-27 0 -46.5 -7t-19.5 -20q-1 -33 -3.5 -138.5t-4.5 -215t-2 -207.5zM272 1348q0 -8 6 -13.5t13 -5.5q4 0 12 8 q29 39 72 113q22 -29 40.5 -54.5t26 -37.5t14 -21t9.5 -11.5t8 -2.5q14 0 29.5 13.5t15.5 25.5q0 6 -2 8q-55 73 -61 86q-12 19 -17 26.5t-13 17.5t-13.5 13t-12.5 3q-12 0 -34 -19q-8 -10 -40 -61.5t-49 -75.5q-4 -8 -4 -12z" />
<glyph unicode="&#xdc;" horiz-adv-x="870" d="M2 598q0 -410 37 -557q33 -129 93 -199.5t128 -70.5q54 0 105 47.5t88 140.5q87 214 149 684q-8 -390 -8 -496q0 -265 33 -388.5t131 -161.5l8 -3q9 0 14.5 7.5t5.5 17.5q0 14 -10 21q-43 33 -43 378q0 128 9.5 539t9.5 664v41q0 26 -70 26q-27 0 -47.5 -6.5t-20.5 -19.5 q0 -45 -2 -74q-11 -174 -30.5 -368t-66.5 -453.5t-105 -386.5q-27 -58 -59 -90.5t-64 -32.5q-90 0 -125 235q-15 108 -15 336v729q0 13 -20.5 21t-48.5 8q-27 0 -46.5 -7t-19.5 -20q-1 -33 -3.5 -138.5t-4.5 -215t-2 -207.5zM217 1380q0 -26 19 -44.5t45 -18.5t43.5 18.5 t17.5 44.5t-17.5 44t-43.5 18t-45 -18t-19 -44zM403 1380q0 -26 18 -44.5t44 -18.5t44.5 18.5t18.5 44.5t-18.5 44t-44.5 18t-44 -18t-18 -44z" />
<glyph unicode="&#xdd;" horiz-adv-x="985" d="M-33 -127q0 -102 88 -182t238 -80q46 0 90 10t90.5 35t85 62t71.5 95t52 130h2q234 0 346 432v6q0 7 -5.5 11.5t-12.5 4.5q-16 0 -19 -12q-11 -43 -27 -89.5t-43.5 -104t-59 -102t-74.5 -75t-89 -30.5h-8q23 123 23 1278q0 26 -70 26q-65 0 -65 -26q-5 -239 -46.5 -497 t-123.5 -435q-26 -59 -59.5 -92t-65.5 -33q-41 0 -74 58.5t-49 178.5q-3 25 -7 47t-5 30t-2 24t-1 45v569q0 13 -20.5 21t-48.5 8q-26 0 -46 -7.5t-20 -19.5q-1 -40 -5.5 -175t-4.5 -212q0 -234 37 -381q33 -129 93 -199.5t128 -70.5q54 0 105 47.5t88 140.5q76 188 116 430 q-2 -110 -3 -237.5t-1.5 -199.5t-2 -142.5t-3 -109.5t-4.5 -58q-7 2 -42.5 18.5t-82 32.5t-94.5 25q-62 12 -113 12q-124 0 -190 -59.5t-66 -147.5zM23 -119q0 66 55.5 111t161.5 45q48 0 112 -12q40 -8 78.5 -22t73.5 -30.5t43 -19.5q-28 -137 -94.5 -210t-161.5 -73 q-119 0 -193.5 65t-74.5 146zM315 1317q0 -12 16.5 -25.5t28.5 -13.5q3 0 119 160q-19 30 -45 30q-8 0 -12 -2q-5 -3 -9 -7t-11 -14t-15.5 -23t-27.5 -39.5t-42 -57.5q-2 -2 -2 -8z" />
<glyph unicode="&#xdf;" horiz-adv-x="632" d="M4 221q0 -282 41 -493q4 -19 24.5 -31t43.5 -12q49 0 49 39v6q-31 250 -31 540q0 438 80 682q48 144 104 144q37 0 65 -53.5t28 -114.5l-5 -35q-8 -40 -26.5 -75t-39 -59.5t-40.5 -49.5t-32.5 -56t-12.5 -67q0 -48 16 -97q15 -44 59 -108.5t78.5 -123t34.5 -103.5 q0 -38 -24 -68q-33 -41 -86 -41q-42 0 -72 27l-8 4q-7 0 -14 -8.5t-7 -16.5q0 -7 7 -14q42 -37 106 -37q47 0 92 21t74 57q41 52 41 112q0 47 -24 101.5t-53 94t-62.5 84.5t-44.5 65q-29 57 -29 96q0 28 14.5 51t37 40.5t46 35t44 43t28.5 55.5q10 45 10 78q0 100 -60 166.5 t-139 66.5q-118 0 -184 -143q-65 -138 -97 -352t-32 -451z" />
<glyph unicode="&#xe0;" horiz-adv-x="913" d="M-4 313q0 -128 79.5 -220.5t180.5 -92.5q69 0 128 49.5t97 151.5q9 -110 56.5 -172t115.5 -62q85 0 169.5 104t133.5 304l2 8q0 7 -5.5 11.5t-12.5 4.5q-17 0 -20 -18q-16 -73 -50.5 -141t-73 -112.5t-75 -71.5t-59.5 -27q-21 0 -27 20q-23 73 -23 207q0 197 31 360v2 q0 13 -34 23t-68 10q-42 0 -45 -14l-13 -96q-33 54 -85.5 82t-112.5 28q-103 0 -185 -75.5t-100 -213.5zM141 301l4 55q16 115 67 173.5t114 58.5q54 0 96.5 -42t54.5 -112q-7 -182 -60.5 -273t-123.5 -91q-61 0 -106.5 64.5t-45.5 166.5zM252 846q116 -160 119 -160 q12 0 28.5 13.5t16.5 25.5l-4 8q-22 30 -40.5 56.5t-27 39.5t-15.5 23t-11.5 14.5t-10.5 7.5t-12 3q-10 0 -22.5 -9.5t-20.5 -21.5z" />
<glyph unicode="&#xe1;" horiz-adv-x="913" d="M-4 313q0 -128 79.5 -220.5t180.5 -92.5q69 0 128 49.5t97 151.5q9 -110 56.5 -172t115.5 -62q85 0 169.5 104t133.5 304l2 8q0 7 -5.5 11.5t-12.5 4.5q-17 0 -20 -18q-16 -73 -50.5 -141t-73 -112.5t-75 -71.5t-59.5 -27q-21 0 -27 20q-23 73 -23 207q0 197 31 360v2 q0 13 -34 23t-68 10q-42 0 -45 -14l-13 -96q-33 54 -85.5 82t-112.5 28q-103 0 -185 -75.5t-100 -213.5zM141 301l4 55q16 115 67 173.5t114 58.5q54 0 96.5 -42t54.5 -112q-7 -182 -60.5 -273t-123.5 -91q-61 0 -106.5 64.5t-45.5 166.5zM281 725q0 -12 16.5 -25.5 t28.5 -13.5q2 0 118 160q-19 31 -45 31q-6 0 -12 -3q-8 -4 -14 -13t-30.5 -45t-59.5 -83q-2 -2 -2 -8z" />
<glyph unicode="&#xe2;" horiz-adv-x="913" d="M-4 313q0 -128 79.5 -220.5t180.5 -92.5q69 0 128 49.5t97 151.5q9 -110 56.5 -172t115.5 -62q85 0 169.5 104t133.5 304l2 8q0 7 -5.5 11.5t-12.5 4.5q-17 0 -20 -18q-16 -73 -50.5 -141t-73 -112.5t-75 -71.5t-59.5 -27q-21 0 -27 20q-23 73 -23 207q0 197 31 360v2 q0 13 -34 23t-68 10q-42 0 -45 -14l-13 -96q-33 54 -85.5 82t-112.5 28q-103 0 -185 -75.5t-100 -213.5zM141 301l4 55q16 115 67 173.5t114 58.5q54 0 96.5 -42t54.5 -112q-7 -182 -60.5 -273t-123.5 -91q-61 0 -106.5 64.5t-45.5 166.5zM242 711q0 -8 5.5 -13.5t12.5 -5.5 q4 0 12 8q29 39 72 113q22 -29 40.5 -54.5t26 -37.5t14 -21t9.5 -11.5t8 -2.5q14 0 29.5 13.5t15.5 25.5q0 6 -2 8q-55 73 -61 86q-2 3 -5 8q-28 44 -41 50l-9 2q-13 0 -35 -19q-8 -10 -39.5 -61.5t-48.5 -75.5q-4 -8 -4 -12z" />
<glyph unicode="&#xe3;" horiz-adv-x="913" d="M-4 313q0 -128 79.5 -220.5t180.5 -92.5q69 0 128 49.5t97 151.5q9 -110 56.5 -172t115.5 -62q85 0 169.5 104t133.5 304l2 8q0 7 -5.5 11.5t-12.5 4.5q-17 0 -20 -18q-16 -73 -50.5 -141t-73 -112.5t-75 -71.5t-59.5 -27q-21 0 -27 20q-23 73 -23 207q0 197 31 360v2 q0 13 -34 23t-68 10q-42 0 -45 -14l-13 -96q-33 54 -85.5 82t-112.5 28q-103 0 -185 -75.5t-100 -213.5zM141 301l4 55q16 115 67 173.5t114 58.5q54 0 96.5 -42t54.5 -112q-7 -182 -60.5 -273t-123.5 -91q-61 0 -106.5 64.5t-45.5 166.5zM195 709q0 -9 6 -14t14 -5 q13 0 16 15q0 3 4.5 11.5t18 18.5t31.5 10h6q21 -1 40.5 -15.5t44 -29t58.5 -14.5q39 0 62 27t30 55v6q0 17 -18 17q-13 0 -19 -15q-10 -31 -61 -31q-25 0 -60.5 27t-72.5 29h-6q-39 0 -62.5 -28t-31.5 -60v-4z" />
<glyph unicode="&#xe4;" horiz-adv-x="913" d="M-4 313q0 -128 79.5 -220.5t180.5 -92.5q69 0 128 49.5t97 151.5q9 -110 56.5 -172t115.5 -62q85 0 169.5 104t133.5 304l2 8q0 7 -5.5 11.5t-12.5 4.5q-17 0 -20 -18q-16 -73 -50.5 -141t-73 -112.5t-75 -71.5t-59.5 -27q-21 0 -27 20q-23 73 -23 207q0 197 31 360v2 q0 13 -34 23t-68 10q-42 0 -45 -14l-13 -96q-33 54 -85.5 82t-112.5 28q-103 0 -185 -75.5t-100 -213.5zM141 301l4 55q16 115 67 173.5t114 58.5q54 0 96.5 -42t54.5 -112q-7 -182 -60.5 -273t-123.5 -91q-61 0 -106.5 64.5t-45.5 166.5zM201 750q0 -26 18.5 -45t44.5 -19 t44 19t18 45t-18 43.5t-44 17.5t-44.5 -17.5t-18.5 -43.5zM387 750q0 -26 18 -45t44 -19t44.5 19t18.5 45t-18.5 43.5t-44.5 17.5t-44 -17.5t-18 -43.5z" />
<glyph unicode="&#xe5;" horiz-adv-x="913" d="M-4 313q0 -128 79.5 -220.5t180.5 -92.5q69 0 128 49.5t97 151.5q9 -110 56.5 -172t115.5 -62q85 0 169.5 104t133.5 304l2 8q0 7 -5.5 11.5t-12.5 4.5q-17 0 -20 -18q-16 -73 -50.5 -141t-73 -112.5t-75 -71.5t-59.5 -27q-21 0 -27 20q-23 73 -23 207q0 197 31 360v2 q0 13 -34 23t-68 10q-42 0 -45 -14l-13 -96q-33 54 -85.5 82t-112.5 28q-103 0 -185 -75.5t-100 -213.5zM141 301l4 55q16 115 67 173.5t114 58.5q54 0 96.5 -42t54.5 -112q-7 -182 -60.5 -273t-123.5 -91q-61 0 -106.5 64.5t-45.5 166.5zM256 776q0 -36 26 -63t70 -27h4 q42 1 65 28t23 64q0 32 -19 55.5t-54 24.5h-15q-49 0 -74.5 -24t-25.5 -58zM322 776q0 26 12.5 45t34.5 19h4q24 0 38.5 -17t16.5 -41q0 -34 -16 -51.5t-41 -17.5q-23 0 -36 19t-13 44z" />
<glyph unicode="&#xe6;" horiz-adv-x="1132" d="M-4 313q0 -133 82 -221q80 -92 178 -92q63 0 125 47q52 44 94 141l10 21q17 -69 70 -135q83 -103 209 -103h12q139 0 248 109q105 105 152 295l2 8q0 8 -4 12q-8 4 -13 4q-6 0 -14 -4q-4 -2 -8 -14q-41 -174 -127 -254q-88 -82 -183 -82q-78 0 -135 57q-61 55 -76 164 q122 23 228 109q90 84 90 145q0 58 -53 96q-56 35 -127 35q-55 0 -113 -28q-6 11 -35 20q-31 8 -67 8q-23 0 -31 -2q-11 -3 -14 -12l-13 -96q-35 57 -88 84q-51 26 -110 26q-96 0 -179 -71q-85 -72 -106 -218zM141 301l4 55q18 121 70 176q53 56 111 56q52 0 94 -39 q41 -39 57 -115q-9 -195 -65 -278q-56 -86 -119 -86q-60 0 -105 63q-47 65 -47 168zM616 305v4q0 139 60 217q59 74 110 74q37 0 58 -35q12 -21 12 -49q0 -53 -51 -110q-52 -61 -189 -101z" />
<glyph unicode="&#xe7;" horiz-adv-x="661" d="M-2 311q0 -133 84 -237q82 -97 194 -103v-20v-21q0 -9 3 -12q12 4 18 4q2 2 8 2q51 -3 78 -24q25 -25 25 -47q-3 -42 -23 -56q-22 -16 -49 -16q-34 0 -62 14q-3 0 -6 -14q-2 -10 -2 -31q0 -16 2 -22q0 -9 4 -13q30 -10 56 -10q42 0 82 29q34 27 34 92v8q0 50 -43 84 q-45 31 -92 31v22q141 3 244 109q106 109 152 295l2 8q0 9 -7 12q-8 4 -12 4t-12 -4q-4 -2 -8 -14q-41 -176 -131 -254q-92 -80 -185 -80q-56 0 -106 27q-46 29 -72 90q-31 67 -31 145l4 47q18 121 70 179q52 55 105 55q46 0 84 -41q36 -39 36 -117q0 -10 7 -14q4 -4 10 -4 q10 0 18 8q8 5 8 18q0 105 -59 158q-62 53 -139 53q-93 0 -176 -71q-88 -72 -109 -218z" />
<glyph unicode="&#xe8;" horiz-adv-x="661" d="M-2 311q0 -137 85.5 -238.5t209.5 -101.5h10q142 0 250 108t152 296l2 8q0 7 -6 11.5t-13 4.5q-17 0 -20 -18q-35 -162 -123 -249t-187 -87q-80 0 -139.5 59t-71.5 162q58 10 119.5 39.5t108.5 69.5q90 76 90 145q0 57 -53.5 94t-128.5 37q-100 0 -181 -71.5t-100 -217.5 zM145 305v4q0 131 54.5 211t115.5 80q40 0 58 -35q12 -18 12 -49q0 -62 -57 -120.5t-183 -90.5zM174 846q116 -160 119 -160q12 0 28.5 13.5t16.5 25.5l-4 8q-22 30 -40.5 56.5t-27 39.5t-15.5 23t-11.5 14.5t-10.5 7.5t-12 3q-10 0 -22.5 -9.5t-20.5 -21.5z" />
<glyph unicode="&#xe9;" horiz-adv-x="661" d="M-2 311q0 -137 85.5 -238.5t209.5 -101.5h10q142 0 250 108t152 296l2 8q0 7 -6 11.5t-13 4.5q-17 0 -20 -18q-35 -162 -123 -249t-187 -87q-80 0 -139.5 59t-71.5 162q58 10 119.5 39.5t108.5 69.5q90 76 90 145q0 57 -53.5 94t-128.5 37q-100 0 -181 -71.5t-100 -217.5 zM145 305v4q0 131 54.5 211t115.5 80q40 0 58 -35q12 -18 12 -49q0 -62 -57 -120.5t-183 -90.5zM227 725q0 -12 16.5 -25.5t28.5 -13.5q3 0 119 160q-19 31 -45 31q-6 0 -12 -3q-5 -3 -9 -7t-11 -14t-15.5 -23t-27.5 -39.5t-42 -57.5q-2 -2 -2 -8z" />
<glyph unicode="&#xea;" horiz-adv-x="661" d="M-2 311q0 -137 85.5 -238.5t209.5 -101.5h10q142 0 250 108t152 296l2 8q0 7 -6 11.5t-13 4.5q-17 0 -20 -18q-35 -162 -123 -249t-187 -87q-80 0 -139.5 59t-71.5 162q58 10 119.5 39.5t108.5 69.5q90 76 90 145q0 57 -53.5 94t-128.5 37q-100 0 -181 -71.5t-100 -217.5 zM145 305v4q0 131 54.5 211t115.5 80q40 0 58 -35q12 -18 12 -49q0 -62 -57 -120.5t-183 -90.5zM160 711q0 -8 5.5 -13.5t12.5 -5.5q4 0 12 8q29 39 72 113q22 -29 40.5 -54.5t26 -37.5t14 -21t9.5 -11.5t8 -2.5q14 0 30 13.5t16 25.5q0 5 -3 8q-55 73 -61 86q-2 3 -5 8 q-28 44 -41 50l-9 2q-13 0 -35 -19q-8 -10 -39.5 -61.5t-48.5 -75.5q-4 -8 -4 -12z" />
<glyph unicode="&#xeb;" horiz-adv-x="661" d="M-2 311q0 -137 85.5 -238.5t209.5 -101.5h10q142 0 250 108t152 296l2 8q0 7 -6 11.5t-13 4.5q-17 0 -20 -18q-35 -162 -123 -249t-187 -87q-80 0 -139.5 59t-71.5 162q58 10 119.5 39.5t108.5 69.5q90 76 90 145q0 57 -53.5 94t-128.5 37q-100 0 -181 -71.5t-100 -217.5 zM127 750q0 -26 18.5 -45t44.5 -19t44 19t18 45t-18 43.5t-44 17.5t-44.5 -17.5t-18.5 -43.5zM145 305v4q0 131 54.5 211t115.5 80q40 0 58 -35q12 -18 12 -49q0 -62 -57 -120.5t-183 -90.5zM313 750q0 -26 18 -45t44 -19t44.5 19t18.5 45t-18.5 43.5t-44.5 17.5t-44 -17.5 t-18 -43.5z" />
<glyph unicode="&#xec;" horiz-adv-x="417" d="M-23 791q116 -160 119 -160q12 0 28.5 13.5t16.5 25.5l-4 8q-27 37 -48 67.5t-28.5 42.5t-14 19.5t-13.5 11.5q-4 2 -13 2q-24 0 -43 -30zM0 317q0 -93 14 -167q12 -85 45 -132q29 -51 91 -51h16q98 24 184 160q89 145 113 248v6q0 6 -4 14q-8 4 -15 4q-4 0 -12 -4 q-4 -2 -8 -14q-42 -164 -125 -256q-87 -96 -123 -96q-14 0 -20 18q-21 71 -21 168q0 98 12 197q7 57 23 149v2q0 7 -16 17q-15 5 -43 12q-32 4 -45 4q-23 0 -31 -2q-12 -3 -15 -12q-20 -114 -20 -265z" />
<glyph unicode="&#xed;" horiz-adv-x="417" d="M0 317q0 -93 14 -167q12 -85 45 -132q29 -51 91 -51h16q98 24 184 160q89 145 113 248v6q0 6 -4 14q-8 4 -15 4q-4 0 -12 -4q-4 -2 -8 -14q-42 -164 -125 -256q-87 -96 -123 -96q-14 0 -20 18q-21 71 -21 168q0 98 12 197q7 57 23 149v2q0 7 -16 17q-15 5 -43 12 q-32 4 -45 4q-23 0 -31 -2q-12 -3 -15 -12q-20 -114 -20 -265zM31 670q0 -12 16.5 -25.5t28.5 -13.5q3 0 119 160q-19 30 -45 30q-9 0 -13 -2q-8 -4 -14 -13t-30.5 -45t-59.5 -83q-2 -2 -2 -8z" />
<glyph unicode="&#xee;" horiz-adv-x="417" d="M-37 655q0 -7 5.5 -12.5t13.5 -5.5q4 0 12 8q29 39 72 113q22 -29 40.5 -54.5t26 -37.5t14 -21t9.5 -11.5t8 -2.5q14 0 29.5 13.5t15.5 25.5q0 6 -2 8q-58 77 -62 86q-13 20 -17.5 26.5t-12 16.5t-13 13t-12.5 3q-14 0 -35 -18q-8 -10 -39.5 -61.5t-48.5 -75.5 q-4 -8 -4 -13zM0 317q0 -93 14 -167q12 -85 45 -132q29 -51 91 -51h16q98 24 184 160q89 145 113 248v6q0 6 -4 14q-8 4 -15 4q-4 0 -12 -4q-4 -2 -8 -14q-42 -164 -125 -256q-87 -96 -123 -96q-14 0 -20 18q-21 71 -21 168q0 98 12 197q7 57 23 149v2q0 7 -16 17 q-15 5 -43 12q-32 4 -45 4q-23 0 -31 -2q-12 -3 -15 -12q-20 -114 -20 -265z" />
<glyph unicode="&#xef;" horiz-adv-x="417" d="M-70 694q0 -26 19 -44.5t45 -18.5t43.5 18.5t17.5 44.5t-17.5 44t-43.5 18t-45 -18t-19 -44zM0 317q0 -93 14 -167q12 -85 45 -132q29 -51 91 -51h16q98 24 184 160q89 145 113 248v6q0 6 -4 14q-8 4 -15 4q-4 0 -12 -4q-4 -2 -8 -14q-42 -164 -125 -256 q-87 -96 -123 -96q-14 0 -20 18q-21 71 -21 168q0 98 12 197q7 57 23 149v2q0 7 -16 17q-15 5 -43 12q-32 4 -45 4q-23 0 -31 -2q-12 -3 -15 -12q-20 -114 -20 -265zM117 694q0 -26 17.5 -44.5t43.5 -18.5t45 18.5t19 44.5t-19 44t-45 18t-43.5 -18t-17.5 -44z" />
<glyph unicode="&#xf0;" horiz-adv-x="665" d="M-4 315q0 -127 82 -217t186 -90q95 0 170 84q135 155 135 477q0 173 -37.5 353.5t-89.5 308.5l80 39q10 5 10 14q0 8 -5.5 14.5t-12.5 6.5q-6 0 -10 -2l-76 -37q-43 74 -88 131q-16 16 -66 16q-35 0 -62.5 -16.5t-37.5 -53.5q57 -66 115 -147l-86 -43q-10 -5 -10 -16 q0 -6 5.5 -12.5t12.5 -6.5l8 2l92 45q47 -72 97.5 -262t50.5 -301q-65 47 -152 47q-110 0 -199.5 -75t-107.5 -212zM141 307l4 49q16 116 71 175t124 59q83 0 129 -74q14 -66 14 -119l-4 -51v-2q-19 -140 -67 -208t-109 -68q-64 0 -113 69t-49 170z" />
<glyph unicode="&#xf1;" horiz-adv-x="845" d="M2 393q0 -102 4 -340q1 -31 21.5 -48t48.5 -17q23 0 42.5 12.5t26.5 34.5v2q0 6 9.5 70.5t30.5 167t49 199t72 166t93 69.5q24 0 31.5 -62t7.5 -186v-217q0 -78 2.5 -136t11 -125t24 -109.5t44 -71.5t68.5 -29l16 2q42 6 81 46.5t65 90.5t52 127t39 127.5t30 123t20 85.5 v6q0 18 -17 18q-16 0 -22 -18q-34 -160 -82 -299t-102 -197q-32 -35 -52 -35q-23 0 -30.5 40t-7.5 118q0 37 2 117.5t2 118.5v71q0 96 -6 166t-23.5 137t-53.5 102.5t-91 35.5q-44 0 -83.5 -35t-71 -98t-56.5 -141t-45 -173q4 269 6 309q0 13 -35.5 23t-71.5 10 q-43 0 -43 -14q-6 -105 -6 -244zM162 813q0 -18 20 -18q14 0 17 14q0 3 4 11.5t17.5 19t31.5 10.5h6q21 -1 40.5 -15.5t44 -29t58.5 -14.5q39 0 62.5 27t30.5 54v7q0 16 -19 16q-12 0 -18 -14q-10 -31 -62 -31q-25 0 -60.5 26.5t-72.5 28.5h-6q-39 0 -62.5 -28t-31.5 -60v-4 z" />
<glyph unicode="&#xf2;" horiz-adv-x="737" d="M0 326q0 -153 74 -254q75 -101 180 -101q66 0 122.5 45t90.5 134h10q103 0 183.5 57t119.5 168l2 6q0 9 -6 14.5t-14 5.5q-13 0 -19 -14q-21 -58 -53 -99.5t-69.5 -62t-71.5 -29t-70 -8.5q21 74 21 152q0 104 -37 188t-107 119q-40 19 -75 19q-91 0 -162 -95 q-42 25 -47 25q-4 0 -4 -2q-30 -46 -49 -118t-19 -150zM133 291l2 43q40 -69 121 -118.5t168 -61.5q-24 -49 -61.5 -76t-77.5 -27q-63 0 -107.5 62t-44.5 178zM162 465v6q6 23 16 47v2q0 2 -6 8q26 42 62 66t73 24q63 0 108.5 -66.5t49.5 -195.5q0 -96 -25 -166 q-117 13 -197.5 98t-80.5 177zM188 860q116 -160 119 -160q12 0 28.5 13.5t16.5 25.5l-4 9q-27 37 -48 67.5t-28.5 42.5t-14 19.5t-13.5 11.5q-4 2 -13 2q-10 0 -22.5 -9.5t-20.5 -21.5z" />
<glyph unicode="&#xf3;" horiz-adv-x="737" d="M0 326q0 -153 74 -254q75 -101 180 -101q66 0 122.5 45t90.5 134h10q103 0 183.5 57t119.5 168l2 6q0 9 -6 14.5t-14 5.5q-13 0 -19 -14q-21 -58 -53 -99.5t-69.5 -62t-71.5 -29t-70 -8.5q21 74 21 152q0 104 -37 188t-107 119q-40 19 -75 19q-91 0 -162 -95 q-42 25 -47 25q-4 0 -4 -2q-30 -46 -49 -118t-19 -150zM133 291l2 43q40 -69 121 -118.5t168 -61.5q-24 -49 -61.5 -76t-77.5 -27q-63 0 -107.5 62t-44.5 178zM162 465v6q6 23 16 47v2q0 2 -6 8q26 42 62 66t73 24q63 0 108.5 -66.5t49.5 -195.5q0 -96 -25 -166 q-117 13 -197.5 98t-80.5 177zM248 739q0 -12 16.5 -25.5t28.5 -13.5q3 0 119 160q-19 31 -45 31q-9 0 -13 -2q-8 -4 -14 -13t-30.5 -45t-59.5 -83q-2 -2 -2 -9z" />
<glyph unicode="&#xf4;" horiz-adv-x="737" d="M0 326q0 -153 74 -254q75 -101 180 -101q66 0 122.5 45t90.5 134h10q103 0 183.5 57t119.5 168l2 6q0 9 -6 14.5t-14 5.5q-13 0 -19 -14q-21 -58 -53 -99.5t-69.5 -62t-71.5 -29t-70 -8.5q21 74 21 152q0 104 -37 188t-107 119q-40 19 -75 19q-91 0 -162 -95 q-42 25 -47 25q-4 0 -4 -2q-30 -46 -49 -118t-19 -150zM133 291l2 43q40 -69 121 -118.5t168 -61.5q-24 -49 -61.5 -76t-77.5 -27q-63 0 -107.5 62t-44.5 178zM162 465v6q6 23 16 47v2q0 2 -6 8q26 42 62 66t73 24q63 0 108.5 -66.5t49.5 -195.5q0 -96 -25 -166 q-117 13 -197.5 98t-80.5 177zM164 725q0 -7 5 -12.5t13 -5.5q5 0 13 8q27 37 71 112q22 -29 40.5 -54.5t26.5 -37.5t14.5 -21t9.5 -11.5t8 -2.5q14 0 29.5 13.5t15.5 25.5q0 7 -2 9q-58 77 -62 86q-13 20 -17.5 26.5t-12 16.5t-13 13t-12.5 3q-13 0 -35 -19 q-8 -10 -39.5 -61.5t-48.5 -75.5q-4 -8 -4 -12z" />
<glyph unicode="&#xf5;" horiz-adv-x="737" d="M0 326q0 -153 74 -254q75 -101 180 -101q66 0 122.5 45t90.5 134h10q103 0 183.5 57t119.5 168l2 6q0 9 -6 14.5t-14 5.5q-13 0 -19 -14q-21 -58 -53 -99.5t-69.5 -62t-71.5 -29t-70 -8.5q21 74 21 152q0 104 -37 188t-107 119q-40 19 -75 19q-91 0 -162 -95 q-42 25 -47 25q-4 0 -4 -2q-30 -46 -49 -118t-19 -150zM131 723q0 -18 21 -18q13 0 16 14q0 3 4 11.5t17.5 19t31.5 10.5h6q17 -1 33.5 -10.5t28.5 -20.5t33.5 -20t48.5 -9q39 0 62 27t30 55v6q0 7 -5.5 12t-13.5 5q-12 0 -18 -14q-10 -31 -61 -31q-25 0 -61 26.5t-73 28.5 h-6q-39 0 -62.5 -28t-31.5 -60v-4zM133 291l2 43q40 -69 121 -118.5t168 -61.5q-24 -49 -61.5 -76t-77.5 -27q-63 0 -107.5 62t-44.5 178zM162 465v6q6 23 16 47v2q0 2 -6 8q26 42 62 66t73 24q63 0 108.5 -66.5t49.5 -195.5q0 -96 -25 -166q-117 13 -197.5 98t-80.5 177z " />
<glyph unicode="&#xf6;" horiz-adv-x="737" d="M0 326q0 -153 74 -254q75 -101 180 -101q66 0 122.5 45t90.5 134h10q103 0 183.5 57t119.5 168l2 6q0 9 -6 14.5t-14 5.5q-13 0 -19 -14q-21 -58 -53 -99.5t-69.5 -62t-71.5 -29t-70 -8.5q21 74 21 152q0 104 -37 188t-107 119q-40 19 -75 19q-91 0 -162 -95 q-42 25 -47 25q-4 0 -4 -2q-30 -46 -49 -118t-19 -150zM131 764q0 -26 19 -45t45 -19t43.5 18.5t17.5 45.5q0 26 -17.5 43.5t-43.5 17.5q-27 0 -45.5 -17.5t-18.5 -43.5zM133 291l2 43q40 -69 121 -118.5t168 -61.5q-24 -49 -61.5 -76t-77.5 -27q-63 0 -107.5 62t-44.5 178z M162 465v6q6 23 16 47v2q0 2 -6 8q26 42 62 66t73 24q63 0 108.5 -66.5t49.5 -195.5q0 -96 -25 -166q-117 13 -197.5 98t-80.5 177zM317 764q0 -26 18 -45t44 -19t44.5 19t18.5 45t-18.5 43.5t-44.5 17.5t-44 -17.5t-18 -43.5z" />
<glyph unicode="&#xf7;" horiz-adv-x="624" d="M0 471q0 -6 5.5 -12t12.5 -6h5l8 1q8 1 22 3t33 4t43.5 4t51 4t58 3t62.5 1q107 0 199 -14h4q18 0 18 18q0 16 -16 19q-93 16 -209 16q-67 0 -136.5 -5.5t-104 -10.5t-40.5 -7q-16 -3 -16 -18zM190 670q0 -31 21.5 -52.5t50.5 -21.5q31 0 52.5 21.5t21.5 52.5 q0 29 -21.5 50t-52.5 21q-29 0 -50.5 -21t-21.5 -50zM197 315q0 -31 21 -52t52 -21t52.5 21t21.5 52q0 29 -21.5 50.5t-52.5 21.5q-30 0 -51.5 -21.5t-21.5 -50.5z" />
<glyph unicode="&#xf8;" horiz-adv-x="737" d="M-8 -102q3 -27 20 -27q18 0 37 25q52 73 53 73l33 43q56 -41 119 -41q142 0 213 179q112 0 192 57q83 59 123 174q0 20 -20 20q-13 0 -19 -14q-73 -199 -264 -199q21 74 21 152q0 79 -25 156q80 115 80 116q0 16 -18 31q-20 14 -37 14q-9 0 -64 -79q-64 88 -155 88 q-85 0 -162 -95q-36 25 -47 25l-4 -2q-68 -109 -68 -268q0 -148 74 -254l12 -15l-82 -123q-12 -21 -12 -36zM133 291l2 43q28 -46 76 -88l-57 -88q-21 56 -21 133zM162 469q5 20 16 51q0 2 -6 8q59 90 135 90q61 0 109 -69l-174 -258q-80 86 -80 178zM193 94l77 113 q67 -40 154 -53q-53 -103 -139 -103q-49 0 -92 43zM297 244l154 219q11 -42 14 -107q0 -96 -25 -166q-78 11 -143 54z" />
<glyph unicode="&#xf9;" horiz-adv-x="849" d="M0 350q0 -164 27 -246q18 -51 56.5 -80.5t92.5 -29.5q78 0 142 97t110 261v-39q0 -540 154 -540q23 0 55 16q38 20 72.5 65.5t57.5 94t47 120.5t35.5 116.5t27 111.5t18.5 78v6q0 18 -16 18q-17 0 -23 -18q-24 -112 -43.5 -185.5t-57 -167t-81.5 -141.5q-34 -39 -60 -39 q-51 0 -51 207l2 109q1 133 11 269.5t20 182.5v2q0 13 -34 23t-68 10q-42 0 -45 -14q-10 -59 -22 -118t-37 -149t-51.5 -156t-64.5 -114.5t-79 -48.5q-58 0 -58 203q0 179 31 362v2q0 13 -34 23t-68 10q-43 0 -46 -14q-20 -140 -20 -287zM197 846q116 -160 118 -160 q12 0 28.5 13.5t16.5 25.5l-4 8q-27 37 -48 67.5t-28.5 42.5t-14 19.5t-13.5 11.5q-6 3 -12 3q-10 0 -22.5 -9.5t-20.5 -21.5z" />
<glyph unicode="&#xfa;" horiz-adv-x="849" d="M0 350q0 -164 27 -246q18 -51 56.5 -80.5t92.5 -29.5q78 0 142 97t110 261v-39q0 -540 154 -540q23 0 55 16q38 20 72.5 65.5t57.5 94t47 120.5t35.5 116.5t27 111.5t18.5 78v6q0 18 -16 18q-17 0 -23 -18q-24 -112 -43.5 -185.5t-57 -167t-81.5 -141.5q-34 -39 -60 -39 q-51 0 -51 207l2 109q1 133 11 269.5t20 182.5v2q0 13 -34 23t-68 10q-42 0 -45 -14q-10 -59 -22 -118t-37 -149t-51.5 -156t-64.5 -114.5t-79 -48.5q-58 0 -58 203q0 179 31 362v2q0 13 -34 23t-68 10q-43 0 -46 -14q-20 -140 -20 -287zM276 725q0 -12 17 -25.5t29 -13.5 q2 0 118 160q-19 31 -45 31q-6 0 -12 -3q-8 -4 -14 -13t-30.5 -45t-59.5 -83q-3 -3 -3 -8z" />
<glyph unicode="&#xfb;" horiz-adv-x="849" d="M0 350q0 -164 27 -246q18 -51 56.5 -80.5t92.5 -29.5q78 0 142 97t110 261v-39q0 -540 154 -540q23 0 55 16q38 20 72.5 65.5t57.5 94t47 120.5t35.5 116.5t27 111.5t18.5 78v6q0 18 -16 18q-17 0 -23 -18q-24 -112 -43.5 -185.5t-57 -167t-81.5 -141.5q-34 -39 -60 -39 q-51 0 -51 207l2 109q1 133 11 269.5t20 182.5v2q0 13 -34 23t-68 10q-42 0 -45 -14q-10 -59 -22 -118t-37 -149t-51.5 -156t-64.5 -114.5t-79 -48.5q-58 0 -58 203q0 179 31 362v2q0 13 -34 23t-68 10q-43 0 -46 -14q-20 -140 -20 -287zM188 711q0 -7 6 -13t13 -6q4 0 12 8 q29 39 72 113q22 -29 40.5 -54.5t26 -37.5t14 -21t9.5 -11.5t8 -2.5q14 0 29.5 13.5t15.5 25.5q0 6 -2 8q-55 73 -61 86q-12 19 -17 26.5t-13 17.5t-13.5 13t-12.5 3q-12 0 -34 -19q-8 -10 -39.5 -61.5t-48.5 -75.5q-5 -10 -5 -12z" />
<glyph unicode="&#xfc;" horiz-adv-x="849" d="M0 350q0 -164 27 -246q18 -51 56.5 -80.5t92.5 -29.5q78 0 142 97t110 261v-39q0 -540 154 -540q23 0 55 16q38 20 72.5 65.5t57.5 94t47 120.5t35.5 116.5t27 111.5t18.5 78v6q0 18 -16 18q-17 0 -23 -18q-24 -112 -43.5 -185.5t-57 -167t-81.5 -141.5q-34 -39 -60 -39 q-51 0 -51 207l2 109q1 133 11 269.5t20 182.5v2q0 13 -34 23t-68 10q-42 0 -45 -14q-10 -59 -22 -118t-37 -149t-51.5 -156t-64.5 -114.5t-79 -48.5q-58 0 -58 203q0 179 31 362v2q0 13 -34 23t-68 10q-43 0 -46 -14q-20 -140 -20 -287zM152 750q0 -26 18.5 -45t44.5 -19 t43.5 18.5t17.5 45.5q0 26 -17.5 43.5t-43.5 17.5t-44.5 -17.5t-18.5 -43.5zM338 750q0 -27 17.5 -45.5t43.5 -18.5t45 19t19 45t-18.5 43.5t-45.5 17.5q-26 0 -43.5 -17.5t-17.5 -43.5z" />
<glyph unicode="&#xfd;" horiz-adv-x="839" d="M-147 -610q0 -118 59.5 -209.5t167.5 -116.5q41 -10 90 -10q97 0 174.5 52t125.5 139.5t73 196t26 228.5v68q232 255 316 641v4q0 6 -5.5 11t-11.5 7h-4q-14 0 -18 -14q-68 -336 -277 -571v143q0 524 23 657v2q0 13 -34 23t-69 10q-42 0 -45 -14q-7 -45 -12 -105 q-44 -223 -103 -347t-110 -124q-35 0 -56.5 62t-21.5 178q0 131 29 315v2q0 13 -34 23t-68 10q-42 0 -45 -14q-21 -147 -21 -287q0 -164 27 -246q15 -49 52 -80.5t83 -31.5q70 0 140 83.5t120 262.5q0 -112 6.5 -335t7.5 -312q-83 -71 -178 -121q0 75 -36 130.5t-97 55.5 q-55 0 -115 -43q-77 -55 -118 -142t-41 -181zM-98 -598q0 80 35 153t102 119q30 21 53 21q34 0 54 -35t20 -90q0 -15 -4 -51q-72 -39 -72 -90q0 -20 12.5 -33.5t32.5 -13.5q12 0 27 6q59 27 86 100q95 50 188 127q-5 -135 -35.5 -243t-94 -178.5t-150.5 -70.5q-23 0 -58 7 q-94 22 -145 98.5t-51 173.5zM279 725q0 -12 16.5 -25.5t28.5 -13.5q2 0 118 160q-19 31 -45 31q-6 0 -12 -3q-8 -4 -14 -13t-30.5 -45t-59.5 -83q-2 -2 -2 -8z" />
<glyph unicode="&#xff;" horiz-adv-x="839" d="M-147 -610q0 -118 59.5 -209.5t167.5 -116.5q41 -10 90 -10q97 0 174.5 52t125.5 139.5t73 196t26 228.5v68q232 255 316 641v4q0 6 -5.5 11t-11.5 7h-4q-14 0 -18 -14q-68 -336 -277 -571v143q0 524 23 657v2q0 13 -34 23t-69 10q-42 0 -45 -14q-7 -45 -12 -105 q-44 -223 -103 -347t-110 -124q-35 0 -56.5 62t-21.5 178q0 131 29 315v2q0 13 -34 23t-68 10q-42 0 -45 -14q-21 -147 -21 -287q0 -164 27 -246q15 -49 52 -80.5t83 -31.5q70 0 140 83.5t120 262.5q0 -112 6.5 -335t7.5 -312q-83 -71 -178 -121q0 75 -36 130.5t-97 55.5 q-55 0 -115 -43q-77 -55 -118 -142t-41 -181zM-98 -598q0 80 35 153t102 119q30 21 53 21q34 0 54 -35t20 -90q0 -15 -4 -51q-72 -39 -72 -90q0 -20 12.5 -33.5t32.5 -13.5q12 0 27 6q59 27 86 100q95 50 188 127q-5 -135 -35.5 -243t-94 -178.5t-150.5 -70.5q-23 0 -58 7 q-94 22 -145 98.5t-51 173.5zM160 750q0 -26 18.5 -45t44.5 -19t44 19t18 45t-18 43.5t-44 17.5t-44.5 -17.5t-18.5 -43.5zM346 750q0 -26 18 -45t44 -19t44.5 19t18.5 45t-18.5 43.5t-44.5 17.5t-44 -17.5t-18 -43.5z" />
<glyph unicode="&#x152;" horiz-adv-x="1402" d="M-2 410q0 -241 100 -428q99 -194 273 -209h10q107 0 176 100q53 75 92 195q10 -52 27 -93q38 -97 112 -153q78 -60 189 -60q100 0 176 54q73 54 123 133q48 80 86 176q26 68 61 176q3 12 11.5 35.5t11.5 36.5l2 8q0 8 -6 14q-8 4 -12 4q-12 0 -21 -18q-61 -225 -156 -393 q-95 -167 -270 -176h-2q-70 0 -119 55q-50 56 -74 145t-24 187q0 149 57 272q57 124 180 158q7 7 9 14q4 12 4 23q0 6 -4 18q-3 6 -15 6q-102 0 -123 55q-1 3 -3 9.5t-3 9.5q125 58 201 131q74 69 111 137q32 60 32 96q0 67 -34 113q-35 47 -113 47q-88 0 -158 -61 q-71 -62 -112 -152q-43 -90 -43 -184q0 -81 38 -139q36 -62 121 -90q-132 -64 -200 -201l-4 -8v22q0 215 -60 426q-58 204 -182 316q-47 41 -88 55q-50 16 -82 16q-87 0 -121 -63q-8 -19 -8 -45q0 -50 31 -123q-66 -103 -125 -260q-58 -155 -70 -324zM141 389q0 55 2 82 q27 236 129 430q13 -25 52 -88q2 -3 77 -137q31 -67 31 -98q0 -18 -12 -27q-10 -10 -10 -16q0 -9 6 -15t14 -6l10 4q52 37 52 96q0 68 -39 142q-51 97 -91 157q-3 5 -17.5 31.5t-22.5 40.5q23 33 43 47q2 2 2 8q0 12 -17 43q-18 32 -37 54q-21 24 -34 24l-5 -2 q-13 -9 -20 -20q-2 10 -2 26q0 11 4 27q11 21 27 35q14 14 45 14q42 0 110 -53q118 -106 174 -289q54 -190 54 -381q0 -165 -35 -317q-37 -147 -103 -244q-64 -94 -153 -94h-2q-102 9 -166 164q-66 160 -66 362zM856 838q0 68 29 170q27 95 78 163q53 68 124 68h11 q36 -6 55 -37q18 -30 18 -76q0 -29 -34 -90q-33 -63 -111 -131q-59 -56 -168 -106q-2 12 -2 39z" />
<glyph unicode="&#x153;" horiz-adv-x="1128" d="M0 326q0 -148 74 -254q82 -101 180 -101q63 0 121 43q55 43 90 146q5 13 14 45q21 -70 70 -131q83 -103 211 -103h10q139 0 248 109q106 106 153 295v8q0 8 -4 12q-8 4 -12 4t-12 -4q-4 -2 -8 -14q-40 -171 -129 -254q-88 -82 -181 -82q-80 0 -137 57q-59 56 -74 164 q119 23 228 109q90 84 90 145q0 58 -53 96q-56 35 -129 35q-89 0 -172 -65q-64 -54 -89 -140q-7 33 -24 78q-34 82 -109 123q-40 19 -75 19q-85 0 -162 -95q-36 25 -47 25l-4 -2q-68 -109 -68 -268zM133 291l2 43q55 -87 156 -137h6q20 0 20 24q0 12 -8 15q-35 18 -69 57 q-78 84 -78 176q5 20 16 51q0 2 -6 8q59 90 135 90q59 0 105 -61q47 -65 53 -201q0 -103 -33 -176q-35 -79 -72 -102q-38 -27 -75 -27q-57 0 -105 60q-47 59 -47 180zM612 305v4q0 141 58 217q59 74 110 74q39 0 60 -35q10 -23 10 -49q0 -53 -51 -110q-52 -60 -187 -101z " />
<glyph unicode="&#x178;" horiz-adv-x="985" d="M-33 -127q0 -102 88 -182t238 -80q46 0 90 10t90.5 35t85 62t71.5 95t52 130h2q234 0 346 432v6q0 7 -5.5 11.5t-12.5 4.5q-16 0 -19 -12q-11 -43 -27 -89.5t-43.5 -104t-59 -102t-74.5 -75t-89 -30.5h-8q23 123 23 1278q0 26 -70 26q-65 0 -65 -26q-5 -239 -46.5 -497 t-123.5 -435q-26 -59 -59.5 -92t-65.5 -33q-41 0 -74 58.5t-49 178.5q-3 25 -7 47t-5 30t-2 24t-1 45v569q0 13 -20.5 21t-48.5 8q-26 0 -46 -7.5t-20 -19.5q-1 -40 -5.5 -175t-4.5 -212q0 -234 37 -381q33 -129 93 -199.5t128 -70.5q54 0 105 47.5t88 140.5q76 188 116 430 q-2 -110 -3 -237.5t-1.5 -199.5t-2 -142.5t-3 -109.5t-4.5 -58q-7 2 -42.5 18.5t-82 32.5t-94.5 25q-62 12 -113 12q-124 0 -190 -59.5t-66 -147.5zM23 -119q0 66 55.5 111t161.5 45q48 0 112 -12q40 -8 78.5 -22t73.5 -30.5t43 -19.5q-28 -137 -94.5 -210t-161.5 -73 q-119 0 -193.5 65t-74.5 146zM209 1358q0 -26 18.5 -45t44.5 -19t44 19t18 45t-18 43.5t-44 17.5t-44.5 -17.5t-18.5 -43.5zM395 1358q0 -26 18 -45t44 -19t44.5 19t18.5 45t-18.5 43.5t-44.5 17.5t-44 -17.5t-18 -43.5z" />
<glyph unicode="&#x2000;" horiz-adv-x="799" />
<glyph unicode="&#x2001;" horiz-adv-x="1599" />
<glyph unicode="&#x2002;" horiz-adv-x="799" />
<glyph unicode="&#x2003;" horiz-adv-x="1599" />
<glyph unicode="&#x2004;" horiz-adv-x="533" />
<glyph unicode="&#x2005;" horiz-adv-x="399" />
<glyph unicode="&#x2006;" horiz-adv-x="266" />
<glyph unicode="&#x2007;" horiz-adv-x="266" />
<glyph unicode="&#x2008;" horiz-adv-x="199" />
<glyph unicode="&#x2009;" horiz-adv-x="319" />
<glyph unicode="&#x200a;" horiz-adv-x="88" />
<glyph unicode="&#x2010;" horiz-adv-x="614" d="M4 461q0 -19 16 -19h7l5 1q6 1 16.5 2.5t25.5 3t37 3.5t47 3.5t59 2.5t70 1q88 0 205 -6h2q8 0 13 5.5t5 12.5q0 18 -18 18q-140 7 -207 7q-51 0 -97 -2t-76 -4.5t-51.5 -4.5t-32.5 -4l-12 -2q-14 -3 -14 -18z" />
<glyph unicode="&#x2011;" horiz-adv-x="614" d="M4 461q0 -19 16 -19h7l5 1q6 1 16.5 2.5t25.5 3t37 3.5t47 3.5t59 2.5t70 1q88 0 205 -6h2q8 0 13 5.5t5 12.5q0 18 -18 18q-140 7 -207 7q-51 0 -97 -2t-76 -4.5t-51.5 -4.5t-32.5 -4l-12 -2q-14 -3 -14 -18z" />
<glyph unicode="&#x2012;" horiz-adv-x="614" d="M4 461q0 -19 16 -19h7l5 1q6 1 16.5 2.5t25.5 3t37 3.5t47 3.5t59 2.5t70 1q88 0 205 -6h2q8 0 13 5.5t5 12.5q0 18 -18 18q-140 7 -207 7q-51 0 -97 -2t-76 -4.5t-51.5 -4.5t-32.5 -4l-12 -2q-14 -3 -14 -18z" />
<glyph unicode="&#x2013;" horiz-adv-x="788" d="M102 330q0 -8 5 -14.5t14 -6.5h4l7 1q7 2 20.5 4t32.5 4.5t45.5 4.5t56.5 4t68.5 3.5t78.5 1.5q89 0 232 -10h2q18 0 18 18q0 7 -5 12.5t-13 5.5q-126 11 -244 11q-86 0 -162 -5.5t-107 -10.5t-38 -7q-15 -3 -15 -16z" />
<glyph unicode="&#x2014;" horiz-adv-x="985" d="M102 336q0 -8 5 -13.5t12 -5.5h4l6 1q6 1 17.5 2t27.5 3t38.5 3.5t48 3.5t58 4t67 3t76.5 2t85 1q120 0 315 -10h2q8 0 13.5 5.5t5.5 12.5q0 19 -19 19q-205 10 -327 10q-118 0 -221.5 -5.5t-149 -10.5t-47.5 -7q-17 0 -17 -18z" />
<glyph unicode="&#x2018;" horiz-adv-x="352" d="M102 1272q0 -40 7 -72q6 -32 24.5 -48.5t42.5 -18.5h6q29 0 48.5 17.5t19.5 39.5q0 16 -16 29t-48 16q2 32 17 113v2q0 12 -28 23t-46 11l-6 -2q-21 -38 -21 -110z" />
<glyph unicode="&#x2019;" horiz-adv-x="352" d="M102 1331q0 -16 16 -29t48 -16q-9 -75 -16 -112v-3q0 -11 28.5 -22.5t44.5 -11.5l6 2q21 37 21 108q0 47 -6 74q-6 32 -25 49t-43 19h-6q-28 0 -48 -18t-20 -40z" />
<glyph unicode="&#x201a;" horiz-adv-x="352" d="M102 -262q0 -39 64 -45q-10 -82 -16 -113v-2q0 -12 29 -24.5t46 -12.5l4 2q21 41 21 111q0 45 -6 72q-11 63 -68 67h-6q-28 0 -48 -17t-20 -38z" />
<glyph unicode="&#x201c;" horiz-adv-x="497" d="M102 1286q0 -37 7 -69q11 -58 63 -62h4q27 0 46.5 16t19.5 37q0 35 -60 41q3 45 15 103v2q0 10 -27 20t-43 10l-6 -2q-19 -36 -19 -96zM248 1296q0 -43 6 -73q13 -60 68 -68h4q28 0 48.5 18t20.5 39q0 40 -61 45q3 56 14 113v2q0 12 -28 23.5t-46 11.5l-6 -2 q-20 -36 -20 -109z" />
<glyph unicode="&#x201d;" horiz-adv-x="497" d="M102 1329q0 -16 16 -29t48 -16q-9 -77 -16 -113v-2q0 -11 28.5 -22.5t44.5 -11.5l6 2q21 37 21 108q0 47 -6 74q-6 32 -25 48.5t-43 18.5h-6q-29 0 -48.5 -17.5t-19.5 -39.5zM256 1335q0 -38 59 -41q-3 -49 -14 -102v-2q0 -11 28 -22t44 -11l4 2q18 30 18 105q0 45 -4 61 q-14 57 -65 61h-7q-27 0 -45 -15.5t-18 -35.5z" />
<glyph unicode="&#x201e;" horiz-adv-x="497" d="M102 -254q0 -39 64 -45q-10 -82 -16 -113v-2q0 -12 29 -24.5t46 -12.5l4 2q21 41 21 111q0 45 -6 72q-11 63 -68 67h-6q-28 0 -48 -17t-20 -38zM256 -250q0 -15 14.5 -26.5t44.5 -14.5q-3 -49 -14 -102v-2q0 -11 28 -22t44 -11l4 2q18 32 18 104q0 46 -4 62 q-13 57 -65 61h-7q-27 0 -45 -15.5t-18 -35.5z" />
<glyph unicode="&#x2022;" horiz-adv-x="466" d="M53 338q0 -43 31 -74t74 -31q42 0 73 31t31 74t-31 74q-30 30 -73 30q-44 0 -74 -30q-31 -31 -31 -74z" />
<glyph unicode="&#x2026;" horiz-adv-x="1767" d="M53 74q0 -31 21.5 -52.5t52.5 -21.5q29 0 50.5 21.5t21.5 52.5q0 29 -21.5 50t-50.5 21q-31 0 -52.5 -21t-21.5 -50zM735 74q0 -31 21.5 -52.5t52.5 -21.5q29 0 50.5 21.5t21.5 52.5q0 29 -21.5 50t-50.5 21q-31 0 -52.5 -21t-21.5 -50zM1417 74q0 -31 21.5 -52.5 t52.5 -21.5q29 0 50.5 21.5t21.5 52.5q0 29 -21.5 50t-50.5 21q-31 0 -52.5 -21t-21.5 -50z" />
<glyph unicode="&#x202f;" horiz-adv-x="319" />
<glyph unicode="&#x2039;" horiz-adv-x="593" d="M102 299q0 -33 33 -55h-2q15 -10 122 -75t169 -110l12 -4q8 0 14.5 6.5t6.5 14.5q0 7 -8 12q-40 30 -86.5 59.5t-103.5 63.5t-69 41q57 44 156.5 115.5t140.5 103.5q5 3 5 10q0 20 -23.5 49t-40.5 29l-6 -2q-128 -98 -188 -139.5t-113 -81.5q-19 -16 -19 -37z" />
<glyph unicode="&#x203a;" horiz-adv-x="526" d="M35 145q0 -19 23 -47t40 -28l6 2q130 100 193 143.5t109 77.5q18 15 18 37q0 33 -33 55q-19 14 -124.5 77t-166.5 107q-4 4 -12 4t-13 -5.5t-5 -12.5q0 -9 8 -14q52 -37 150.5 -97.5t107.5 -66.5q-57 -44 -156.5 -115.5t-140.5 -103.5q-4 -2 -4 -13z" />
<glyph unicode="&#x205f;" horiz-adv-x="399" />
<glyph unicode="&#x20ac;" horiz-adv-x="864" d="M2 397q0 -20 18 -20h64q3 -118 33 -232q60 -240 303 -288l29 -2q48 0 93.5 29t84.5 83t69.5 110t63.5 132l2 6q0 14 -14 14q-13 0 -21 -16q-67 -136 -141.5 -222.5t-132.5 -86.5q-17 0 -25 4q-59 24 -102.5 94.5t-63.5 181.5q-16 85 -16 193h209q20 0 20 20q0 7 -5 13 t-15 6h-209q0 37 2 55h207q10 0 15 5.5t5 12.5q0 19 -20 19h-205q6 100 24 189t49.5 167.5t81.5 129t113 59.5l25 2q48 0 72 -31t24 -82q0 -93 -59 -178q-5 -5 -5 -14t5.5 -15t13.5 -6q9 0 14 8q68 96 68 205q0 71 -37 116.5t-111 45.5q-116 0 -212.5 -81.5t-154.5 -216.5 t-73 -298h-68q-18 0 -18 -19q0 -7 5 -12.5t13 -5.5h64q0 -37 -2 -55h-62q-8 0 -13 -6t-5 -13z" />
<glyph unicode="&#x2122;" horiz-adv-x="925" d="M4 1184q0 -39 32.5 -104.5t71 -143t48.5 -137.5v-86q0 -48 7.5 -65t35.5 -17q17 1 27 11t10 24l-3 573q58 -1 99 -9t59 -16t21 -8q4 0 10 11l2 10q0 43 -191 51h-16q-116 0 -164.5 -24t-48.5 -70zM41 1178q0 24 26 37.5t89 19.5v-303q-20 49 -50.5 104.5t-47.5 89 t-17 52.5zM283 1008l4 -334q1 -18 14 -27.5t29 -9.5q15 0 26 9.5t11 25.5t9 109.5t34.5 233t58.5 202.5q4 -70 4 -187q0 -72 -3 -160t-3 -106q0 -49 9 -67.5t36 -18.5q5 0 11 1t16 9.5t10 24.5q0 4 16 78t40.5 162t41.5 110l2 -27q0 -24 -9 -120t-9 -148q0 -145 63 -145 q16 0 31 10.5t28 30t24 40t21.5 50t17.5 50t16 48.5t12 37l2 8q0 16 -21 16q-12 0 -18 -14q-25 -84 -55 -149.5t-45 -75.5l-2 33q0 29 7 118.5t7 135.5q0 95 -27 129q-17 20 -35 20q-48 0 -104 -201q-3 -9 -4 -14l2 109q0 91 -9 154.5t-23 92.5t-32 29q-30 0 -63 -76.5 t-57 -210.5v82q0 41 -7 52.5t-34 11.5h-15q-18 0 -23 -22t-5 -109z" />
<glyph unicode="&#x25fc;" horiz-adv-x="665" d="M0 0v666h666v-666h-666z" />
</font>
</defs>
</svg>
