<?xml version="1.0" standalone="no"?>
<!DOCTYPE svg PUBLIC "-//W3C//DTD SVG 1.1//EN" "http://www.w3.org/Graphics/SVG/1.1/DTD/svg11.dtd" >
<svg xmlns="http://www.w3.org/2000/svg" xmlns:xlink="http://www.w3.org/1999/xlink" version="1.1">
<metadata></metadata>
<defs>
<font id="my_fontregular" horiz-adv-x="1185" >
<font-face units-per-em="2048" ascent="1638" descent="-410" />
<missing-glyph horiz-adv-x="508" />
<glyph horiz-adv-x="0" />
<glyph horiz-adv-x="682" />
<glyph unicode=" "  horiz-adv-x="508" />
<glyph unicode="&#x09;" horiz-adv-x="508" />
<glyph unicode="&#xa0;" horiz-adv-x="508" />
<glyph unicode="!" horiz-adv-x="566" d="M73 1350h119q89 0 135 -34q47 -35 68 -93q19 -60 24 -137q3 -52 3 -109l-2 -121q0 -100 12 -222q10 -118 76 -239q-168 0 -256 30q-90 30 -124 88t-34 141q0 72 10 158q14 124 14 260q0 138 -45 278zM105 135q0 78 55 133q54 55 130 55q77 0 132 -55q54 -56 54 -133 q0 -78 -54 -133q-56 -56 -132 -56t-130 56q-55 55 -55 133z" />
<glyph unicode="&#x22;" horiz-adv-x="746" d="M-39 1217q0 80 49 135q48 55 126 55t129 -55q50 -56 50 -135q0 -52 -23 -116q-22 -64 -63 -109q-40 -46 -93 -46q-52 0 -91 46q-39 44 -62 109q-22 62 -22 116zM387 1217q0 80 49 135q48 55 126 55t129 -55q50 -56 50 -135q0 -52 -23 -116q-22 -64 -63 -109 q-40 -46 -93 -46q-52 0 -91 46q-39 44 -62 109q-22 62 -22 116z" />
<glyph unicode="#" horiz-adv-x="1400" d="M9 611h208q42 132 46 146h-34q-145 0 -161 123q-4 34 -6 65h247q14 92 14 161q0 1 -2 75q-3 50 -26 169h119q236 0 236 -316q0 -59 -2 -89h204q14 95 14 166q0 94 -29 239h120q91 0 144 -42q91 -75 91 -274q0 -74 -1 -89h23q142 0 160 -123q5 -35 6 -65h-211 q-12 -86 -22 -146h13q148 0 161 -123q5 -35 6 -65h-209q-21 -153 -21 -246q0 -98 23 -175q-187 0 -286 32q-98 32 -130 101q-23 49 -23 117q0 71 23 171h-130q-20 -154 -20 -242q0 -103 24 -179q-187 0 -286 32t-131 101q-23 51 -23 119q0 65 25 169q-132 5 -148 123 q-5 35 -6 65zM603 611h156l13 41q17 47 34 105h-180q-7 -54 -23 -146z" />
<glyph unicode="$" horiz-adv-x="1300" d="M70 231q0 58 40 104t137 74q96 27 266 27q-4 -17 -4 -35q0 -51 46 -87q45 -36 119 -36q76 0 119 37q35 29 35 75q0 87 -454 235q-81 28 -150 74q-154 100 -154 291q0 246 226 349q108 48 241 61q7 179 105 211q40 13 83 15v-220q121 -4 230 -35q117 -34 193 -97 q69 -60 69 -142q0 -58 -40 -104t-136 -73q-96 -28 -267 -28q4 17 4 35q0 51 -45 87q-47 36 -120 36q-76 0 -119 -37q-35 -29 -35 -75q0 -82 454 -235q81 -28 150 -74q154 -100 154 -291q0 -246 -226 -349q-108 -48 -241 -61q-7 -179 -105 -211q-40 -13 -83 -15v220 q-121 4 -230 35q-117 34 -193 97q-69 60 -69 142z" />
<glyph unicode="%" horiz-adv-x="1380" d="M40 1028q0 219 121 319q72 60 165 60q122 0 198 -79q98 -101 98 -297q0 -213 -124 -310q-76 -59 -172 -59q-98 0 -172 63q-114 97 -114 303zM217 2l610 1131q94 171 202 203q51 14 104 14l-611 -1132q-93 -170 -201 -202q-51 -14 -104 -14zM223 1028q0 -103 32 -162 t71 -59q40 0 75 57q33 57 33 164q0 106 -31 159q-31 54 -72 54t-74 -52q-34 -52 -34 -161zM740 324q0 128 40 212q52 105 142 145q52 23 108 23q132 -2 209 -98q83 -101 83 -279q0 -97 -26 -169q-39 -106 -125 -159q-68 -41 -145 -41q-94 0 -167 58q-119 98 -119 308z M922 324q0 -104 33 -162q31 -58 71 -58t75 57q33 56 33 163q0 104 -32 159q-32 54 -71 54q-41 0 -75 -52t-34 -161z" />
<glyph unicode="&#x26;" horiz-adv-x="1329" d="M48 365q0 228 139 346q36 30 80 57q-113 145 -113 272q0 106 47 189q102 177 375 177q132 0 232 -50q76 -39 118 -91q74 -91 74 -213q0 -167 -118 -279q-55 -54 -139 -104q75 -61 135 -107q9 58 9 127q33 -13 63 -13q22 0 88 20q49 14 55 16q27 7 62 7q0 -184 -47 -346 q50 -45 79 -74q148 -145 148 -248q-35 5 -58 5q-29 0 -65 -9q-35 -9 -77 -29q-44 -20 -89 -32q0 55 -50 120l-16 18q-139 -166 -381 -166q-186 0 -308 51q-126 52 -184 145q-59 94 -59 211zM413 393q0 -59 48 -101q47 -42 130 -42q94 0 174 71q-228 183 -261 211l-22 -17 q-69 -50 -69 -122zM448 1023q0 -61 73 -149q31 12 64 27q117 52 117 136q0 41 -36 71q-40 31 -93 31q-51 0 -88 -35q-37 -34 -37 -81z" />
<glyph unicode="'" horiz-adv-x="321" d="M-39 1217q0 80 49 135q48 55 126 55t129 -55q50 -56 50 -135q0 -52 -23 -116q-22 -64 -63 -109q-40 -46 -93 -46q-52 0 -91 46q-39 44 -62 109q-22 62 -22 116z" />
<glyph unicode="(" horiz-adv-x="684" d="M73 481q0 165 45 320q44 148 127 267q91 130 234 208q136 74 317 74q0 -42 -6 -85q-12 -103 -84 -103q-184 0 -283 -213q-82 -177 -82 -434q6 -304 101 -502q101 -212 264 -212q72 0 84 -103q6 -44 6 -86q-179 0 -315 74q-246 133 -350 436q-58 170 -58 359z" />
<glyph unicode=")" horiz-adv-x="671" d="M-134 -388q0 42 6 86q12 103 84 103q163 0 265 212q94 195 100 502q0 257 -82 434q-99 213 -283 213q-72 0 -84 103q-6 43 -6 85q181 0 318 -74q142 -79 233 -208q83 -119 127 -267q45 -155 45 -320q0 -189 -58 -359q-104 -303 -350 -436q-136 -74 -315 -74z" />
<glyph unicode="*" horiz-adv-x="602" d="M24 871q0 39 38 66l110 81l-110 80q-38 27 -38 66q0 45 49 109l151 -110v94q0 75 81 88q37 5 68 5v-187l151 110q31 -40 45 -88q4 -9 4 -22q0 -38 -38 -65l-110 -80l110 -81q38 -27 38 -64q0 -46 -49 -110l-151 109v-93q0 -43 -24 -63t-57 -24q-33 -6 -64 -6h-4v186 l-151 -109q-30 39 -46 88q-3 10 -3 20z" />
<glyph unicode="+" horiz-adv-x="828" d="M-5 792h327v209q0 92 103 111q36 7 86 8v-328h209q95 0 111 -103q6 -42 7 -85h-327v-210q0 -55 -31 -79q-47 -38 -154 -39h-4v328h-209q-95 0 -111 102q-6 45 -7 86z" />
<glyph unicode="," horiz-adv-x="471" d="M7 168q0 107 71 170q58 51 147 51q104 0 167 -65t65 -193q0 -54 -14 -130q-22 -111 -66 -191q-66 -121 -162 -121q-57 0 -61 49q44 21 66 81q12 35 12 70q0 30 -7 57q-91 0 -154 65q-64 64 -64 157z" />
<glyph unicode="-" horiz-adv-x="826" d="M-6 792h725q95 0 111 -103q6 -42 7 -85h-725q-94 0 -111 102q-6 45 -7 86z" />
<glyph unicode="." horiz-adv-x="452" d="M4 168q0 92 64 156q63 65 153 65t155 -65q63 -64 63 -156t-63 -157q-65 -65 -155 -65t-153 65q-64 64 -64 157z" />
<glyph unicode="/" horiz-adv-x="692" d="M-8 2l383 1131q33 95 84 141q42 37 88 53q66 23 175 23l-384 -1132q-58 -170 -202 -202q-68 -14 -144 -14z" />
<glyph unicode="0" d="M52 665q0 351 170 551q79 93 178 137q99 45 207 45q123 0 225 -46q214 -96 300 -363q44 -138 44 -319q0 -328 -162 -521q-82 -101 -195 -147q-105 -44 -215 -44q-109 0 -209 44q-101 44 -177 132q-166 190 -166 531zM404 665q5 -202 65 -313q60 -113 135 -113 q79 0 142 110q62 109 67 316q0 136 -28 226q-29 93 -74 138q-47 47 -97 47q-53 0 -101 -45q-34 -31 -59 -86q-50 -109 -50 -280z" />
<glyph unicode="1" d="M181 1387v4q87 -33 159 -37q74 -6 142 -6h78q130 0 197 -56q64 -55 87 -163q21 -108 21 -262l-2 -244q0 -140 8 -297q11 -200 69 -326q-186 0 -291 32q-103 31 -147 101q-49 77 -49 211q0 93 35 306q6 41 22 150q10 69 10 131q0 94 -11 168q-44 -9 -83 -9 q-245 0 -245 297z" />
<glyph unicode="2" d="M37 175q0 64 60 136q50 60 126 124q83 70 217 166q211 153 285 236q47 53 47 97q0 71 -46 111q-46 39 -107 39q-45 0 -81 -16q-37 -16 -51 -44q-14 -30 -14 -54q0 -20 6 -45q-442 0 -442 205q0 147 164 221q120 54 298 54q303 0 466 -85q188 -99 188 -320 q0 -102 -35 -180q-35 -77 -95 -136q-59 -58 -137 -108q-71 -46 -163 -96q-93 -52 -174 -103q66 8 134 8q162 0 285 -51q122 -51 157 -113q34 -62 34 -106q0 -54 -34 -115q-113 45 -228 69q-118 23 -254 23q-126 0 -268 -56q-96 -36 -139 -36q-68 0 -111 24q-43 22 -66 63 q-22 40 -22 88z" />
<glyph unicode="3" d="M23 233q0 205 442 205q-6 -24 -6 -45q0 -27 10 -46q16 -34 55 -51t80 -17q74 0 112 37q39 36 39 94q0 54 -24 80q-18 18 -45 27q-33 11 -101 16q-38 1 -89 10q-43 7 -80 32q-82 54 -82 212q69 -18 112 -20q26 -1 43 -1q67 0 130 17q59 16 100 55q39 38 39 98 q0 71 -46 111q-46 39 -108 39q-44 0 -80 -16q-37 -16 -51 -44q-14 -30 -14 -54q0 -20 6 -45q-442 0 -442 205q0 88 58 149t163 94q105 32 241 32q303 0 466 -85q188 -99 188 -320q0 -190 -133 -319q133 -130 133 -320q0 -405 -654 -405q-167 0 -281 46q-181 73 -181 229z " />
<glyph unicode="4" d="M-12 346q88 246 111 322q70 233 133 480q59 235 61 297q217 -46 217 -290q0 -59 -12 -125q-46 -262 -189 -507q71 -3 148 -3q107 0 210 3q9 68 19 127q32 194 32 281q0 125 -18 214q-19 86 -60 203h119q91 0 150 -42q106 -76 138 -283q20 -140 20 -382v-89q127 15 181 35 q-15 -131 -117 -201q-32 -22 -59 -36q1 -47 6 -97q11 -148 61 -253q-187 0 -292 32q-102 31 -146 101q-34 52 -45 136l-40 -1q-189 0 -383 29q-143 21 -245 49z" />
<glyph unicode="5" d="M52 275q0 205 442 205q-6 -24 -6 -45q0 -27 10 -46q16 -34 55 -51t81 -17q31 0 78 14q111 33 111 156q0 34 -37 65q-36 29 -127 49q-86 19 -245 19h-341q11 70 18 163q7 87 7 144q0 122 -29 204q-17 53 -17 95q0 170 152 170q54 0 98 -12q44 -14 86 -31q60 -23 115 -37 q63 -18 155 -18q230 0 440 92q40 -70 40 -134q0 -31 -11 -62q-31 -87 -138 -138t-270 -51q-88 0 -307 37q16 -81 23 -172q263 -2 419 -38q164 -39 239 -125q75 -85 75 -229q0 -154 -86 -263q-87 -108 -235 -163q-150 -56 -333 -56q-162 0 -277 45q-185 72 -185 230z" />
<glyph unicode="6" d="M28 672q0 327 158 521q175 214 525 214q136 0 241 -32q106 -34 163 -94q58 -61 58 -149q0 -205 -443 -205q7 24 7 47q0 25 -10 44q-35 68 -136 68q-129 0 -164 -231q49 4 108 4q192 0 321 -58q165 -74 237 -193q72 -122 72 -246q0 -114 -50 -209q-105 -195 -404 -195 q-354 0 -531 217q-152 188 -152 497zM417 620q12 -278 139 -344q42 -21 83 -21q69 0 108 39q39 38 39 99q-1 72 -97 142q-96 69 -272 85z" />
<glyph unicode="7" d="M91 1276q0 55 34 116q138 -54 205 -71q81 -21 230 -21q103 0 216 29q67 19 125 19q57 0 97 -36q40 -37 40 -142q0 -112 -52 -261q-51 -147 -120 -313t-124 -332q-45 -137 -45 -235q0 -20 1 -29q-187 0 -278 32q-90 31 -107 101q-5 22 -5 43q0 138 198 477 q127 220 176 360q-52 -6 -115 -6q-163 0 -286 51q-122 51 -169 138q-21 38 -21 80z" />
<glyph unicode="8" d="M54 365q0 252 200 389q-94 116 -94 286q0 106 47 189t146 131q99 47 252 47q156 0 256 -50q99 -50 146 -131q47 -83 47 -174q0 -182 -95 -298q202 -139 202 -402q0 -104 -58 -192q-39 -59 -107 -105q-146 -97 -392 -97q-367 0 -492 197q-58 91 -58 210zM418 393 q0 -138 187 -138t187 138q0 51 -48 104q-49 52 -139 88q-91 -36 -138 -88q-49 -52 -49 -104zM454 1023q0 -56 40 -100q40 -45 111 -66q71 21 110 66q41 50 41 102q0 115 -151 115t-151 -117z" />
<glyph unicode="9" d="M48 1000q0 118 51 212q103 195 403 195q356 0 531 -216q152 -190 152 -497q0 -328 -157 -521q-174 -215 -526 -215q-205 0 -329 73q-124 72 -124 202t170 178q95 27 264 27q-6 -26 -6 -46q0 -67 65 -96q39 -17 80 -17q130 0 165 231q-49 -4 -108 -4q-193 0 -322 58 q-165 74 -237 193q-72 120 -72 243zM427 972q1 -72 98 -141q95 -70 272 -86q-14 279 -140 344q-40 22 -83 22q-68 0 -107 -39q-40 -39 -40 -100z" />
<glyph unicode=":" horiz-adv-x="567" d="M65 168q0 92 64 156q63 65 153 65t155 -65q63 -64 63 -156t-63 -157q-65 -65 -155 -65t-153 65q-64 64 -64 157zM65 840q0 92 64 156q63 65 153 65t155 -65q63 -64 63 -156t-63 -157q-65 -65 -155 -65t-153 65q-64 64 -64 157z" />
<glyph unicode=";" horiz-adv-x="577" d="M66 168q0 107 71 170q59 51 147 51q104 0 167 -65t65 -193q0 -54 -14 -130q-22 -111 -66 -191q-66 -121 -162 -121q-57 0 -61 49q43 21 66 81q12 35 12 70q0 30 -7 57q-91 0 -154 65q-64 64 -64 157zM66 840q0 92 64 156q63 65 153 65t155 -65q63 -64 63 -156t-63 -157 q-65 -65 -155 -65t-153 65q-64 64 -64 157z" />
<glyph unicode="&#x3c;" horiz-adv-x="884" d="M-15 636q0 76 19 108q19 33 70 55l637 281q25 12 51 12q48 0 60 -66q7 -38 7 -82l-557 -246l557 -246q0 -43 -7 -81q-8 -42 -32 -59q-10 -9 -29 -9q-21 0 -50 13z" />
<glyph unicode="=" horiz-adv-x="910" d="M32 637h725q95 0 111 -103q7 -36 8 -86h-725q-95 0 -111 103q-7 36 -8 86zM32 937h725q95 0 111 -103q7 -36 8 -85h-725q-95 0 -111 102q-7 38 -8 86z" />
<glyph unicode="&#x3e;" horiz-adv-x="876" d="M42 452l557 246l-557 246q0 39 8 82q10 66 59 66q25 0 51 -12l637 -281q50 -22 71 -55q18 -33 18 -108l-726 -320q-29 -13 -50 -13q-18 0 -29 9q-24 17 -32 59q-7 38 -7 81z" />
<glyph unicode="?" horiz-adv-x="1127" d="M-26 1132q0 154 177 227q117 48 285 48q304 0 467 -85q187 -99 187 -320q0 -125 -35 -203q-36 -76 -88 -122q-53 -47 -107 -80q-41 -26 -73 -52q-75 -60 -75 -150l-121 -1q-73 0 -161 5q-83 5 -136 26q-56 21 -56 72q0 62 44 104q51 48 177 94q56 20 120 52q55 28 93 74 q37 43 37 115q0 71 -46 111q-47 39 -107 39q-45 0 -81 -16q-38 -17 -55 -52q-10 -19 -10 -46q0 -20 6 -45q-442 0 -442 205zM301 135q0 78 55 133q54 55 131 55t131 -55q54 -56 54 -133q0 -78 -54 -133q-54 -56 -131 -56t-131 56q-55 55 -55 133z" />
<glyph unicode="@" horiz-adv-x="1983" d="M59 571q0 192 72 360q72 167 199 294q125 127 294 199q168 72 359 72q212 0 373 -70q344 -150 480 -517q68 -183 68 -373q0 -3 -0.5 -17.5t-1 -44t-0.5 -60.5q-3 -110 -103 -282q-119 -200 -332 -200q-81 0 -168 31q-89 30 -156 99q-68 68 -86 179q-43 -7 -103 -7 q-80 0 -182 11q-9 -61 -9 -115q0 -72 17 -129q-156 0 -243 26t-118 72q-33 46 -33 106q0 70 37 160q36 87 82 174q54 103 99 211q45 106 65 228q7 41 7 89q0 73 -20 153h351q140 0 227 -152q45 -80 77 -189q35 -115 83 -372q22 -120 55 -261q29 -122 72 -201q119 29 186 142 q90 156 90 350q0 175 -63 341q-65 168 -179 285q-217 225 -572 225q-169 0 -317 -63q-151 -66 -260 -176q-112 -111 -176 -260q-64 -147 -64 -318q0 -170 64 -317q66 -151 176 -260q109 -110 260 -176q147 -64 317 -64q73 0 142 12q37 5 59 5q92 0 115 -69 q-153 -55 -316 -55q-191 0 -359 72q-169 72 -294 199q-127 125 -199 294q-72 168 -72 359zM810 441q122 3 220 16q-32 268 -109 486q-22 -152 -72 -338q-20 -79 -39 -164z" />
<glyph unicode="A" horiz-adv-x="1288" d="M17 224q0 80 41 179q35 86 90 194q52 98 110 233q52 123 71 252q8 53 8 99q0 85 -22 169h388q219 0 328 -348q49 -156 100 -441q33 -180 72 -331t103 -231q-221 0 -307 8q-82 8 -147 59q-73 55 -93 200q-35 -5 -101 -5q-119 0 -215 9q-10 -70 -10 -123q0 -80 20 -145 q-321 0 -401 110q-35 49 -35 112zM484 488q131 3 245 17q-8 65 -26 175q-28 171 -94 364q-17 -117 -81 -375q-13 -48 -44 -181z" />
<glyph unicode="B" horiz-adv-x="1345" d="M83 1350h393q170 0 312 -29q231 -49 353 -165q94 -91 94 -212q0 -127 -76 -203q-51 -50 -136 -81q245 -98 245 -295q0 -179 -156 -291q-95 -69 -237 -101q-107 -25 -229 -25q-196 0 -346 73q-203 98 -203 321q0 122 23 263q29 182 29 293q0 204 -66 452zM459 563 q0 -123 29 -257q24 -108 157 -108q80 0 132 46q53 47 53 118q0 53 -54 104q-56 50 -160 84q-69 22 -157 29v-16zM467 776q155 1 236 26q108 32 108 118q0 57 -49 94t-121 57q-72 18 -138 18h-13q-3 -67 -23 -313z" />
<glyph unicode="C" horiz-adv-x="1254" d="M56 670q0 336 162 529q174 208 522 208q255 0 379 -103q83 -69 83 -172q0 -58 -39 -104q-40 -46 -136 -73q-96 -28 -268 -28q8 30 8 56q0 2 -2 32q-3 23 -25 45q-23 23 -68 23q-75 0 -126 -55q-50 -54 -76 -151q-25 -90 -25 -203q0 -144 45 -255q80 -198 251 -198 q138 0 210 88q56 70 56 148q163 -106 163 -220q0 -97 -73 -163q-69 -63 -167 -91q-100 -30 -192 -30q-347 0 -522 214q-160 193 -160 503z" />
<glyph unicode="D" horiz-adv-x="1267" d="M91 2q68 269 68 688q0 389 -67 660q46 21 161 39q113 18 249 18q346 0 521 -208q163 -193 163 -529q0 -249 -89 -410q-89 -160 -249 -237q-162 -77 -377 -77q-182 0 -380 56zM457 1163q60 -189 82 -485q11 -162 11 -283q0 -101 -9 -150q83 6 139 56q127 112 127 400 q0 119 -45 226q-32 73 -78 124q-96 109 -227 112z" />
<glyph unicode="E" horiz-adv-x="1132" d="M56 1350q158 -1 317 -17q182 -17 291 -17q239 0 458 34q0 -324 -314 -324q-10 0 -63 3q-48 1 -146 22q-107 22 -187 44q69 -125 84 -251q6 -51 9 -102q47 0 176 6q127 4 265 50q0 -313 -252 -313q-104 0 -187 26q5 -129 35 -187q34 -68 96 -88q54 -16 128 -16t136 -13 q162 -33 218 -228q-34 9 -81 9q-54 0 -192 -17q-141 -21 -323 -23q-427 4 -427 413q0 129 31 277q32 160 32 260q0 60 -6 135q-8 80 -29 155q-23 80 -69 162z" />
<glyph unicode="F" horiz-adv-x="1104" d="M51 1350q158 -1 317 -17q182 -17 291 -17q239 0 458 34q0 -324 -314 -324q-96 0 -209 25q-68 14 -187 44q42 -76 59 -208q10 -89 13 -143q48 -2 74 -2q41 0 169 6q126 4 264 50q0 -313 -263 -313q-127 0 -231 46q7 -128 24 -253q20 -159 72 -276q-206 0 -311 46 q-106 46 -143 127q-34 71 -34 163q0 94 26 255q29 198 29 305q0 141 -26 253q-26 105 -78 199z" />
<glyph unicode="G" horiz-adv-x="1307" d="M57 670q0 336 163 529q174 208 522 208q136 0 241 -32q106 -34 163 -94q58 -61 58 -149q0 -58 -40 -104t-136 -73q-96 -28 -267 -28q8 30 8 56q0 2 -2 32q-3 23 -25 45q-23 23 -68 23q-75 0 -126 -55q-102 -111 -102 -363q6 -314 148 -404q62 -40 132 -40q94 0 158 51 q65 51 65 137q0 101 -128 101q-97 0 -189 -39v10q0 97 39 164q37 65 104 100q65 33 138 33q80 0 153 -41q71 -41 116 -120q44 -80 44 -196q0 -121 -62 -228t-176 -173q-115 -67 -270 -67q-345 0 -511 214q-150 191 -150 503z" />
<glyph unicode="H" horiz-adv-x="1346" d="M84 1350h151q170 0 239 -154q57 -130 57 -392q0 -88 -17 -270h5q176 0 281 17q37 228 37 347q0 204 -66 452h152q169 0 238 -154q57 -130 57 -392q0 -110 -12 -216q-11 -105 -11 -216q0 -163 76 -370q-187 0 -292 32q-102 31 -146 101q-39 62 -46 153q-48 -12 -113 -12 q-85 0 -164 22q0 -13 2 -51q3 -89 71 -245q-186 0 -294 32q-106 31 -149 100q-43 67 -43 180q0 96 25 268q27 206 27 316q0 206 -65 452z" />
<glyph unicode="I" horiz-adv-x="640" d="M78 1350h119q91 0 150 -42q94 -67 130 -238q21 -97 26 -250q3 -110 3 -249q0 -177 10 -316q11 -148 61 -253q-186 0 -291 32q-103 31 -147 101q-48 77 -48 219q0 94 34 298q6 41 22 150q10 69 10 131q0 128 -19 214t-60 203z" />
<glyph unicode="J" horiz-adv-x="1178" d="M21 239q0 131 138 218q0 -79 57 -148q70 -88 209 -88q159 0 223 156q31 74 43 175q11 82 19 186q7 105 21 200q13 91 49 157q-160 -41 -198 -48q-100 -20 -180 -20q-284 0 -284 323q207 -34 413 -34q65 0 211 20q74 12 138 14h256q-83 -153 -95 -324q-7 -87 -7 -186 q0 -70 5 -157q4 -79 4 -174q-3 -214 -84 -338q-147 -224 -461 -224q-246 0 -371 101q-106 85 -106 191z" />
<glyph unicode="K" horiz-adv-x="1300" d="M84 1350h151q170 0 239 -154q57 -130 57 -392q0 -33 -2 -95q204 116 304 327q56 118 56 259q0 20 -2 60q202 0 281 -121q45 -69 45 -157q0 -109 -75 -237q-75 -129 -239 -239q-57 -39 -119 -66q69 -85 166 -160q158 -126 320 -173q-114 -200 -278 -200q-96 0 -179 59 q-80 57 -142 151q-77 116 -110 250q-16 -3 -50 -9v-73q0 -225 76 -378q-186 0 -294 32q-106 31 -149 100q-43 67 -43 180q0 96 25 268q27 206 27 316q0 206 -65 452z" />
<glyph unicode="L" horiz-adv-x="1032" d="M79 1350h119q176 0 253 -191q64 -162 64 -455q0 -247 -30 -499q45 -7 103 -7q78 0 193 19q119 18 234 66q0 -192 -151 -270q-125 -65 -354 -65q-418 0 -418 372q0 114 34 324q32 194 32 289q0 128 -19 214t-60 203z" />
<glyph unicode="M" horiz-adv-x="1633" d="M84 1350h151q157 0 245 -168q49 -95 98 -202q99 -220 214 -426q207 325 272 796h149q170 0 239 -154q57 -130 57 -321q0 -89 -11 -245q-12 -148 -12 -257q0 -217 75 -371q-266 0 -375 67q-110 66 -110 245q0 86 25 279q-51 -109 -109 -198q-106 -160 -211 -220 q-133 103 -266 368q-7 -78 -7 -170q0 -217 75 -371q-186 0 -294 32q-88 26 -131 76q-61 67 -61 204q0 96 25 268q27 206 27 316q0 206 -65 452z" />
<glyph unicode="N" horiz-adv-x="1336" d="M84 1350h151q162 0 247 -175q44 -85 108 -231q126 -279 203 -429q36 267 36 383q0 206 -65 452h151q171 0 238 -154q58 -132 58 -286q0 -215 -12 -320t-12 -210q0 -225 76 -378q-186 0 -294 32q-276 84 -453 514q-8 -93 -8 -175q0 -217 75 -371q-257 0 -366 61 q-120 67 -120 251q0 96 25 268q27 206 27 316q0 206 -65 452z" />
<glyph unicode="O" horiz-adv-x="1326" d="M54 665q0 348 188 551q87 93 191 137q107 45 216 45q121 0 230 -47q108 -47 190 -138q177 -197 177 -548q0 -305 -155 -496q-92 -114 -224 -167q-109 -44 -222 -44q-110 0 -216 44q-106 43 -190 132q-185 193 -185 531zM443 665q5 -202 65 -313q62 -113 137 -113 q79 0 144 110q63 108 68 316q0 136 -28 226q-29 91 -75 138q-47 47 -99 47q-53 0 -102 -45q-41 -37 -69 -108q-41 -103 -41 -258z" />
<glyph unicode="P" horiz-adv-x="1291" d="M83 1350h392q407 0 594 -152q170 -141 170 -403q0 -221 -186 -363q-103 -80 -234 -111q-71 -17 -136 -17q-129 0 -211 47l11 -69q23 -144 99 -280q-188 0 -291 39q-104 39 -147 109q-47 76 -47 193q0 122 23 262q28 175 28 293q0 206 -65 452zM461 669q1 -63 50 -96 q47 -33 110 -33q56 0 105 28q51 28 82 84q31 55 31 142q0 75 -31 141q-72 154 -305 154h-13q-3 -81 -13 -187q-11 -116 -16 -233z" />
<glyph unicode="Q" horiz-adv-x="1335" d="M54 665q0 350 187 550q85 93 192 138t216 45q121 0 230 -47q108 -47 190 -138q177 -197 177 -548q0 -347 -199 -545q101 -69 203 -112q-54 -81 -113 -119q-60 -39 -139 -39q-116 0 -220 123q-64 -15 -133 -15q-111 0 -217 45q-107 44 -193 134q-181 191 -181 528z M443 665q4 -200 66 -313q56 -105 124 -112q-66 183 -66 330q76 0 124 -30q46 -29 82 -77q19 -29 40 -64q41 105 44 266q0 123 -24 210q-29 103 -79 154q-47 47 -99 47q-53 0 -102 -45q-37 -35 -63 -93q-47 -108 -47 -273z" />
<glyph unicode="R" horiz-adv-x="1296" d="M81 1350h392q748 0 748 -507q0 -229 -180 -330q-85 -49 -221 -76q46 -43 87 -73q156 -118 314 -162q-114 -200 -278 -200q-97 0 -174 60q-79 60 -132 154q-55 95 -83 198q-62 -2 -90 -2q5 -56 17 -130q23 -144 99 -280q-188 0 -291 39q-104 39 -147 109q-47 76 -47 192 q0 85 26 224q26 138 26 332q0 204 -66 452zM458 628q375 8 375 220q0 116 -86 179q-86 62 -246 62h-13q-3 -68 -12 -187q-15 -145 -18 -274z" />
<glyph unicode="S" horiz-adv-x="1289" d="M54 990q0 216 177 323q157 94 432 94q217 0 371 -72q166 -78 166 -203q0 -58 -39 -104q-40 -46 -136 -73q-96 -28 -268 -28q5 22 5 36q0 50 -46 86q-47 36 -119 36q-39 0 -74 -12t-58 -36q-22 -25 -22 -64q0 -47 37 -75q35 -28 97 -46q51 -17 133 -35q87 -21 169 -45 t158 -71q163 -100 163 -310q0 -212 -191 -329q-172 -106 -422 -106q-228 0 -322 121q-55 70 -55 156q0 44 16 92q17 50 59 94q44 44 106 62q-11 -46 -11 -80q0 -43 22 -86q21 -44 77 -68q55 -24 115 -24q53 0 107 21q47 19 79 54q31 34 31 80q0 55 -39 89q-40 34 -101 58 q-61 23 -152 49q-79 22 -162 51q-81 28 -150 74q-153 101 -153 291z" />
<glyph unicode="T" horiz-adv-x="1036" d="M16 1197q0 57 20 92q20 34 55 47q33 13 81 13t140 -19q146 -28 247 -28q159 0 274 24q113 22 228 68q34 -61 34 -116q0 -139 -190 -218q-86 -36 -196 -47q10 -91 10 -293l-1 -113q0 -154 13 -309q12 -160 74 -296q-201 0 -303 37q-105 38 -142 109q-39 70 -39 172 q0 104 28 250q40 231 40 380q0 42 -3 86q-71 19 -112 34q-102 36 -163 36q-36 0 -80 -11q-15 55 -15 102z" />
<glyph unicode="U" horiz-adv-x="1253" d="M72 1350h119q86 0 139 -37q95 -67 124 -246q15 -102 15 -264q0 -61 -1 -92t-1 -91q0 -149 17 -237q28 -144 134 -144q135 0 180 236q22 113 22 252q0 121 -10 235q-10 115 -29 224q-20 105 -40 164h205q61 0 110 -85q50 -86 78 -226q26 -136 26 -292q0 -246 -56 -429 q-112 -360 -489 -360q-278 0 -386 150q-89 124 -97 372q-1 37 -1 115q0 38 2 120q1 41 1 123q0 100 -6 232q-8 135 -56 280z" />
<glyph unicode="V" horiz-adv-x="1130" d="M-5 1350h119q153 0 254 -155q79 -122 143 -362l89 -363q86 209 121 431q14 92 14 179q0 134 -30 270h159q211 0 211 -244q0 -91 -30 -199q-36 -124 -71 -222q-42 -119 -76 -244q-35 -129 -35 -242q0 -109 49 -197l-97 -2q-90 0 -205 11q-109 10 -209 65q-99 52 -140 194 q-31 109 -43 268q-14 165 -56 361q-44 207 -167 451z" />
<glyph unicode="W" horiz-adv-x="1602" d="M0 1350h119q112 0 186 -62q129 -109 193 -401q28 -129 56 -299q101 377 292 522q152 -147 237 -486l11 28q65 159 96 281q29 105 29 222q0 83 -14 195h119q216 0 216 -250q0 -90 -27 -195q-25 -98 -65 -220q-35 -107 -71 -245q-30 -117 -30 -226q0 -118 53 -212 q-186 0 -284 32q-86 29 -129 107q-64 119 -107 367q-22 110 -34 164q-110 -315 -110 -670q-229 0 -337 48q-119 54 -154 174q-30 106 -38 272q-7 162 -45 377q-39 215 -162 477z" />
<glyph unicode="X" horiz-adv-x="1119" d="M10 1350h119q113 0 204 -62q89 -61 165 -166q58 -82 115 -189l34 48q106 150 184 369h119q82 0 111 -30q28 -28 28 -74q0 -56 -38 -140q-46 -96 -121 -199q-74 -102 -170 -222q-5 -7 -17 -21q2 -5 6.5 -14.5t8.5 -17.5t7 -15q79 -180 165 -342q84 -161 193 -273 q-263 0 -392 59q-130 59 -188 171q-20 39 -45 97q-109 -164 -109 -299v-28q-282 0 -331 73q-15 23 -15 53q0 135 346 535q-35 96 -87 221q-91 211 -292 466z" />
<glyph unicode="Y" horiz-adv-x="1149" d="M-51 1350h206q121 0 191 -51q72 -52 124 -153q55 -108 113 -258l16 -37q57 41 105 113q49 72 69 170q7 35 7 76q0 65 -20 140h159q77 0 124 -24q83 -47 83 -156q0 -120 -67 -250q-64 -121 -147 -212q-84 -93 -156 -129v-22q0 -320 113 -555q-146 0 -243 20 q-154 33 -203 126q-38 71 -38 172q0 88 25 229l9 58q-77 66 -144 177q-72 118 -133 239q-93 184 -193 327z" />
<glyph unicode="Z" horiz-adv-x="1202" d="M30 172q0 26 8 56q113 113 213 241q102 132 200 266q95 134 212 280q-52 -6 -115 -6q-162 0 -285 51q-124 51 -170 138q-20 38 -20 79q0 56 34 117q115 -46 228 -68q115 -24 274 -24q98 0 247 28q92 19 139 19q152 0 152 -100q0 -35 -42 -139q-42 -105 -114 -234 q-148 -264 -362 -436q-39 -31 -83 -60q55 7 131 7q162 0 285 -51q124 -51 170 -138q20 -38 20 -80q0 -55 -34 -116q-112 45 -228 69q-118 23 -232 23q-136 0 -289 -56q-96 -36 -140 -36q-77 0 -126 32q-73 49 -73 138z" />
<glyph unicode="[" horiz-adv-x="598" d="M50 -186v1363q0 173 137 173h361q0 -39 -5 -86q-13 -102 -84 -102h-219v-1361h219q71 0 84 -103q5 -47 5 -86h-338q-39 0 -76 22q-84 48 -84 180z" />
<glyph unicode="\" horiz-adv-x="830" d="M50 1350q108 0 175 -23q47 -16 87 -53q52 -46 84 -141l384 -1131q-75 0 -145 14q-142 31 -202 202z" />
<glyph unicode="]" horiz-adv-x="598" d="M50 -388q0 44 6 86q13 103 83 103h219v1361h-219q-69 0 -83 102q-6 42 -6 86h361q137 0 137 -173v-1363q0 -132 -84 -180q-37 -22 -76 -22h-338z" />
<glyph unicode="^" horiz-adv-x="716" d="M50 731q0 19 11 49q156 383 235 570q43 0 73 -6q31 -6 53 -30q37 -38 233 -536q11 -27 11 -47q0 -51 -67 -61q-34 -6 -83 -8l-158 382l-157 -382q-151 0 -151 69z" />
<glyph unicode="_" horiz-adv-x="944" d="M50 -100h725q95 0 111 -103q7 -36 8 -85h-726q-94 0 -111 102q-6 45 -7 86z" />
<glyph unicode="`" horiz-adv-x="437" d="M50 1726q28 15 53 25q56 22 104 58l180 -259q-37 -13 -61 -39q-9 -12 -27 -23z" />
<glyph unicode="a" horiz-adv-x="1215" d="M39 201q0 72 34 156q39 93 84 182q51 100 85 186q38 94 38 186q0 69 -21 151h345q296 0 409 -296q50 -133 88 -369q20 -127 48 -229q27 -105 78 -166q-2 0 -136 -2q-74 0 -141 10q-71 9 -133 66t-98 191q-31 -7 -94 -7q-69 0 -192 11q-8 -50 -8 -90q0 -96 31 -179 q-152 0 -246 23q-90 22 -131 65q-40 41 -40 111zM474 488q90 3 215 17q-12 98 -44 186q-31 83 -80 129q-68 -265 -91 -332z" />
<glyph unicode="b" horiz-adv-x="1243" d="M62 1062h371q342 0 531 -85q183 -83 183 -242q0 -65 -44 -133q-44 -69 -133 -104q105 -28 156 -78q59 -56 59 -150q0 -148 -150 -235t-416 -87q-213 3 -328 50q-113 46 -157 127q-44 80 -44 181q2 133 22 256q22 133 22 249q0 121 -72 251zM439 408q0 -230 185 -230 q80 0 130 33q48 33 48 96q0 108 -322 108h-41v-7zM446 578h20q23 0 93 2q220 10 220 113q0 79 -99 106q-68 18 -198 18h-13q-3 -71 -10 -113q-7 -41 -13 -126z" />
<glyph unicode="c" horiz-adv-x="1128" d="M54 502q0 261 155 431q169 186 489 186q104 0 188 -32q83 -33 129 -94q47 -62 47 -149q0 -55 -38 -102q-39 -47 -115 -75q-75 -28 -191 -28q8 32 8 58q0 1 -2 31q-3 22 -25 44q-23 23 -68 23q-85 0 -137 -37q-100 -72 -100 -240q0 -80 29 -152q27 -66 75 -108 q46 -42 111 -42q126 0 196 65q69 65 69 176q165 -83 165 -226q0 -85 -61 -146q-61 -63 -160 -97q-100 -35 -213 -35q-133 0 -235 45q-100 42 -173 121q-72 78 -107 175q-36 99 -36 208z" />
<glyph unicode="d" horiz-adv-x="1127" d="M76 2q68 254 68 529q0 270 -68 531q154 66 315 66q201 0 349 -69q149 -69 236 -207q87 -139 87 -337q-1 -244 -142 -395q-161 -174 -504 -174q-89 0 -184 14q-93 14 -157 42zM403 875q51 -146 80 -310q15 -84 15 -168q0 -75 -12 -152q136 12 202 79q65 67 65 161 q0 177 -96 281q-97 105 -254 109z" />
<glyph unicode="e" horiz-adv-x="1054" d="M46 1062q177 -1 342 -14q162 -12 310 -12q144 0 323 26q0 -290 -269 -290q-86 0 -181 22q-100 22 -188 45q87 -93 93 -241h15q202 0 353 56v-19q0 -135 -41 -191q-41 -57 -117 -57q-91 0 -208 47q0 -108 26 -154q26 -45 71 -54q38 -8 83 -8l88 2q46 0 97 -13 q52 -14 98 -64q46 -51 78 -164q-36 9 -81 9q-61 0 -181 -18q-125 -22 -262 -22q-163 0 -252 39q-89 37 -123 99q-35 61 -35 139q0 114 32 256q33 149 33 273q0 60 -6 99q-8 41 -29 84q-20 41 -69 125z" />
<glyph unicode="f" horiz-adv-x="1063" d="M36 1062q177 -1 345 -14q168 -12 307 -13q162 0 343 27q0 -323 -270 -323q-170 2 -369 68q46 -84 66 -207q68 -6 142 -6q174 0 300 36q-4 -267 -195 -267q-103 0 -229 53q7 -79 25 -187q20 -115 73 -227q-180 0 -277 30q-108 34 -149 99q-37 58 -37 135q0 78 14 168 q15 109 15 176q0 60 -6 135q-8 80 -29 155q-23 80 -69 162z" />
<glyph unicode="g" horiz-adv-x="1175" d="M57 508q0 257 149 426q165 185 477 185q136 0 220 -41q80 -40 118 -104q36 -63 36 -130q0 -71 -85 -117q-86 -47 -258 -47q4 15 4 31q0 35 -28 60q-29 24 -74 24q-82 0 -130 -39q-86 -71 -86 -228q0 -131 53 -219q52 -88 175 -88q98 0 145 27q45 27 45 60q0 23 -20 41 q-22 17 -59 17q-44 0 -85 -11q-31 -8 -81 -28v5q0 102 39 163t105 90q65 27 138 27q122 0 192 -79q71 -80 71 -206q0 -69 -34 -134q-33 -65 -103 -121q-152 -119 -403 -119q-257 0 -396 172q-125 155 -125 383z" />
<glyph unicode="h" horiz-adv-x="1157" d="M73 1062h152q104 0 157 -46q54 -47 75 -125q21 -79 21 -179q0 -71 -3 -146h41q87 0 184 7q14 110 14 204q0 115 -60 285h152q94 0 145 -45q50 -47 71 -124q21 -82 22 -177q1 -28 1 -87q0 -37 -2 -121q-3 -63 -3 -126q0 -73 6 -175q4 -102 50 -205q-172 0 -266 32 q-93 32 -130 89q-37 56 -37 137q0 15 2 49h-2q-96 0 -197 32v-26q0 -41 3 -126q1 -84 46 -187q-172 0 -266 32q-93 32 -130 89q-37 56 -37 137q2 106 23 220q28 152 28 297q0 115 -60 285z" />
<glyph unicode="i" horiz-adv-x="561" d="M76 257q0 62 26 218q33 173 33 291q0 161 -49 296h134q86 0 133 -45q83 -80 92 -297q3 -78 3 -163v-93q0 -114 9 -236q7 -121 53 -226q-171 0 -267 32q-95 32 -130 89q-37 56 -37 134z" />
<glyph unicode="j" horiz-adv-x="1018" d="M30 254q0 112 136 203q0 -72 38 -128q32 -47 78 -75q64 -39 139 -39q101 0 145 57q43 55 43 194q0 56 -4 103q-4 45 -4 104q0 76 29 134l-21 -7q-153 -59 -244 -59q-55 0 -102 27q-49 26 -77 96q-30 70 -30 198q144 -22 183 -27q55 -7 157 -7q104 0 211 17q87 16 236 17 q-49 -91 -49 -198q0 -106 10 -215q11 -134 11 -252q0 -125 -36 -228q-79 -222 -395 -222q-172 0 -268 45q-97 43 -141 112q-45 68 -45 150z" />
<glyph unicode="k" horiz-adv-x="1099" d="M76 257q0 73 27 218q33 187 33 291q0 161 -49 296h133q156 0 201 -167q25 -90 28 -270q72 42 120 96q114 125 114 346q106 0 179 -29q76 -31 113 -85q36 -54 36 -120q0 -147 -176 -266q-75 -52 -174 -89q50 -92 129 -149q125 -90 279 -127q-44 -106 -114 -152 q-71 -48 -149 -48q-179 0 -263 182q-47 104 -63 239l-32 -7q2 -93 9 -187q7 -122 53 -227q-321 0 -397 121q-37 56 -37 134z" />
<glyph unicode="l" horiz-adv-x="893" d="M80 1062h133q77 0 127 -49q150 -144 150 -603q0 -104 -11 -205q42 -7 86 -7q57 0 126 19q68 18 175 66q0 -187 -128 -270q-100 -65 -234 -65q-188 0 -297 84q-120 92 -120 260q0 106 20 237q22 122 22 237q0 161 -49 296z" />
<glyph unicode="m" horiz-adv-x="1343" d="M76 257q0 73 27 218q33 187 33 291q0 161 -49 296h133q48 0 94 -40q71 -60 163 -211q50 -84 107 -190q31 -58 77 -139q79 141 114 285q36 149 52 295h139q101 0 160 -41q57 -42 81 -116q23 -77 23 -174q-2 -77 -6 -167q-6 -92 -6 -207q0 -186 95 -355q-182 0 -281 21 q-91 19 -133 64q-43 47 -43 136q0 53 22 269q-48 -110 -102 -192q-55 -83 -126 -137q-104 83 -203 279q-2 -54 -2 -78q0 -78 9 -171q7 -92 56 -191q-319 0 -397 121q-37 56 -37 134z" />
<glyph unicode="n" horiz-adv-x="1094" d="M76 257q0 62 26 218q33 173 33 291q0 161 -49 296h134q86 0 133 -45q37 -35 56 -87q76 -193 225 -463l1 8q33 173 33 291q0 161 -49 296h134q87 0 133 -45q48 -46 67 -122q21 -81 25 -175q3 -78 3 -184q0 -206 9 -318q7 -111 53 -216q-266 0 -379 97q-93 83 -215 285 q1 -68 8 -156q7 -121 53 -226q-171 0 -267 32q-95 32 -130 89q-37 56 -37 134z" />
<glyph unicode="o" horiz-adv-x="1166" d="M54 526q0 193 91 344q145 240 436 240q164 0 280 -86q104 -77 166 -192q74 -140 74 -302q0 -238 -125 -396q-140 -176 -395 -176q-151 0 -267 71q-129 80 -196 216q-64 127 -64 281zM382 528q2 -93 28 -164q52 -145 171 -145q59 0 101 36q50 44 75 121q21 64 23 145 q0 89 -22 146q-58 157 -177 157q-113 0 -167 -124q-32 -78 -32 -172z" />
<glyph unicode="p" horiz-adv-x="1122" d="M76 257q0 62 26 218q33 173 33 291q0 161 -49 296h328q339 0 514 -130q157 -118 157 -301q0 -101 -55 -190t-157 -144q-100 -55 -239 -55q-102 0 -181 49q2 -42 4 -63q7 -121 53 -226q-321 0 -397 121q-37 56 -37 134zM438 801q8 -63 10 -216q0 -38 21 -62 q40 -48 115 -48q64 0 107 40q44 41 44 118q0 43 -28 81q-64 87 -269 87z" />
<glyph unicode="q" horiz-adv-x="1174" d="M54 526q0 150 60 283q24 53 52 92q146 209 415 209q165 0 280 -88q97 -71 154 -169q86 -148 86 -323q0 -238 -125 -396q-29 -38 -69 -71q82 -56 160 -87q-43 -63 -91 -96q-47 -31 -112 -31q-78 0 -140 61q-28 25 -50 54q-44 -6 -93 -6q-161 0 -279 79q-102 66 -164 171 q-84 141 -84 318zM382 528q0 -175 90 -265q35 -35 79 -42q-33 115 -33 206q61 0 100 -24q38 -24 65 -62q18 -26 32 -50q64 86 65 230q0 113 -42 195q-55 108 -157 108q-92 0 -148 -89q-51 -83 -51 -207z" />
<glyph unicode="r" horiz-adv-x="1148" d="M76 255q0 62 26 218q33 173 33 291q0 161 -49 296h328q465 0 602 -170q69 -86 69 -213q0 -113 -55 -202q-71 -113 -203 -162q105 -74 258 -113q-44 -107 -113 -152q-70 -48 -150 -48q-220 0 -298 280h-71l4 -54q7 -121 53 -226q-171 0 -267 32q-95 32 -130 89 q-37 56 -37 134zM438 801q10 -74 10 -285h90q97 0 147 34q50 35 50 117q0 79 -69 108q-63 26 -228 26z" />
<glyph unicode="s" horiz-adv-x="1177" d="M54 778q0 191 169 272q142 69 409 69q203 0 327 -67q138 -75 138 -208q0 -58 -42 -86q-43 -28 -126 -37q-79 -10 -203 -10q3 13 3 24q0 44 -44 77q-44 32 -112 32q-67 0 -105 -38q-28 -28 -28 -76q0 -36 31 -54q33 -19 83 -26q64 -9 114 -13q188 -14 286 -58 q143 -66 143 -240q0 -211 -155 -303q-134 -80 -386 -80q-133 0 -217 29q-153 53 -153 162q0 143 174 190q0 -43 27 -68q28 -26 70 -38q44 -12 92 -12q186 0 186 123q0 68 -118 90q-41 7 -118 16q-194 18 -296 69q-149 74 -149 261z" />
<glyph unicode="t" horiz-adv-x="1124" d="M28 918q0 58 20 92t55 47q33 13 82 13q47 0 139 -19q146 -28 247 -28q159 0 274 24q113 22 228 68q34 -61 34 -115q0 -34 -24 -91q-25 -56 -126 -109q-100 -52 -244 -66q2 -50 2 -78q0 -39 -2 -117q-2 -62 -2 -94q0 -93 9 -208q7 -114 64 -235q-173 0 -266 25 q-94 25 -131 82q-37 55 -37 148q0 69 33 216q32 129 40 279q-79 19 -136 39q-102 36 -164 36q-36 0 -80 -11q-15 56 -15 102z" />
<glyph unicode="u" horiz-adv-x="1047" d="M78 1062h133q94 0 142 -53q48 -54 66 -143q17 -86 19 -200q-2 -88 -9 -165q-6 -66 -6 -120q0 -73 20 -108q19 -34 74 -34q50 0 80 51q57 98 58 306q0 110 -7 193q-15 183 -46 273h133q93 0 143 -53q49 -52 67 -143q17 -93 17 -200q0 -708 -449 -708q-257 0 -348 126 q-68 92 -68 258q0 66 15 214q15 130 15 210q0 161 -49 296z" />
<glyph unicode="v" horiz-adv-x="996" d="M14 1060h119q155 0 216 -141q27 -62 44 -153q15 -87 27 -186q17 -166 55 -328q135 322 135 550q0 124 -31 258h160q210 0 210 -179q0 -86 -32 -180q-31 -89 -77 -186q-34 -75 -71 -171q-31 -83 -31 -159q0 -100 49 -185q-299 0 -439 44q-137 43 -174 127q-30 71 -30 195 l1 116q0 97 -17 242q-16 141 -114 336z" />
<glyph unicode="w" horiz-adv-x="1350" d="M20 1060h119q93 0 145 -33q54 -34 80 -91q27 -62 37 -134q11 -76 18 -165q5 -76 13 -139q102 214 273 361q137 -152 210 -296q40 117 40 225q0 103 -35 272h119q79 0 125 -35q45 -36 64 -97q19 -60 19 -138q0 -140 -27 -278q-25 -144 -25 -271q0 -125 65 -241 q-187 0 -285 32q-86 29 -117 86q-58 111 -140 348l-18 48q-53 -150 -79 -278q-26 -125 -26 -236q-215 0 -313 34q-98 33 -127 101q-21 53 -21 129q0 37 4 114q6 96 6 129q0 73 -11 211q-12 129 -113 342z" />
<glyph unicode="x" horiz-adv-x="1055" d="M14 1061h119q209 0 359 -172q45 -51 87 -116q109 120 168 287h119q145 0 145 -110q0 -119 -94 -234q-83 -106 -189 -210q88 -175 147 -271q76 -129 180 -235q-235 0 -348 32q-111 31 -164 105q-32 44 -60 103q-78 -113 -78 -205q0 -11 2 -35q-187 0 -268 32 q-81 31 -82 124q2 99 85 199q81 96 203 196q-13 27 -43 85q-95 180 -288 425z" />
<glyph unicode="y" horiz-adv-x="1025" d="M-33 1062h163q146 0 225 -74q78 -77 166 -298q85 60 132 153q28 55 28 124q0 45 -12 95h160q77 0 118 -35q48 -43 48 -123q0 -110 -81 -238q-97 -154 -248 -231v-21q0 -108 20 -202q19 -92 92 -210q-166 0 -264 19q-99 18 -148 68q-56 59 -56 186q0 79 18 188 q-72 61 -117 141q-45 78 -85 169q-81 181 -159 289z" />
<glyph unicode="z" horiz-adv-x="986" d="M37 167q0 115 156 291q103 115 283 275q73 66 86 79q-67 -14 -157 -14q-92 0 -167 20q-124 34 -124 125q0 48 37 118q144 -53 246 -53q113 0 241 27q130 26 189 26q51 0 82 -21q30 -21 30 -54q0 -135 -145 -337q-66 -91 -135 -167q-142 -157 -239 -220q132 30 247 30 q129 0 193 -43q48 -32 48 -98q0 -61 -51 -149q-147 50 -246 50q-112 0 -264 -31q-101 -19 -147 -19q-73 0 -118 48t-45 117z" />
<glyph unicode="{" horiz-adv-x="950" d="M50 392q3 94 31 137q27 43 67 58q39 14 81 19q35 5 61 13q28 7 45 30t17 69q0 41 -13 84q-20 66 -29 92q-48 133 -48 212q0 149 230 208q142 36 408 36q0 -188 -73 -188q-64 6 -106 6q-209 0 -209 -189q0 -95 21 -205q22 -95 22 -171q0 -84 -61 -120q61 -40 61 -114 q0 -61 -22 -180q-21 -111 -21 -205q0 -190 207 -190q45 0 101 7q61 0 75 -101q5 -50 5 -88q-262 0 -404 36q-234 58 -234 209q0 77 48 211q9 25 29 93q13 42 13 83q0 64 -84 111q-70 39 -129 39z" />
<glyph unicode="|" horiz-adv-x="288" d="M50 -388v1521q0 171 92 203q44 14 96 14v-1521q0 -170 -92 -202q-44 -15 -96 -15z" />
<glyph unicode="}" horiz-adv-x="950" d="M50 -388q0 38 5 88q14 101 75 101q56 -7 101 -7q207 0 207 190q0 94 -21 205q-22 119 -22 180q0 74 61 114q-61 36 -61 120q0 76 22 171q21 110 21 205q0 189 -209 189q-41 0 -106 -6q-73 0 -73 188q266 0 408 -36q230 -59 230 -208q0 -78 -48 -212q-9 -26 -29 -92 q-13 -43 -13 -84q0 -46 17 -69t45 -30q26 -8 61 -13q42 -5 81 -19q40 -15 68 -58q27 -43 30 -137l-89 2q-59 0 -129 -39q-84 -47 -84 -111q0 -41 13 -83q20 -68 29 -93q48 -134 48 -211q0 -151 -234 -209q-142 -36 -404 -36z" />
<glyph unicode="~" horiz-adv-x="944" d="M50 644q0 55 34 104q25 37 63 64q69 48 156 48q57 0 105 -23t89 -51q35 -24 75 -43q37 -19 78 -19q46 0 72 38q24 38 24 98q80 0 114 -34t34 -82q0 -85 -62 -147q-64 -62 -152 -62q-72 0 -123 23t-89 50q-38 26 -78 45q-39 19 -96 19q-47 0 -71 -38q-25 -38 -25 -99 q-78 0 -113 32t-35 77z" />
<glyph unicode="&#xa1;" horiz-adv-x="535" d="M50 612q167 0 257 -30q89 -30 123 -88t34 -141q0 -72 -10 -158q-14 -124 -14 -260q0 -139 45 -278h-119q-89 0 -135 34q-48 36 -67 94q-20 57 -25 136q-3 53 -3 110l2 120q0 96 -11 223q-12 118 -77 238zM82 872q0 79 55 134q54 55 131 55q76 0 131 -55q54 -56 54 -134 t-54 -133q-55 -55 -131 -55q-77 0 -131 55q-55 55 -55 133z" />
<glyph unicode="&#xa2;" horiz-adv-x="1108" d="M50 502q0 261 155 431q160 175 457 186q47 47 101 66q67 23 175 23l-43 -127q71 -30 116 -88q47 -62 47 -149q0 -55 -38 -102q-39 -47 -115 -75q-66 -24 -159 -27l-144 -424h3q126 0 196 65q69 65 69 176q165 -83 165 -226q0 -85 -61 -146q-61 -63 -160 -97 q-100 -35 -213 -35q-54 0 -108 8q-56 -68 -140 -87q-70 -14 -144 -14l64 189q-132 91 -187 245q-36 99 -36 208zM390 518q0 -52 10 -93l118 349q-16 -8 -28 -16q-100 -72 -100 -240z" />
<glyph unicode="&#xa3;" horiz-adv-x="1247" d="M50 707h202l-27 35q-53 66 -95 140q-49 85 -51 185q0 141 131 231q158 109 519 109q133 0 240 -32q98 -30 154 -85q68 -65 68 -158q0 -58 -39 -104q-40 -46 -136 -73q-96 -28 -267 -28q6 25 6 45q0 27 -13 54q-14 27 -52 44q-36 16 -81 16q-60 0 -106 -31 q-47 -32 -47 -94q0 -55 28 -95q28 -42 64 -78q52 -50 65 -81h256q95 0 111 -102q6 -45 7 -86h-349q-13 -61 -50 -140q64 8 133 8q162 0 285 -51q124 -51 170 -138q21 -38 21 -81q0 -54 -34 -115q-232 92 -463 92q-143 0 -287 -56q-96 -36 -139 -36q-68 0 -111 24 q-43 22 -66 63q-22 40 -22 88q0 47 35 103q38 59 79 110q56 70 89 129h-110q-94 0 -111 102q-6 45 -7 86z" />
<glyph unicode="&#xa4;" horiz-adv-x="830" d="M50 466l94 94q-33 63 -33 138q0 74 33 138q-45 45 -45 86q0 56 85 141l94 -94q63 33 137 33q75 0 138 -33q45 45 88 45q55 0 139 -84l-94 -94q33 -64 33 -138q0 -75 -33 -138q46 -46 46 -87q0 -55 -85 -140l-94 94q-63 -33 -138 -33q-74 0 -137 33l-11 -10 q-39 -36 -76 -36q-20 0 -57 19q-38 20 -84 66zM246 698q0 -69 50 -119t119 -50q70 0 120 50t50 119q0 70 -50 120q-49 49 -120 49q-70 0 -119 -49q-50 -50 -50 -120z" />
<glyph unicode="&#xa5;" horiz-adv-x="1276" d="M50 1350h206q121 0 191 -51q71 -51 123 -153q45 -89 129 -295q57 41 105 113q49 72 69 170q7 35 7 76q0 65 -20 140h159q207 0 207 -180q0 -106 -67 -231q-81 -151 -197 -270h61q101 0 117 -103q7 -36 8 -86h-290l4 -61h161q101 0 117 -103q7 -38 8 -86h-258 q29 -125 79 -228q-200 0 -302 37q-104 38 -144 110q-20 37 -29 81h-110q-99 0 -117 103q-7 36 -8 86h232q2 17 8 61h-115q-99 0 -117 103q-7 38 -8 86h199q-88 102 -216 354q-92 181 -192 327z" />
<glyph unicode="&#xa7;" horiz-adv-x="948" d="M50 585q0 188 179 262q-48 22 -90 56q-39 31 -64 80q-25 47 -25 116q0 113 61 180q59 66 162 98q102 30 228 30q101 0 192 -24t148 -69q57 -46 57 -110q0 -152 -328 -152q3 15 3 27q0 39 -33 64q-35 26 -88 26q-43 0 -78 -20q-36 -19 -36 -63q0 -34 27 -55q26 -20 72 -34 q49 -15 99 -26q60 -13 124 -33q65 -20 117 -52q54 -35 88 -89q33 -55 33 -141q0 -172 -169 -259q169 -73 169 -255q0 -158 -141 -243q-128 -79 -312 -79q-107 0 -171 35q-108 59 -108 169q0 145 133 184q-7 -29 -7 -58q0 -60 37 -91q52 -41 118 -41q64 0 114 32q49 31 49 82 q0 41 -29 67q-29 25 -79 43q-56 20 -108 35q-71 20 -119 38q-63 21 -111 55q-51 33 -82 85q-32 53 -32 130zM338 566q47 -34 108 -34h7q72 3 121 42q-6 39 -41 60q-36 21 -81 21q-43 0 -78 -20q-36 -19 -36 -69z" />
<glyph unicode="&#xa8;" horiz-adv-x="700" d="M50 1620q0 132 130 132q131 0 131 -131q0 -133 -131 -133q-130 0 -130 132zM389 1620q0 132 130 132q131 0 131 -131q0 -133 -131 -133q-130 0 -130 132z" />
<glyph unicode="&#xa9;" horiz-adv-x="1252" d="M39 658q0 122 46 227q45 105 125 185q81 81 185 125q105 45 226 45t227 -45q105 -45 185 -125q77 -77 125 -185q45 -106 45 -227q0 -120 -45 -226q-46 -106 -125 -185q-80 -80 -185 -125q-105 -46 -227 -46t-226 46q-104 44 -185 125t-125 185q-46 105 -46 226zM144 658 q0 -101 37 -185q38 -89 103 -152q64 -64 152 -102q87 -38 185 -38t186 38q86 38 152 102q64 64 102 152q37 84 37 185q0 100 -37 186q-38 86 -102 152q-66 64 -152 102q-86 37 -186 37q-101 0 -185 -37q-88 -38 -152 -102q-65 -65 -103 -152q-37 -86 -37 -186zM298 653 q0 206 116 305q87 75 237 75q107 0 172 -37q66 -38 66 -105q0 -105 -228 -105q4 13 4 28q0 52 -49 52q-58 0 -87 -60q-30 -62 -30 -150q0 -136 68 -202q35 -33 84 -33q54 0 83 22t43 51q12 28 12 49q84 -51 84 -111q0 -100 -124 -134q-53 -15 -99 -15q-231 0 -313 178 q-39 85 -39 192z" />
<glyph unicode="&#xab;" horiz-adv-x="1275" d="M50 642q1 61 15 94q14 34 50 55l442 283q39 24 63 24q37 0 48 -56q7 -35 7 -82l-415 -262l415 -263q0 -137 -56 -137q-22 0 -62 23zM600 642q1 61 15 94q14 34 50 55l442 283q39 24 63 24q37 0 48 -56q7 -35 7 -82l-415 -262l415 -263q0 -137 -56 -137q-22 0 -62 23z" />
<glyph unicode="&#xac;" horiz-adv-x="943" d="M50 792h725q118 0 118 -103v-295q0 -55 -31 -79q-47 -38 -146 -39h-4v328h-544q-94 0 -111 102q-6 45 -7 86z" />
<glyph unicode="&#xad;" horiz-adv-x="826" d="M-6 792h725q95 0 111 -103q6 -42 7 -85h-725q-94 0 -111 102q-6 45 -7 86z" />
<glyph unicode="&#xae;" horiz-adv-x="1264" d="M50 658q0 120 45 227q45 105 125 185t186 125q105 45 226 45q120 0 226 -45t186 -125q77 -77 125 -185q45 -106 45 -227q0 -120 -45 -226q-47 -106 -125 -185q-80 -80 -186 -125q-105 -46 -226 -46q-122 0 -226 46q-106 45 -186 125q-81 81 -125 185q-45 106 -45 226z M155 658q0 -101 37 -185q38 -89 103 -152q64 -64 152 -102q87 -38 185 -38t186 38q87 38 151 102q66 66 103 152q37 84 37 185q0 100 -37 186q-37 85 -103 152q-64 64 -151 102q-86 37 -186 37q-101 0 -185 -37q-88 -38 -152 -102q-65 -65 -103 -152q-37 -86 -37 -186z M358 1006h203q385 0 385 -261q0 -172 -206 -210q97 -90 206 -121q-59 -104 -143 -104q-79 0 -139 82q-42 57 -62 131l-46 -1q8 -113 60 -212q-178 0 -226 77q-25 40 -25 94q0 69 13 140q14 89 14 152q0 106 -34 233zM553 634q193 4 193 113q0 125 -178 125q-2 -45 -6 -97 q-6 -67 -9 -141z" />
<glyph unicode="&#xaf;" horiz-adv-x="943" d="M50 1390h725q95 0 111 -102q6 -45 7 -86h-725q-95 0 -111 103q-6 42 -7 85z" />
<glyph unicode="&#xb0;" horiz-adv-x="571" d="M50 1172q0 97 69 166t166 69q98 0 167 -69t69 -166q0 -98 -69 -167t-167 -69q-97 0 -166 69t-69 167zM211 1172q0 -31 22 -52q21 -22 52 -22t53 22q21 21 21 52q0 30 -21 53q-22 21 -53 21t-52 -21q-22 -22 -22 -53z" />
<glyph unicode="&#xb1;" horiz-adv-x="943" d="M50 188h725q95 0 111 -103q6 -42 7 -85h-725q-94 0 -111 102q-6 45 -7 86zM50 792h327v209q0 92 103 111q36 7 86 8v-328h209q95 0 111 -103q6 -42 7 -85h-327v-210q0 -55 -31 -79q-47 -38 -154 -39h-4v328h-209q-94 0 -111 102q-6 45 -7 86z" />
<glyph unicode="&#xb2;" horiz-adv-x="681" d="M50 1265q0 68 67 105q65 37 173 37q339 0 339 -210q0 -72 -31 -118q-31 -48 -82 -83q-51 -37 -110 -68q-60 -34 -90 -53q28 4 69 4q126 0 200 -57q46 -34 46 -82q0 -27 -17 -61q-116 48 -217 48q-96 0 -171 -29q-48 -19 -72 -19q-52 0 -77 27q-26 28 -26 64q0 48 79 120 q41 36 129 101q70 50 121 94q52 43 52 78q0 37 -24 58q-26 20 -56 20q-32 0 -58 -20q-17 -14 -17 -39q0 -10 3 -23q-230 0 -230 106z" />
<glyph unicode="&#xb3;" horiz-adv-x="679" d="M50 799q0 106 230 106q-3 -13 -3 -24q0 -25 21 -41q20 -17 54 -17q38 0 57 19q20 20 20 49q0 27 -12 41q-21 21 -76 22q-31 2 -60 9q-69 19 -69 123q42 -11 82 -11q59 0 98 24q39 23 39 64q0 37 -24 58q-25 20 -55 20q-33 0 -58 -20q-17 -15 -17 -38q0 -11 3 -24 q-230 0 -230 106q0 68 67 105q65 37 173 37q339 0 339 -210q0 -98 -70 -165q70 -67 70 -165q0 -210 -339 -210q-106 0 -173 38q-67 37 -67 104z" />
<glyph unicode="&#xb4;" horiz-adv-x="437" d="M50 1550l180 259q48 -36 104 -58q25 -10 53 -25l-249 -238q-18 11 -27 23q-24 26 -61 39z" />
<glyph unicode="&#xb5;" horiz-adv-x="984" d="M50 1062h133q94 0 142 -53q48 -54 66 -143q17 -86 19 -200q-2 -88 -9 -165q-6 -66 -6 -120q0 -73 20 -108q19 -34 74 -34q50 0 80 51q57 98 58 306q0 110 -7 193q-15 183 -46 273h133q93 0 143 -53q49 -52 67 -143q17 -93 17 -200q0 -708 -449 -708q-134 0 -224 35v-164 q0 -170 -92 -202l-100 -15v730q0 66 15 214q15 130 15 210q0 161 -49 296z" />
<glyph unicode="&#xb6;" horiz-adv-x="1577" d="M50 776q0 62 18 154q16 92 87 195q69 102 186 165q115 63 279 63h907q-42 -120 -60 -206q-19 -86 -19 -214q0 -218 13 -352q14 -149 28 -244q27 -186 27 -313q0 -47 -3 -100q-3 -84 -46 -154t-147 -114q-105 -44 -292 -44q38 84 47 252q7 140 7 334v131q0 219 13 437 q13 226 78 396h-186v-1330q0 -188 -123 -212q-45 -8 -65 -8v627q-71 -41 -179 -41q-164 0 -279 63q-118 63 -186 166q-105 155 -105 349z" />
<glyph unicode="&#xb7;" horiz-adv-x="470" d="M50 675q0 78 55 133q54 55 130 55q77 0 131 -55q54 -56 54 -133t-54 -133q-54 -55 -131 -55q-76 0 -130 55q-55 55 -55 133z" />
<glyph unicode="&#xb8;" horiz-adv-x="437" d="M50 -326q79 0 133 22t54 74q0 36 -24 66t-75 30l-36 28l83 184q14 -17 28 -23q13 -7 53 -19l-29 -82q75 -21 112 -69q38 -49 38 -105q0 -59 -31 -108q-32 -51 -96 -81q-63 -31 -169 -31q0 25 -20 57q-21 31 -21 57z" />
<glyph unicode="&#xb9;" horiz-adv-x="493" d="M50 1403v4q59 -22 158 -22h38q67 0 102 -29q22 -19 34 -49q22 -51 22 -171l-1 -140q0 -62 5 -157q4 -86 35 -152q-139 0 -192 34q-59 36 -60 127q0 78 18 176q16 80 16 145q0 45 -5 87q-25 -5 -43 -5q-127 0 -127 152z" />
<glyph unicode="&#xbb;" horiz-adv-x="1275" d="M50 435l415 263l-415 262q0 47 7 82q11 56 48 56q24 0 63 -24l442 -283q36 -21 50 -55q14 -33 15 -94l-507 -321q-40 -23 -62 -23q-56 0 -56 137zM600 435l415 263l-415 262q0 47 7 82q11 56 48 56q24 0 63 -24l442 -283q36 -21 50 -55q14 -33 15 -94l-507 -321 q-40 -23 -62 -23q-56 0 -56 137z" />
<glyph unicode="&#xbc;" horiz-adv-x="1548" d="M50 1403v4q59 -22 158 -22h38q67 0 102 -29q22 -19 34 -49q22 -51 22 -171l-1 -140q0 -62 5 -157q4 -86 35 -152q-139 0 -192 34q-59 36 -60 127q0 78 18 176q16 80 16 145q0 45 -5 87q-25 -5 -43 -5q-127 0 -127 152zM193 2l610 1131q94 171 202 203q51 14 104 14 l-611 -1132q-93 -170 -201 -202q-51 -14 -104 -14zM846 179q56 157 92 286q66 239 66 283q92 -14 107 -96q5 -30 5 -56q0 -62 -27 -152q-30 -95 -77 -173q30 -1 91 -1l95 1q6 44 10 65q16 81 16 146q0 64 -9 111q-12 52 -32 105h62q60 0 93 -33q56 -58 64 -214q3 -69 3 -165 q67 8 93 18q-10 -85 -91 -123q1 -109 35 -181q-138 0 -190 33q-54 33 -60 106h-15q-93 0 -183 12q-94 12 -148 28z" />
<glyph unicode="&#xbd;" horiz-adv-x="1477" d="M50 1403v4q59 -22 158 -22h38q67 0 102 -29q22 -19 34 -49q22 -51 22 -171l-1 -140q0 -62 5 -157q4 -86 35 -152q-139 0 -192 34q-59 36 -60 127q0 78 18 176q16 80 16 145q0 45 -5 87q-25 -5 -43 -5q-127 0 -127 152zM193 2l610 1131q94 171 202 203q51 14 104 14 l-611 -1132q-93 -170 -201 -202q-51 -14 -104 -14zM846 586q0 68 67 105q65 37 173 37q339 0 339 -210q0 -72 -31 -118q-31 -48 -82 -83q-51 -37 -110 -68q-60 -34 -90 -53q28 4 69 4q127 0 200 -57q46 -34 46 -82q0 -27 -17 -61q-115 48 -217 48q-96 0 -171 -29 q-48 -19 -72 -19q-52 0 -77 27q-26 28 -26 64q0 48 79 120q41 36 129 101q70 50 121 94q52 43 52 78q0 37 -24 58q-26 20 -56 20q-32 0 -58 -20q-17 -14 -17 -39q0 -9 3 -23q-230 0 -230 106z" />
<glyph unicode="&#xbe;" horiz-adv-x="1734" d="M50 799q0 106 230 106q-3 -13 -3 -24q0 -25 21 -41q20 -17 54 -17q38 0 57 19q20 20 20 49q0 27 -12 41q-21 21 -76 22q-31 2 -60 9q-69 19 -69 123q42 -11 82 -11q59 0 98 24q39 23 39 64q0 37 -24 58q-25 20 -55 20q-33 0 -58 -20q-17 -15 -17 -38q0 -11 3 -24 q-230 0 -230 106q0 68 67 105q65 37 173 37q339 0 339 -210q0 -98 -70 -165q70 -67 70 -165q0 -210 -339 -210q-106 0 -173 38q-67 37 -67 104zM379 2l610 1131q94 171 202 203q51 14 104 14l-611 -1132q-93 -170 -201 -202q-51 -14 -104 -14zM1032 179q56 157 92 286 q66 239 66 283q92 -14 107 -96q5 -30 5 -56q0 -62 -27 -152q-30 -95 -77 -173q30 -1 91 -1l95 1q6 44 10 65q16 81 16 146q0 64 -9 111q-12 52 -32 105h62q60 0 93 -33q56 -58 64 -214q3 -69 3 -165q67 8 93 18q-10 -85 -91 -123q1 -109 35 -181q-138 0 -190 33 q-54 33 -60 106h-15q-93 0 -183 12q-94 12 -148 28z" />
<glyph unicode="&#xbf;" horiz-adv-x="1216" d="M50 5q0 127 36 203q34 75 88 123q52 46 106 79q39 24 74 52q74 60 74 150l121 1q90 0 162 -4q79 -4 136 -26q55 -22 55 -73q0 -62 -44 -104q-51 -48 -177 -94q-58 -21 -119 -52q-55 -27 -94 -73q-37 -44 -37 -116q0 -71 47 -110q46 -40 106 -40q42 0 81 17t55 51 q10 19 10 46q0 21 -6 45q442 0 442 -205q0 -153 -177 -227q-117 -48 -285 -48q-303 0 -466 86q-188 98 -188 319zM468 872q0 78 54 134q54 55 131 55t132 -55q54 -56 54 -134t-54 -133q-55 -55 -132 -55t-131 55t-54 133z" />
<glyph unicode="&#xc0;" horiz-adv-x="1282" d="M17 224q0 80 41 179q35 86 90 194q52 98 110 233q52 123 71 252q8 53 8 99q0 85 -22 169h388q219 0 328 -348q48 -152 101 -441q30 -174 71 -331q39 -151 103 -231q-221 0 -307 8q-82 8 -147 59q-73 55 -93 200q-35 -5 -101 -5q-119 0 -215 9q-10 -70 -10 -123 q0 -80 20 -145q-323 0 -402 109q-34 49 -34 113zM390 1726q28 15 53 25q56 22 104 58l180 -259q-37 -13 -61 -39q-9 -12 -27 -23zM484 488q131 3 245 17q-8 65 -26 175q-28 171 -94 364q-18 -126 -80 -375q-23 -88 -45 -181z" />
<glyph unicode="&#xc1;" horiz-adv-x="1282" d="M17 224q0 80 41 179q35 86 90 194q52 98 110 233q52 123 71 252q8 53 8 99q0 85 -22 169h388q219 0 328 -348q48 -152 101 -441q30 -174 71 -331q39 -151 103 -231q-221 0 -307 8q-82 8 -147 59q-73 55 -93 200q-35 -5 -101 -5q-119 0 -215 9q-10 -70 -10 -123 q0 -80 20 -145q-323 0 -402 109q-34 49 -34 113zM427 1550l180 259q48 -36 104 -58q25 -10 53 -25l-249 -238q-18 11 -27 23q-24 26 -61 39zM484 488q131 3 245 17q-8 65 -26 175q-28 171 -94 364q-18 -126 -80 -375q-23 -88 -45 -181z" />
<glyph unicode="&#xc2;" horiz-adv-x="1282" d="M17 224q0 80 41 179q35 86 90 194q52 98 110 233q52 123 71 252q8 53 8 99q0 85 -22 169h388q219 0 328 -348q48 -152 101 -441q30 -174 71 -331q39 -151 103 -231q-221 0 -307 8q-82 8 -147 59q-73 55 -93 200q-35 -5 -101 -5q-119 0 -215 9q-10 -70 -10 -123 q0 -80 20 -145q-323 0 -402 109q-34 49 -34 113zM372 1550l241 259l247 -259q-14 -10 -32 -18q-35 -14 -57 -44l-158 119l-153 -119q-16 10 -27 22q-24 24 -61 40zM484 488q131 3 245 17q-8 65 -26 175q-28 171 -94 364q-18 -126 -80 -375q-23 -88 -45 -181z" />
<glyph unicode="&#xc3;" horiz-adv-x="1282" d="M17 224q0 80 41 179q35 86 90 194q52 98 110 233q52 123 71 252q8 53 8 99q0 85 -22 169h388q219 0 328 -348q48 -152 101 -441q30 -174 71 -331q39 -151 103 -231q-221 0 -307 8q-82 8 -147 59q-73 55 -93 200q-35 -5 -101 -5q-119 0 -215 9q-10 -70 -10 -123 q0 -80 20 -145q-323 0 -402 109q-34 49 -34 113zM336 1524q37 234 161 234q43 0 93 -57q48 -58 73 -58q33 0 40 115q29 -15 46 -20q19 -7 32 -8q14 -1 32 -8q-33 -234 -138 -234q-54 0 -105 56q-51 55 -77 55q-34 0 -52 -111q-18 5 -34 14q-34 19 -71 22zM484 488 q131 3 245 17q-8 65 -26 175q-28 171 -94 364q-18 -126 -80 -375q-23 -88 -45 -181z" />
<glyph unicode="&#xc4;" horiz-adv-x="1282" d="M17 224q0 80 41 179q35 86 90 194q52 98 110 233q52 123 71 252q8 53 8 99q0 85 -22 169h388q219 0 328 -348q48 -152 101 -441q30 -174 71 -331q39 -151 103 -231q-221 0 -307 8q-82 8 -147 59q-73 55 -93 200q-35 -5 -101 -5q-119 0 -215 9q-10 -70 -10 -123 q0 -80 20 -145q-323 0 -402 109q-34 49 -34 113zM302 1620q0 132 130 132q131 0 131 -131q0 -133 -131 -133q-130 0 -130 132zM484 488q131 3 245 17q-8 65 -26 175q-28 171 -94 364q-18 -126 -80 -375q-23 -88 -45 -181zM641 1620q0 132 130 132q131 0 131 -131 q0 -133 -131 -133q-130 0 -130 132z" />
<glyph unicode="&#xc5;" horiz-adv-x="1282" d="M17 224q0 80 41 179q35 86 90 194q52 98 110 233q52 123 71 252q8 53 8 99q0 85 -22 169h388q219 0 328 -348q48 -152 101 -441q30 -174 71 -331q39 -151 103 -231q-221 0 -307 8q-82 8 -147 59q-73 55 -93 200q-35 -5 -101 -5q-119 0 -215 9q-10 -70 -10 -123 q0 -80 20 -145q-323 0 -402 109q-34 49 -34 113zM424 1632q0 73 52 125q53 52 125 52q70 0 125 -52q51 -52 51 -125q0 -76 -51 -125q-56 -51 -125 -51q-71 0 -125 51q-52 52 -52 125zM484 488q131 3 245 17q-8 65 -26 175q-28 171 -94 364q-18 -126 -80 -375 q-23 -88 -45 -181zM553 1629q0 -47 48 -47q51 0 51 46q0 50 -50 50q-49 0 -49 -49z" />
<glyph unicode="&#xc6;" horiz-adv-x="1696" d="M17 224q0 80 41 179q35 86 90 194q244 460 244 584q0 85 -22 169h255q158 -1 317 -17q182 -17 291 -17q239 0 458 34q0 -324 -314 -324q-11 0 -63 3q-48 1 -146 22q-107 22 -187 44q69 -125 84 -251q6 -51 9 -102q47 0 176 6q127 4 265 50q0 -313 -252 -313 q-104 0 -187 26q5 -129 35 -187q34 -68 96 -88q54 -16 128 -16t136 -13q162 -33 218 -228q-35 9 -81 9q-54 0 -192 -17q-141 -21 -323 -23q-372 3 -420 314q-161 1 -230 8q-10 -70 -10 -123q0 -80 20 -145q-323 0 -402 109q-34 49 -34 113zM484 488l190 4q8 78 23 146 q32 160 32 260q0 82 -9 157q-138 -174 -236 -567z" />
<glyph unicode="&#xc7;" horiz-adv-x="1248" d="M56 670q0 336 162 529q174 208 522 208q255 0 379 -103q83 -69 83 -172q0 -58 -39 -104q-40 -46 -136 -73q-96 -28 -268 -28q8 30 8 56q0 2 -2 32q-3 23 -25 45q-23 23 -68 23q-75 0 -126 -55q-50 -54 -76 -151q-25 -90 -25 -203q0 -144 45 -255q80 -198 251 -198 q138 0 210 88q56 70 56 148q163 -106 163 -220q0 -97 -73 -163q-69 -63 -167 -91q-90 -27 -174 -30l-8 -22q75 -21 112 -69q38 -49 38 -105q0 -59 -31 -108q-31 -51 -96 -81q-63 -31 -169 -31q0 25 -20 57q-21 32 -21 57q79 0 133 22q54 23 54 74q0 36 -24 66t-75 30l-36 28 l39 86q-283 24 -436 210q-160 193 -160 503z" />
<glyph unicode="&#xc8;" horiz-adv-x="1127" d="M56 1350q158 -1 317 -17q182 -17 291 -17q239 0 458 34q0 -324 -314 -324q-10 0 -63 3q-48 1 -146 22q-107 22 -187 44q69 -125 84 -251q6 -51 9 -102q47 0 176 6q127 4 265 50q0 -313 -252 -313q-104 0 -187 26q5 -129 35 -187q34 -68 96 -88q54 -16 128 -16t136 -13 q162 -33 218 -228q-34 9 -81 9q-54 0 -192 -17q-141 -21 -323 -23q-427 4 -427 413q0 129 31 277q32 160 32 260q0 60 -6 135q-8 80 -29 155q-23 80 -69 162zM397 1726q28 15 53 25q56 22 104 58l180 -259q-37 -13 -61 -39q-9 -12 -27 -23z" />
<glyph unicode="&#xc9;" horiz-adv-x="1127" d="M56 1350q158 -1 317 -17q182 -17 291 -17q239 0 458 34q0 -324 -314 -324q-10 0 -63 3q-48 1 -146 22q-107 22 -187 44q69 -125 84 -251q6 -51 9 -102q47 0 176 6q127 4 265 50q0 -313 -252 -313q-104 0 -187 26q5 -129 35 -187q34 -68 96 -88q54 -16 128 -16t136 -13 q162 -33 218 -228q-34 9 -81 9q-54 0 -192 -17q-141 -21 -323 -23q-427 4 -427 413q0 129 31 277q32 160 32 260q0 60 -6 135q-8 80 -29 155q-23 80 -69 162zM464 1550l180 259q48 -36 104 -58q25 -10 53 -25l-249 -238q-18 11 -27 23q-24 26 -61 39z" />
<glyph unicode="&#xca;" horiz-adv-x="1127" d="M56 1350q158 -1 317 -17q182 -17 291 -17q239 0 458 34q0 -324 -314 -324q-10 0 -63 3q-48 1 -146 22q-107 22 -187 44q69 -125 84 -251q6 -51 9 -102q47 0 176 6q127 4 265 50q0 -313 -252 -313q-104 0 -187 26q5 -129 35 -187q34 -68 96 -88q54 -16 128 -16t136 -13 q162 -33 218 -228q-34 9 -81 9q-54 0 -192 -17q-141 -21 -323 -23q-427 4 -427 413q0 129 31 277q32 160 32 260q0 60 -6 135q-8 80 -29 155q-23 80 -69 162zM365 1550l241 259l247 -259q-14 -10 -32 -18q-35 -14 -57 -44l-158 119l-153 -119q-16 10 -27 22q-24 24 -61 40z " />
<glyph unicode="&#xcb;" horiz-adv-x="1127" d="M56 1350q158 -1 317 -17q182 -17 291 -17q239 0 458 34q0 -324 -314 -324q-10 0 -63 3q-48 1 -146 22q-107 22 -187 44q69 -125 84 -251q6 -51 9 -102q47 0 176 6q127 4 265 50q0 -313 -252 -313q-104 0 -187 26q5 -129 35 -187q34 -68 96 -88q54 -16 128 -16t136 -13 q162 -33 218 -228q-34 9 -81 9q-54 0 -192 -17q-141 -21 -323 -23q-427 4 -427 413q0 129 31 277q32 160 32 260q0 60 -6 135q-8 80 -29 155q-23 80 -69 162zM320 1620q0 132 130 132q131 0 131 -131q0 -133 -131 -133q-130 0 -130 132zM659 1620q0 132 130 132 q131 0 131 -131q0 -133 -131 -133q-130 0 -130 132z" />
<glyph unicode="&#xcc;" horiz-adv-x="659" d="M56 1726q28 15 53 25q56 22 104 58l180 -259q-37 -13 -61 -39q-9 -12 -27 -23zM102 1350h119q91 0 150 -42q94 -67 130 -238q21 -97 26 -250q3 -110 3 -249q0 -177 10 -316q11 -148 61 -253q-186 0 -291 32q-103 31 -147 101q-48 77 -48 219q0 94 34 298q6 41 22 150 q10 69 10 131q0 128 -19 214t-60 203z" />
<glyph unicode="&#xcd;" horiz-adv-x="613" d="M56 1350h119q91 0 150 -42q94 -67 130 -238q21 -97 26 -250q3 -110 3 -249q0 -177 10 -316q11 -148 61 -253q-186 0 -291 32q-103 31 -147 101q-48 77 -48 219q0 94 34 298q6 41 22 150q10 69 10 131q0 128 -19 214t-60 203zM88 1550l180 259q48 -36 104 -58 q25 -10 53 -25l-249 -238q-18 11 -27 23q-24 26 -61 39z" />
<glyph unicode="&#xce;" horiz-adv-x="637" d="M-6 1550l241 259l247 -259q-14 -10 -32 -18q-35 -14 -57 -44l-158 119l-153 -119q-16 10 -27 22q-24 24 -61 40zM80 1350h119q91 0 150 -42q94 -67 130 -238q21 -97 26 -250q3 -110 3 -249q0 -177 10 -316q11 -148 61 -253q-186 0 -291 32q-103 31 -147 101 q-48 77 -48 219q0 94 34 298q6 41 22 150q10 69 10 131q0 128 -19 214t-60 203z" />
<glyph unicode="&#xcf;" horiz-adv-x="640" d="M-74 1620q0 132 130 132q131 0 131 -131q0 -133 -131 -133q-130 0 -130 132zM83 1350h119q92 0 150 -42q94 -67 130 -238q21 -97 26 -250q3 -110 3 -249q0 -177 10 -316q11 -148 61 -253q-186 0 -291 32q-103 31 -147 101q-48 77 -48 219q0 94 34 298q6 41 22 150 q10 69 10 131q0 128 -19 214t-60 203zM265 1620q0 132 130 132q131 0 131 -131q0 -133 -131 -133q-130 0 -130 132z" />
<glyph unicode="&#xd0;" horiz-adv-x="1307" d="M7 771h197q-6 335 -66 579q46 21 161 39q113 18 249 18q346 0 521 -208q163 -193 163 -529q0 -249 -89 -410q-89 -160 -249 -237q-162 -77 -377 -77q-182 0 -380 56q60 237 67 580h-79q-95 0 -111 103q-6 42 -7 86zM503 1163q50 -157 74 -392h41q92 0 111 -103 q7 -36 8 -86h-146q5 -112 5 -187q0 -101 -9 -150q83 6 139 56q127 112 127 400q0 119 -45 226q-32 73 -78 124q-96 109 -227 112z" />
<glyph unicode="&#xd1;" horiz-adv-x="1293" d="M56 1350h151q162 0 247 -175q44 -85 108 -231q126 -279 203 -429q36 267 36 383q0 206 -65 452h151q171 0 238 -154q58 -132 58 -286q0 -215 -12 -320t-12 -210q0 -225 76 -378q-186 0 -294 32q-276 84 -453 514q-8 -93 -8 -175q0 -217 75 -371q-257 0 -366 61 q-120 67 -120 251q0 96 25 268q27 206 27 316q0 206 -65 452zM363 1524q37 234 161 234q44 0 93 -57q48 -58 73 -58q33 0 40 115q29 -15 46 -20q19 -7 32 -8q14 -1 32 -8q-33 -234 -138 -234q-54 0 -105 56q-51 55 -77 55q-34 0 -52 -111q-18 5 -34 14q-34 19 -71 22z" />
<glyph unicode="&#xd2;" horiz-adv-x="1323" d="M56 665q0 348 188 551q87 93 191 137q107 45 216 45q121 0 230 -47q108 -47 190 -138q177 -197 177 -548q0 -305 -155 -496q-92 -114 -224 -167q-109 -44 -222 -44q-110 0 -216 44q-106 43 -190 132q-185 193 -185 531zM430 1726q28 15 53 25q56 22 104 58l180 -259 q-37 -13 -61 -39q-9 -12 -27 -23zM445 665q5 -202 65 -313q62 -113 137 -113q79 0 144 110q63 108 68 316q0 136 -28 226q-29 91 -75 138q-47 47 -99 47q-53 0 -102 -45q-41 -37 -69 -108q-41 -103 -41 -258z" />
<glyph unicode="&#xd3;" horiz-adv-x="1323" d="M56 665q0 348 188 551q87 93 191 137q107 45 216 45q121 0 230 -47q108 -47 190 -138q177 -197 177 -548q0 -305 -155 -496q-92 -114 -224 -167q-109 -44 -222 -44q-110 0 -216 44q-106 43 -190 132q-185 193 -185 531zM445 665q5 -202 65 -313q62 -113 137 -113 q79 0 144 110q63 108 68 316q0 136 -28 226q-29 91 -75 138q-47 47 -99 47q-53 0 -102 -45q-41 -37 -69 -108q-41 -103 -41 -258zM503 1550l180 259q48 -36 104 -58q25 -10 53 -25l-249 -238q-18 11 -27 23q-24 26 -61 39z" />
<glyph unicode="&#xd4;" horiz-adv-x="1323" d="M56 665q0 348 188 551q87 93 191 137q107 45 216 45q121 0 230 -47q108 -47 190 -138q177 -197 177 -548q0 -305 -155 -496q-92 -114 -224 -167q-109 -44 -222 -44q-110 0 -216 44q-106 43 -190 132q-185 193 -185 531zM411 1550l241 259l247 -259q-14 -10 -32 -18 q-35 -14 -57 -44l-158 119l-153 -119q-16 10 -27 22q-24 24 -61 40zM445 665q5 -202 65 -313q62 -113 137 -113q79 0 144 110q63 108 68 316q0 136 -28 226q-29 91 -75 138q-47 47 -99 47q-53 0 -102 -45q-41 -37 -69 -108q-41 -103 -41 -258z" />
<glyph unicode="&#xd5;" horiz-adv-x="1323" d="M56 665q0 348 188 551q87 93 191 137q107 45 216 45q121 0 230 -47q108 -47 190 -138q177 -197 177 -548q0 -305 -155 -496q-92 -114 -224 -167q-109 -44 -222 -44q-110 0 -216 44q-106 43 -190 132q-185 193 -185 531zM416 1524q38 234 161 234q43 0 93 -57 q48 -58 73 -58q33 0 40 115q29 -15 46 -20q19 -7 32 -8q14 -1 32 -8q-33 -234 -138 -234q-54 0 -105 56q-51 55 -77 55q-34 0 -52 -111q-18 5 -34 14q-34 19 -71 22zM445 665q5 -202 65 -313q62 -113 137 -113q79 0 144 110q63 108 68 316q0 136 -28 226q-29 91 -75 138 q-47 47 -99 47q-53 0 -102 -45q-41 -37 -69 -108q-41 -103 -41 -258z" />
<glyph unicode="&#xd6;" horiz-adv-x="1323" d="M56 665q0 348 188 551q87 93 191 137q107 45 216 45q121 0 230 -47q108 -47 190 -138q177 -197 177 -548q0 -305 -155 -496q-92 -114 -224 -167q-109 -44 -222 -44q-110 0 -216 44q-106 43 -190 132q-185 193 -185 531zM355 1620q0 132 130 132q131 0 131 -131 q0 -133 -131 -133q-130 0 -130 132zM445 665q5 -202 65 -313q62 -113 137 -113q79 0 144 110q63 108 68 316q0 136 -28 226q-29 91 -75 138q-47 47 -99 47q-53 0 -102 -45q-41 -37 -69 -108q-41 -103 -41 -258zM694 1620q0 132 130 132q131 0 131 -131q0 -133 -131 -133 q-130 0 -130 132z" />
<glyph unicode="&#xd7;" horiz-adv-x="830" d="M50 466l232 232l-148 148q-36 34 -36 76q0 69 85 141l232 -232l148 148q35 35 77 35q52 0 140 -84l-232 -232l148 -148q36 -34 36 -77q0 -55 -85 -140l-232 232l-148 -148q-35 -36 -77 -36q-65 0 -140 85z" />
<glyph unicode="&#xd8;" horiz-adv-x="1323" d="M56 665q0 348 188 551q87 93 191 137q107 45 216 45q56 0 114 -11q47 80 133 110q67 23 175 23l-81 -235q256 -193 256 -620q0 -305 -155 -496q-92 -114 -224 -167q-109 -44 -222 -44q-59 0 -114 12q-60 -112 -173 -138q-70 -14 -145 -14l89 258q-248 197 -248 589z M445 665q1 -79 12 -145l191 556q-48 -4 -93 -45q-41 -37 -69 -108q-41 -103 -41 -258zM632 240q5 -1 15 -1q79 0 144 110q63 108 68 316q0 102 -17 184z" />
<glyph unicode="&#xd9;" horiz-adv-x="1231" d="M56 1350h119q86 0 139 -37q95 -67 124 -246q15 -102 15 -264q0 -61 -1 -92t-1 -91q0 -149 17 -237q28 -144 134 -144q135 0 180 236q22 113 22 252q0 121 -10 235q-10 115 -29 224q-20 105 -40 164h205q61 0 110 -85q50 -86 78 -226q26 -136 26 -292q0 -246 -56 -429 q-112 -360 -489 -360q-278 0 -386 150q-89 124 -97 372q-1 37 -1 115q0 38 2 120q1 41 1 123q0 100 -6 232q-8 135 -56 280zM375 1726q28 15 53 25q56 22 104 58l180 -259q-37 -13 -61 -39q-9 -12 -27 -23z" />
<glyph unicode="&#xda;" horiz-adv-x="1231" d="M56 1350h119q86 0 139 -37q95 -67 124 -246q15 -102 15 -264q0 -61 -1 -92t-1 -91q0 -149 17 -237q28 -144 134 -144q135 0 180 236q22 113 22 252q0 121 -10 235q-10 115 -29 224q-20 105 -40 164h205q61 0 110 -85q50 -86 78 -226q26 -136 26 -292q0 -246 -56 -429 q-112 -360 -489 -360q-278 0 -386 150q-89 124 -97 372q-1 37 -1 115q0 38 2 120q1 41 1 123q0 100 -6 232q-8 135 -56 280zM464 1550l180 259q48 -36 104 -58q25 -10 53 -25l-249 -238q-18 11 -27 23q-24 26 -61 39z" />
<glyph unicode="&#xdb;" horiz-adv-x="1231" d="M56 1350h119q86 0 139 -37q95 -67 124 -246q15 -102 15 -264q0 -61 -1 -92t-1 -91q0 -149 17 -237q28 -144 134 -144q135 0 180 236q22 113 22 252q0 121 -10 235q-10 115 -29 224q-20 105 -40 164h205q61 0 110 -85q50 -86 78 -226q26 -136 26 -292q0 -246 -56 -429 q-112 -360 -489 -360q-278 0 -386 150q-89 124 -97 372q-1 37 -1 115q0 38 2 120q1 41 1 123q0 100 -6 232q-8 135 -56 280zM356 1550l241 259l247 -259q-14 -10 -32 -18q-35 -14 -57 -44l-158 119l-153 -119q-16 10 -27 22q-24 24 -61 40z" />
<glyph unicode="&#xdc;" horiz-adv-x="1231" d="M56 1350h119q86 0 139 -37q95 -67 124 -246q15 -102 15 -264q0 -61 -1 -92t-1 -91q0 -149 17 -237q28 -144 134 -144q135 0 180 236q22 113 22 252q0 121 -10 235q-10 115 -29 224q-20 105 -40 164h205q61 0 110 -85q50 -86 78 -226q26 -136 26 -292q0 -246 -56 -429 q-112 -360 -489 -360q-278 0 -386 150q-89 124 -97 372q-1 37 -1 115q0 38 2 120q1 41 1 123q0 100 -6 232q-8 135 -56 280zM252 1620q0 132 130 132q131 0 131 -131q0 -133 -131 -133q-130 0 -130 132zM591 1620q0 132 130 132q131 0 131 -131q0 -133 -131 -133 q-130 0 -130 132z" />
<glyph unicode="&#xdd;" horiz-adv-x="1143" d="M-51 1350h206q121 0 191 -51q72 -52 124 -153q55 -108 113 -258l16 -37q57 41 105 113q49 72 69 170q7 35 7 76q0 65 -20 140h159q77 0 124 -24q83 -47 83 -156q0 -120 -67 -250q-64 -121 -147 -212q-84 -93 -156 -129v-22q0 -320 113 -555q-146 0 -243 20 q-154 33 -203 126q-38 71 -38 172q0 88 25 229l9 58q-77 66 -144 177q-72 118 -133 239q-93 184 -193 327zM426 1550l180 259q48 -36 104 -58q25 -10 53 -25l-249 -238q-18 11 -27 23q-24 26 -61 39z" />
<glyph unicode="&#xde;" horiz-adv-x="1302" d="M56 1350h119q91 0 150 -42q70 -51 108 -158h61q407 0 594 -152q170 -141 170 -403q0 -221 -186 -363q-104 -80 -234 -111q-71 -17 -136 -17q-129 0 -211 47l11 -69q23 -144 99 -280q-187 0 -291 39t-147 109q-47 76 -47 193q0 122 23 262q28 175 28 388q0 151 -35 299 q-37 150 -76 258zM480 469q1 -63 50 -96q46 -33 110 -33q56 0 105 28q51 28 82 84q31 55 31 142q0 75 -31 141q-72 154 -305 154h-13q-3 -81 -13 -187q-11 -116 -16 -233z" />
<glyph unicode="&#xdf;" horiz-adv-x="1595" d="M30 1062q164 -2 322 -10q203 -11 372 -11q158 0 300 21q0 -83 -19 -134q-22 -60 -73 -106q-21 -21 -33 -37q-13 -17 -13 -44q0 -37 31 -55q32 -20 83 -27q51 -9 114 -15q81 -8 147 -19q83 -13 147 -47q135 -71 135 -239q0 -211 -155 -303q-134 -80 -386 -80 q-133 0 -217 29q-83 29 -117 72q-36 43 -36 90q0 143 174 190q0 -73 84 -102q45 -16 105 -16q186 0 186 123q0 39 -32 60q-31 19 -85 30q-43 7 -119 16q-102 8 -202 33q-101 24 -171 92q-69 68 -72 205l-114 29q42 -74 59 -167q14 -87 22 -191q7 -98 28 -220 q20 -113 72 -227q-198 0 -301 39q-162 61 -162 215q0 88 14 178q16 113 16 176q0 91 -11 173q-21 150 -93 279z" />
<glyph unicode="&#xe0;" horiz-adv-x="1199" d="M23 201q0 72 34 156q39 93 84 182q51 100 85 186q38 94 38 186q0 69 -21 151h345q296 0 409 -296q50 -133 88 -369q20 -127 48 -229q27 -105 78 -166q-2 0 -136 -2q-74 0 -141 10q-71 9 -133 66t-98 191q-31 -7 -94 -7q-69 0 -192 11q-8 -50 -8 -90q0 -96 31 -179 q-152 0 -246 23q-90 22 -131 65q-40 41 -40 111zM332 1437q28 15 53 25q56 22 104 58l180 -259q-37 -13 -61 -39q-9 -12 -27 -23zM458 488q90 3 215 17q-12 98 -44 186q-31 83 -80 129q-68 -265 -91 -332z" />
<glyph unicode="&#xe1;" horiz-adv-x="1199" d="M23 201q0 72 34 156q39 93 84 182q51 100 85 186q38 94 38 186q0 69 -21 151h345q296 0 409 -296q50 -133 88 -369q20 -127 48 -229q27 -105 78 -166q-2 0 -136 -2q-74 0 -141 10q-71 9 -133 66t-98 191q-31 -7 -94 -7q-69 0 -192 11q-8 -50 -8 -90q0 -96 31 -179 q-152 0 -246 23q-90 22 -131 65q-40 41 -40 111zM373 1261l180 259q48 -36 104 -58q25 -10 53 -25l-249 -238q-18 11 -27 23q-24 26 -61 39zM458 488q90 3 215 17q-12 98 -44 186q-31 83 -80 129q-68 -265 -91 -332z" />
<glyph unicode="&#xe2;" horiz-adv-x="1199" d="M23 201q0 72 34 156q39 93 84 182q51 100 85 186q38 94 38 186q0 69 -21 151h345q296 0 409 -296q50 -133 88 -369q20 -127 48 -229q27 -105 78 -166q-2 0 -136 -2q-74 0 -141 10q-71 9 -133 66t-98 191q-31 -7 -94 -7q-69 0 -192 11q-8 -50 -8 -90q0 -96 31 -179 q-152 0 -246 23q-90 22 -131 65q-40 41 -40 111zM273 1261l241 259l247 -259q-14 -10 -32 -18q-35 -14 -57 -44l-158 119l-153 -119q-16 10 -27 22q-24 23 -61 40zM458 488q90 3 215 17q-12 98 -44 186q-31 83 -80 129q-68 -265 -91 -332z" />
<glyph unicode="&#xe3;" horiz-adv-x="1199" d="M23 201q0 72 34 156q39 93 84 182q51 100 85 186q38 94 38 186q0 69 -21 151h345q296 0 409 -296q50 -133 88 -369q20 -127 48 -229q27 -105 78 -166q-2 0 -136 -2q-74 0 -141 10q-71 9 -133 66t-98 191q-31 -7 -94 -7q-69 0 -192 11q-8 -50 -8 -90q0 -96 31 -179 q-152 0 -246 23q-90 22 -131 65q-40 41 -40 111zM286 1235q38 234 161 234q43 0 93 -57q48 -58 73 -58q33 0 40 115q29 -15 46 -20q19 -7 32 -8q14 -1 32 -8q-33 -234 -138 -234q-54 0 -105 56q-51 55 -77 55q-34 0 -52 -111q-18 5 -34 14q-34 19 -71 22zM458 488 q90 3 215 17q-12 98 -44 186q-31 83 -80 129q-68 -265 -91 -332z" />
<glyph unicode="&#xe4;" horiz-adv-x="1204" d="M28 201q0 72 34 156q39 93 84 182q51 100 85 186q38 94 38 186q0 69 -21 151h345q296 0 409 -296q50 -133 88 -369q20 -127 48 -229q27 -105 78 -166q-2 0 -136 -2q-74 0 -141 10q-71 9 -133 66t-98 191q-31 -7 -94 -7q-69 0 -192 11q-8 -50 -8 -90q0 -96 31 -179 q-152 0 -246 23q-90 22 -131 65q-40 41 -40 111zM246 1331q0 132 130 132q131 0 131 -131q0 -133 -131 -133q-130 0 -130 132zM463 488q90 3 215 17q-12 98 -44 186q-31 83 -80 129q-68 -265 -91 -332zM585 1331q0 132 130 132q131 0 131 -131q0 -133 -131 -133 q-130 0 -130 132z" />
<glyph unicode="&#xe5;" horiz-adv-x="1199" d="M23 201q0 72 34 156q39 93 84 182q51 100 85 186q38 94 38 186q0 69 -21 151h345q296 0 409 -296q50 -133 88 -369q20 -127 48 -229q27 -105 78 -166q-2 0 -136 -2q-74 0 -141 10q-71 9 -133 66t-98 191q-31 -7 -94 -7q-69 0 -192 11q-8 -50 -8 -90q0 -96 31 -179 q-152 0 -246 23q-90 22 -131 65q-40 41 -40 111zM360 1343q0 73 52 125q53 52 125 52q70 0 125 -52q51 -52 51 -125q0 -75 -51 -125q-56 -51 -125 -51q-71 0 -125 51q-52 52 -52 125zM458 488q90 3 215 17q-12 98 -44 186q-31 83 -80 129q-68 -265 -91 -332zM489 1340 q0 -47 48 -47q51 0 51 46q0 50 -50 50q-49 0 -49 -49z" />
<glyph unicode="&#xe6;" horiz-adv-x="1557" d="M23 201q0 72 34 156q39 93 84 182q51 100 85 186q38 94 38 186q0 69 -21 151h304q177 -1 342 -14q162 -12 310 -12q144 0 323 26q0 -290 -269 -290q-86 0 -181 22q-101 21 -188 45q87 -93 93 -241q217 0 368 56q0 -154 -41 -210q-40 -57 -117 -57q-91 0 -208 47 q0 -108 26 -154q26 -45 71 -54q38 -8 83 -8l88 2q46 0 97 -13q52 -14 98 -64q46 -51 78 -164q-36 9 -81 9q-63 0 -181 -18q-125 -22 -262 -22q-164 0 -252 39q-88 37 -123 99q-35 61 -35 139l1 38q-111 3 -170 8q-8 -50 -8 -90q0 -96 31 -179q-152 0 -246 23q-90 22 -131 65 q-40 41 -40 111zM458 488l162 3q31 140 31 263q0 89 -47 145q-94 -261 -146 -411z" />
<glyph unicode="&#xe7;" horiz-adv-x="1113" d="M40 502q0 261 155 431q169 186 489 186q104 0 188 -32q83 -33 129 -94q47 -62 47 -149q0 -55 -38 -102q-39 -47 -115 -75q-75 -28 -191 -28q8 32 8 58q0 53 -25 75q-26 23 -70 23q-85 0 -137 -37q-100 -72 -100 -240q0 -80 29 -152q27 -66 75 -108q46 -42 111 -42 q126 0 196 65q69 65 69 176q165 -83 165 -226q0 -85 -61 -146q-61 -63 -160 -97q-78 -28 -167 -34l-8 -23q75 -21 112 -69q38 -49 38 -105q0 -59 -31 -108q-32 -51 -96 -81q-63 -31 -169 -31q0 25 -20 57q-21 32 -21 57q79 0 133 22q54 23 54 74q0 36 -24 66t-75 30l-36 28 l38 84q-93 7 -176 43q-100 42 -173 121q-72 78 -107 175q-36 99 -36 208z" />
<glyph unicode="&#xe8;" horiz-adv-x="1040" d="M30 1062q177 -1 342 -14q162 -12 310 -12q144 0 323 26q0 -290 -269 -290q-86 0 -181 22q-100 22 -188 45q87 -93 93 -241h15q202 0 353 56v-19q0 -135 -41 -191q-41 -57 -117 -57q-91 0 -208 47q0 -108 26 -154q26 -45 71 -54q38 -8 83 -8l88 2q46 0 97 -13 q52 -14 98 -64q46 -51 78 -164q-36 9 -81 9q-61 0 -181 -18q-125 -22 -262 -22q-163 0 -252 39q-89 37 -123 99q-35 61 -35 139q0 114 32 256q33 149 33 273q0 60 -6 99q-8 41 -29 84q-20 41 -69 125zM333 1437q28 15 53 25q56 22 104 58l180 -259q-37 -13 -61 -39 q-9 -12 -27 -23z" />
<glyph unicode="&#xe9;" horiz-adv-x="1040" d="M30 1062q177 -1 342 -14q162 -12 310 -12q144 0 323 26q0 -290 -269 -290q-86 0 -181 22q-100 22 -188 45q87 -93 93 -241h15q202 0 353 56v-19q0 -135 -41 -191q-41 -57 -117 -57q-91 0 -208 47q0 -108 26 -154q26 -45 71 -54q38 -8 83 -8l88 2q46 0 97 -13 q52 -14 98 -64q46 -51 78 -164q-36 9 -81 9q-61 0 -181 -18q-125 -22 -262 -22q-163 0 -252 39q-89 37 -123 99q-35 61 -35 139q0 114 32 256q33 149 33 273q0 60 -6 99q-8 41 -29 84q-20 41 -69 125zM381 1261l180 259q48 -36 104 -58q25 -10 53 -25l-249 -238 q-18 11 -27 23q-24 26 -61 39z" />
<glyph unicode="&#xea;" horiz-adv-x="1040" d="M30 1062q177 -1 342 -14q162 -12 310 -12q144 0 323 26q0 -290 -269 -290q-86 0 -181 22q-100 22 -188 45q87 -93 93 -241h15q202 0 353 56v-19q0 -135 -41 -191q-41 -57 -117 -57q-91 0 -208 47q0 -108 26 -154q26 -45 71 -54q38 -8 83 -8l88 2q46 0 97 -13 q52 -14 98 -64q46 -51 78 -164q-36 9 -81 9q-61 0 -181 -18q-125 -22 -262 -22q-163 0 -252 39q-89 37 -123 99q-35 61 -35 139q0 114 32 256q33 149 33 273q0 60 -6 99q-8 41 -29 84q-20 41 -69 125zM311 1261l241 259l247 -259q-14 -10 -32 -18q-35 -14 -57 -44l-158 119 l-153 -119q-16 10 -27 22q-24 23 -61 40z" />
<glyph unicode="&#xeb;" horiz-adv-x="1040" d="M30 1062q177 -1 342 -14q162 -12 310 -12q144 0 323 26q0 -290 -269 -290q-86 0 -181 22q-100 22 -188 45q87 -93 93 -241h15q202 0 353 56v-19q0 -135 -41 -191q-41 -57 -117 -57q-91 0 -208 47q0 -108 26 -154q26 -45 71 -54q38 -8 83 -8l88 2q46 0 97 -13 q52 -14 98 -64q46 -51 78 -164q-36 9 -81 9q-61 0 -181 -18q-125 -22 -262 -22q-163 0 -252 39q-89 37 -123 99q-35 61 -35 139q0 114 32 256q33 149 33 273q0 60 -6 99q-8 41 -29 84q-20 41 -69 125zM222 1331q0 132 130 132q131 0 131 -131q0 -133 -131 -133 q-130 0 -130 132zM561 1331q0 132 130 132q131 0 131 -131q0 -133 -131 -133q-130 0 -130 132z" />
<glyph unicode="&#xec;" horiz-adv-x="565" d="M18 1437q28 15 53 25q56 22 104 58l180 -259q-37 -13 -61 -39q-9 -12 -27 -23zM80 257q0 62 26 218q33 173 33 291q0 161 -49 296h134q86 0 133 -45q83 -80 92 -297q3 -78 3 -163v-93q0 -114 9 -236q7 -121 53 -226q-171 0 -267 32q-95 32 -130 89q-37 56 -37 134z" />
<glyph unicode="&#xed;" horiz-adv-x="566" d="M77 1261l180 259q48 -36 104 -58q25 -10 53 -25l-249 -238q-18 11 -27 23q-24 26 -61 39zM81 257q0 62 26 218q33 173 33 291q0 161 -49 296h134q87 0 133 -45q83 -80 92 -297q3 -78 3 -163v-93q0 -114 9 -236q7 -121 53 -226q-171 0 -267 32q-95 32 -130 89 q-37 56 -37 134z" />
<glyph unicode="&#xee;" horiz-adv-x="580" d="M10 1261l241 259l247 -259q-14 -10 -32 -18q-35 -14 -57 -44l-158 119l-153 -119q-16 10 -27 22q-23 23 -61 40zM95 257q0 62 26 218q33 173 33 291q0 161 -49 296h134q87 0 133 -45q83 -80 92 -297q3 -78 3 -163v-93q0 -114 9 -236q7 -121 53 -226q-171 0 -267 32 q-95 32 -130 89q-37 56 -37 134z" />
<glyph unicode="&#xef;" horiz-adv-x="618" d="M-33 1331q0 132 130 132q131 0 131 -131q0 -133 -131 -133q-130 0 -130 132zM113 257q0 62 26 218q33 173 33 291q0 161 -49 296h134q87 0 133 -45q83 -80 92 -297q3 -78 3 -163v-93q0 -114 9 -236q7 -121 53 -226q-171 0 -267 32q-95 32 -130 89q-37 56 -37 134z M306 1331q0 132 130 132q131 0 131 -131q0 -133 -131 -133q-130 0 -130 132z" />
<glyph unicode="&#xf0;" horiz-adv-x="1174" d="M7 631h195q-10 219 -66 431q154 66 315 66q201 0 349 -69q149 -69 236 -207q87 -139 87 -337q-1 -244 -142 -395q-161 -174 -504 -174q-89 0 -184 14q-93 14 -157 42q57 212 66 441h-77q-95 0 -111 102q-6 45 -7 86zM463 875q42 -124 67 -244h26q95 0 111 -103 q6 -42 7 -85h-117l1 -46q0 -75 -12 -152q136 12 202 79q65 67 65 161q0 177 -96 281q-97 105 -254 109z" />
<glyph unicode="&#xf1;" horiz-adv-x="1093" d="M75 257q0 62 26 218q33 173 33 291q0 161 -49 296h134q87 0 133 -45q37 -35 56 -87q76 -193 225 -463l1 8q33 173 33 291q0 161 -49 296h134q86 0 133 -45q48 -46 67 -122q21 -81 25 -175q3 -78 3 -184q0 -206 9 -318q7 -111 53 -216q-266 0 -379 97q-93 83 -215 285 q1 -68 8 -156q7 -121 53 -226q-171 0 -267 32q-95 32 -130 89q-37 56 -37 134zM264 1235q38 234 161 234q43 0 93 -57q48 -58 73 -58q33 0 40 115q29 -15 46 -20q19 -7 32 -8q14 -1 32 -8q-33 -234 -138 -234q-54 0 -105 56q-51 55 -77 55q-34 0 -52 -111q-18 5 -34 14 q-34 19 -71 22z" />
<glyph unicode="&#xf2;" horiz-adv-x="1138" d="M40 526q0 193 91 344q146 240 436 240q164 0 280 -86q104 -77 166 -192q74 -140 74 -302q0 -238 -125 -396q-140 -176 -395 -176q-151 0 -267 71q-129 80 -196 216q-64 127 -64 281zM338 1437q28 15 53 25q56 22 104 58l180 -259q-37 -13 -61 -39q-9 -12 -27 -23z M368 528q2 -93 28 -164q52 -145 171 -145q59 0 101 36q50 44 75 121q21 64 23 145q0 89 -22 146q-58 157 -177 157q-113 0 -167 -124q-32 -78 -32 -172z" />
<glyph unicode="&#xf3;" horiz-adv-x="1138" d="M40 526q0 193 91 344q146 240 436 240q164 0 280 -86q104 -77 166 -192q74 -140 74 -302q0 -238 -125 -396q-140 -176 -395 -176q-151 0 -267 71q-129 80 -196 216q-64 127 -64 281zM368 528q2 -93 28 -164q52 -145 171 -145q59 0 101 36q50 44 75 121q21 64 23 145 q0 89 -22 146q-58 157 -177 157q-113 0 -167 -124q-32 -78 -32 -172zM407 1261l180 259q48 -36 104 -58q25 -10 53 -25l-249 -238q-18 11 -27 23q-24 26 -61 39z" />
<glyph unicode="&#xf4;" horiz-adv-x="1138" d="M40 526q0 193 91 344q146 240 436 240q164 0 280 -86q104 -77 166 -192q74 -140 74 -302q0 -238 -125 -396q-140 -176 -395 -176q-151 0 -267 71q-129 80 -196 216q-64 127 -64 281zM319 1261l241 259l247 -259q-14 -10 -32 -18q-35 -14 -57 -44l-158 119l-153 -119 q-16 10 -27 22q-24 23 -61 40zM368 528q2 -93 28 -164q52 -145 171 -145q59 0 101 36q50 44 75 121q21 64 23 145q0 89 -22 146q-58 157 -177 157q-113 0 -167 -124q-32 -78 -32 -172z" />
<glyph unicode="&#xf5;" horiz-adv-x="1138" d="M40 526q0 193 91 344q146 240 436 240q164 0 280 -86q104 -77 166 -192q74 -140 74 -302q0 -238 -125 -396q-140 -176 -395 -176q-151 0 -267 71q-129 80 -196 216q-64 127 -64 281zM324 1235q38 234 161 234q43 0 93 -57q48 -58 73 -58q33 0 40 115q29 -15 46 -20 q19 -7 32 -8q14 -1 32 -8q-33 -234 -138 -234q-54 0 -105 56q-51 55 -77 55q-34 0 -52 -111q-18 5 -34 14q-34 19 -71 22zM368 528q2 -93 28 -164q52 -145 171 -145q59 0 101 36q50 44 75 121q21 64 23 145q0 89 -22 146q-58 157 -177 157q-113 0 -167 -124 q-32 -78 -32 -172z" />
<glyph unicode="&#xf6;" horiz-adv-x="1138" d="M40 526q0 193 91 344q146 240 436 240q164 0 280 -86q104 -77 166 -192q74 -140 74 -302q0 -238 -125 -396q-140 -176 -395 -176q-151 0 -267 71q-129 80 -196 216q-64 127 -64 281zM263 1331q0 132 130 132q131 0 131 -131q0 -133 -131 -133q-130 0 -130 132zM368 528 q2 -93 28 -164q52 -145 171 -145q59 0 101 36q50 44 75 121q21 64 23 145q0 89 -22 146q-58 157 -177 157q-113 0 -167 -124q-32 -78 -32 -172zM602 1331q0 132 130 132q131 0 131 -131q0 -133 -131 -133q-130 0 -130 132z" />
<glyph unicode="&#xf7;" horiz-adv-x="943" d="M50 792h725q95 0 111 -103q6 -42 7 -85h-725q-94 0 -111 102q-6 45 -7 86zM254 342q0 93 64 157q63 64 154 64q90 0 154 -64q63 -65 63 -157t-63 -156q-65 -65 -154 -65q-91 0 -154 65q-64 64 -64 156zM254 1064q0 93 64 157q63 64 154 64q90 0 154 -64q63 -65 63 -157 t-63 -156q-65 -65 -154 -65q-91 0 -154 65q-64 64 -64 156z" />
<glyph unicode="&#xf8;" horiz-adv-x="1138" d="M40 526q0 193 91 344q146 240 436 240q34 0 74 -5q43 55 111 79q67 24 176 24l-66 -195q94 -75 151 -181q74 -140 74 -302q0 -238 -125 -396q-140 -176 -395 -176q-41 0 -82 6q-55 -70 -142 -90q-70 -14 -144 -14l65 193q-101 74 -160 192q-64 127 -64 281zM368 528 q2 -68 15 -123l140 414q-79 -19 -123 -119q-32 -78 -32 -172zM594 221q43 8 74 34q50 44 75 121q21 64 23 145q0 88 -22 145z" />
<glyph unicode="&#xf9;" horiz-adv-x="1043" d="M75 1062h133q94 0 142 -53q48 -54 66 -143q17 -86 19 -200q-1 -88 -9 -165q-6 -66 -6 -120q0 -73 20 -108q19 -34 74 -34q50 0 80 51q57 98 58 306q0 110 -7 193q-15 183 -46 273h133q93 0 143 -53q49 -52 67 -143q17 -93 17 -200q0 -708 -449 -708q-256 0 -348 126 q-68 92 -68 258q0 66 15 214q15 130 15 210q0 161 -49 296zM252 1437q28 15 53 25q56 22 104 58l180 -259q-37 -13 -61 -39q-9 -12 -27 -23z" />
<glyph unicode="&#xfa;" horiz-adv-x="1043" d="M75 1062h133q94 0 142 -53q48 -54 66 -143q17 -86 19 -200q-1 -88 -9 -165q-6 -66 -6 -120q0 -73 20 -108q19 -34 74 -34q50 0 80 51q57 98 58 306q0 110 -7 193q-15 183 -46 273h133q93 0 143 -53q49 -52 67 -143q17 -93 17 -200q0 -708 -449 -708q-256 0 -348 126 q-68 92 -68 258q0 66 15 214q15 130 15 210q0 161 -49 296zM373 1261l180 259q48 -36 104 -58q25 -10 53 -25l-249 -238q-18 11 -27 23q-24 26 -61 39z" />
<glyph unicode="&#xfb;" horiz-adv-x="1043" d="M75 1062h133q94 0 142 -53q48 -54 66 -143q17 -86 19 -200q-1 -88 -9 -165q-6 -66 -6 -120q0 -73 20 -108q19 -34 74 -34q50 0 80 51q57 98 58 306q0 110 -7 193q-15 183 -46 273h133q93 0 143 -53q49 -52 67 -143q17 -93 17 -200q0 -708 -449 -708q-256 0 -348 126 q-68 92 -68 258q0 66 15 214q15 130 15 210q0 161 -49 296zM249 1261l241 259l247 -259q-14 -10 -32 -18q-35 -14 -57 -44l-158 119l-153 -119q-16 10 -27 22q-24 23 -61 40z" />
<glyph unicode="&#xfc;" horiz-adv-x="1043" d="M75 1062h133q94 0 142 -53q48 -54 66 -143q17 -86 19 -200q-1 -88 -9 -165q-6 -66 -6 -120q0 -73 20 -108q19 -34 74 -34q50 0 80 51q57 98 58 306q0 110 -7 193q-15 183 -46 273h133q93 0 143 -53q49 -52 67 -143q17 -93 17 -200q0 -708 -449 -708q-256 0 -348 126 q-68 92 -68 258q0 66 15 214q15 130 15 210q0 161 -49 296zM189 1331q0 132 130 132q131 0 131 -131q0 -133 -131 -133q-130 0 -130 132zM528 1331q0 132 130 132q131 0 131 -131q0 -133 -131 -133q-130 0 -130 132z" />
<glyph unicode="&#xfd;" horiz-adv-x="1032" d="M-25 1062h163q146 0 225 -74q78 -77 166 -298q85 60 132 153q28 55 28 124q0 45 -12 95h160q77 0 118 -35q48 -43 48 -123q0 -110 -81 -238q-97 -154 -248 -231v-21q0 -108 20 -202q19 -92 92 -210q-166 0 -264 19q-99 18 -148 68q-56 59 -56 186q0 79 18 188 q-72 61 -117 141q-45 78 -85 169q-81 181 -159 289zM377 1261l180 259q48 -36 104 -58q25 -10 53 -25l-249 -238q-18 11 -27 23q-24 26 -61 39z" />
<glyph unicode="&#xfe;" horiz-adv-x="1129" d="M75 257q0 62 26 218q33 173 33 291q0 161 -49 296h133q114 0 195 -116q339 0 514 -130q157 -118 157 -301q0 -101 -55 -190t-157 -144q-100 -55 -239 -55q-102 0 -181 49q5 -115 57 -173q-321 0 -397 121q-37 56 -37 134zM437 666q8 -63 10 -197q0 -38 21 -62 q40 -48 115 -48q64 0 107 40q44 41 44 118q0 43 -28 81q-53 71 -200 71q-32 0 -69 -3z" />
<glyph unicode="&#xff;" horiz-adv-x="1032" d="M-25 1062h163q146 0 225 -74q78 -77 166 -298q85 60 132 153q28 55 28 124q0 45 -12 95h160q77 0 118 -35q48 -43 48 -123q0 -110 -81 -238q-97 -154 -248 -231v-21q0 -108 20 -202q19 -92 92 -210q-166 0 -264 19q-99 18 -148 68q-56 59 -56 186q0 79 18 188 q-72 61 -117 141q-45 78 -85 169q-81 181 -159 289zM189 1331q0 132 130 132q131 0 131 -131q0 -133 -131 -133q-130 0 -130 132zM528 1331q0 132 130 132q131 0 131 -131q0 -133 -131 -133q-130 0 -130 132z" />
<glyph unicode="&#x152;" horiz-adv-x="1867" d="M56 665q0 348 188 551q87 93 191 137q107 45 216 45q125 0 237 -50q116 -4 225 -15q182 -17 291 -17q239 0 458 34q0 -324 -314 -324q-10 0 -63 3q-48 1 -146 22q-105 22 -185 43q67 -123 82 -250q2 -19 4.5 -43.5t4 -37.5t1.5 -21q48 0 175 6q127 4 265 50 q0 -313 -252 -313q-104 0 -187 26q5 -129 35 -187q34 -68 96 -88q54 -16 128 -16t136 -13q162 -33 218 -228q-34 9 -81 9q-54 0 -192 -17q-141 -21 -323 -23q-203 1 -311 97q-139 -87 -306 -87q-110 0 -216 44q-106 43 -190 132q-185 193 -185 531zM445 665q5 -202 65 -313 q62 -113 137 -113q79 0 144 110q63 108 68 316q0 136 -28 226q-29 91 -75 138q-47 47 -99 47q-53 0 -102 -45q-41 -37 -69 -108q-41 -103 -41 -258z" />
<glyph unicode="&#x153;" horiz-adv-x="1711" d="M40 526q0 193 91 344q146 240 436 240q123 0 221 -50q136 -3 255 -12q162 -12 310 -12q144 0 323 26q0 -290 -269 -290q-86 0 -181 22q-101 21 -188 45q87 -93 93 -241q217 0 368 56q0 -154 -41 -210q-42 -57 -117 -57q-91 0 -208 47q0 -108 26 -154q26 -45 71 -54 q38 -8 83 -8l88 2q46 0 97 -13q52 -14 98 -64q46 -51 78 -164q-36 9 -81 9q-63 0 -181 -18q-125 -22 -262 -22q-164 0 -252 39q-35 14 -64 35q-112 -64 -267 -64q-151 0 -267 71q-129 80 -196 216q-64 127 -64 281zM368 528q2 -93 28 -164q52 -145 171 -145q59 0 101 36 q50 44 75 121q21 64 23 145q0 89 -22 146q-58 157 -177 157q-113 0 -167 -124q-32 -78 -32 -172z" />
<glyph unicode="&#x178;" horiz-adv-x="1143" d="M-51 1350h206q121 0 191 -51q72 -52 124 -153q55 -108 113 -258l16 -37q57 41 105 113q49 72 69 170q7 35 7 76q0 65 -20 140h159q77 0 124 -24q83 -47 83 -156q0 -120 -67 -250q-64 -121 -147 -212q-84 -93 -156 -129v-22q0 -320 113 -555q-146 0 -243 20 q-154 33 -203 126q-38 71 -38 172q0 88 25 229l9 58q-77 66 -144 177q-72 118 -133 239q-93 184 -193 327zM266 1620q0 132 130 132q131 0 131 -131q0 -133 -131 -133q-130 0 -130 132zM605 1620q0 132 130 132q131 0 131 -131q0 -133 -131 -133q-130 0 -130 132z" />
<glyph unicode="&#x2c6;" horiz-adv-x="588" d="M50 1550l241 259l247 -259q-14 -10 -32 -18q-35 -14 -57 -44l-158 119l-153 -119q-16 10 -27 22q-24 24 -61 40z" />
<glyph unicode="&#x2dc;" horiz-adv-x="577" d="M50 1524q38 234 161 234q43 0 93 -57q48 -58 73 -58q33 0 40 115q29 -15 46 -20q19 -7 32 -8q14 -1 32 -8q-33 -234 -138 -234q-54 0 -105 56q-51 55 -77 55q-34 0 -52 -111q-18 5 -34 14q-34 19 -71 22z" />
<glyph unicode="&#x2000;" horiz-adv-x="904" />
<glyph unicode="&#x2001;" horiz-adv-x="1809" />
<glyph unicode="&#x2002;" horiz-adv-x="904" />
<glyph unicode="&#x2003;" horiz-adv-x="1809" />
<glyph unicode="&#x2004;" horiz-adv-x="603" />
<glyph unicode="&#x2005;" horiz-adv-x="452" />
<glyph unicode="&#x2006;" horiz-adv-x="301" />
<glyph unicode="&#x2007;" horiz-adv-x="301" />
<glyph unicode="&#x2008;" horiz-adv-x="226" />
<glyph unicode="&#x2009;" horiz-adv-x="361" />
<glyph unicode="&#x200a;" horiz-adv-x="100" />
<glyph unicode="&#x2010;" horiz-adv-x="826" d="M-6 792h725q95 0 111 -103q6 -42 7 -85h-725q-94 0 -111 102q-6 45 -7 86z" />
<glyph unicode="&#x2011;" horiz-adv-x="826" d="M-6 792h725q95 0 111 -103q6 -42 7 -85h-725q-94 0 -111 102q-6 45 -7 86z" />
<glyph unicode="&#x2012;" horiz-adv-x="826" d="M-6 792h725q95 0 111 -103q6 -42 7 -85h-725q-94 0 -111 102q-6 45 -7 86z" />
<glyph unicode="&#x2013;" horiz-adv-x="1667" d="M50 792h1449q95 0 111 -103q6 -42 7 -85h-1449q-94 0 -111 102q-6 45 -7 86z" />
<glyph unicode="&#x2014;" horiz-adv-x="2201" d="M50 792h1983q95 0 111 -103q6 -42 7 -85h-1983q-94 0 -111 102q-6 45 -7 86z" />
<glyph unicode="&#x2018;" horiz-adv-x="550" d="M50 965q0 57 15 130q21 111 65 192q66 120 162 120q57 0 61 -49q-43 -21 -66 -81q-12 -35 -12 -70q0 -30 7 -57q90 0 155 -65q63 -64 63 -157q0 -107 -71 -169q-58 -52 -147 -52q-104 0 -167 65t-65 193z" />
<glyph unicode="&#x2019;" horiz-adv-x="550" d="M50 1186q0 108 71 170q59 51 147 51q104 0 167 -65t65 -193q0 -54 -14 -130q-22 -111 -66 -191q-66 -121 -162 -121q-57 0 -61 49q43 21 66 81q12 35 12 71q0 29 -7 56q-91 0 -154 65q-64 64 -64 157z" />
<glyph unicode="&#x201a;" horiz-adv-x="550" d="M50 129q0 107 71 170q59 51 147 51q104 0 167 -65t65 -193q0 -54 -14 -130q-22 -111 -66 -191q-66 -121 -162 -121q-57 0 -61 49q43 21 66 81q12 35 12 70q0 30 -7 57q-91 0 -154 65q-64 64 -64 157z" />
<glyph unicode="&#x201c;" horiz-adv-x="1180" d="M50 965q0 57 15 130q21 111 65 192q66 120 162 120q57 0 61 -49q-43 -21 -66 -81q-12 -35 -12 -70q0 -30 7 -57q90 0 155 -65q63 -64 63 -157q0 -107 -71 -169q-58 -52 -147 -52q-104 0 -167 65t-65 193zM680 965q0 57 15 130q21 111 65 192q66 120 162 120q57 0 61 -49 q-43 -21 -66 -81q-12 -35 -12 -70q0 -30 7 -57q90 0 155 -65q63 -64 63 -157q0 -107 -71 -169q-58 -52 -147 -52q-104 0 -167 65t-65 193z" />
<glyph unicode="&#x201d;" horiz-adv-x="1180" d="M50 1186q0 108 71 170q59 51 147 51q104 0 167 -65t65 -193q0 -54 -14 -130q-22 -111 -66 -191q-66 -121 -162 -121q-57 0 -61 49q43 21 66 81q12 35 12 71q0 29 -7 56q-91 0 -154 65q-64 64 -64 157zM680 1186q0 108 71 170q59 51 147 51q104 0 167 -65t65 -193 q0 -54 -14 -130q-22 -111 -66 -191q-66 -121 -162 -121q-57 0 -61 49q43 21 66 81q12 35 12 71q0 29 -7 56q-91 0 -154 65q-64 64 -64 157z" />
<glyph unicode="&#x201e;" horiz-adv-x="1180" d="M50 129q0 107 71 170q59 51 147 51q104 0 167 -65t65 -193q0 -54 -14 -130q-22 -111 -66 -191q-66 -121 -162 -121q-57 0 -61 49q43 21 66 81q12 35 12 70q0 30 -7 57q-91 0 -154 65q-64 64 -64 157zM680 129q0 107 71 170q59 51 147 51q104 0 167 -65t65 -193 q0 -54 -14 -130q-22 -111 -66 -191q-66 -121 -162 -121q-57 0 -61 49q43 21 66 81q12 35 12 70q0 30 -7 57q-91 0 -154 65q-64 64 -64 157z" />
<glyph unicode="&#x2022;" horiz-adv-x="966" d="M50 675q0 183 127 311q127 129 306 129t307 -129q126 -129 126 -311t-126 -311q-128 -129 -307 -129t-306 129q-127 128 -127 311z" />
<glyph unicode="&#x2026;" horiz-adv-x="1901" d="M50 168q0 92 64 156q63 65 153 65t155 -65q63 -64 63 -156t-63 -157q-65 -65 -155 -65t-153 65q-64 64 -64 157zM733 168q0 92 64 156q63 65 153 65t155 -65q63 -64 63 -156t-63 -157q-65 -65 -155 -65t-153 65q-64 64 -64 157zM1416 168q0 92 64 156q63 65 153 65 t155 -65q63 -64 63 -156t-63 -157q-65 -65 -155 -65t-153 65q-64 64 -64 157z" />
<glyph unicode="&#x202f;" horiz-adv-x="361" />
<glyph unicode="&#x2039;" horiz-adv-x="725" d="M50 642q1 61 15 94q14 34 50 55l442 283q39 24 63 24q37 0 48 -56q7 -35 7 -82l-415 -262l415 -263q0 -137 -56 -137q-22 0 -62 23z" />
<glyph unicode="&#x203a;" horiz-adv-x="725" d="M50 435l415 263l-415 262q0 47 7 82q11 56 48 56q24 0 63 -24l442 -283q36 -21 50 -55q14 -33 15 -94l-507 -321q-40 -23 -62 -23q-56 0 -56 137z" />
<glyph unicode="&#x205f;" horiz-adv-x="452" />
<glyph unicode="&#x20ac;" horiz-adv-x="1390" d="M32 561h172q-4 49 -5 77h-43q-104 0 -117 102q-6 45 -7 86h177q30 228 153 373q174 208 522 208q170 0 285 -48q177 -73 177 -227q0 -58 -40 -104t-136 -73q-96 -28 -267 -28q8 30 8 56q0 2 -2 32q-3 23 -25 45q-23 23 -68 23q-75 0 -126 -55q-64 -70 -88 -202h194 q99 0 117 -103q6 -42 7 -85h-331q2 -44 7 -77h200q102 0 117 -102q6 -45 7 -86h-266q83 -152 231 -152q137 0 209 88q57 68 57 148q163 -106 163 -220q0 -97 -73 -163q-69 -63 -168 -91q-101 -30 -192 -30q-344 0 -521 214q-74 89 -115 206h-89q-100 0 -117 102q-6 45 -7 86 z" />
<glyph unicode="&#x2122;" horiz-adv-x="1567" d="M50 1259q0 31 11 51q11 18 31 26q21 8 45 8q23 0 78 -11q80 -16 138 -16q87 0 154 14q69 14 127 38q19 -34 19 -65q0 -78 -107 -122q-51 -20 -109 -26q6 -54 6 -164l-1 -63q0 -89 7 -172q7 -89 42 -166q-111 0 -169 21q-59 21 -80 61q-22 38 -22 96q0 59 16 139 q22 128 22 213q0 31 -1 48q-39 10 -63 19q-58 20 -91 20q-21 0 -45 -6q-8 34 -8 57zM692 1356h84q88 0 137 -93q29 -56 55 -113q65 -143 119 -238q116 183 152 444h83q95 0 134 -86q31 -72 31 -179q0 -53 -6 -136t-6 -144q0 -121 42 -207q-149 0 -210 37t-61 137 q0 42 14 156q-31 -65 -62 -111q-58 -89 -117 -123q-77 60 -149 206q-4 -41 -4 -95q0 -121 42 -207q-104 0 -164 17q-46 13 -73 43q-34 37 -34 114q0 48 14 149q15 115 15 177q0 116 -36 252z" />
<glyph unicode="&#x25fc;" horiz-adv-x="1060" d="M0 0v1060h1060v-1060h-1060z" />
</font>
</defs>
</svg>
