<?xml version="1.0" standalone="no"?>
<!DOCTYPE svg PUBLIC "-//W3C//DTD SVG 1.1//EN" "http://www.w3.org/Graphics/SVG/1.1/DTD/svg11.dtd" >
<svg xmlns="http://www.w3.org/2000/svg" xmlns:xlink="http://www.w3.org/1999/xlink" version="1.1">
<metadata></metadata>
<defs>
<font id="winterlandslant" horiz-adv-x="1341" >
<font-face units-per-em="2048" ascent="1638" descent="-410" />
<missing-glyph horiz-adv-x="518" />
<glyph horiz-adv-x="0" />
<glyph unicode="&#xd;" horiz-adv-x="518" />
<glyph horiz-adv-x="0" />
<glyph horiz-adv-x="0" />
<glyph unicode=" "  horiz-adv-x="518" />
<glyph unicode="&#x09;" horiz-adv-x="518" />
<glyph unicode="&#xa0;" horiz-adv-x="518" />
<glyph unicode="!" horiz-adv-x="151" d="M31 70l30 145h66l-31 -145h-65zM94 344l246 1153h66l-246 -1153h-66z" />
<glyph unicode="&#x22;" horiz-adv-x="301" d="M336 1366l35 195h65l-35 -195h-65zM459 1366l35 195h65l-35 -195h-65z" />
<glyph unicode="#" horiz-adv-x="724" d="M137 547l13 65h133q8 47 17 92.5t17 90.5h-74.5t-72.5 -2l14 67h148q10 41 17 82t18 82h63q-10 -41 -17 -82t-18 -82q47 0 91 -1t87 -1l35 168h68l-37 -170q47 0 95 -1t93 -3l-16 -68q-47 2 -92 3t-90 4l-39 -179h131l-14 -65h-132l-43 -207h-65l39 207h-170 q-6 -35 -11.5 -68t-11.5 -67l-67 -2q6 35 12 68.5t12 68.5h-133zM348 612h172l39 179q-43 2 -86 2h-88q-10 -43 -18.5 -88.5t-18.5 -92.5z" />
<glyph unicode="$" horiz-adv-x="630" d="M158 315l63 29q14 -33 36 -62.5t56 -45.5l74 346q-59 41 -112.5 104.5t-71.5 142.5q-14 66 4 140.5t67 134.5q47 57 115 89t137 46l35 160h68l-35 -160q51 0 96 -17.5t75 -50t39 -77.5t-11 -103l-62 15q14 37 7 66.5t-29.5 51t-56.5 34.5t-70 18l-119 -558 q29 -23 59.5 -48t52 -57t31.5 -71t0 -88q-16 -86 -83.5 -138t-157.5 -56l-31 -144h-68l33 152q-6 0 -8 2q-51 16 -82 54t-51 91zM270 852q14 -59 50 -106.5t83 -86.5l109 510q-49 -8 -98 -32.5t-86 -69.5q-80 -92 -58 -215zM379 227q55 4 102 34t60 93q14 59 -14.5 105.5 t-75.5 75.5q-2 2 -3.5 2t-3.5 2z" />
<glyph unicode="%" horiz-adv-x="786" d="M27 117q213 330 433 644t458 625l55 -32q-240 -311 -460 -624.5t-429 -637.5zM303 1204q6 47 35 83t68.5 57.5t84 27.5t79 -5t52 -42t7.5 -82q-23 -66 -77 -102.5t-110.5 -42.5t-98.5 19.5t-40 86.5zM375 1214q-6 -37 19.5 -48t59 -5t66.5 28.5t39 55.5q8 43 -16.5 58.5 t-59 9.5t-67.5 -33t-41 -66zM444 252q6 49 35 84t69 56.5t84 27.5t77.5 -5.5t51 -42t7.5 -81.5q-23 -66 -77 -102.5t-109.5 -43t-98.5 19.5t-39 87zM514 262q-6 -37 19.5 -48t59.5 -5t66.5 28.5t38.5 55.5q8 43 -16.5 58.5t-59 9t-67.5 -33t-41 -65.5z" />
<glyph unicode="&#x26;" horiz-adv-x="1208" d="M45 158q-6 82 30 169t93 167q66 88 147.5 156.5t163.5 142.5q-20 45 -34.5 93t-20.5 105q-4 57 9 117.5t42 120t71 115t95 100.5q78 66 177.5 102.5t197.5 22.5q45 -8 82 -33t57.5 -59.5t20.5 -79.5t-29 -97q-37 -78 -103.5 -148.5t-147.5 -135t-168 -122.5t-165 -114 q66 -111 129.5 -223.5t143.5 -216.5q63 63 124.5 130t122.5 138l-67 45l55 56l156 -121l-49 -56l-50 37q-61 -72 -125.5 -141.5t-132.5 -136.5q43 -59 89.5 -114.5t93.5 -108.5l80 61l34 -49l-200 -158l-35 47l59 49q-43 55 -88 110.5t-86 113.5q-43 -35 -86 -65t-90 -58 q-55 -33 -121.5 -63.5t-134.5 -49t-134.5 -19.5t-121.5 25q-39 16 -59.5 58.5t-24.5 87.5zM115 176q0 -35 13 -60.5t42 -39.5q47 -20 103.5 -19.5t116 16t117.5 43t109 58.5q43 27 83 54.5t79 62.5q-74 98 -139.5 206.5t-134.5 233.5q-76 -49 -146.5 -118.5t-136.5 -149.5 q-45 -66 -77.5 -137.5t-28.5 -149.5zM492 1010q4 -47 17 -90t30 -84q70 51 148.5 102t153 109.5t140.5 125t109 146.5q35 72 2 122t-101 62q-76 14 -153.5 -15.5t-153.5 -88.5q-92 -72 -145 -175t-47 -214z" />
<glyph unicode="'" horiz-adv-x="159" d="M317 1366l35 195h66l-35 -195h-66z" />
<glyph unicode="(" horiz-adv-x="481" d="M120.5 504q4.5 123 35.5 246q68 248 217 481q76 111 166 215t196 196l37 -47q-201 -176 -344 -391q-72 -111 -124 -224.5t-81 -234.5q-59 -236 -18 -456q23 -109 70 -205t122 -172l-51 -49q-84 78 -134 181t-73 220t-18.5 240z" />
<glyph unicode=")" horiz-adv-x="481" d="M-10 -88q109 76 196.5 172t153.5 205q70 111 114 225.5t64 230.5q20 121 16 235t-28 224q-49 215 -176 391l57 47q133 -186 186 -411q25 -117 30 -237t-17 -244q-23 -123 -70 -246t-119 -240t-167 -220t-212 -181z" />
<glyph unicode="*" horiz-adv-x="417" d="M305 1341q53 45 113 84q-20 18 -39 35t-39 33l49 55q18 -16 35.5 -31.5t38.5 -29.5l20 96h68l-19 -86q18 10 38 21.5t40 21.5l21 -57q-23 -10 -47.5 -24.5t-46.5 -31.5q18 -16 39.5 -30.5t39.5 -30.5l-47 -57q-31 25 -65 51l-23 -107h-67l22 111q-27 -16 -51.5 -33.5 t-48.5 -34.5z" />
<glyph unicode="+" horiz-adv-x="479" d="M137 625l15 67q37 -4 75.5 -2t73.5 2l27 137h69l-22 -137q45 4 90 1t92 1l-14 -69q-43 -4 -89 0t-94 0l-26 -140l-70 -4l27 144q-78 -4 -154 0z" />
<glyph unicode="," horiz-adv-x="210" d="M49 127l82 192l57 -12l-77 -192z" />
<glyph unicode="-" horiz-adv-x="483" d="M133 614l14 66h408l-14 -66h-408z" />
<glyph unicode="." horiz-adv-x="204" d="M90 217l19 90h67l-18 -90h-68z" />
<glyph unicode="/" horiz-adv-x="733" d="M-14 -100q236 444 478.5 878t500.5 873l57 -23q-260 -438 -503 -870t-478 -877z" />
<glyph unicode="0" horiz-adv-x="847" d="M128 435q-7 73 6 150t36 144q23 70 56.5 136.5t77.5 126t98.5 109.5t121.5 87l23 -60q-55 -29 -103.5 -72.5t-88.5 -99t-71.5 -116t-52.5 -121.5q-20 -61 -30.5 -128t-5 -128.5t29 -112.5t72.5 -84q51 -35 123 -28.5t158 71.5q76 57 134 130t99 155t63.5 166t22.5 164 q0 100 -38 156.5t-97.5 66.5t-132 -29t-142.5 -129l-47 35q90 104 184.5 150.5t171 36t125 -80t48.5 -194.5q0 -90 -25.5 -185.5t-72 -184.5t-112 -168t-145.5 -136q-113 -78 -202.5 -87t-151.5 28q-63 37 -94 98t-38 134z" />
<glyph unicode="1" horiz-adv-x="706" d="M37 162l10 67q76 8 151.5 12.5t147.5 8.5q43 203 97.5 403.5t125.5 405.5q-86 -66 -166.5 -129.5t-166.5 -122.5l-33 51q137 98 267 199.5t259 206.5l37 -45q-29 -20 -52.5 -43t-51.5 -43q-158 -443 -248 -883q72 4 139.5 4h136.5l-14 -66q-160 0 -318.5 -6t-320.5 -20z " />
<glyph unicode="2" horiz-adv-x="987" d="M49 188l4 66q86 45 181.5 96t188.5 108.5t182 121t167 133.5q33 27 71 63.5t70.5 77.5t53 86t20.5 88q-2 37 -18.5 63.5t-44.5 45.5q-70 45 -155 38.5t-169 -46t-156.5 -107.5t-117.5 -148l-62 21q49 88 134 167t184.5 127t202 54t186.5 -49q39 -25 62.5 -62.5 t23.5 -91.5q0 -51 -21.5 -101t-57.5 -98t-79 -93.5t-86 -83.5q-135 -117 -288.5 -210.5t-319.5 -187.5q197 10 388 13.5t386 -7.5l-18 -67q-225 10 -451.5 6t-460.5 -23z" />
<glyph unicode="3" horiz-adv-x="690" d="M125 221l41 64q31 -23 99.5 -33t142.5 0q78 12 128 50t56 79q6 39 -28 64.5t-84 37t-102 10.5t-83 -16l-12 60q59 37 123.5 69.5t136.5 79.5q90 59 161.5 134t92.5 171q14 63 -7.5 105.5t-65.5 63t-105.5 17.5t-129.5 -30q-92 -45 -156.5 -128t-86.5 -177l-70 -4 q23 109 99.5 207t193.5 159q82 39 160 42t136 -25.5t88 -86t13 -137.5q-16 -74 -57 -137t-97.5 -117.5t-123 -100.5t-133.5 -85q37 0 76.5 -10t72.5 -31.5t51.5 -54.5t10.5 -78q-10 -63 -79 -119.5t-188 -77.5q-82 -14 -157.5 -5t-116.5 40z" />
<glyph unicode="4" horiz-adv-x="808" d="M102 451q2 18 4 34q2 14 3.5 25.5t3.5 11.5q162 176 317.5 356.5t308.5 366.5l47 -39q-139 -170 -282.5 -337t-290.5 -330q131 20 263 26t261 -4q23 106 51.5 213t57.5 211l-131 -2l12 72l262 6l-14 -72l-57 -2q-121 -406 -191 -809h57l-14 -69l-262 -7l14 72l137 4 q14 78 30 156t32 155q-72 6 -153 6.5t-163.5 -5t-160.5 -15.5t-142 -24z" />
<glyph unicode="5" horiz-adv-x="645" d="M102 496q0 2 11.5 38.5t27 95t35 131.5t38.5 148.5t36.5 147t28.5 127.5l479 14l10 49h68l-41 -180l-70 2l16 61l-409 -16q-59 -281 -144 -561q119 25 236 12q39 -4 79 -15t72.5 -31.5t55 -53.5t28.5 -80q4 -51 -16 -92t-56 -73t-83 -52.5t-96 -32.5q-82 -20 -160 -13 t-142 52l46 57q102 -70 247 -38q70 16 127.5 57t63.5 117q0 33 -18.5 57.5t-47 40.5t-61.5 25.5t-64 11.5q-68 6 -141.5 -4.5t-142.5 -30.5z" />
<glyph unicode="6" horiz-adv-x="690" d="M121 486.5q2 72.5 12 140.5q14 92 49 184t88 178q27 43 63 85t78 75t91 53.5t102 22.5q92 0 142.5 -60.5t54.5 -154.5q10 2 17 2t16 2l-11 -68q-68 -6 -131 -51l-30 53q18 12 35.5 23.5t35.5 19.5q-4 31 -12 59.5t-24.5 52t-43 38t-63.5 14.5q-41 0 -78 -17.5t-70.5 -45 t-63.5 -62.5t-54 -67q-45 -78 -77 -163t-48 -171q-4 -33 -5 -63.5t-4 -65.5q59 59 131 104t156 53q47 4 93 -7t81 -42q33 -29 50.5 -73t9.5 -101q-14 -76 -60.5 -148.5t-110 -121.5t-137 -62.5t-143.5 33.5q-55 33 -85 89.5t-43 123t-11 139zM195 414q4 -41 21 -90.5t47 -88 t74 -58t103 0.5q35 12 69 38t60.5 59.5t45 72.5t24.5 80q10 78 -37 125q-57 45 -133 35q-76 -8 -142.5 -55.5t-131.5 -118.5z" />
<glyph unicode="7" horiz-adv-x="608" d="M25 100l10 68l106 4q66 123 134.5 244t140.5 241q-113 4 -223 0l12 68q127 4 250 0q66 111 133 215t137 211h-377l-16 -76h-66l45 213h66l-15 -69l465 -2l-14 -66h-14q-143 -213 -275 -430q27 -2 49.5 -2t44.5 -4l-20 -68q-29 4 -56.5 6t-56.5 2q-72 -121 -139 -239.5 t-131 -239.5l133 2l-10 -65l-160 -7l-2 -2l-8 2z" />
<glyph unicode="8" horiz-adv-x="872" d="M143 324q16 74 76 133t143 96q-102 41 -152 131t-28 201q16 74 62.5 140.5t113 115.5t147.5 77.5t167 28.5q84 0 152.5 -28.5t114.5 -77.5t64.5 -116t2.5 -140q-23 -109 -107 -197t-201 -131q76 -35 112 -96.5t19 -136.5q-12 -53 -49 -100.5t-91 -83.5t-120.5 -56.5 t-138.5 -20.5t-130 20.5t-96 56.5t-55.5 83t-5.5 101zM211 324q-16 -82 51 -137.5t182 -55.5q57 0 111.5 14.5t97.5 41t73 61.5t38 76t-5.5 77.5t-46 63.5t-79.5 42t-105 15q-57 0 -110 -15t-96 -42t-73 -63.5t-38 -77.5zM248 885q-12 -61 4 -115.5t55 -94.5t96.5 -63.5 t128.5 -23.5q72 0 139.5 23.5t123 63.5t94.5 94t51 116q12 59 -3 113.5t-54 95.5t-96.5 64.5t-129.5 23.5t-139 -23.5t-122.5 -64.5t-95.5 -95.5t-52 -113.5z" />
<glyph unicode="9" horiz-adv-x="694" d="M70 311l8 68q33 2 66.5 14.5t62.5 36.5l31 -55q-16 -10 -34 -21.5t-36 -17.5q2 -33 10 -63.5t27 -55.5q20 -29 50 -38t65.5 -6t71.5 18.5t69 39.5q61 45 104 117t72 141q35 82 52.5 167t21.5 173q-23 -23 -45.5 -43t-51.5 -38q-92 -61 -190 -74.5t-176 45.5 q-41 35 -52.5 87t1 109.5t45 114.5t77.5 100q35 35 77 59.5t84 35t83 3.5t76 -34q74 -59 106.5 -143t34.5 -181.5t-20.5 -200t-61.5 -194.5q-35 -80 -82 -157.5t-124 -137.5q-41 -31 -86.5 -51t-91.5 -24.5t-87 9t-71 50.5q-23 29 -37.5 67.5t-20.5 83.5q-8 -2 -14 -3 t-14 -1zM262 845q6 -42 37 -71q53 -43 133 -31.5t152 60.5q33 23 61.5 51.5l56.5 56.5q-8 66 -32.5 124.5t-77.5 97.5q-49 33 -111.5 19.5t-115.5 -60.5q-33 -31 -58.5 -73t-38 -87t-6.5 -87z" />
<glyph unicode=":" horiz-adv-x="221" d="M139 446l19 91h67l-18 -91h-68zM199 729l20 90h68l-21 -90h-67z" />
<glyph unicode=";" horiz-adv-x="221" d="M90 324l82 192l59 -12l-77 -193zM225 729l21 90h67l-20 -90h-68z" />
<glyph unicode="&#x3c;" horiz-adv-x="487" d="M158 629q-4 25 16.5 40t36.5 27q4 2 14.5 9.5t43 30t98 67.5t182.5 123l31 -52l-342 -231q68 -47 113.5 -79t77.5 -53.5t53.5 -36.5t41.5 -28l-45 -59q-20 14 -42.5 28.5t-56.5 38t-82 56.5t-120 84q-20 16 -20 35z" />
<glyph unicode="=" horiz-adv-x="483" d="M115 526l14 66h408l-15 -66h-407zM141 647l13 66h407l-12 -66h-408z" />
<glyph unicode="&#x3e;" horiz-adv-x="487" d="M109 446q25 12 52 27.5t68 37t100.5 53.5t147.5 79l-244 231l56 52q82 -78 129 -123l70.5 -67.5t29.5 -30t10 -9.5q10 -12 23.5 -27.5t1.5 -39.5q-10 -18 -37 -35q-92 -51 -155.5 -84t-106.5 -56.5t-71.5 -38t-53.5 -28.5z" />
<glyph unicode="?" horiz-adv-x="841" d="M115 102l24 113h66l-25 -113h-65zM162 319q2 55 21.5 108.5t50 104t71.5 94.5t88 81q72 59 145.5 115.5t143.5 113.5t135.5 118.5t122.5 131.5q45 74 49 127t-22.5 87t-78.5 46t-122 6q-61 -2 -124.5 -21.5t-124 -52t-114 -79t-92.5 -101.5l-51 31q94 129 234.5 205.5 t283.5 83.5q94 2 162 -21.5t98.5 -71t20.5 -116t-68 -156.5q-61 -76 -128.5 -139.5t-140.5 -123t-146.5 -115.5t-143.5 -118q-86 -72 -143.5 -154.5t-61.5 -178.5z" />
<glyph unicode="@" horiz-adv-x="1212" d="M143 692q20 150 107.5 283t213.5 226t275.5 134t294.5 4q70 -18 127.5 -56t96 -93t56 -126t9.5 -153q-10 -106 -56 -212.5t-118 -184.5q-53 -55 -117.5 -97t-122.5 -42q-47 0 -78.5 29.5t-37.5 87.5q-4 33 1 66.5t9 62.5q-31 -35 -67 -75t-77 -74t-86 -57.5t-94 -25.5 q-43 -4 -74.5 13.5t-50 48t-21.5 71.5t11 82q20 61 59 115.5t90.5 97.5t112 75t123.5 48q86 23 170 27q0 4 4 11t6 15h-145l14 68h303l-14 -68h-88q-29 -84 -54.5 -167t-47.5 -181q-6 -33 -12.5 -65.5t-6.5 -61.5q2 -37 20.5 -54.5t47.5 -14.5q45 0 90 28.5t82 69.5 q74 80 112.5 174t44.5 186q8 129 -52 229.5t-197 137.5q-127 33 -257.5 -3t-242 -118t-190 -200.5t-101.5 -254.5q-20 -127 15.5 -239.5t121.5 -184.5q70 -59 168 -74.5t202.5 1t204 60.5t171.5 104l37 -50q-96 -70 -203 -119t-214.5 -67t-212 0t-198.5 86 q-98 72 -143 193.5t-21 283.5zM402.5 548.5q-1.5 -26.5 7 -48t26.5 -33.5t51 -10q55 2 108.5 40t101.5 92t88 114.5t67 109.5q6 23 13 43.5t14 42.5q-61 -4 -134 -22.5t-138.5 -55.5t-119 -92t-75.5 -129q-8 -25 -9.5 -51.5z" />
<glyph unicode="A" d="M-2 -16l12 67h103l245 379l-106 2l14 66h135l652 1018l-115 4l16 67l271 -8l-13 -66h-69q-2 -146 -2 -292q0 -109 1 -217q3 -254 7 -510h119l-15 -66h-104q2 -92 4.5 -182t5.5 -183h135l-14 -69h-328l15 69h125q-4 92 -6.5 182.5t-4.5 182.5l-651 2l-246 -379h54l-15 -67 h-225zM473 498l608 -4q-10 236 -10 469t2 469z" />
<glyph unicode="B" horiz-adv-x="1261" d="M100 156l31 63q29 -10 53.5 -20.5t53.5 -18.5q57 270 111 537.5t106 537.5q-41 -29 -83 -61.5t-81 -67.5l-41 48q55 47 108.5 89t110.5 78q8 39 15.5 77t15.5 73h-90l10 65l264 5l-8 -66h-107q-6 -29 -11 -54t-7 -52q70 41 162 76.5t190 58.5q70 16 154 24q37 4 73 3 q44 0 88 -5q78 -10 142.5 -46t95.5 -105q18 -41 18 -89q0 -51 -21 -109q-40 -112 -171 -214q-98 -78 -203.5 -124t-204.5 -81q68 -6 139.5 -22.5t129.5 -57.5q85 -55 111 -135q13 -41 13 -82q1 -40 -11 -80q-24 -82 -96.5 -157.5t-184.5 -120.5q-84 -35 -175 -49 q-90 -15 -182 -16h-18q-82 0 -160 8q-86 10 -155 26q-4 -20 -6 -29q20 -4 41.5 -4t44.5 -4l-23 -67q-55 8 -110.5 9t-114.5 1l12 70h82q4 10 5 21t7 24q-35 10 -64.5 21t-58.5 22zM301 164q55 -14 135 -25.5t171 -11.5t184.5 13t175.5 46q88 35 146 96q59 62 79 130 q10 31 9 62q-1 36 -13 70q-24 64 -98 107q-70 41 -166 53q-72 9 -146 10q-24 0 -47 -1q-98 -4 -185 -18.5t-140 -26.5zM420 737q80 10 192.5 32t233.5 59.5t236.5 92t199.5 128.5q92 81 121 159q16 43 16 81q0 31 -11 59q-24 62 -93.5 102.5t-173.5 42.5h-22 q-136 0 -280 -45q-155 -49 -307 -143q-29 -143 -55 -285t-57 -283z" />
<glyph unicode="C" horiz-adv-x="1116" d="M129 484v13q0 150 45 310q27 94 78 199.5t121.5 204t160 180.5t191.5 131q100 48 187 48q40 0 77 -10q119 -32 178 -161q29 -63 35 -137q3 -37 3 -77t-3 -83l64 6l-11 -68l-254 -18l13 70l116 4q8 54 8 110v28q-2 70 -32 130q-20 45 -57 78t-85 47q-36 10 -76 10 q-14 0 -29 -1q-56 -5 -116 -34q-96 -45 -173.5 -118.5t-140 -162.5t-110 -187.5t-79.5 -192.5q-18 -70 -30.5 -143.5t-12.5 -145.5t14 -140.5t49 -125.5q31 -57 83 -91q51 -33 115 -43q22 -3 46 -4q43 0 90 12q72 18 143 64q74 49 133.5 117t108.5 148l-115 49l39 63 l244 -108l-39 -64l-72 33q-57 -82 -117.5 -154.5t-152.5 -138.5q-102 -68 -219 -86q-33 -5 -65 -5q-76 0 -143 30q-95 43 -142 137q-66 121 -68 277z" />
<glyph unicode="D" horiz-adv-x="1218" d="M23 80l40 61q29 -14 59 -26.5t60 -20.5q53 348 114.5 691t131.5 694l-117 -19l4 70l392 57l-5 -65l-202 -31q-6 -35 -13.5 -71t-13.5 -70q100 72 219 118q112 42 226 48q16 1 31 1q97 0 179 -29q96 -34 159 -109.5t73 -198.5q3 -36 3 -72q-1 -152 -55 -308 q-68 -194 -202 -376q-66 -86 -147.5 -158.5t-176.5 -126.5q-92 -53 -192.5 -88t-200.5 -43q-31 -3 -62 -3q-67 1 -131 13q-94 18 -173 62zM250 82q48 -6 94 -7q28 0 55 3q186 16 357.5 116.5t300.5 264.5q61 76 108 162t78 176t44 182q8 57 8 112q0 34 -3 66 q-12 100 -59 167q-47 68 -122 100q-69 30 -156 29h-16q-97 -3 -206 -42q-145 -53 -276 -147q-59 -297 -110.5 -591t-96.5 -591z" />
<glyph unicode="E" horiz-adv-x="976" d="M14 -43l2 70q14 2 27.5 3t28.5 5h-13q43 156 83 312.5t75 309.5q-25 -2 -50.5 -3t-49.5 -5l8 68q27 2 54.5 4t53.5 6q45 184 85 369.5t79 371.5q-23 -2 -42 -4t-42 -4l11 72q217 16 428 18h53l369 -12q8 23 15 42t15 42l64 -12q-27 -70 -49.5 -143.5t-40.5 -145.5l-70 6 q10 35 21.5 71t23.5 72q-170 10 -342 12h-45q-150 0 -303 -9q-35 -186 -75 -370.5t-87 -373.5q121 10 236.5 13t232.5 3l25 113h69l-55 -256h-70l17 76q-117 0 -233.5 -3t-237.5 -11q-35 -154 -75 -308.5t-81 -310.5q182 33 358.5 52.5t356.5 29.5l20 152l74 4l-55 -316h-66 l14 90q-205 -10 -405.5 -34.5t-411.5 -65.5z" />
<glyph unicode="F" horiz-adv-x="903" d="M102 -12l15 65l76 2q29 133 55 263.5t53 263.5l-113 -7l15 66l110 8q41 199 78 397.5t72 397.5q-39 -4 -77 -8t-73 -9l6 68q276 33 552 51.5t550 26.5q10 23 22.5 46t24.5 46l62 -20q-49 -92 -94 -184.5t-86 -186.5l-64 12q23 53 48.5 108.5t51.5 110.5 q-213 -4 -425.5 -18t-428.5 -37q-35 -199 -70.5 -397.5t-76.5 -399.5l508 27l27 86l65 -2l-57 -203l-66 4l12 49l-501 -28q-29 -135 -56.5 -265.5t-56.5 -263.5h117l-10 -65z" />
<glyph unicode="G" horiz-adv-x="1157" d="M138 601q5 97 28.5 197.5t62.5 192.5q39 86 95.5 171t128 158t156.5 129t184 85q70 21 143 21q20 0 40 -1q93 -8 164.5 -47t110.5 -109q27 -49 27 -113q0 -29 -6 -62l84 2l-13 -70l-239 -8l12 70l88 2q8 33 8 61q0 46 -20 81q-31 58 -93.5 90t-142.5 36q-11 1 -23 1 q-67 0 -132 -20q-84 -23 -161 -70.5t-143.5 -113t-118.5 -144.5t-85 -161q-35 -86 -57.5 -176t-27.5 -181q-1 -23 -1 -47q0 -66 10 -130q14 -87 53 -162q45 -86 125 -144.5t195 -58.5q80 0 155.5 29.5t140 82t117 122t82.5 147.5q39 92 59.5 188t31.5 193l-537 -4 q-4 -35 -7 -70t-7 -70l-70 -8q4 68 15.5 135.5t27.5 135.5l68 -5q-4 -14 -6.5 -26t-6.5 -25l596 2q-8 -111 -28.5 -228.5t-69.5 -234.5q-37 -86 -95.5 -165.5t-133 -139t-164.5 -95.5q-81 -32 -169 -32h-20q-129 2 -221 67.5t-145 168.5q-39 74 -55 165q-11 69 -11 141 q0 23 1 47z" />
<glyph unicode="H" horiz-adv-x="1323" d="M18 53l11 64l121 4l131 553l-109 -2l14 65l109 4l170 713l-115 -8l10 65l269 15l-11 -64l-86 -4l-172 -717l846 19q41 190 86 377.5t94 378.5l-145 -5l14 66l334 10l-14 -65l-123 -2q-47 -193 -92 -380.5t-86 -379.5l125 4l-15 -68l-122 -2q-41 -180 -78 -362t-70 -365 l70 8l-10 -67l-201 -14l6 67l65 4q35 180 72 362.5t78 366.5l-848 -20l-129 -553l152 4l-9 -66z" />
<glyph unicode="I" horiz-adv-x="589" d="M-14 -18l8 67q63 8 124.5 12.5t127.5 8.5q59 365 135 722t168 719l-223 -10l10 70l553 31l-15 -70l-258 -14q-94 -362 -168.5 -722t-134.5 -724q59 4 115.5 5t116.5 1l-17 -72h-60q-105 0 -211 -5q-136 -7 -271 -19z" />
<glyph unicode="J" horiz-adv-x="1058" d="M71 308q9 71 32.5 143.5t59.5 142.5t79 135q-43 18 -76 51l49 54q47 -35 97 -67t104 -54l-39 -64q-47 23 -82 45q-37 -55 -68.5 -115.5t-52 -123t-30.5 -125.5q-5 -33 -5 -66q0 -27 4 -53q10 -70 43 -120t81 -79.5t107 -39.5q25 -4 52 -4q34 0 70 7q100 20 180 79 t141.5 139.5t104.5 175t73 184.5q78 238 122 477.5t65 489.5l-545 -95q-4 -23 -6 -39t-8 -36l-66 4q10 45 17 90q3 25 3 50q0 18 -2 36l70 14q0 -14 -1 -27.5t-1 -27.5l614 108q-16 -258 -61 -521t-135 -533q-33 -96 -81 -197.5t-116.5 -190.5t-159 -155t-206.5 -88 q-49 -11 -98 -11q-24 0 -48 3q-71 8 -128.5 40.5t-98.5 89t-53 138.5q-5 35 -5 71q0 32 4 65z" />
<glyph unicode="K" horiz-adv-x="1116" d="M-8 -25l12 68h100l340 1460h-77l14 68l242 -2l-15 -68l-96 2l-172 -735l760 682l-56 43l52 55l166 -133l-48 -53l-65 51l-584 -520q119 -184 220.5 -375.5t187.5 -394.5q27 4 51.5 10t48.5 10v-67q-66 -10 -130 -26.5t-130 -35.5l-8 62q27 10 50.5 16t45.5 12 q-84 193 -180 377.5t-211 360.5l-193 -178l-143 -621h150l-15 -68h-317z" />
<glyph unicode="L" horiz-adv-x="790" d="M0 8l10 68h96l289 1397l-55 -5l10 68l260 14l-6 -65l-139 -10l-291 -1399q85 1 168 1h82q123 -1 248 -3l16 51l68 -8l-58 -176l-65 6l18 55q-163 6 -325 8q-54 1 -108 1q-109 0 -218 -3z" />
<glyph unicode="M" horiz-adv-x="1677" d="M127 186l18 72q16 -4 35 -4h37l193 1112l-111 -25l2 68q96 16 189.5 38.5t187.5 49.5l6 -63q-51 -14 -101.5 -27.5t-99.5 -26.5q92 -221 192.5 -436t211.5 -426q229 256 459.5 500t468.5 485l-123 43l37 64l317 -103l-31 -63l-125 41q-137 -360 -243.5 -718.5 t-188.5 -721.5l156 10l-8 -67l-344 -21l8 68l121 4q78 342 175 677t220 673q-242 -248 -476.5 -497t-461.5 -507l-49 35q12 10 19 20.5t18 20.5q-104 195 -197.5 391.5t-179.5 400.5l-174 -995q35 2 72.5 4t72.5 6l-6 -67q-74 -9 -148 -13q-47 -2 -94 -3q-27 0 -55 1z" />
<glyph unicode="N" horiz-adv-x="1140" d="M18 0l2 70q31 6 61 8t58 4q94 326 171 647.5t141 648.5l-154 -37l-4 66l387 88l4 -63l-133 -29q92 -287 180 -571.5t170 -577.5q35 307 106.5 611t178.5 610l-164 -5l12 68l340 8l-10 -63l-111 -6q-123 -350 -198.5 -698.5t-104.5 -698.5q39 4 78 7t78 5l-10 -67 q-90 -4 -181.5 -13.5t-181.5 -25.5l4 63q35 8 70 13.5t70 9.5q-86 313 -178.5 621t-194.5 616q-59 -307 -134 -614.5t-165 -612.5q16 -2 35.5 -2t35.5 -4l-22 -66q-44 6 -91 6h-23q-60 -2 -122 -16z" />
<glyph unicode="O" horiz-adv-x="1361" d="M150 494q-8 53 -8 109q0 95 22 198q33 162 113.5 305t191.5 250.5t242 170t266 62.5t239.5 -62.5t171 -170t86.5 -250.5q8 -55 8 -112q0 -93 -20 -193q-35 -164 -116.5 -306.5t-193.5 -250t-243 -169t-266 -61.5t-239.5 61.5t-169 169t-84.5 249.5zM218 521 q18 -130 75 -227t150.5 -152.5t213.5 -55.5q119 0 237 55.5t217 152.5t173 227t107 280q19 91 19 176q0 52 -7 101q-19 130 -76 227.5t-151 154t-213 56.5q-121 0 -238 -56.5t-216 -154t-172 -227.5t-104 -277q-21 -97 -21 -186q0 -48 6 -94z" />
<glyph unicode="P" horiz-adv-x="1181" d="M2 -25l12 68l105 2l330 1464q-18 -4 -37 -5t-41 -5l6 70q121 12 256 17q26 1 53 1q107 -1 208 -17q126 -20 230.5 -77t165.5 -172q46 -95 46 -208q0 -17 -1 -35q-8 -134 -64.5 -267t-153.5 -250t-224 -188q-160 -83 -327 -101q-90 -10 -177 -9q-75 0 -149 7l-52 -223 l160 4l-10 -67zM254 336q72 -4 148 -5h16q67 0 137 7q78 8 157.5 30.5t157.5 63.5q68 37 129.5 96.5t112.5 132t88 153.5q36 81 54 162q14 66 15 128q0 14 -1 28q-4 76 -37 140q-45 90 -122 141t-173 75t-204 28q-30 1 -61 1q-78 0 -155 -6z" />
<glyph unicode="Q" horiz-adv-x="1374" d="M156 494q-8 53 -8 109q0 95 22 198q33 162 115 305t193.5 250.5t242.5 170t266 62.5t239.5 -62.5t170 -170t85.5 -250.5q8 -55 8 -112q0 -93 -20 -193q-25 -113 -70.5 -216.5t-109 -192.5t-142.5 -161.5t-165 -121.5l72 -95q23 14 46 26.5t48 27.5l18 -60 q-57 -29 -109 -65.5t-108 -79.5l-32 51q16 14 35.5 27.5t37.5 25.5l-78 109q-63 -29 -128.5 -45.5t-131.5 -16.5q-135 0 -239.5 61.5t-171 169t-86.5 249.5zM228 521q18 -130 76 -227t151.5 -152.5t212.5 -55.5q102 0 204 43l-116 158l55 45l131 -170q80 43 152.5 109.5 t132 148.5t103.5 179t67 202q20 94 20 181q0 49 -7 96q-17 130 -74.5 227.5t-150.5 154t-212 56.5t-237 -56.5t-217 -154t-172 -227.5t-103 -277q-22 -98 -22 -187q0 -48 6 -93z" />
<glyph unicode="R" horiz-adv-x="1163" d="M4 -18l12 69l103 4l325 1452q-18 -2 -37.5 -4t-37.5 -4l6 66q86 10 172 16t172 6q82 -2 166 -16.5t159.5 -46t137 -81.5t100.5 -124q46 -82 46 -188q0 -110 -34 -224q-27 -86 -67.5 -168t-99 -153.5t-133 -131t-167.5 -98.5q-117 -50 -241 -70q-103 -16 -202 -17 q-20 0 -40 1l571 -219l-36 -65l-654 252l-41 -181l164 4l-12 -69zM250 344q63 -6 135 -6t144.5 7t146 24.5t141.5 48.5q160 72 259.5 202t148.5 289q29 99 34 197q1 10 1 20q0 86 -39 154q-39 61 -93.5 105.5t-121 72t-142.5 41.5t-159 21q-47 0 -95.5 -2t-97.5 -7z" />
<glyph unicode="S" horiz-adv-x="972" d="M236 991q-3 27 -3 53q1 74 25 144q34 96 99 172t155 129t190 72q55 10 109 11q50 0 99 -10q102 -18 170 -73t92 -145q8 -30 8 -64q0 -67 -31 -147l61 -9l-18 -65l-221 22l18 70l92 -10q35 72 35 132q0 21 -4 40q-16 76 -74 123q-57 48 -144 66q-43 9 -88 9q-46 0 -93 -10 q-86 -14 -164 -61t-134.5 -116t-86.5 -153q-22 -63 -21 -127q0 -22 2 -43q8 -57 32 -102t56.5 -81t73.5 -64.5t84 -55.5q49 -31 101.5 -59.5t98.5 -63t84 -76.5t62 -100q31 -64 32 -140q0 -14 -2 -29q-7 -93 -93 -177q-51 -51 -123 -83q-73 -30 -143 -36l-26 -2 q-56 0 -106 20q-62 24 -94 83q-19 33 -19 66q-1 14 3 29q12 48 47 99q-16 4 -38 7.5t-40 7.5l29 65q55 -14 112.5 -22t114.5 -15l-23 -67q-18 4 -37.5 4t-31.5 4q-47 -21 -61 -65q-5 -16 -4 -30q0 -27 16 -50q26 -40 72 -56q36 -13 76 -13q12 0 24 2q54 5 109 27.5t96 63.5 q67 66 73 138q1 12 1 23q0 58 -27 109q-25 53 -63 93.5t-82 73t-93 61t-98 57.5t-93 60.5t-80 72.5t-60.5 92.5t-32.5 118.5z" />
<glyph unicode="T" horiz-adv-x="731" d="M313 1401l31 211l66 2l-11 -70q215 4 428 11.5t428 15.5q2 12 6.5 24.5t6.5 22.5l63 -10q-10 -33 -18 -66t-13 -67l-67 -5q2 6 3 15.5t5 17.5q-98 -6 -192.5 -8t-188.5 -6q-92 -367 -168 -730.5t-143 -727.5h53.5t52.5 2l-14 -68q-68 0 -137.5 -3t-141.5 -13l7 65 q29 4 55.5 6.5t54.5 2.5q70 369 144.5 732t167.5 730q-104 -4 -203 -4t-199 -2l-10 -74z" />
<glyph unicode="U" horiz-adv-x="1323" d="M204 334q-9 63 -9 130q0 69 10 144q10 94 32.5 191.5t51 196t60.5 196.5t63 197l-115 8l18 67l359 -20l-17 -66l-180 8q-25 -86 -55.5 -181t-59 -193.5t-52 -198.5t-36.5 -199q-6 -60 -9 -122q-1 -16 -1 -32q0 -46 6 -90q8 -60 27.5 -114.5t56.5 -99.5q51 -66 128 -96 q68 -27 148 -27h21q117 2 217.5 54t181 136t143 188.5t101.5 213.5t60.5 221t33 226t15.5 227.5t8 224.5l-141 8l20 70l266 -17l-18 -67l-59 4q-4 -102 -7.5 -215t-14.5 -229.5t-33.5 -235.5t-63.5 -234q-43 -119 -110.5 -232.5t-160 -203.5t-207 -146.5t-251.5 -58.5h-11 q-94 0 -178 33q-88 35 -147 111q-73 96 -91 223z" />
<glyph unicode="V" horiz-adv-x="1183" d="M287 1362q72 39 146.5 76t152.5 71l18 -63q-31 -14 -60.5 -27.5t-58.5 -27.5q154 -614 172 -1274q190 354 400.5 697t439.5 683l-184 16l20 68l359 -33l-21 -65l-102 8q-242 -350 -458 -705.5t-411 -722.5h115l-16 -67h-344l14 70l121 -3q-14 664 -170 1299 q-29 -16 -57.5 -29.5t-55.5 -27.5z" />
<glyph unicode="W" horiz-adv-x="1433" d="M203 -16l198 1474q-25 0 -48 1t-48 3l23 72q56 -3 112.5 -3t114.5 3l-12 -72q-18 -2 -37 -2t-37 -2l-180 -1341l678 1110l-138 4l17 65l315 -8l-16 -67l-88 4l147 -1084l461 1446h-55l16 68l184 -8l-14 -64l-67 2l-502 -1581l-74 -8l-158 1163l-721 -1182z" />
<glyph unicode="X" horiz-adv-x="1173" d="M8 35l15 65l98 2q127 182 261 359.5t277 353.5q-59 147 -120.5 294.5t-126.5 295.5q-43 -27 -84 -66l-37 47q53 45 109.5 83t115.5 73l23 -59q-16 -10 -31.5 -18.5t-30.5 -18.5q61 -141 119.5 -282.5t118.5 -282.5q137 164 280.5 321.5t298.5 310.5l-47 3l19 69l256 -16 l-21 -68l-129 8q-166 -168 -322.5 -341t-308.5 -353q74 -193 144.5 -383t140.5 -383l64 33l22 -57l-207 -111l-22 57l78 43q-66 186 -134.5 367.5t-140.5 368.5q-129 -158 -251 -320t-238 -328h41l-15 -65z" />
<glyph unicode="Y" horiz-adv-x="1736" d="M326 1520q63 39 127.5 71.5t130.5 55.5l14 -60q-23 -8 -42 -16t-40 -19q117 -205 217.5 -412.5t198.5 -424.5q215 213 433 423t443 416l-73 72l59 49l215 -225l-55 -51l-105 110q-459 -418 -897 -860l-123 -577h117l-14 -72h-266l14 72h82l121 569q-100 227 -207 447.5 t-227 431.5q-23 -10 -48.5 -26.5t-50.5 -31.5z" />
<glyph unicode="Z" horiz-adv-x="1343" d="M4 12q31 16 70 29l637 686q-88 2 -173 4t-173 2l14 70q98 0 196.5 -2t196.5 -6l649 696q-211 -16 -419.5 -38.5t-421.5 -53.5q-6 -31 -13.5 -61.5t-15.5 -59.5h-66q16 66 28.5 128t21.5 126l69 4q-2 -16 -5 -33.5t-7 -34.5q250 35 497.5 58.5t497.5 44.5l-14 -72h-31.5 t-34.5 -2l-655 -706q86 -4 173 -8.5t171 -14.5l-16 -66q-98 4 -193.5 11.5t-193.5 11.5l-619 -659q145 20 270 31.5t247 12.5h29q108 0 220 -6q127 -8 277 -20l30 131h70l-72 -319h-69l24 118q-140 8 -284 18q-109 7 -220 7q-34 0 -70 -1q-146 -3 -295 -20.5t-300 -60.5z " />
<glyph unicode="[" horiz-adv-x="290" d="M10 -119l352 1764l213 2l-12 -64l-149 -4l-326 -1630l127 2l-12 -66z" />
<glyph unicode="\" horiz-adv-x="733" d="M350 1628l70 23q72 -438 130 -872.5t105 -878.5l-65 -19q-47 444 -106.5 876.5t-133.5 870.5z" />
<glyph unicode="]" horiz-adv-x="290" d="M-8 -115l10 66l127 -2l367 1630l-146 4l12 64l213 -2l-397 -1764z" />
<glyph unicode="^" horiz-adv-x="346" d="M305 1372q35 39 77 83t83 87q4 2 27 6q8 2 22 2l88 -184l-61 -39l-70 137q-31 -29 -59.5 -61.5t-57.5 -65.5z" />
<glyph unicode="_" horiz-adv-x="569" d="M8 10l10 66l486 8l-10 -68z" />
<glyph unicode="`" horiz-adv-x="309" d="M322 1546l57 47l164 -223l-58 -45z" />
<glyph unicode="a" horiz-adv-x="927" d="M112 352q-7 37 -7 76q1 42 9 88q16 88 50 160q53 117 138 207t210 149q82 32 158 32q34 0 68 -6q108 -22 171 -120q4 23 9.5 45.5t9.5 46.5l-70 4l21 70l192 -17l-24 -67l-52 4q-43 -197 -92 -392.5t-100 -391.5q18 0 40.5 1t45.5 3l-8 -68q-59 -6 -117 -7h-24 q-47 0 -95 3l17 68q20 -2 38.5 -2h34.5q23 78 41.5 157.5t40.5 157.5q-37 -59 -91 -119.5t-118.5 -112t-137.5 -86t-146 -42.5q-17 -2 -33 -2q-71 1 -113 39q-52 46 -66 122zM174 404q6 -64 43 -107q31 -36 94 -36q12 0 25 1q82 8 162 58.5t148.5 121t124.5 153.5t91 155 q4 8 4 18q4 22 4 42q0 44 -18 78q-26 50 -76 78q-52 27 -118 29h-9q-62 0 -123 -24q-96 -37 -177 -120t-128 -192q-23 -49 -38 -119q-11 -50 -11 -98q0 -20 2 -38z" />
<glyph unicode="b" horiz-adv-x="983" d="M31 35l12 69h98q72 340 132.5 678t107.5 693h-74l15 67h206l-14 -67h-65q-23 -154 -44.5 -305.5t-50.5 -305.5q37 47 76 88t92 76q72 44 150 64q57 14 111 15q19 0 37 -2q70 -7 128 -43t90 -101q25 -53 30 -116q2 -29 2 -57q0 -34 -3 -67q-8 -78 -39 -161t-83 -157.5 t-122.5 -134t-156.5 -90.5q-68 -22 -136 -22q-16 0 -33 2q-85 6 -149 53q-61 41 -94 113q-10 -53 -21.5 -108.5t-21.5 -109.5l96 3l-14 -70zM289 489q-1 -11 -1 -21q0 -54 26 -100q30 -55 81 -98q47 -37 115 -44q16 -2 32 -2q54 0 113 18q72 20 132.5 72.5t104.5 119 t72.5 140t36.5 141.5q2 24 2 47q0 29 -3 58q-5 52 -23 95q-23 51 -67 82t-99 41q-24 5 -50 5q-33 1 -69 -7q-64 -14 -125 -51q-98 -59 -156.5 -149.5t-97.5 -200.5q-8 -66 -24 -146z" />
<glyph unicode="c" horiz-adv-x="833" d="M125 503q-1 17 -1 34q0 64 18 129q22 82 70 159.5t116 141.5q84 78 186 122q82 35 169 35q22 0 44 -2q66 -6 123 -30.5t100 -69.5l-53 -53q-37 37 -85 60.5t-107 29.5q-16 1 -32 1q-77 0 -149 -32q-86 -39 -157 -104q-59 -55 -99 -123q-42 -67 -60 -137q-16 -58 -15 -116 q1 -12 1 -22q4 -68 31 -125q25 -47 65 -80.5t95 -50.5q35 -10 72 -10q21 0 43 3q60 9 116 36t104 68t83 90l57 -31q-49 -63 -109.5 -112.5t-126.5 -79.5q-68 -30 -136 -38q-21 -3 -42 -2q-47 0 -92 13q-66 16 -110.5 55t-73.5 90q-39 70 -45 151z" />
<glyph unicode="d" horiz-adv-x="745" d="M119 567q16 82 60 159t110 134q55 49 120.5 76t126 27t110.5 -28t77 -87l133 635l-65 4l14 65l186 -8l-18 -65h-51l-256 -1254q14 -4 28.5 -4t30.5 -2l-27 -67q-46 9 -95.5 9t-102.5 -9l2 67q27 2 51.5 4t46.5 2l37 197q-91 -119 -191 -159q-61 -24 -115 -24 q-34 -1 -66 9q-81 26 -125 109q-29 55 -29 128q0 38 8 82zM186 567q-8 -41 -8 -76q0 -65 28 -107q42 -66 114 -73q10 -1 19 -1q64 0 139 45q87 52 155 171q35 63 47 139q4 27 4 52q0 46 -14 84q-16 43 -52 66.5t-82 27.5q-9 1 -19 1q-38 0 -80 -14q-52 -16 -97 -55 q-55 -47 -96 -116.5t-58 -143.5z" />
<glyph unicode="e" horiz-adv-x="768" d="M119 520q2 133 55 275q25 70 67 135t97 117.5t121.5 84t140.5 31.5h9q57 -1 99 -23q44 -24 71.5 -62t41 -80.5t17.5 -77.5q4 -24 5 -52v-7q0 -25 -7 -58q-8 -35 -26.5 -56.5t-51.5 -23.5q-105 -3 -209 -3h-52q-130 1 -276 3q-4 -4 -5 -12.5t-3 -14.5q-19 -72 -25 -146 q-1 -15 -1 -31q0 -58 20 -113q23 -66 72 -101q46 -33 103 -33h7q49 2 93 23.5t83 55.5t72 77t57 86l60 -22q-29 -51 -70 -101.5t-90 -90.5t-104.5 -65.5t-112.5 -25.5q-66 0 -116 25.5t-82 68.5t-47 99q-13 50 -13 104v14zM244 791q61 0 131.5 -1.5t139.5 -1.5h133.5h115.5 q8 39 8 81q0 13 -1 25q-3 56 -23 101q-23 49 -64 75t-91 28h-8q-45 0 -97 -20q-56 -22 -105 -72q-88 -82 -139 -215z" />
<glyph unicode="f" horiz-adv-x="755" d="M29 -424l6 68q39 2 75.5 4t75.5 6q6 174 24.5 348t45.5 356l-178 4l14 66l176 -4q16 88 37 180t49 187q31 104 81 217.5t136 203.5q55 55 120 94.5t127 50.5q21 4 41 4q41 0 79 -15q57 -23 96 -89l99 89l38 -46l-241 -210l-39 43l82 71q-23 61 -68 78q-27 11 -57 11 q-20 0 -42 -5q-54 -12 -110.5 -50t-99.5 -87q-68 -78 -109 -174t-69 -195q-27 -86 -45.5 -176t-36.5 -182l350 -6q10 31 16.5 60.5t16.5 60.5l67 -13q-25 -72 -42 -143.5t-27 -142.5l-66 -7q4 29 9.5 60t11.5 59l-344 6q-37 -174 -51.5 -348t-24.5 -354l-10 -2q51 2 101 2 t99 -2l-18 -66q-50 2 -99 2q-149 0 -296 -14z" />
<glyph unicode="g" horiz-adv-x="985" d="M84 -283l117 209l61 -22l-45 -80q49 -24 101 -24q15 0 29 2q67 8 130.5 41.5t122.5 89t110.5 119t92.5 131t69 128.5q49 111 75 220.5t36 220.5q2 25 4 46t-2 44q-53 -129 -132 -251t-187 -226q-68 -68 -142.5 -117t-146.5 -64q-27 -6 -53 -6q-43 0 -82 16 q-62 25 -103 109q-23 51 -28 109q-2 21 -2 43q0 37 5 75q9 62 30.5 125.5t50.5 128.5q47 86 114.5 161t153.5 128q63 39 135 60.5t140.5 21.5t131 -22.5t105.5 -71.5q4 -4 7 -6t5 -6q-2 33 -5 64.5t-5 66.5l-115 -6l12 67l238 10l-12 -67l-56 -2q10 -102 12 -207 q1 -31 1 -62q0 -74 -4 -149q-10 -117 -38 -233.5t-81 -233.5q-45 -104 -123 -218t-177 -198t-215 -123q-55 -19 -112 -19q-63 0 -127 23l-39 -67zM180 454q3 -53 23 -102q31 -72 78 -94q30 -14 63 -14q19 0 40 5q56 13 117.5 55t116.5 97q117 115 200 255.5t145 287.5 q-25 57 -76 92t-115 46q-28 5 -57 5q-40 0 -82 -9q-74 -15 -144 -58q-74 -47 -134 -114.5t-99 -141.5q-25 -49 -43 -101.5t-27 -104.5q-7 -38 -7 -76q0 -14 1 -28z" />
<glyph unicode="h" horiz-adv-x="874" d="M25 88q23 8 44 15.5t44 13.5q43 311 104.5 620.5t153.5 638.5h-62l8 58q35 3 69 3q18 0 34 -1q50 -2 100 -6l-22 -58q-16 2 -30.5 2t-31.5 2q-109 -393 -182 -788q29 74 74 152.5t106 146.5q86 96 167 135q56 27 102 27q21 1 39 -5q60 -18 90 -88q22 -51 22 -128 q0 -30 -4 -64q-14 -125 -45 -255t-72 -249l133 6l-10 -63l-321 -15l10 64l123 6q29 98 63.5 229t50.5 267q3 29 3 56q0 56 -12 98q-17 62 -59 78q-15 6 -32 7q-32 0 -72 -22q-62 -33 -143 -127q-61 -74 -109.5 -168t-83 -191.5t-57 -189.5t-35.5 -162q23 4 42.5 5t41.5 5 l-8 -61q-53 -2 -107.5 -14.5t-107.5 -34.5z" />
<glyph unicode="i" horiz-adv-x="344" d="M47 205l12 67l97 2l155 678l-86 6l21 66q23 -2 46 -3t46 -1h2h-2q35 -2 70.5 -2h76.5l-14 -66q-24 -2 -47.5 -2t-44.5 2l-156 -678l113 5l-10 -68zM338 1083l27 88l86 -10l-29 -88z" />
<glyph unicode="j" horiz-adv-x="786" d="M72 117v11q0 89 32 186q33 104 78 190l-71 22l32 64l176 -53l-32 -64l-41 12q-23 -37 -43.5 -80t-34.5 -90t-22 -95q-6 -33 -6 -63q0 -14 1 -28q4 -86 45 -131q38 -41 107 -41h12q76 6 137.5 48t109.5 103.5t83 133t57 135.5q47 133 61.5 269t14.5 269q-41 -2 -81 -9 t-81 -13l2 70q156 25 310 30l-11 -65q-33 0 -69 -6q-2 -125 -18.5 -274.5t-65.5 -289.5q-25 -70 -67 -150.5t-100.5 -150t-133 -118t-164.5 -50.5h-12q-80 0 -139 53q-64 56 -66 175zM762 1145l65 20l13 -53l-70 -22z" />
<glyph unicode="k" horiz-adv-x="983" d="M76 2l14 70h82l262 1382l-125 -6l10 70l334 18l-10 -66l-141 -12l-135 -729l704 348l19 -61l-721 -357l614 -331l-43 -62l-602 324l-94 -518h71l-14 -70h-225z" />
<glyph unicode="l" horiz-adv-x="329" d="M16 8l2 66q59 10 111 12q154 684 266 1374l-78 -2l15 68l217 4l-12 -64l-74 -2q-55 -346 -121.5 -689t-144.5 -687h45t45 -2l-19 -70q-39 3 -82 3q-20 0 -42 -1q-66 -2 -128 -10z" />
<glyph unicode="m" horiz-adv-x="1681" d="M109 178l6 68q27 4 49 6t45 6l121 895l-80 -12l2 65l254 45v-67l-107 -21l-86 -633q33 86 87.5 172t121.5 160q59 68 128 114q70 46 130 53q9 1 17 1q50 0 89 -34q46 -40 62 -144q5 -38 5 -77q0 -19 -1 -39q-4 -60 -16 -120q59 84 136 169t169 151q124 90 220 90 q19 0 39 -4q110 -23 155 -156q29 -86 29 -182q0 -12 -1 -26q-4 -110 -20 -226q18 4 34.5 7t33.5 7l-9 -71q-55 -6 -113.5 -21.5t-111.5 -44.5l-20 60q31 16 59.5 26.5t58.5 20.5q9 55 17 130q5 49 5 98q0 26 -1 52q-4 74 -22.5 138.5t-57.5 98.5q-32 28 -81 28q-11 1 -23 -1 q-64 -8 -158 -75q-109 -78 -194 -182.5t-160 -217.5q25 -2 49 -4t51 -4l-21 -65q-87 8 -174 8q-43 0 -86 -2l9 67q27 0 49 1t49 1q2 0 6 5q14 90 26 176q7 48 7 93q0 36 -4 70q-12 76 -43 108q-28 28 -64 28h-9q-42 -4 -93 -42t-105 -102q-49 -57 -91 -126.5t-78 -145.5 t-64.5 -150.5t-50.5 -142.5h34.5t32.5 -4l-22 -70q-41 8 -82 8q-12 0 -26 -1q-54 -3 -111 -13z" />
<glyph unicode="n" horiz-adv-x="1142" d="M53 201l6 67l47 2q82 346 189 695l-51 -2l10 63l262 21l-12 -68l-139 -10q-43 -135 -80 -271.5t-76 -273.5q55 76 132 170t169 174q78 68 162 109t158 48l28 2q58 0 106 -25q58 -30 87 -103q20 -49 24 -119q2 -31 2 -63q0 -39 -3 -81q-5 -74 -16 -148.5t-22 -135.5h78 l-14 -68h-242l14 68h97q8 43 18 112q9 70 15 146q3 46 4 90q0 28 -2 54q-4 68 -21 112q-23 54 -69 76q-35 16 -77 17q-14 0 -29 -2q-60 -7 -128 -43t-133 -95q-53 -47 -103.5 -103.5t-95.5 -115t-85 -115.5t-73 -106l140 10l-2 -64z" />
<glyph unicode="o" horiz-adv-x="815" d="M133 498q-7 32 -7 67q0 39 9 82q16 78 59.5 146.5t104.5 120t135 81t150 29.5t136 -29.5t100 -81t54 -119.5q7 -32 8 -66q0 -39 -10 -81q-16 -80 -60 -148.5t-105.5 -120.5t-135 -82t-149.5 -30t-136.5 30t-99.5 82t-53 120zM200 524q11 -57 42.5 -99t82 -66.5 t111.5 -24.5t120.5 24.5t110 66.5t86 99.5t50.5 122.5q8 34 8 66q0 29 -6 55q-12 58 -44 100.5t-81.5 67.5t-110.5 25t-121.5 -25t-109.5 -68t-85 -100t-50 -121q-8 -37 -8 -71q0 -27 5 -52z" />
<glyph unicode="p" horiz-adv-x="1091" d="M-59 -463l10 66l102 4l273 1567h-78l14 65h217l-14 -65h-74l-29 -181q63 70 148.5 123t175.5 79q72 21 143 21q18 0 36 -2q89 -6 165 -51q80 -51 114 -135q30 -74 30 -158v-22q-5 -96 -44.5 -196.5t-107.5 -184.5t-159 -142.5t-199 -70.5q-24 -2 -47 -2q-39 0 -76 6 q-60 10 -112 37t-93 70t-66 100l-149 -858l110 4l-10 -66zM299 637q8 -72 35.5 -133.5t75 -104.5t112.5 -65q50 -16 112 -16q18 0 36 1q84 8 159.5 56.5t133 120t94.5 157.5t45 170q2 21 2 41q0 61 -18 116q-25 73 -91 118q-72 51 -162 53h-9q-86 0 -172 -34 q-91 -36 -174 -102.5t-140 -150.5z" />
<glyph unicode="q" horiz-adv-x="1159" d="M127 476q-1 17 -1 35q0 75 20 155q26 100 75 196q92 178 249 295t355 152q34 4 67 4q121 0 219 -53q124 -68 218 -179l-59 -47q-37 49 -83 92t-101.5 72t-121.5 42q-38 7 -79 7q-31 0 -64 -4q-84 -10 -162.5 -44t-149.5 -87t-130.5 -123.5t-102.5 -154.5 q-41 -80 -64 -164q-20 -76 -20 -145v-15q3 -76 33.5 -139.5t96.5 -104.5q57 -36 132 -36h4q77 1 159.5 31t164.5 88.5t152 135t120 172t68 199.5l-67 4l16 66l195 -8l-15 -66h-45q-90 -311 -164 -618.5t-129 -618.5q33 0 65 -2t66 -6l-22 -66q-72 9 -147.5 9t-153.5 -9 l10 70q29 4 56.5 4h56.5q43 240 98 476.5t119 475.5q-68 -117 -165 -205t-203.5 -138t-210.5 -58q-18 -1 -34 -1q-84 0 -153 34q-82 41 -122 113.5t-46 163.5z" />
<glyph unicode="r" horiz-adv-x="813" d="M72 215l14 68h70q47 209 82.5 416.5t64.5 414.5h-65l18 68q27 -2 53 -2q20 0 40 1q46 3 93 9l-2 -68q-18 -4 -35.5 -4t-37.5 -4q-6 -57 -14.5 -114.5t-16.5 -112.5q31 51 76 97t96 77q52 31 104 45q33 9 63 9q17 0 34 -3q69 -14 111 -76q38 -56 38 -153v-19q12 6 27.5 11 t32.5 8l6 -64q-53 -16 -98.5 -34.5t-92.5 -47.5l-28 58q20 10 42.5 20t40.5 21v13q0 84 -24 131q-26 50 -68 64q-19 6 -39 5q-27 1 -57 -9q-53 -18 -107.5 -60t-101.5 -101.5t-78 -128.5q-23 -119 -44 -235t-50 -232h70l-15 -68h-202z" />
<glyph unicode="s" horiz-adv-x="761" d="M80 399q41 57 90 105.5t104 85.5l33 -51q-23 -16 -40 -29.5t-34 -30.5q0 -94 50.5 -159.5t148.5 -77.5h11q40 0 82 12q48 14 89 44t72 72t43 93q5 26 5 48q0 20 -4 36q-9 35 -30.5 59.5t-53.5 43t-68 34.5q-25 10 -60 23.5t-71.5 30t-69.5 37t-55 46.5q-26 29 -36 68 q-5 21 -6 42q0 19 4 39q8 42 33 82t68 68q57 38 117 50q35 7 69 7q23 1 45 -3q56 -8 104 -35t85 -68q10 14 19.5 26.5t19.5 24.5l49 -35q-41 -51 -75 -107t-60 -114l-64 17q14 31 32 61.5t34 63.5q-23 31 -59.5 56.5t-82.5 37.5q-34 9 -70 9q-12 0 -25 -1q-50 -4 -95 -35 q-29 -18 -46 -44.5t-23.5 -55.5t0 -58.5t28.5 -54.5q20 -23 48 -38t58.5 -27.5t62.5 -23.5t60 -23q43 -18 82 -43t66 -60t37 -81q5 -21 4 -45q0 -28 -6 -60q-14 -59 -52 -113.5t-91 -94.5q-52 -39 -114 -61q-49 -17 -100 -17q-14 0 -28 1q-49 4 -91 23.5t-76 51.5t-54.5 73 t-26.5 90q-8 -12 -17.5 -22.5t-15.5 -22.5z" />
<glyph unicode="t" horiz-adv-x="589" d="M137 -49l8 63q23 4 45.5 5t45.5 4q16 119 34.5 240.5t41 253.5t50 277.5t62.5 311.5q-49 -2 -98.5 -2h-98.5l15 65q51 0 101 1t97 1q18 84 39 166t37 162l-74 2l19 68l215 -4l-17 -68h-75q-20 -78 -39 -160t-37 -163q72 4 139.5 8t134.5 12l-6 -68q-70 -6 -140.5 -10 t-141.5 -8q-55 -264 -102.5 -528t-86.5 -555h43.5t44.5 -2l-20 -66q-33 1 -66 1q-84 0 -170 -7z" />
<glyph unicode="u" horiz-adv-x="1036" d="M139 649q18 104 61.5 200.5t106.5 184.5q-16 4 -29.5 6t-27.5 7l26 63q44 -10 90 -14q23 -2 45.5 -2t45.5 2l-11 -66h-71q-61 -88 -104.5 -183t-65.5 -194q-9 -48 -9 -88q0 -53 16 -95q26 -72 83 -110t135 -42h16q70 0 144 28q82 31 159.5 93.5t133.5 156.5 q66 109 94.5 226.5t58.5 236.5q-31 0 -59.5 -2t-56.5 -2l6 63q66 6 133 7h27q54 0 108 -3l-18 -63h-70q-59 -205 -106.5 -411t-88.5 -415h111l-14 -65l-271 -4l11 69h98q12 72 25.5 139.5l27.5 137.5q-70 -98 -158 -160q-88 -60 -178 -86q-63 -18 -123 -18q-26 0 -51 3 q-84 11 -145.5 59t-91.5 133q-19 53 -20 122q0 40 7 86z" />
<glyph unicode="v" horiz-adv-x="806" d="M168 86l10 66q37 4 66.5 4h64.5q8 176 8 348t-10 346l-117 -39l-8 63l254 80l8 -63l-65 -21q4 -146 5 -294v-60q0 -119 -3 -240q193 332 444 621l-51 37l47 59l131 -96l-45 -57l-33 22q-143 -166 -267 -343t-222 -363q31 -2 64.5 -3t66.5 -6l-18 -67q-107 8 -218 8 q-55 0 -112 -2z" />
<glyph unicode="w" horiz-adv-x="1331" d="M84 236q-4 38 -4 78q0 102 29 212q41 154 110 295q-10 4 -19.5 8.5t-17.5 8.5l39 61q39 -16 78 -27.5t80 -17.5l-25 -66q-20 2 -37.5 6.5t-40.5 8.5q-59 -129 -98 -267q-29 -104 -29 -206q0 -34 3 -68q6 -53 30 -82q24 -30 58 -36q9 -2 18 -2q28 0 62 14q46 18 94 61 q31 27 58.5 56.5t49.5 60.5q68 88 123 187.5t84 203.5l-102 2l18 72l277 -15l-19 -67l-102 4q-23 -51 -29 -105.5t-10 -107.5q-1 -28 -1 -56t1 -56q2 -56 16 -105q12 -41 40 -83t79 -58q28 -10 58 -10q21 0 43 5q52 13 98.5 45.5t85.5 79.5t63 99q77 154 77 310 q0 160 -65 302l-104 -63l-29 53l234 141l26 -57l-63 -37q68 -136 68 -298q-1 -6 -1 -12q-2 -169 -79 -358q-23 -43 -54.5 -87t-71.5 -81t-87 -64.5t-99 -37.5q-31 -6 -59 -6q-42 0 -76 14q-59 23 -97 70t-54 104q-15 54 -17 110q-1 24 -1 48q0 32 1 65q-31 -53 -64.5 -102 t-74.5 -96q-25 -29 -53.5 -61.5t-63.5 -61.5q-60 -50 -118 -72q-43 -16 -80 -16q-14 0 -27 2q-49 8 -83 47t-46 111z" />
<glyph unicode="x" horiz-adv-x="743" d="M35 168l14 70h66q66 117 141.5 230.5t153.5 223.5q-53 53 -111.5 102.5t-118.5 96.5l49 55q59 -47 116.5 -95t111.5 -97q53 68 107 135t110 133l-47 16l30 60l177 -51l-35 -66l-64 18q-59 -72 -116.5 -142.5t-116.5 -141.5q72 -66 138.5 -132.5t131.5 -138.5l-55 -51 q-59 70 -124 134.5t-134 125.5q-72 -104 -140.5 -206.5t-132.5 -208.5h35l-14 -70h-172z" />
<glyph unicode="y" horiz-adv-x="1153" d="M191 574v9q0 79 17 165q17 90 49 180t67 172q-23 4 -46.5 6t-46.5 6l25 64q59 -10 126 -14.5t128 -6.5l-14 -65q-25 0 -50.5 1t-54.5 3q-31 -68 -61.5 -152t-49.5 -172q-21 -93 -21 -175q0 -79 32 -138q39 -72 117 -95q27 -7 58 -7q59 0 132 28q111 45 200 125t159.5 179 t125 208t99.5 211h-97l15 65l215 3l-15 -66h-45q-14 -127 -35.5 -250t-54.5 -250q-16 -70 -44.5 -167t-67.5 -203.5t-91.5 -210t-116 -187.5t-141 -137t-167.5 -57q-11 -1 -22 -1q-70 0 -111 35q-48 39 -60 102q-5 25 -5 52q0 41 11 85q17 75 58 142q-41 2 -82 3.5t-78 5.5 l18 65q84 -6 170 -6t172 4l-12 -67q-29 -2 -58.5 -2.5t-58.5 -2.5q-31 -41 -52 -101q-19 -55 -19 -107v-9q2 -57 32 -96q26 -35 90 -35h13q80 4 147.5 55.5t123.5 131.5t102.5 178t81 196.5t60 187.5t42.5 148q18 76 34.5 151t26.5 150q0 -8 -6 -10q-43 -86 -96 -172 t-120 -163t-148.5 -140.5t-180.5 -101.5q-84 -34 -159 -34q-34 0 -67 7q-105 22 -157 123q-35 70 -36 154z" />
<glyph unicode="z" horiz-adv-x="999" d="M0 -27l4 66q10 0 16.5 1t14.5 1q109 131 216 261t218 259q-45 2 -89.5 2t-88.5 -2l12 66q56 1 111.5 1t109.5 -1q109 129 217.5 253t221.5 246l-570 -14l-8 -80l-68 -8l23 199l68 4l-5 -47l703 20l-10 -70h-49q-115 -125 -225.5 -250.5t-219.5 -254.5q49 -4 99.5 -7.5 t99.5 -7.5l-21 -65q-61 4 -119.5 7t-111.5 7q-111 -127 -217.5 -254t-216.5 -258q193 15 379 23q147 6 291 6h77l27 82l65 -6l-59 -207l-68 4l19 59q-213 0 -423 -8t-423 -27z" />
<glyph unicode="{" horiz-adv-x="360" d="M137 604l15 64q35 0 59.5 16t41.5 42t31.5 58.5t26.5 65.5q47 127 82 268q8 35 15.5 71t15.5 77t18.5 89t22.5 107q6 23 14 52.5t22.5 57t37 47t55.5 23.5q12 2 26.5 1t26.5 -7l-22 -67q-29 2 -45.5 -5.5t-25.5 -22.5t-14 -35.5t-10 -43.5q-12 -59 -22 -107t-18.5 -89 t-16.5 -77t-16 -73q-16 -72 -37 -140.5t-47 -137.5q-20 -53 -46 -106.5t-85 -100.5q29 -23 45 -58.5t20 -76.5q2 -31 -1 -64t-12 -84t-25.5 -124.5t-39.5 -184.5q-4 -20 -6 -44t4 -42.5t21.5 -29.5t44.5 -7l-10 -66q-23 -4 -41.5 -0.5t-34.5 11.5q-43 29 -48 76t5 102 q23 111 38 184.5t24.5 121.5t11.5 77t0 53q-4 47 -29 83t-72 46z" />
<glyph unicode="|" horiz-adv-x="192" d="M4 -115q92 434 192.5 861.5t213.5 861.5l65 -2q-111 -434 -210 -861.5t-191 -859.5h-70z" />
<glyph unicode="}" horiz-adv-x="360" d="M-20 -150l18 66q27 -4 46 7t33.5 29.5t23 42t12.5 44.5q23 111 38 184.5t27 124.5t23.5 84t25.5 64q23 41 54.5 76.5t68.5 58.5q-37 47 -42 100t-3 107q4 70 14.5 138t20.5 140q6 37 14 73t17.5 77t19.5 89t23 107q6 23 10 43.5t1 35.5t-16.5 22.5t-43.5 5.5l6 67 q16 6 30.5 7.5t26.5 -1.5q31 -4 45 -23.5t17.5 -47t-1 -57t-10.5 -52.5q-25 -121 -42 -196.5t-29 -147.5q-27 -133 -33 -268q0 -33 -1 -65.5t6 -58.5t24.5 -42t52.5 -16l-15 -64q-49 -10 -90 -46t-63 -83q-12 -25 -22.5 -53.5t-23 -76.5t-27.5 -121.5t-38 -184.5 q-16 -55 -40.5 -102.5t-80.5 -75.5q-18 -8 -39.5 -11.5t-37.5 0.5z" />
<glyph unicode="~" horiz-adv-x="806" d="M162 643q29 39 58.5 76t58.5 65q72 74 124 81t97 -52q20 -27 37.5 -52.5t39 -44t48 -25.5t67.5 5q51 23 91 69t69 87l51 -33q-41 -53 -88 -104t-108 -76q-47 -23 -87 -17.5t-72 25t-55.5 49t-39.5 60.5q-10 18 -20.5 29.5t-25 12.5t-34 -11.5t-47.5 -43.5 q-33 -33 -64 -69.5t-47 -59.5z" />
<glyph unicode="&#xa1;" horiz-adv-x="151" d="M330 1337l30 -145h66l-31 145h-65zM393 1063l246 -1153h66l-246 1153h-66z" />
<glyph unicode="&#xa2;" horiz-adv-x="458" d="M139 657q6 37 24.5 73t46.5 66.5t63.5 52t76.5 30.5l29 129h65l-30 -127q53 -10 92 -41t43 -90l-66 -23q-12 72 -84 86l-73 -313q41 0 75.5 24.5t61.5 61.5l57 -27q-37 -53 -89 -86t-118 -39l-26 -115l-66 3l29 124q-57 23 -90 80.5t-21 130.5zM205 659q-8 -43 9 -80.5 t52 -60.5l66 291q-47 -16 -84 -59.5t-43 -90.5z" />
<glyph unicode="&#xa3;" horiz-adv-x="610" d="M63 88l11 68h23.5t25.5 2l78 399q-16 -4 -33.5 -7t-36.5 -7l-2 67q23 4 43.5 7.5t40.5 7.5q20 113 52 232.5t110 227.5q29 41 65.5 74t79.5 55q31 16 67 24.5t69.5 6.5t61 -16.5t46.5 -42.5q12 -23 16 -51.5t4 -55.5q-6 -49 -22 -104l-64 12q12 41 16.5 83t-12.5 73 q-20 37 -69 37t-92 -23q-35 -16 -61.5 -41.5t-51.5 -60.5q-66 -98 -93.5 -199.5t-51.5 -222.5q49 6 96 7t94 -1l-16 -68q-92 6 -187 -6l-80 -405q100 6 201 9t201 5l-14 -68q-133 -2 -259 -5t-256 -13z" />
<glyph unicode="&#xa5;" horiz-adv-x="829" d="M264 1239l68 31l205 -613l464 613l58 -31l-500 -657l-31 -144l129 2l-12 -69l-131 -2l-14 -68l131 4l-10 -67l-136 -2l-47 -220h-71l47 217l-146 -4l13 66l147 4l14 70h-147l14 67l148 2l28 140z" />
<glyph unicode="&#xa8;" horiz-adv-x="268" d="M324 1380l8 97l69 8l-10 -94zM434 1384l23 103h69l-22 -103h-70z" />
<glyph unicode="&#xad;" horiz-adv-x="483" d="M133 614l14 66h408l-14 -66h-408z" />
<glyph unicode="&#xb4;" horiz-adv-x="309" d="M285 1370l258 223l37 -47l-258 -221z" />
<glyph unicode="&#xc0;" d="M-2 -16l12 67h103l245 379l-106 2l14 66h135l652 1018l-115 4l16 67l271 -8l-13 -66h-69q-4 -256 -1 -509.5t7 -509.5h119l-15 -66h-104q2 -92 4 -182t6 -183h135l-14 -69h-328l15 69h125q-4 92 -6.5 182.5t-4.5 182.5l-651 2l-246 -379h54l-15 -67h-225zM473 498l608 -4 q-10 236 -10 469t2 469zM1061 1956l57 47l164 -223l-58 -45z" />
<glyph unicode="&#xc1;" d="M-2 -16l12 67h103l245 379l-106 2l14 66h135l652 1018l-115 4l16 67l271 -8l-13 -66h-69q-4 -256 -1 -509.5t7 -509.5h119l-15 -66h-104q2 -92 4 -182t6 -183h135l-14 -69h-328l15 69h125q-4 92 -6.5 182.5t-4.5 182.5l-651 2l-246 -379h54l-15 -67h-225zM473 498l608 -4 q-10 236 -10 469t2 469zM1057 1780l258 223l37 -47l-258 -221z" />
<glyph unicode="&#xc2;" d="M-2 -16l12 67h103l245 379l-106 2l14 66h135l652 1018l-115 4l16 67l271 -8l-13 -66h-69q-4 -256 -1 -509.5t7 -509.5h119l-15 -66h-104q2 -92 4 -182t6 -183h135l-14 -69h-328l15 69h125q-4 92 -6.5 182.5t-4.5 182.5l-651 2l-246 -379h54l-15 -67h-225zM473 498l608 -4 q-10 236 -10 469t2 469zM1022 1782q35 39 77 83t83 87q4 2 27 6q8 2 22 2l88 -184l-61 -39l-70 137q-31 -29 -59.5 -61.5t-57.5 -65.5z" />
<glyph unicode="&#xc3;" d="M-2 -16l12 67h103l245 379l-106 2l14 66h135l652 1018l-115 4l16 67l271 -8l-13 -66h-69q-4 -256 -1 -509.5t7 -509.5h119l-15 -66h-104q2 -92 4 -182t6 -183h135l-14 -69h-328l15 69h125q-4 92 -6.5 182.5t-4.5 182.5l-651 2l-246 -379h54l-15 -67h-225zM473 498l608 -4 q-10 236 -10 469t2 469zM967 1762q8 20 20.5 45.5t29.5 49t37.5 41t45.5 21.5q37 10 62.5 -17.5t39.5 -78.5q8 -20 22.5 -25.5t27.5 -1.5q14 6 24 19.5t16.5 31t10.5 34t4 26.5l69 6q-4 -29 -14 -59.5t-26.5 -56t-41 -43t-57.5 -21.5q-70 -10 -98 51q-8 18 -18.5 43 t-26.5 17q-23 -10 -39 -43t-25 -54z" />
<glyph unicode="&#xc4;" d="M-2 -16l12 67h103l245 379l-106 2l14 66h135l652 1018l-115 4l16 67l271 -8l-13 -66h-69q-4 -256 -1 -509.5t7 -509.5h119l-15 -66h-104q2 -92 4 -182t6 -183h135l-14 -69h-328l15 69h125q-4 92 -6.5 182.5t-4.5 182.5l-651 2l-246 -379h54l-15 -67h-225zM473 498l608 -4 q-10 236 -10 469t2 469zM1059 1790l8 97l69 8l-10 -94zM1169 1794l23 103h69l-22 -103h-70z" />
<glyph unicode="&#xc5;" d="M-2 -16l12 67h103l245 379l-106 2l14 66h135l652 1018l-115 4l16 67l271 -8l-13 -66h-69q-4 -256 -1 -509.5t7 -509.5h119l-15 -66h-104q2 -92 4 -182t6 -183h135l-14 -69h-328l15 69h125q-4 92 -6.5 182.5t-4.5 182.5l-651 2l-246 -379h54l-15 -67h-225zM473 498l608 -4 q-10 236 -10 469t2 469zM1061 1826q4 22 14 44q14 27 36 47.5t46 34.5q60 37 113 10q23 -14 28 -37.5t-1 -50.5t-21.5 -50t-37 -41.5t-47 -29t-50.5 -12.5q-61 0 -76 43q-8 20 -4 42zM1122 1816.5q5 -15.5 27 -15.5q45 4 76 45q14 20 14 35.5t-10 22.5t-26.5 4t-34.5 -15 q-12 -8 -22.5 -19.5t-18.5 -21.5q-10 -20 -5 -35.5z" />
<glyph unicode="&#xc6;" horiz-adv-x="1646" d="M2 -16l14 67h103l370 578q-59 -4 -101 -8.5t-50 -4.5l8 68q10 0 62.5 4t123.5 8l492 768l-162 -14l10 72q106 8 232.5 14t255.5 9t254 1t229 -8l31 84l63 -12q-27 -70 -49 -143.5t-41 -145.5l-69 6q10 35 21 71t24 72q-170 10 -342 11.5t-348 -8.5q-35 -186 -75 -370.5 t-87 -373.5q121 10 236.5 13t232.5 3l24 113h70l-55 -256h-70l16 76q-117 0 -233.5 -3t-237.5 -11q-35 -154 -74.5 -308.5t-80.5 -310.5q182 33 358 52.5t356 29.5l21 152l74 4l-56 -316h-65l14 90q-205 -10 -405.5 -34.5t-411.5 -65.5l2 70q14 2 27.5 3t27.5 5h-12 q43 156 83 312.5t75 309.5l-322 -22l-375 -584h54l-15 -67h-227zM608 702q51 4 100.5 8.5t90.5 7.5t69.5 6t34.5 3q39 164 75 329t71 330z" />
<glyph unicode="&#xc7;" horiz-adv-x="1116" d="M129 484.5q-2 156.5 45 322.5q27 94 78 199.5t121.5 204t160 180.5t191.5 131q145 70 264 38t178 -161q29 -63 35 -137t0 -160l64 6l-11 -68l-254 -18l13 70l116 4q10 68 7.5 138.5t-31.5 129.5q-20 45 -57 78t-85.5 47t-104.5 9t-116 -34q-96 -45 -173.5 -118.5 t-140 -162.5t-110 -187.5t-79.5 -192.5q-18 -70 -30.5 -143.5t-12.5 -145.5t14 -140.5t49 -125.5q31 -57 83 -91t115.5 -43.5t135.5 8t143 64.5q74 49 133.5 117t108.5 148l-115 49l39 63l244 -108l-39 -64l-72 33q-57 -82 -117.5 -154.5t-152.5 -138.5q-102 -68 -219 -86 q-35 -6 -70 -6l-20 -70q39 8 73.5 5.5t57.5 -25.5q39 -35 26.5 -95.5t-71.5 -101.5q-29 -20 -60.5 -34.5t-60.5 -24.5l-12 61q25 10 51 21.5t49 27.5q18 12 28.5 31t10.5 35t-11.5 28.5t-35.5 14.5q-31 0 -66 -29l-63 4l39 158q-72 14 -127.5 55t-87.5 107 q-66 121 -68 277.5z" />
<glyph unicode="&#xc8;" horiz-adv-x="976" d="M14 -43l2 70q14 2 27.5 3t28.5 5h-13q43 156 83 312.5t75 309.5q-25 -2 -50.5 -3t-49.5 -5l8 68q27 2 54.5 4t53.5 6q45 184 85 369.5t79 371.5q-23 -2 -42 -4t-42 -4l11 72q217 16 428 18t422 -12q8 23 15 42t15 42l64 -12q-27 -70 -49.5 -143.5t-40.5 -145.5l-70 6 q10 35 21.5 71t23.5 72q-170 10 -342 11.5t-348 -8.5q-35 -186 -75 -370.5t-87 -373.5q121 10 236.5 13t232.5 3l25 113h69l-55 -256h-70l17 76q-117 0 -233.5 -3t-237.5 -11q-35 -154 -75 -308.5t-81 -310.5q182 33 358.5 52.5t356.5 29.5l20 152l74 4l-55 -316h-66l14 90 q-205 -10 -405.5 -34.5t-411.5 -65.5zM773 1956l57 47l164 -223l-58 -45z" />
<glyph unicode="&#xc9;" horiz-adv-x="976" d="M14 -43l2 70q14 2 27.5 3t28.5 5h-13q43 156 83 312.5t75 309.5q-25 -2 -50.5 -3t-49.5 -5l8 68q27 2 54.5 4t53.5 6q45 184 85 369.5t79 371.5q-23 -2 -42 -4t-42 -4l11 72q217 16 428 18t422 -12q8 23 15 42t15 42l64 -12q-27 -70 -49.5 -143.5t-40.5 -145.5l-70 6 q10 35 21.5 71t23.5 72q-170 10 -342 11.5t-348 -8.5q-35 -186 -75 -370.5t-87 -373.5q121 10 236.5 13t232.5 3l25 113h69l-55 -256h-70l17 76q-117 0 -233.5 -3t-237.5 -11q-35 -154 -75 -308.5t-81 -310.5q182 33 358.5 52.5t356.5 29.5l20 152l74 4l-55 -316h-66l14 90 q-205 -10 -405.5 -34.5t-411.5 -65.5zM736 1780l258 223l37 -47l-258 -221z" />
<glyph unicode="&#xca;" horiz-adv-x="976" d="M14 -43l2 70q14 2 27.5 3t28.5 5h-13q43 156 83 312.5t75 309.5q-25 -2 -50.5 -3t-49.5 -5l8 68q27 2 54.5 4t53.5 6q45 184 85 369.5t79 371.5q-23 -2 -42 -4t-42 -4l11 72q217 16 428 18t422 -12q8 23 15 42t15 42l64 -12q-27 -70 -49.5 -143.5t-40.5 -145.5l-70 6 q10 35 21.5 71t23.5 72q-170 10 -342 11.5t-348 -8.5q-35 -186 -75 -370.5t-87 -373.5q121 10 236.5 13t232.5 3l25 113h69l-55 -256h-70l17 76q-117 0 -233.5 -3t-237.5 -11q-35 -154 -75 -308.5t-81 -310.5q182 33 358.5 52.5t356.5 29.5l20 152l74 4l-55 -316h-66l14 90 q-205 -10 -405.5 -34.5t-411.5 -65.5zM715 1782q35 39 77 83t83 87q4 2 27 6q8 2 22 2l88 -184l-61 -39l-70 137q-31 -29 -59.5 -61.5t-57.5 -65.5z" />
<glyph unicode="&#xcb;" horiz-adv-x="976" d="M14 -43l2 70q14 2 27.5 3t28.5 5h-13q43 156 83 312.5t75 309.5q-25 -2 -50.5 -3t-49.5 -5l8 68q27 2 54.5 4t53.5 6q45 184 85 369.5t79 371.5q-23 -2 -42 -4t-42 -4l11 72q217 16 428 18t422 -12q8 23 15 42t15 42l64 -12q-27 -70 -49.5 -143.5t-40.5 -145.5l-70 6 q10 35 21.5 71t23.5 72q-170 10 -342 11.5t-348 -8.5q-35 -186 -75 -370.5t-87 -373.5q121 10 236.5 13t232.5 3l25 113h69l-55 -256h-70l17 76q-117 0 -233.5 -3t-237.5 -11q-35 -154 -75 -308.5t-81 -310.5q182 33 358.5 52.5t356.5 29.5l20 152l74 4l-55 -316h-66l14 90 q-205 -10 -405.5 -34.5t-411.5 -65.5zM783 1790l8 97l69 8l-10 -94zM893 1794l23 103h69l-22 -103h-70z" />
<glyph unicode="&#xcc;" horiz-adv-x="589" d="M-14 -18l8 67q63 8 124.5 12.5t127.5 8.5q59 365 135 722t168 719l-223 -10l10 70l553 31l-15 -70l-258 -14q-94 -362 -168.5 -722t-134.5 -724q59 4 115.5 5t116.5 1l-17 -72q-135 2 -271 -5t-271 -19zM580 1956l57 47l164 -223l-58 -45z" />
<glyph unicode="&#xcd;" horiz-adv-x="589" d="M-14 -18l8 67q63 8 124.5 12.5t127.5 8.5q59 365 135 722t168 719l-223 -10l10 70l553 31l-15 -70l-258 -14q-94 -362 -168.5 -722t-134.5 -724q59 4 115.5 5t116.5 1l-17 -72q-135 2 -271 -5t-271 -19zM543 1780l258 223l37 -47l-258 -221z" />
<glyph unicode="&#xce;" horiz-adv-x="589" d="M-14 -18l8 67q63 8 124.5 12.5t127.5 8.5q59 365 135 722t168 719l-223 -10l10 70l553 31l-15 -70l-258 -14q-94 -362 -168.5 -722t-134.5 -724q59 4 115.5 5t116.5 1l-17 -72q-135 2 -271 -5t-271 -19zM498 1782q35 39 77 83t83 87q4 2 27 6q8 2 22 2l88 -184l-61 -39 l-70 137q-31 -29 -59.5 -61.5t-57.5 -65.5z" />
<glyph unicode="&#xcf;" horiz-adv-x="589" d="M-14 -18l8 67q63 8 124.5 12.5t127.5 8.5q59 365 135 722t168 719l-223 -10l10 70l553 31l-15 -70l-258 -14q-94 -362 -168.5 -722t-134.5 -724q59 4 115.5 5t116.5 1l-17 -72q-135 2 -271 -5t-271 -19zM564 1790l8 97l69 8l-10 -94zM674 1794l23 103h69l-22 -103h-70z " />
<glyph unicode="&#xd0;" horiz-adv-x="1218" d="M23 80l40 61q29 -14 59 -26.5t60 -20.5q23 158 48.5 313.5t54.5 315.5h-127l12 65h125q31 174 64.5 345.5t68.5 345.5l-117 -19l4 70l392 57l-5 -65l-202 -31q-6 -35 -13.5 -71t-13.5 -70q100 72 219 118q111 43 225.5 48.5t210 -28.5t159 -109.5t73.5 -198.5 q16 -186 -51.5 -380t-202.5 -376q-66 -86 -147.5 -158.5t-176.5 -126.5q-92 -53 -192.5 -88t-200.5 -43t-193.5 9.5t-172.5 62.5zM250 82q76 -10 149 -4q186 16 357.5 116.5t300.5 264.5q61 76 108 162t78 176t44 182t5 178q-12 100 -59 167t-122 99.5t-172 29.5t-206 -42 q-145 -53 -276 -147q-25 -119 -47.5 -238t-44.5 -238h213l-13 -65h-211q-59 -326 -104 -641z" />
<glyph unicode="&#xd1;" horiz-adv-x="1140" d="M18 0l2 70q31 6 61 8t58 4q94 326 171 647.5t141 648.5l-154 -37l-4 66l387 88l4 -63l-133 -29q92 -287 180 -571.5t170 -577.5q35 307 106.5 611t178.5 610l-164 -5l12 68l340 8l-10 -63l-111 -6q-123 -350 -198.5 -698.5t-104.5 -698.5q39 4 78 7t78 5l-10 -67 q-90 -4 -181.5 -13.5t-181.5 -25.5l4 63q35 8 70 13.5t70 9.5q-86 313 -178.5 621t-194.5 616q-59 -307 -134 -614.5t-165 -612.5q16 -2 35.5 -2t35.5 -4l-22 -66q-55 8 -114.5 6t-121.5 -16zM750 1762q8 20 20.5 45.5t29.5 49t37.5 41t45.5 21.5q37 10 62.5 -17.5 t39.5 -78.5q8 -20 22.5 -25.5t27.5 -1.5q14 6 24 19.5t16.5 31t10.5 34t4 26.5l69 6q-4 -29 -14 -59.5t-26.5 -56t-41 -43t-57.5 -21.5q-70 -10 -98 51q-8 18 -18.5 43t-26.5 17q-23 -10 -39 -43t-25 -54z" />
<glyph unicode="&#xd2;" horiz-adv-x="1361" d="M149.5 494.5q-20.5 142.5 14.5 306.5q33 162 113.5 305t191.5 250.5t242 170t266 62.5t239.5 -62.5t171 -170t87 -250.5t-12.5 -305q-35 -164 -116.5 -306.5t-193.5 -250t-243 -169t-266 -61.5t-239.5 61.5t-169 169t-85 250zM218 521q18 -130 75 -227t150.5 -152.5 t213.5 -55.5q119 0 237 55.5t217 152.5t173 227t107 280q31 147 12 277t-76 227.5t-151 154t-213 56.5q-121 0 -238 -56.5t-216 -154t-172 -227.5t-104 -277q-33 -150 -15 -280zM965 1956l57 47l164 -223l-58 -45z" />
<glyph unicode="&#xd3;" horiz-adv-x="1361" d="M149.5 494.5q-20.5 142.5 14.5 306.5q33 162 113.5 305t191.5 250.5t242 170t266 62.5t239.5 -62.5t171 -170t87 -250.5t-12.5 -305q-35 -164 -116.5 -306.5t-193.5 -250t-243 -169t-266 -61.5t-239.5 61.5t-169 169t-85 250zM218 521q18 -130 75 -227t150.5 -152.5 t213.5 -55.5q119 0 237 55.5t217 152.5t173 227t107 280q31 147 12 277t-76 227.5t-151 154t-213 56.5q-121 0 -238 -56.5t-216 -154t-172 -227.5t-104 -277q-33 -150 -15 -280zM928 1780l258 223l37 -47l-258 -221z" />
<glyph unicode="&#xd4;" horiz-adv-x="1361" d="M149.5 494.5q-20.5 142.5 14.5 306.5q33 162 113.5 305t191.5 250.5t242 170t266 62.5t239.5 -62.5t171 -170t87 -250.5t-12.5 -305q-35 -164 -116.5 -306.5t-193.5 -250t-243 -169t-266 -61.5t-239.5 61.5t-169 169t-85 250zM218 521q18 -130 75 -227t150.5 -152.5 t213.5 -55.5q119 0 237 55.5t217 152.5t173 227t107 280q31 147 12 277t-76 227.5t-151 154t-213 56.5q-121 0 -238 -56.5t-216 -154t-172 -227.5t-104 -277q-33 -150 -15 -280zM907 1782q35 39 77 83t83 87q4 2 27 6q8 2 22 2l88 -184l-61 -39l-70 137q-31 -29 -59.5 -61.5 t-57.5 -65.5z" />
<glyph unicode="&#xd5;" horiz-adv-x="1361" d="M149.5 494.5q-20.5 142.5 14.5 306.5q33 162 113.5 305t191.5 250.5t242 170t266 62.5t239.5 -62.5t171 -170t87 -250.5t-12.5 -305q-35 -164 -116.5 -306.5t-193.5 -250t-243 -169t-266 -61.5t-239.5 61.5t-169 169t-85 250zM218 521q18 -130 75 -227t150.5 -152.5 t213.5 -55.5q119 0 237 55.5t217 152.5t173 227t107 280q31 147 12 277t-76 227.5t-151 154t-213 56.5q-121 0 -238 -56.5t-216 -154t-172 -227.5t-104 -277q-33 -150 -15 -280zM860 1762q8 20 20.5 45.5t29.5 49t37.5 41t45.5 21.5q37 10 62.5 -17.5t39.5 -78.5 q8 -20 22.5 -25.5t27.5 -1.5q14 6 24 19.5t16.5 31t10.5 34t4 26.5l69 6q-4 -29 -14 -59.5t-26.5 -56t-41 -43t-57.5 -21.5q-70 -10 -98 51q-8 18 -18.5 43t-26.5 17q-23 -10 -39 -43t-25 -54z" />
<glyph unicode="&#xd6;" horiz-adv-x="1361" d="M149.5 494.5q-20.5 142.5 14.5 306.5q33 162 113.5 305t191.5 250.5t242 170t266 62.5t239.5 -62.5t171 -170t87 -250.5t-12.5 -305q-35 -164 -116.5 -306.5t-193.5 -250t-243 -169t-266 -61.5t-239.5 61.5t-169 169t-85 250zM218 521q18 -130 75 -227t150.5 -152.5 t213.5 -55.5q119 0 237 55.5t217 152.5t173 227t107 280q31 147 12 277t-76 227.5t-151 154t-213 56.5q-121 0 -238 -56.5t-216 -154t-172 -227.5t-104 -277q-33 -150 -15 -280zM975 1790l8 97l69 8l-10 -94zM1085 1794l23 103h69l-22 -103h-70z" />
<glyph unicode="&#xd7;" horiz-adv-x="376" d="M139 561q29 33 58.5 60.5t60.5 56.5l-78 72l60 55l71 -78q53 53 109 96l35 -47q-27 -23 -51.5 -44t-49.5 -44l92 -92l-51 -51l-94 94q-29 -29 -56.5 -57.5t-54.5 -57.5z" />
<glyph unicode="&#xd8;" horiz-adv-x="1361" d="M142 584.5q-3 103.5 22 216.5q33 162 113.5 305t191.5 250.5t242 170t266 62.5q51 0 98 -10t90 -27l76 129l59 -22q-43 -68 -79 -135q76 -45 133 -119t90 -168t38 -204.5t-20 -231.5q-35 -164 -116.5 -306.5t-193.5 -250t-243 -169t-266 -61.5t-237 60q-23 -41 -44.5 -81 t-44.5 -81l-57 18q23 45 47.5 89t48.5 90q-66 49 -112.5 121.5t-72.5 161.5t-29 192.5zM212.5 607.5q2.5 -93.5 24 -173.5t61.5 -146.5t95 -111.5q178 332 359.5 656.5t369.5 650.5q-75 33 -159 33q-121 0 -238 -56.5t-216 -154t-172 -227.5t-104 -277 q-23 -100 -20.5 -193.5zM442 143q47 -29 100.5 -43t114.5 -14q119 0 237 55.5t217 152.5t173 227t107 280q23 111 18.5 211t-33 185t-79 151.5t-117.5 107.5q-193 -330 -375 -655.5t-363 -657.5z" />
<glyph unicode="&#xd9;" horiz-adv-x="1323" d="M204.5 334q-18.5 127 0.5 274q10 94 32.5 191.5t51 196t60.5 196.5t63 197l-115 8l18 67l359 -20l-17 -66l-180 8q-25 -86 -55.5 -181t-59 -193.5t-52 -198.5t-36.5 -199q-6 -61 -9 -122.5t5.5 -121t27.5 -114.5t56 -100q51 -66 128 -96.5t169 -26.5q117 2 217.5 54 t181 136t143 188.5t101.5 213.5t60.5 221t33 226t15.5 227.5t8 224.5l-141 8l20 70l266 -17l-18 -67l-59 4q-4 -102 -7.5 -215t-14.5 -229.5t-33.5 -235.5t-63.5 -234q-43 -119 -110.5 -232.5t-160 -203.5t-207 -146.5t-251.5 -58.5q-100 -2 -188.5 33t-147.5 111 q-72 96 -90.5 223zM947 1956l57 47l164 -223l-58 -45z" />
<glyph unicode="&#xda;" horiz-adv-x="1323" d="M204.5 334q-18.5 127 0.5 274q10 94 32.5 191.5t51 196t60.5 196.5t63 197l-115 8l18 67l359 -20l-17 -66l-180 8q-25 -86 -55.5 -181t-59 -193.5t-52 -198.5t-36.5 -199q-6 -61 -9 -122.5t5.5 -121t27.5 -114.5t56 -100q51 -66 128 -96.5t169 -26.5q117 2 217.5 54 t181 136t143 188.5t101.5 213.5t60.5 221t33 226t15.5 227.5t8 224.5l-141 8l20 70l266 -17l-18 -67l-59 4q-4 -102 -7.5 -215t-14.5 -229.5t-33.5 -235.5t-63.5 -234q-43 -119 -110.5 -232.5t-160 -203.5t-207 -146.5t-251.5 -58.5q-100 -2 -188.5 33t-147.5 111 q-72 96 -90.5 223zM910 1780l258 223l37 -47l-258 -221z" />
<glyph unicode="&#xdb;" horiz-adv-x="1323" d="M204.5 334q-18.5 127 0.5 274q10 94 32.5 191.5t51 196t60.5 196.5t63 197l-115 8l18 67l359 -20l-17 -66l-180 8q-25 -86 -55.5 -181t-59 -193.5t-52 -198.5t-36.5 -199q-6 -61 -9 -122.5t5.5 -121t27.5 -114.5t56 -100q51 -66 128 -96.5t169 -26.5q117 2 217.5 54 t181 136t143 188.5t101.5 213.5t60.5 221t33 226t15.5 227.5t8 224.5l-141 8l20 70l266 -17l-18 -67l-59 4q-4 -102 -7.5 -215t-14.5 -229.5t-33.5 -235.5t-63.5 -234q-43 -119 -110.5 -232.5t-160 -203.5t-207 -146.5t-251.5 -58.5q-100 -2 -188.5 33t-147.5 111 q-72 96 -90.5 223zM889 1782q35 39 77 83t83 87q4 2 27 6q8 2 22 2l88 -184l-61 -39l-70 137q-31 -29 -59.5 -61.5t-57.5 -65.5z" />
<glyph unicode="&#xdc;" horiz-adv-x="1323" d="M204.5 334q-18.5 127 0.5 274q10 94 32.5 191.5t51 196t60.5 196.5t63 197l-115 8l18 67l359 -20l-17 -66l-180 8q-25 -86 -55.5 -181t-59 -193.5t-52 -198.5t-36.5 -199q-6 -61 -9 -122.5t5.5 -121t27.5 -114.5t56 -100q51 -66 128 -96.5t169 -26.5q117 2 217.5 54 t181 136t143 188.5t101.5 213.5t60.5 221t33 226t15.5 227.5t8 224.5l-141 8l20 70l266 -17l-18 -67l-59 4q-4 -102 -7.5 -215t-14.5 -229.5t-33.5 -235.5t-63.5 -234q-43 -119 -110.5 -232.5t-160 -203.5t-207 -146.5t-251.5 -58.5q-100 -2 -188.5 33t-147.5 111 q-72 96 -90.5 223zM957 1790l8 97l69 8l-10 -94zM1067 1794l23 103h69l-22 -103h-70z" />
<glyph unicode="&#xdd;" horiz-adv-x="1736" d="M326 1520q63 39 127.5 71.5t130.5 55.5l14 -60q-23 -8 -42 -16t-40 -19q117 -205 217.5 -412.5t198.5 -424.5q215 213 433 423t443 416l-73 72l59 49l215 -225l-55 -51l-105 110q-459 -418 -897 -860l-123 -577h117l-14 -72h-266l14 72h82l121 569q-100 227 -207 447.5 t-227 431.5q-23 -10 -48.5 -26.5t-50.5 -31.5zM1076 1780l258 223l37 -47l-258 -221z" />
<glyph unicode="&#xde;" horiz-adv-x="776" d="M16 8l2 66q59 10 111 12q154 684 266 1374l-78 -2l15 68l217 4l-12 -64l-74 -2q-14 -88 -28.5 -175t-31.5 -173q16 4 33 5t33 3q111 10 198 -28.5t138 -104.5q41 -55 57.5 -121.5t7 -137t-46.5 -140.5t-102 -129q-51 -45 -111.5 -78t-130.5 -47q-63 -14 -120.5 -10 t-104.5 20q-14 -66 -28.5 -130t-28.5 -130h45t45 -2l-19 -70q-59 4 -124.5 2t-127.5 -10zM266 410q43 -20 95.5 -26.5t111.5 7.5q61 14 114.5 43t96.5 70q49 49 79 107.5t39 119t-4.5 118.5t-47.5 105q-45 57 -116 90t-169 25l-36 -4t-36 -6q-29 -164 -60.5 -326t-66.5 -323 z" />
<glyph unicode="&#xdf;" horiz-adv-x="741" d="M2 -4l18 67h101q6 121 24.5 271.5t52 305.5t84 304.5t117.5 269.5q31 55 77 111.5t102.5 100.5t120.5 67.5t130 15.5q59 -8 103.5 -48t44.5 -99t-38 -123.5t-85 -124.5q-92 -111 -194.5 -213t-225.5 -213q68 20 131.5 14t109.5 -36.5t67.5 -83t5.5 -121.5 q-23 -94 -84.5 -159.5t-137 -96.5t-153.5 -24t-133 59l49 55q43 -47 104.5 -52t120.5 20.5t105.5 77.5t60.5 124q14 76 -20.5 114.5t-93 50t-129 0t-128.5 -37.5l-35 53q145 106 273.5 230t249.5 266q23 27 44 55.5t37.5 58t24.5 57t4 52.5q-6 31 -28.5 50.5t-57.5 25.5 q-53 12 -105 -6.5t-100.5 -55.5t-90.5 -88t-72 -106q-61 -115 -108.5 -256.5t-79.5 -290t-51 -296.5t-28 -278q23 0 49.5 2.5t51.5 4.5l-6 -66q-72 -10 -140.5 -11t-138.5 3z" />
<glyph unicode="&#xe0;" horiz-adv-x="927" d="M112.5 352q-14.5 76 1 164t50.5 160q53 117 138 207t210 149q119 47 226.5 25.5t170.5 -119.5q4 23 9.5 45.5t9.5 46.5l-70 4l21 70l192 -17l-24 -67l-52 4q-43 -197 -92 -392.5t-100 -391.5q18 0 40.5 1t45.5 3l-8 -68q-59 -6 -117.5 -7t-118.5 3l17 68q20 -2 38.5 -2 h34.5q23 78 41.5 157.5t40.5 157.5q-37 -59 -91 -119.5t-118.5 -112t-137.5 -86t-146 -42.5q-96 -10 -146.5 36.5t-65 122.5zM174 404.5q6 -64.5 43 -107.5t119 -35t162 58.5t148.5 121t124.5 153.5t91 155q4 8 4 18q12 70 -14.5 120t-76.5 77.5t-116.5 29.5t-132.5 -24 q-96 -37 -177 -120t-128 -192q-23 -49 -38 -119.5t-9 -135zM662 1546l57 47l164 -223l-58 -45z" />
<glyph unicode="&#xe1;" horiz-adv-x="927" d="M112.5 352q-14.5 76 1 164t50.5 160q53 117 138 207t210 149q119 47 226.5 25.5t170.5 -119.5q4 23 9.5 45.5t9.5 46.5l-70 4l21 70l192 -17l-24 -67l-52 4q-43 -197 -92 -392.5t-100 -391.5q18 0 40.5 1t45.5 3l-8 -68q-59 -6 -117.5 -7t-118.5 3l17 68q20 -2 38.5 -2 h34.5q23 78 41.5 157.5t40.5 157.5q-37 -59 -91 -119.5t-118.5 -112t-137.5 -86t-146 -42.5q-96 -10 -146.5 36.5t-65 122.5zM174 404.5q6 -64.5 43 -107.5t119 -35t162 58.5t148.5 121t124.5 153.5t91 155q4 8 4 18q12 70 -14.5 120t-76.5 77.5t-116.5 29.5t-132.5 -24 q-96 -37 -177 -120t-128 -192q-23 -49 -38 -119.5t-9 -135zM625 1370l258 223l37 -47l-258 -221z" />
<glyph unicode="&#xe2;" horiz-adv-x="927" d="M112.5 352q-14.5 76 1 164t50.5 160q53 117 138 207t210 149q119 47 226.5 25.5t170.5 -119.5q4 23 9.5 45.5t9.5 46.5l-70 4l21 70l192 -17l-24 -67l-52 4q-43 -197 -92 -392.5t-100 -391.5q18 0 40.5 1t45.5 3l-8 -68q-59 -6 -117.5 -7t-118.5 3l17 68q20 -2 38.5 -2 h34.5q23 78 41.5 157.5t40.5 157.5q-37 -59 -91 -119.5t-118.5 -112t-137.5 -86t-146 -42.5q-96 -10 -146.5 36.5t-65 122.5zM174 404.5q6 -64.5 43 -107.5t119 -35t162 58.5t148.5 121t124.5 153.5t91 155q4 8 4 18q12 70 -14.5 120t-76.5 77.5t-116.5 29.5t-132.5 -24 q-96 -37 -177 -120t-128 -192q-23 -49 -38 -119.5t-9 -135zM604 1372q35 39 77 83t83 87q4 2 27 6q8 2 22 2l88 -184l-61 -39l-70 137q-31 -29 -59.5 -61.5t-57.5 -65.5z" />
<glyph unicode="&#xe3;" horiz-adv-x="927" d="M112.5 352q-14.5 76 1 164t50.5 160q53 117 138 207t210 149q119 47 226.5 25.5t170.5 -119.5q4 23 9.5 45.5t9.5 46.5l-70 4l21 70l192 -17l-24 -67l-52 4q-43 -197 -92 -392.5t-100 -391.5q18 0 40.5 1t45.5 3l-8 -68q-59 -6 -117.5 -7t-118.5 3l17 68q20 -2 38.5 -2 h34.5q23 78 41.5 157.5t40.5 157.5q-37 -59 -91 -119.5t-118.5 -112t-137.5 -86t-146 -42.5q-96 -10 -146.5 36.5t-65 122.5zM174 404.5q6 -64.5 43 -107.5t119 -35t162 58.5t148.5 121t124.5 153.5t91 155q4 8 4 18q12 70 -14.5 120t-76.5 77.5t-116.5 29.5t-132.5 -24 q-96 -37 -177 -120t-128 -192q-23 -49 -38 -119.5t-9 -135zM557 1352q8 20 20.5 45.5t29.5 49t37.5 41t45.5 21.5q37 10 62.5 -17.5t39.5 -78.5q8 -20 22.5 -25.5t27.5 -1.5q14 6 24 19.5t16.5 31t10.5 34t4 26.5l69 6q-4 -29 -14 -59.5t-26.5 -56t-41 -43t-57.5 -21.5 q-70 -10 -98 51q-8 18 -18.5 43t-26.5 17q-23 -10 -39 -43t-25 -54z" />
<glyph unicode="&#xe4;" horiz-adv-x="927" d="M112.5 352q-14.5 76 1 164t50.5 160q53 117 138 207t210 149q119 47 226.5 25.5t170.5 -119.5q4 23 9.5 45.5t9.5 46.5l-70 4l21 70l192 -17l-24 -67l-52 4q-43 -197 -92 -392.5t-100 -391.5q18 0 40.5 1t45.5 3l-8 -68q-59 -6 -117.5 -7t-118.5 3l17 68q20 -2 38.5 -2 h34.5q23 78 41.5 157.5t40.5 157.5q-37 -59 -91 -119.5t-118.5 -112t-137.5 -86t-146 -42.5q-96 -10 -146.5 36.5t-65 122.5zM174 404.5q6 -64.5 43 -107.5t119 -35t162 58.5t148.5 121t124.5 153.5t91 155q4 8 4 18q12 70 -14.5 120t-76.5 77.5t-116.5 29.5t-132.5 -24 q-96 -37 -177 -120t-128 -192q-23 -49 -38 -119.5t-9 -135zM672 1380l8 97l69 8l-10 -94zM782 1384l23 103h69l-22 -103h-70z" />
<glyph unicode="&#xe5;" horiz-adv-x="927" d="M112.5 352q-14.5 76 1 164t50.5 160q53 117 138 207t210 149q119 47 226.5 25.5t170.5 -119.5q4 23 9.5 45.5t9.5 46.5l-70 4l21 70l192 -17l-24 -67l-52 4q-43 -197 -92 -392.5t-100 -391.5q18 0 40.5 1t45.5 3l-8 -68q-59 -6 -117.5 -7t-118.5 3l17 68q20 -2 38.5 -2 h34.5q23 78 41.5 157.5t40.5 157.5q-37 -59 -91 -119.5t-118.5 -112t-137.5 -86t-146 -42.5q-96 -10 -146.5 36.5t-65 122.5zM174 404.5q6 -64.5 43 -107.5t119 -35t162 58.5t148.5 121t124.5 153.5t91 155q4 8 4 18q12 70 -14.5 120t-76.5 77.5t-116.5 29.5t-132.5 -24 q-96 -37 -177 -120t-128 -192q-23 -49 -38 -119.5t-9 -135zM651 1416q4 22 14 44q14 27 36 47.5t46 34.5q60 37 113 10q23 -14 28 -37.5t-1 -50.5t-21.5 -50t-37 -41.5t-47 -29t-50.5 -12.5q-61 0 -76 43q-8 20 -4 42zM712 1406.5q5 -15.5 27 -15.5q45 4 76 45 q14 20 14 35.5t-10 22.5t-26.5 4t-34.5 -15q-12 -8 -22.5 -19.5t-18.5 -21.5q-10 -20 -5 -35.5z" />
<glyph unicode="&#xe6;" horiz-adv-x="1472" d="M104.5 352q-14.5 76 1 164t50.5 160q53 117 138 207t210 149q119 47 226.5 25.5t170.5 -119.5l19 92l-70 4l20 70l193 -17l-12 -32q55 49 118.5 77.5t135.5 30.5q63 2 107 -22.5t71.5 -62.5t41 -81t17.5 -77q4 -25 5 -52.5t-7 -64.5q-8 -35 -26.5 -56.5t-51.5 -23.5 q-131 -4 -261 -3t-275 3q-4 -4 -5 -12.5t-3 -14.5q-18 -72 -24.5 -146.5t17.5 -143.5q23 -66 72 -101t111 -33q49 2 93 23.5t83 55.5t71.5 77t57.5 86l59 -22q-29 -51 -69.5 -101.5t-90 -90.5t-104.5 -65.5t-113 -25.5q-100 -2 -160.5 53t-82.5 139l-43 -161q18 0 40.5 1 t45.5 3l-9 -68q-59 -6 -117.5 -7t-117.5 3l16 68q20 -2 39 -2h35q23 78 41 157.5t41 157.5q-37 -59 -91 -119.5t-118.5 -112t-137.5 -86t-147 -42.5q-96 -10 -146 36.5t-64.5 122.5zM166 404.5q6 -64.5 43 -107.5t119 -35t161.5 58.5t148.5 121t125 153.5t91 155l4 18 q12 70 -14.5 120t-76.5 77.5t-116.5 29.5t-132.5 -24q-96 -37 -177 -120t-128 -192q-23 -49 -38 -119.5t-9 -135zM948 791q61 0 132 -1.5t139.5 -1.5h133h115.5q10 51 7.5 106.5t-23.5 100.5q-23 49 -63.5 75t-91 28t-105.5 -20.5t-105 -71.5q-88 -82 -139 -215zM975 973 q10 12 21.5 24.5t21.5 24.5l-31 2z" />
<glyph unicode="&#xe7;" horiz-adv-x="833" d="M125 503q-6 81 16.5 163t70.5 159.5t116 141.5q84 78 186 122t213 33q66 -6 123 -30.5t100 -69.5l-53 -53q-37 37 -85 60.5t-107 29.5q-94 8 -180.5 -31t-157.5 -104q-59 -55 -99.5 -123t-59 -137.5t-15 -137t31.5 -125.5q25 -47 65 -80.5t95 -50.5q55 -16 114.5 -7 t116 36t104.5 68t83 90l57 -31q-90 -117 -210 -180.5t-242 -48.5l-25 -86q39 8 73.5 5t57.5 -26q37 -35 24.5 -95.5t-71.5 -100.5q-27 -20 -59.5 -35t-61.5 -25l-10 62q25 10 50.5 21t49.5 28q18 12 27.5 30.5t9.5 35t-10 28.5t-35 14q-35 0 -66 -28l-65 4l45 180 q-59 18 -101 56t-71 87q-39 70 -45 151z" />
<glyph unicode="&#xe8;" horiz-adv-x="768" d="M119 520q2 133 55 275q25 70 67 135t97 117.5t121.5 84t140.5 31.5q63 2 107.5 -22.5t72 -62.5t41 -80.5t17.5 -77.5q4 -25 5 -52.5t-7 -64.5q-8 -35 -26.5 -56.5t-51.5 -23.5q-131 -4 -261 -3t-276 3q-4 -4 -5 -12.5t-3 -14.5q-18 -72 -24.5 -146.5t18.5 -143.5 q23 -66 72 -101t110 -33q49 2 93 23.5t83 55.5t72 77t57 86l60 -22q-29 -51 -70 -101.5t-90 -90.5t-104.5 -65.5t-112.5 -25.5q-66 0 -116 25.5t-82 68.5t-47 99.5t-13 117.5zM244 791q61 0 131.5 -1.5t139.5 -1.5h133.5h115.5q10 51 7 106.5t-23 100.5q-23 49 -64 75 t-91 28t-105.5 -20.5t-104.5 -71.5q-88 -82 -139 -215zM582 1546l57 47l164 -223l-58 -45z" />
<glyph unicode="&#xe9;" horiz-adv-x="768" d="M119 520q2 133 55 275q25 70 67 135t97 117.5t121.5 84t140.5 31.5q63 2 107.5 -22.5t72 -62.5t41 -80.5t17.5 -77.5q4 -25 5 -52.5t-7 -64.5q-8 -35 -26.5 -56.5t-51.5 -23.5q-131 -4 -261 -3t-276 3q-4 -4 -5 -12.5t-3 -14.5q-18 -72 -24.5 -146.5t18.5 -143.5 q23 -66 72 -101t110 -33q49 2 93 23.5t83 55.5t72 77t57 86l60 -22q-29 -51 -70 -101.5t-90 -90.5t-104.5 -65.5t-112.5 -25.5q-66 0 -116 25.5t-82 68.5t-47 99.5t-13 117.5zM244 791q61 0 131.5 -1.5t139.5 -1.5h133.5h115.5q10 51 7 106.5t-23 100.5q-23 49 -64 75 t-91 28t-105.5 -20.5t-104.5 -71.5q-88 -82 -139 -215zM545 1370l258 223l37 -47l-258 -221z" />
<glyph unicode="&#xea;" horiz-adv-x="768" d="M119 520q2 133 55 275q25 70 67 135t97 117.5t121.5 84t140.5 31.5q63 2 107.5 -22.5t72 -62.5t41 -80.5t17.5 -77.5q4 -25 5 -52.5t-7 -64.5q-8 -35 -26.5 -56.5t-51.5 -23.5q-131 -4 -261 -3t-276 3q-4 -4 -5 -12.5t-3 -14.5q-18 -72 -24.5 -146.5t18.5 -143.5 q23 -66 72 -101t110 -33q49 2 93 23.5t83 55.5t72 77t57 86l60 -22q-29 -51 -70 -101.5t-90 -90.5t-104.5 -65.5t-112.5 -25.5q-66 0 -116 25.5t-82 68.5t-47 99.5t-13 117.5zM244 791q61 0 131.5 -1.5t139.5 -1.5h133.5h115.5q10 51 7 106.5t-23 100.5q-23 49 -64 75 t-91 28t-105.5 -20.5t-104.5 -71.5q-88 -82 -139 -215zM524 1372q35 39 77 83t83 87q4 2 27 6q8 2 22 2l88 -184l-61 -39l-70 137q-31 -29 -59.5 -61.5t-57.5 -65.5z" />
<glyph unicode="&#xeb;" horiz-adv-x="768" d="M119 520q2 133 55 275q25 70 67 135t97 117.5t121.5 84t140.5 31.5q63 2 107.5 -22.5t72 -62.5t41 -80.5t17.5 -77.5q4 -25 5 -52.5t-7 -64.5q-8 -35 -26.5 -56.5t-51.5 -23.5q-131 -4 -261 -3t-276 3q-4 -4 -5 -12.5t-3 -14.5q-18 -72 -24.5 -146.5t18.5 -143.5 q23 -66 72 -101t110 -33q49 2 93 23.5t83 55.5t72 77t57 86l60 -22q-29 -51 -70 -101.5t-90 -90.5t-104.5 -65.5t-112.5 -25.5q-66 0 -116 25.5t-82 68.5t-47 99.5t-13 117.5zM244 791q61 0 131.5 -1.5t139.5 -1.5h133.5h115.5q10 51 7 106.5t-23 100.5q-23 49 -64 75 t-91 28t-105.5 -20.5t-104.5 -71.5q-88 -82 -139 -215zM592 1380l8 97l69 8l-10 -94zM702 1384l23 103h69l-22 -103h-70z" />
<glyph unicode="&#xec;" horiz-adv-x="344" d="M47 205l12 67l97 2l155 678l-86 6l21 66q23 -2 46 -3t46 -1h2h-2q35 -2 70.5 -2h76.5l-14 -66q-49 -4 -92 0l-156 -678l113 5l-10 -68zM354 1546l58 47l163 -223l-57 -45z" />
<glyph unicode="&#xed;" horiz-adv-x="344" d="M47 205l12 67l97 2l155 678l-86 6l21 66q23 -2 46 -3t46 -1h2h-2q35 -2 70.5 -2h76.5l-14 -66q-49 -4 -92 0l-156 -678l113 5l-10 -68zM291 1370l258 223l37 -47l-258 -221z" />
<glyph unicode="&#xee;" horiz-adv-x="344" d="M47 205l12 67l97 2l155 678l-86 6l21 66q23 -2 46 -3t46 -1h2h-2q35 -2 70.5 -2h76.5l-14 -66q-49 -4 -92 0l-156 -678l113 5l-10 -68zM295 1372q35 39 77 83t83 87q4 2 26 6q8 2 23 2l88 -184l-62 -39l-69 137q-31 -29 -59.5 -61.5t-57.5 -65.5z" />
<glyph unicode="&#xef;" horiz-adv-x="344" d="M47 205l12 67l97 2l155 678l-86 6l21 66q23 -2 46 -3t46 -1h2h-2q35 -2 70.5 -2h76.5l-14 -66q-49 -4 -92 0l-156 -678l113 5l-10 -68zM360 1380l9 97l69 8l-10 -94zM471 1384l23 103h69l-22 -103h-70z" />
<glyph unicode="&#xf0;" horiz-adv-x="774" d="M77 332.5q-3 66.5 29 144.5q39 94 117 173t176 120q61 25 123 30t121 -16q25 -8 51 -24q-14 59 -34.5 114.5t-49.5 114.5l-311 -28l8 67l266 23q-53 82 -123.5 149.5t-150.5 114.5l43 61q193 -119 313 -317l289 24l-8 -67l-248 -21q35 -66 58.5 -139.5t33.5 -157.5 q8 -90 -9 -186t-83 -188q-33 -49 -77 -87t-92 -64t-96 -39t-89 -13q-74 -4 -131.5 22.5t-90 74.5t-35.5 114.5zM149 355.5q-2 -52.5 19.5 -91.5t66 -59.5t107.5 -18.5q172 12 295 166q33 51 53.5 105.5t22.5 105.5t-20.5 93t-78.5 67q-102 25 -202 -14q-82 -31 -141.5 -96.5 t-94.5 -145.5q-25 -59 -27 -111.5z" />
<glyph unicode="&#xf1;" horiz-adv-x="1142" d="M53 201l6 67l47 2q82 346 189 695l-51 -2l10 63l262 21l-12 -68l-139 -10q-43 -135 -80 -271.5t-76 -273.5q55 76 132 170t169 174q78 68 162 109t158.5 48t133 -23t87.5 -103q20 -49 24 -119t-1 -144.5t-16 -148.5t-22 -135h78l-14 -68h-242l14 68h97q8 43 18 112.5 t15.5 145.5t2 144.5t-21.5 111.5q-23 55 -69 76.5t-106 14.5t-128 -43t-133 -95q-53 -47 -103.5 -103.5t-95.5 -115t-85 -115.5t-73 -106l140 10l-2 -64zM666 1352q8 20 20.5 45.5t29.5 49t37.5 41t45.5 21.5q37 10 62.5 -17.5t39.5 -78.5q8 -20 22.5 -25.5t27.5 -1.5 q14 6 24 19.5t16.5 31t10.5 34t4 26.5l69 6q-4 -29 -14 -59.5t-26.5 -56t-41 -43t-57.5 -21.5q-70 -10 -98 51q-8 18 -18.5 43t-26.5 17q-23 -10 -39 -43t-25 -54z" />
<glyph unicode="&#xf2;" horiz-adv-x="815" d="M133 498.5q-14 68.5 2 148.5q16 78 59.5 146.5t104.5 120t135 81t150 29.5t136 -29.5t100 -81t54.5 -120t-2.5 -146.5q-16 -80 -60 -148.5t-105.5 -120.5t-135 -82t-149.5 -30t-136.5 30t-99.5 82t-53 120.5zM200 524q11 -57 42.5 -99t82 -66.5t111.5 -24.5t120.5 24.5 t110 66.5t86 99.5t50.5 122.5q14 63 2 120.5t-44 100.5t-81.5 68t-110.5 25t-121.5 -25t-109.5 -68t-85 -100t-50 -121q-14 -66 -3 -123zM607 1546l57 47l164 -223l-58 -45z" />
<glyph unicode="&#xf3;" horiz-adv-x="815" d="M133 498.5q-14 68.5 2 148.5q16 78 59.5 146.5t104.5 120t135 81t150 29.5t136 -29.5t100 -81t54.5 -120t-2.5 -146.5q-16 -80 -60 -148.5t-105.5 -120.5t-135 -82t-149.5 -30t-136.5 30t-99.5 82t-53 120.5zM200 524q11 -57 42.5 -99t82 -66.5t111.5 -24.5t120.5 24.5 t110 66.5t86 99.5t50.5 122.5q14 63 2 120.5t-44 100.5t-81.5 68t-110.5 25t-121.5 -25t-109.5 -68t-85 -100t-50 -121q-14 -66 -3 -123zM570 1370l258 223l37 -47l-258 -221z" />
<glyph unicode="&#xf4;" horiz-adv-x="815" d="M133 498.5q-14 68.5 2 148.5q16 78 59.5 146.5t104.5 120t135 81t150 29.5t136 -29.5t100 -81t54.5 -120t-2.5 -146.5q-16 -80 -60 -148.5t-105.5 -120.5t-135 -82t-149.5 -30t-136.5 30t-99.5 82t-53 120.5zM200 524q11 -57 42.5 -99t82 -66.5t111.5 -24.5t120.5 24.5 t110 66.5t86 99.5t50.5 122.5q14 63 2 120.5t-44 100.5t-81.5 68t-110.5 25t-121.5 -25t-109.5 -68t-85 -100t-50 -121q-14 -66 -3 -123zM549 1372q35 39 77 83t83 87q4 2 27 6q8 2 22 2l88 -184l-61 -39l-70 137q-31 -29 -59.5 -61.5t-57.5 -65.5z" />
<glyph unicode="&#xf5;" horiz-adv-x="815" d="M133 498.5q-14 68.5 2 148.5q16 78 59.5 146.5t104.5 120t135 81t150 29.5t136 -29.5t100 -81t54.5 -120t-2.5 -146.5q-16 -80 -60 -148.5t-105.5 -120.5t-135 -82t-149.5 -30t-136.5 30t-99.5 82t-53 120.5zM200 524q11 -57 42.5 -99t82 -66.5t111.5 -24.5t120.5 24.5 t110 66.5t86 99.5t50.5 122.5q14 63 2 120.5t-44 100.5t-81.5 68t-110.5 25t-121.5 -25t-109.5 -68t-85 -100t-50 -121q-14 -66 -3 -123zM502 1352q8 20 20.5 45.5t29.5 49t37.5 41t45.5 21.5q37 10 62.5 -17.5t39.5 -78.5q8 -20 22.5 -25.5t27.5 -1.5q14 6 24 19.5t16.5 31 t10.5 34t4 26.5l69 6q-4 -29 -14 -59.5t-26.5 -56t-41 -43t-57.5 -21.5q-70 -10 -98 51q-8 18 -18.5 43t-26.5 17q-23 -10 -39 -43t-25 -54z" />
<glyph unicode="&#xf6;" horiz-adv-x="815" d="M133 498.5q-14 68.5 2 148.5q16 78 59.5 146.5t104.5 120t135 81t150 29.5t136 -29.5t100 -81t54.5 -120t-2.5 -146.5q-16 -80 -60 -148.5t-105.5 -120.5t-135 -82t-149.5 -30t-136.5 30t-99.5 82t-53 120.5zM200 524q11 -57 42.5 -99t82 -66.5t111.5 -24.5t120.5 24.5 t110 66.5t86 99.5t50.5 122.5q14 63 2 120.5t-44 100.5t-81.5 68t-110.5 25t-121.5 -25t-109.5 -68t-85 -100t-50 -121q-14 -66 -3 -123zM617 1380l8 97l69 8l-10 -94zM727 1384l23 103h69l-22 -103h-70z" />
<glyph unicode="&#xf7;" horiz-adv-x="483" d="M133 614l14 66h408l-14 -66h-408zM272 465l19 90h67l-18 -90h-68zM332 748l18 90h68l-19 -90h-67z" />
<glyph unicode="&#xf8;" horiz-adv-x="815" d="M135 647q16 78 59.5 146.5t104.5 120t135 81t150 29.5q20 0 38.5 -3t39.5 -7l63 112l74 2l-78 -135q90 -43 133 -136t18 -210q-16 -80 -60 -148.5t-105.5 -120.5t-135 -82t-149.5 -30q-27 0 -51.5 4t-46.5 11l-52 -97l-71 -2l65 123q-80 47 -117.5 137t-13.5 205z M203 647q-20 -92 7.5 -164.5t92.5 -111.5q156 291 326 583q-31 7 -60 7q-61 0 -121.5 -25t-109.5 -68t-85 -100t-50 -121zM358 344q18 -4 37 -7t41 -3q61 0 120.5 24.5t110 66.5t86.5 99t50 123q20 96 -13.5 172t-105.5 113q-84 -147 -164 -293.5t-162 -294.5z" />
<glyph unicode="&#xf9;" horiz-adv-x="1036" d="M139 649q18 104 61.5 200.5t106.5 184.5q-16 4 -29.5 6t-27.5 7l26 63q45 -10 90.5 -14t90.5 0l-11 -66h-71q-61 -88 -104.5 -183t-65.5 -194q-20 -111 6.5 -183.5t83.5 -110t135 -41t160 27.5t159.5 93.5t133.5 156.5q66 109 94.5 226.5t58.5 236.5q-31 0 -59.5 -2 t-56.5 -2l6 63q66 6 133 7t135 -3l-18 -63h-70q-59 -205 -106.5 -411t-88.5 -415h111l-14 -65l-271 -4l11 69h98q12 72 25.5 139.5l27.5 137.5q-70 -98 -158 -159.5t-178 -87t-174 -14.5t-145.5 59t-92 133t-12.5 208zM635 1546l57 47l164 -223l-58 -45z" />
<glyph unicode="&#xfa;" horiz-adv-x="1036" d="M139 649q18 104 61.5 200.5t106.5 184.5q-16 4 -29.5 6t-27.5 7l26 63q45 -10 90.5 -14t90.5 0l-11 -66h-71q-61 -88 -104.5 -183t-65.5 -194q-20 -111 6.5 -183.5t83.5 -110t135 -41t160 27.5t159.5 93.5t133.5 156.5q66 109 94.5 226.5t58.5 236.5q-31 0 -59.5 -2 t-56.5 -2l6 63q66 6 133 7t135 -3l-18 -63h-70q-59 -205 -106.5 -411t-88.5 -415h111l-14 -65l-271 -4l11 69h98q12 72 25.5 139.5l27.5 137.5q-70 -98 -158 -159.5t-178 -87t-174 -14.5t-145.5 59t-92 133t-12.5 208zM680 1370l258 223l37 -47l-258 -221z" />
<glyph unicode="&#xfb;" horiz-adv-x="1036" d="M139 649q18 104 61.5 200.5t106.5 184.5q-16 4 -29.5 6t-27.5 7l26 63q45 -10 90.5 -14t90.5 0l-11 -66h-71q-61 -88 -104.5 -183t-65.5 -194q-20 -111 6.5 -183.5t83.5 -110t135 -41t160 27.5t159.5 93.5t133.5 156.5q66 109 94.5 226.5t58.5 236.5q-31 0 -59.5 -2 t-56.5 -2l6 63q66 6 133 7t135 -3l-18 -63h-70q-59 -205 -106.5 -411t-88.5 -415h111l-14 -65l-271 -4l11 69h98q12 72 25.5 139.5l27.5 137.5q-70 -98 -158 -159.5t-178 -87t-174 -14.5t-145.5 59t-92 133t-12.5 208zM659 1372q35 39 77 83t83 87q4 2 27 6q8 2 22 2 l88 -184l-61 -39l-70 137q-31 -29 -59.5 -61.5t-57.5 -65.5z" />
<glyph unicode="&#xfc;" horiz-adv-x="1036" d="M139 649q18 104 61.5 200.5t106.5 184.5q-16 4 -29.5 6t-27.5 7l26 63q45 -10 90.5 -14t90.5 0l-11 -66h-71q-61 -88 -104.5 -183t-65.5 -194q-20 -111 6.5 -183.5t83.5 -110t135 -41t160 27.5t159.5 93.5t133.5 156.5q66 109 94.5 226.5t58.5 236.5q-31 0 -59.5 -2 t-56.5 -2l6 63q66 6 133 7t135 -3l-18 -63h-70q-59 -205 -106.5 -411t-88.5 -415h111l-14 -65l-271 -4l11 69h98q12 72 25.5 139.5l27.5 137.5q-70 -98 -158 -159.5t-178 -87t-174 -14.5t-145.5 59t-92 133t-12.5 208zM727 1380l8 97l69 8l-10 -94zM837 1384l23 103h69 l-22 -103h-70z" />
<glyph unicode="&#xfd;" horiz-adv-x="1153" d="M191 573.5q-1 83.5 16.5 174t49.5 180.5t67 172q-23 4 -46.5 6t-46.5 6l25 64q59 -10 126 -14.5t128 -6.5l-14 -65q-25 0 -50.5 1t-54.5 3q-31 -68 -61.5 -152t-50 -172t-20.5 -170t32 -143q39 -72 117.5 -94.5t189.5 20.5q111 45 200 125t159.5 179t125 208t99.5 211 h-97l15 65l215 3l-15 -66h-45q-14 -127 -35.5 -250t-54.5 -250q-16 -70 -44.5 -167t-67.5 -203.5t-91.5 -210t-116 -187.5t-141 -137t-167.5 -57q-86 -6 -133.5 33.5t-59.5 102t5.5 137.5t58.5 142q-41 2 -82 3.5t-78 5.5l18 65q84 -6 170 -6t172 4l-12 -67 q-29 -2 -58.5 -2.5t-58.5 -2.5q-31 -41 -52 -101t-19 -116.5t31.5 -95.5t103.5 -35q80 4 147.5 55.5t123.5 131.5t102.5 178t81 196.5t60 187.5t42.5 148q18 76 34.5 151t26.5 150q0 -8 -6 -10q-43 -86 -96 -172t-120 -163t-148.5 -140.5t-180.5 -101.5q-121 -49 -226 -27 t-157 123q-35 70 -36 153.5zM738 1370l258 223l37 -47l-258 -221z" />
<glyph unicode="&#xfe;" horiz-adv-x="1003" d="M31 35l12 69h98q72 340 132.5 678t107.5 693h-74l15 67h206l-14 -67h-65q-10 -76 -13.5 -115t-5.5 -71t-6 -70.5t-18 -114.5q33 43 78.5 88t103 80t127 52t151.5 9q84 -10 136.5 -52t79 -106.5t31.5 -146.5t-5 -170q-8 -74 -29.5 -157t-55.5 -161.5t-82 -148t-110.5 -120 t-142.5 -76t-176 -13.5q-78 10 -147.5 59.5t-104.5 120.5q-4 -27 -10 -60.5t-13.5 -67t-13.5 -67.5t-12 -61l96 3l-14 -70zM295 528q-4 -55 13.5 -103t51 -85t80 -59.5t97.5 -28.5q121 -12 210 42t149 144t95 203t47 217q8 80 1 152.5t-31.5 129t-66.5 91.5t-105 39 q-78 6 -156 -26t-142.5 -87t-111.5 -129t-61 -154q-4 -18 -13.5 -67t-21 -104.5t-21.5 -105.5t-14 -69z" />
<glyph unicode="&#xff;" horiz-adv-x="1153" d="M191 573.5q-1 83.5 16.5 174t49.5 180.5t67 172q-23 4 -46.5 6t-46.5 6l25 64q59 -10 126 -14.5t128 -6.5l-14 -65q-25 0 -50.5 1t-54.5 3q-31 -68 -61.5 -152t-50 -172t-20.5 -170t32 -143q39 -72 117.5 -94.5t189.5 20.5q111 45 200 125t159.5 179t125 208t99.5 211 h-97l15 65l215 3l-15 -66h-45q-14 -127 -35.5 -250t-54.5 -250q-16 -70 -44.5 -167t-67.5 -203.5t-91.5 -210t-116 -187.5t-141 -137t-167.5 -57q-86 -6 -133.5 33.5t-59.5 102t5.5 137.5t58.5 142q-41 2 -82 3.5t-78 5.5l18 65q84 -6 170 -6t172 4l-12 -67 q-29 -2 -58.5 -2.5t-58.5 -2.5q-31 -41 -52 -101t-19 -116.5t31.5 -95.5t103.5 -35q80 4 147.5 55.5t123.5 131.5t102.5 178t81 196.5t60 187.5t42.5 148q18 76 34.5 151t26.5 150q0 -8 -6 -10q-43 -86 -96 -172t-120 -163t-148.5 -140.5t-180.5 -101.5q-121 -49 -226 -27 t-157 123q-35 70 -36 153.5zM785 1380l8 97l69 8l-10 -94zM895 1384l23 103h69l-22 -103h-70z" />
<glyph unicode="&#x152;" horiz-adv-x="2125" d="M153.5 494.5q-20.5 142.5 14.5 306.5q33 162 113.5 305t191.5 250.5t242 170t266 62.5q98 0 181 -33.5t146.5 -94t106.5 -145.5t60 -186l71 338l-84 -8l11 72q217 16 427.5 18t421.5 -12l31 84l64 -12q-27 -70 -49.5 -143.5t-40.5 -145.5l-70 6q10 35 21.5 71t23.5 72 q-170 10 -342 11.5t-348 -8.5q-35 -186 -75 -370.5t-87 -373.5q121 10 236.5 13t232.5 3l25 113h69l-55 -256h-70l17 76q-117 0 -234 -3t-237 -11q-35 -154 -75 -308.5t-81 -310.5q182 33 358 52.5t357 29.5l20 152l74 4l-55 -316h-66l14 90q-205 -10 -405.5 -34.5 t-411.5 -65.5l2 70q14 2 27.5 3t28.5 5h-13q55 199 105 399q-61 -94 -137 -171t-162 -132t-179.5 -86t-187.5 -31q-135 0 -239.5 61.5t-169 169t-85 250zM222.5 521q17.5 -130 74.5 -227t150.5 -152.5t214.5 -55.5q111 0 221 49t205.5 134t170 202t115.5 252q4 20 10.5 38.5 t10.5 39.5q31 147 12.5 277t-76 227.5t-151.5 154t-213 56.5q-121 0 -238 -56.5t-216 -154t-172 -227.5t-103 -277q-33 -150 -15.5 -280z" />
<glyph unicode="&#x153;" horiz-adv-x="1466" d="M138.5 521q-11.5 85 8.5 184q20 94 68.5 179t113 148.5t142.5 100t156 36.5q117 0 193.5 -77.5t94.5 -200.5q31 55 72 104t90 86t105.5 59.5t115.5 22.5q63 2 107.5 -22.5t72 -62.5t41 -81t17.5 -77q4 -25 5 -52.5t-7 -64.5q-8 -35 -26.5 -56.5t-51.5 -23.5 q-131 -4 -261 -3t-275 3q-4 -4 -5.5 -12.5t-3.5 -14.5q-18 -72 -24 -146.5t18 -143.5q23 -66 72 -101t110 -33q49 2 93.5 23.5t83.5 55.5t71.5 77t57.5 86l59 -22q-29 -51 -70 -101.5t-90 -90.5t-104 -65.5t-113 -25.5q-61 0 -108 21.5t-80 59.5t-50.5 89t-19.5 106 q-72 -113 -175 -182.5t-214 -69.5q-78 0 -139.5 37t-100 101.5t-50 149.5zM208 554q9 -71 40 -123t81 -83t115 -31q63 0 126 31t117 83t93 123t58 151q16 80 7 149.5t-40 122.5t-81.5 84t-113.5 31q-66 0 -128 -31t-115.5 -84t-93.5 -123t-56 -149q-18 -80 -9 -151zM942 791 q61 0 132 -1.5t139.5 -1.5h133h115.5q10 51 7 106.5t-23 100.5q-23 49 -64 75t-91 28t-105.5 -20.5t-104.5 -71.5q-88 -82 -139 -215z" />
<glyph unicode="&#x178;" horiz-adv-x="1736" d="M326 1520q63 39 127.5 71.5t130.5 55.5l14 -60q-23 -8 -42 -16t-40 -19q117 -205 217.5 -412.5t198.5 -424.5q215 213 433 423t443 416l-73 72l59 49l215 -225l-55 -51l-105 110q-459 -418 -897 -860l-123 -577h117l-14 -72h-266l14 72h82l121 569q-100 227 -207 447.5 t-227 431.5q-23 -10 -48.5 -26.5t-50.5 -31.5zM1098 1790l8 97l69 8l-10 -94zM1208 1794l23 103h69l-22 -103h-70z" />
<glyph unicode="&#x2c6;" horiz-adv-x="346" d="M305 1372q35 39 77 83t83 87q4 2 27 6q8 2 22 2l88 -184l-61 -39l-70 137q-31 -29 -59.5 -61.5t-57.5 -65.5z" />
<glyph unicode="&#x2dc;" horiz-adv-x="442" d="M293 1352q8 20 20.5 45.5t29.5 49t37.5 41t45.5 21.5q37 10 62.5 -17.5t39.5 -78.5q8 -20 22.5 -25.5t27.5 -1.5q14 6 24 19.5t16.5 31t10.5 34t4 26.5l69 6q-4 -29 -14 -59.5t-26.5 -56t-41 -43t-57.5 -21.5q-70 -10 -98 51q-8 18 -18.5 43t-26.5 17q-23 -10 -39 -43 t-25 -54z" />
<glyph unicode="&#x2000;" horiz-adv-x="1001" />
<glyph unicode="&#x2001;" horiz-adv-x="2003" />
<glyph unicode="&#x2002;" horiz-adv-x="1001" />
<glyph unicode="&#x2003;" horiz-adv-x="2003" />
<glyph unicode="&#x2004;" horiz-adv-x="667" />
<glyph unicode="&#x2005;" horiz-adv-x="500" />
<glyph unicode="&#x2006;" horiz-adv-x="333" />
<glyph unicode="&#x2007;" horiz-adv-x="333" />
<glyph unicode="&#x2008;" horiz-adv-x="250" />
<glyph unicode="&#x2009;" horiz-adv-x="400" />
<glyph unicode="&#x200a;" horiz-adv-x="111" />
<glyph unicode="&#x2010;" horiz-adv-x="483" d="M133 614l14 66h408l-14 -66h-408z" />
<glyph unicode="&#x2011;" horiz-adv-x="483" d="M133 614l14 66h408l-14 -66h-408z" />
<glyph unicode="&#x2012;" horiz-adv-x="483" d="M133 614l14 66h408l-14 -66h-408z" />
<glyph unicode="&#x2013;" horiz-adv-x="1085" d="M133 614l34 66h990l-34 -66h-990z" />
<glyph unicode="&#x2014;" horiz-adv-x="2109" d="M133 614l68 66h1980l-68 -66h-1980z" />
<glyph unicode="&#x2018;" horiz-adv-x="159" d="M317 1366l35 195h66l-35 -195h-66z" />
<glyph unicode="&#x2019;" horiz-adv-x="159" d="M317 1366l35 195h66l-35 -195h-66z" />
<glyph unicode="&#x201c;" horiz-adv-x="301" d="M336 1366l35 195h65l-35 -195h-65zM459 1366l35 195h65l-35 -195h-65z" />
<glyph unicode="&#x201d;" horiz-adv-x="301" d="M336 1366l35 195h65l-35 -195h-65zM459 1366l35 195h65l-35 -195h-65z" />
<glyph unicode="&#x202f;" horiz-adv-x="400" />
<glyph unicode="&#x205f;" horiz-adv-x="500" />
<glyph unicode="&#x20ac;" horiz-adv-x="686" d="M115 537l8 67q27 2 54.5 4t58.5 4q4 37 13 76t19 80q-27 -2 -48 -4t-46 -8l6 71q29 4 55.5 5.5t55.5 3.5q20 59 50 124.5t73 122.5q41 55 103.5 103.5t133.5 54.5q31 2 64 -4t60.5 -22.5t45 -41t17.5 -59.5l-66 -18q-4 35 -27.5 54t-56.5 23.5t-70.5 -5t-70.5 -31.5 q-35 -25 -63.5 -61t-52 -77t-42 -83t-33.5 -78q72 4 142.5 4t142.5 -4l-14 -64q-76 4 -147.5 3t-143.5 -3q-12 -41 -21.5 -80t-13.5 -80q66 0 131.5 -1t130.5 -7l-16 -65q-127 10 -254 6q-4 -37 -4 -79t5 -83t19.5 -78t40.5 -61q35 -31 76 -30t82 22.5t80 54.5t72 67l45 -41 q-39 -39 -87.5 -78.5t-100.5 -65t-105.5 -28t-100.5 34.5q-35 31 -55 72t-28.5 87t-8.5 98.5t4 105.5q-31 -2 -57.5 -3t-54.5 -5z" />
<glyph unicode="&#x25fc;" horiz-adv-x="1095" d="M0 0v1096h1096v-1096h-1096z" />
</font>
</defs>
</svg>
