<?xml version="1.0" encoding="utf-8"?>
<svg viewBox="0 0 500 500" xmlns="http://www.w3.org/2000/svg">
  <path fill="#344759" opacity="1.000000" stroke="none" d="M 513 52.000004 C 513 188.356659 513 324.713318 512.646301 461.488647 C 508.589935 464.885925 505.854462 469.520599 499.928284 469.143921 C 499.48764 469.445007 499.259308 469.64505 498.584198 469.926727 C 418.560333 469.998993 339.005554 470.015594 259.450775 470.024139 C 258.621399 470.024231 257.791992 469.918213 256.976868 469.401947 C 256.979706 432.755707 256.968353 396.569275 257.413574 360.257446 C 332.800446 360.132019 407.730713 360.132019 482.674805 360.132019 C 482.674805 291.036926 482.674805 222.638809 482.674805 153.951523 C 480.374908 153.951523 478.397003 153.951523 476.419128 153.951523 C 405.419769 153.951523 334.42038 153.954453 263.421021 153.937485 C 261.266479 153.936966 259.112 153.728699 256.980957 153.173187 C 256.990479 116.532135 256.976532 80.33519 257.430634 44.079605 C 326.629761 43.999714 395.36084 43.971859 464.091919 43.963654 C 475.739777 43.962261 487.387634 44.045361 499.203735 44.258095 C 499.615295 44.632935 499.875366 44.815151 500.532898 44.982704 C 502.854034 45.714363 504.94989 46.177364 506.696014 47.223923 C 508.944 48.571289 510.911621 50.386379 513 52.000004" transform="matrix(1, 0, 0, 1, 250.387724, -7.000026)"/>
  <path fill="#344759" opacity="1.000000" stroke="none" d="M 463.499542 439.013977 C 469.918945 439.013977 476.338379 439.013977 482.768921 439.013977 C 482.768921 422.506378 482.768921 406.742584 482.768921 390.697876 C 466.142151 390.697876 449.749878 390.697876 433.260864 390.697876 C 433.260864 406.903046 433.260864 422.784393 433.260864 439.013977 C 443.235199 439.013977 452.867493 439.013977 463.499542 439.013977 Z" transform="matrix(1, 0, 0, 1, 250.387724, -7.000026)"/>
  <path fill="#344759" opacity="1.000000" stroke="none" d="M 271.998627 393.833344 C 271.998627 408.764313 271.998627 423.695312 271.998627 438.664368 C 288.995728 438.664368 305.38028 438.664368 321.853577 438.664368 C 321.853577 422.544312 321.853577 406.774811 321.853577 390.413696 C 305.848663 390.413696 290.067688 390.378754 274.288269 390.519531 C 273.520752 390.526367 272.766968 392.074707 271.998627 393.833344" transform="matrix(1, 0, 0, 1, 250.387724, -7.000026)"/>
  <path fill="#344759" opacity="1.000000" stroke="none" d="M 472.454468 123.623825 C 475.878021 123.623825 479.301575 123.623825 482.595398 123.623825 C 482.595398 106.938377 482.595398 91.053337 482.595398 75.258148 C 465.924103 75.258148 449.661865 75.258148 433.255188 75.258148 C 433.255188 91.400673 433.255188 107.269127 433.255188 123.623718 C 446.216003 123.623718 458.841095 123.623718 472.454468 123.623825" transform="matrix(1, 0, 0, 1, 250.387724, -7.000026)"/>
  <path fill="#344759" opacity="1.000000" stroke="none" d="M 288.503296 123.623825 C 299.590698 123.623825 310.678131 123.623825 321.670532 123.623825 C 321.670532 106.956261 321.670532 91.078812 321.670532 75.247131 C 304.996399 75.247131 288.738403 75.247131 272.309631 75.247131 C 272.309631 91.381905 272.309631 107.254158 272.309631 123.623718 C 277.57724 123.623718 282.541534 123.623718 288.503296 123.623825" transform="matrix(1, 0, 0, 1, 250.387724, -7.000026)"/>
  <path fill="#344759" opacity="1.000000" stroke="none" d="M 353.408386 390.707184 C 353.115295 392.454865 352.579681 394.200958 352.568329 395.95047 C 352.492615 407.608246 352.528931 419.266785 352.528839 430.925049 C 352.528839 433.522125 352.528839 436.119232 352.528839 438.716309 C 369.511475 438.716309 385.756317 438.716309 402.061462 438.716309 C 402.061462 422.531342 402.061462 406.647461 402.061462 390.461029 C 385.853607 390.461029 370.052856 390.461029 353.408386 390.707184" transform="matrix(1, 0, 0, 1, 250.387724, -7.000026)"/>
  <path fill="#344759" opacity="1.000000" stroke="none" d="M 390.477478 74.985977 C 378.018982 74.985977 365.560455 74.985977 352.858765 74.985977 C 352.858765 91.279488 352.858765 107.164665 352.858765 123.327881 C 369.401367 123.327881 385.613831 123.327881 402.148621 123.327881 C 402.148621 107.146523 402.148621 91.260452 402.148621 74.985977 C 398.415375 74.985977 394.94043 74.985977 390.477478 74.985977" transform="matrix(1, 0, 0, 1, 250.387724, -7.000026)"/>
  <path fill="#405C73" opacity="1.000000" stroke="none" d="M 256.95697 360.382843 C 256.968353 396.569275 256.979706 432.755707 256.512695 469.448303 C 177.506729 469.967773 98.979118 469.973083 20.451515 470.007843 C 13.423545 470.010956 7.020937 468.780243 2.7329090000000003 462.417206 C 2.48804 462.053894 1.592646 462.128937 1.000002 462 C 1 325.645782 1 189.29155 1.348179 52.588593 C 7.289164 44.841251 15.105625 43.900517 23.699827 43.923149 C 83.14032 44.079681 142.581421 43.995415 202.022324 44.011703 C 220.33577 44.01672 238.649185 44.094036 256.962585 44.138248 C 256.976532 80.33519 256.990479 116.532135 257.005981 153.29248 C 257.007599 153.855896 257.034882 154.09819 256.5755 153.986481 C 181.21933 153.874771 106.32251 153.874771 31.359409 153.874771 C 31.359409 222.912384 31.359409 291.42865 31.359409 360.178375 C 32.873062 360.178375 34.029152 360.178375 35.185242 360.178375 C 107.811981 360.17852800000003 180.438721 360.180145 253.06546 360.167297 C 254.388794 360.167053 255.712112 359.99408 257.021484 360.022949 C 257.007568 360.144135 256.95697 360.382843 256.95697 360.382843" transform="matrix(1, 0, 0, 1, 250.387724, -7.000026)"/>
  <path fill="#405C73" opacity="1.000000" stroke="none" d="M 191.749268 408.500732 C 191.749268 418.57309 191.749268 428.645416 191.749268 438.767029 C 208.859909 438.767029 225.232819 438.767029 241.570129 438.767029 C 241.570129 422.449158 241.570129 406.446899 241.570129 390.450348 C 224.894638 390.450348 208.650803 390.450348 191.749222 390.450348 C 191.749222 396.302277 191.749222 401.901886 191.749268 408.500732 Z" transform="matrix(1, 0, 0, 1, 250.387724, -7.000026)"/>
  <path fill="#405C73" opacity="1.000000" stroke="none" d="M 30.999609 396.636475 C 30.999609 410.702942 30.999609 424.769409 30.999609 438.720886 C 48.132355 438.720886 64.52021 438.720886 80.910751 438.720886 C 80.910751 422.473297 80.910751 406.586029 80.910751 390.492432 C 64.198471 390.492432 47.827148 390.492432 30.99964 390.492432 C 30.99964 392.424896 30.99964 394.051331 30.999609 396.636475" transform="matrix(1, 0, 0, 1, 250.387724, -7.000026)"/>
  <path fill="#405C73" opacity="1.000000" stroke="none" d="M 30.999607 113.462784 C 30.999607 116.742905 30.999607 120.023018 30.999607 123.520149 C 47.925945 123.520149 64.297218 123.520149 80.845779 123.520149 C 80.845779 107.223465 80.845779 91.226654 80.845779 75.269623 C 64.066734 75.269623 47.695118 75.269623 30.999607 75.269623 C 30.999607 87.900864 30.999607 100.186432 30.999607 113.462784" transform="matrix(1, 0, 0, 1, 250.387724, -7.000026)"/>
  <path fill="#405C73" opacity="1.000000" stroke="none" d="M 242.000366 113.460754 C 242.000366 100.718658 242.000366 87.976555 242.000366 75.24588 C 224.937286 75.24588 208.553787 75.24588 192.046783 75.24588 C 192.046783 91.459435 192.046783 107.346779 192.046783 123.524719 C 208.715378 123.524719 225.086945 123.524719 242.000366 123.524719 C 242.000366 120.335304 242.000366 117.38929 242.000366 113.460754" transform="matrix(1, 0, 0, 1, 250.387724, -7.000026)"/>
  <path fill="#405C73" opacity="1.000000" stroke="none" d="M 161.760056 413.500122 C 161.760056 405.892914 161.760056 398.285706 161.760056 390.461334 C 144.677307 390.461334 128.280624 390.461334 111.666199 390.461334 C 111.666199 406.762573 111.666199 422.773773 111.666199 438.734253 C 128.495316 438.734253 144.900955 438.734253 161.76001 438.734253 C 161.76001 430.425323 161.76001 422.462708 161.760056 413.500122" transform="matrix(1, 0, 0, 1, 250.387724, -7.000026)"/>
  <path fill="#405C73" opacity="1.000000" stroke="none" d="M 156.267395 123.825874 C 158.01062 123.731155 159.75383 123.636429 161.337311 123.550385 C 161.337311 106.993546 161.337311 91.10067 161.337311 75.272644 C 144.504166 75.272644 128.096237 75.272644 111.598541 75.272644 C 111.598541 91.532135 111.598541 107.430397 111.598541 123.825951 C 126.404411 123.825951 140.861923 123.825951 156.267395 123.825874" transform="matrix(1, 0, 0, 1, 250.387724, -7.000026)"/>
  <path fill="#000000" opacity="1.000000" stroke="none" d=" M257.430664,44.079605 C238.649185,44.094036 220.335770,44.016720 202.022324,44.011703 C142.581421,43.995415 83.140320,44.079681 23.699827,43.923149 C15.105625,43.900517 7.289164,44.841251 1.348179,52.119934 C1.000000,35.012112 1.000000,18.024225 1.000002,1.042794 C171.666672,1.049249 342.333344,1.049249 513.000000,1.049249 C513.000000,17.753227 513.000000,34.407955 513.000000,51.531345 C510.911621,50.386379 508.944000,48.571289 506.696014,47.223923 C504.949890,46.177364 502.854034,45.714363 500.417419,44.754299 C499.625977,44.374214 499.330719,44.231815 499.035492,44.089420 C487.387634,44.045361 475.739777,43.962261 464.091919,43.963654 C395.360840,43.971859 326.629761,43.999714 257.430664,44.079605 z" transform="matrix(1, 0, 0, 1, 250.387724, -7.000026)"/>
  <path fill="#000000" opacity="1.000000" stroke="none" d=" M1.000002,462.468628 C1.592646,462.128937 2.488040,462.053894 2.732909,462.417206 C7.020937,468.780243 13.423545,470.010956 20.451515,470.007843 C98.979118,469.973083 177.506729,469.967773 256.498474,469.908142 C257.791992,469.918213 258.621399,470.024231 259.450775,470.024139 C339.005554,470.015594 418.560333,469.998993 498.821472,469.877045 C499.808868,469.585876 500.005707,469.334595 500.118317,469.017395 C505.854462,469.520599 508.589935,464.885925 512.646301,461.953674 C513.000000,478.987885 513.000000,495.975739 513.000000,512.957275 C342.333313,512.950928 171.666656,512.950928 1.000000,512.950928 C1.000000,496.247009 1.000000,479.592163 1.000002,462.468628 z" transform="matrix(1, 0, 0, 1, 250.387724, -7.000026)"/>
  <path fill="#BED0E7" opacity="1.000000" stroke="none" d=" M390.971497,74.985977 C394.940430,74.985977 398.415375,74.985977 402.148621,74.985977 C402.148621,91.260452 402.148621,107.146523 402.148621,123.327881 C385.613831,123.327881 369.401367,123.327881 352.858765,123.327881 C352.858765,107.164665 352.858765,91.279488 352.858765,74.985977 C365.560455,74.985977 378.018982,74.985977 390.971497,74.985977 z" transform="matrix(1, 0, 0, 1, 250.387724, -7.000026)"/>
  <path fill="#BED0E7" opacity="1.000000" stroke="none" d=" M353.830261,390.584106 C370.052856,390.461029 385.853607,390.461029 402.061462,390.461029 C402.061462,406.647461 402.061462,422.531342 402.061462,438.716309 C385.756317,438.716309 369.511475,438.716309 352.528839,438.716309 C352.528839,436.119232 352.528839,433.522125 352.528839,430.925049 C352.528931,419.266785 352.492615,407.608246 352.568329,395.950470 C352.579681,394.200958 353.115295,392.454865 353.830261,390.584106 z" transform="matrix(1, 0, 0, 1, 250.387724, -7.000026)"/>
  <path fill="#BED0E7" opacity="1.000000" stroke="none" d=" M288.004578,123.623772 C282.541534,123.623718 277.577240,123.623718 272.309631,123.623718 C272.309631,107.254158 272.309631,91.381905 272.309631,75.247131 C288.738403,75.247131 304.996399,75.247131 321.670532,75.247131 C321.670532,91.078812 321.670532,106.956261 321.670532,123.623825 C310.678131,123.623825 299.590698,123.623825 288.004578,123.623772 z" transform="matrix(1, 0, 0, 1, 250.387724, -7.000026)"/>
  <path fill="#BED0E7" opacity="1.000000" stroke="none" d=" M471.960327,123.623772 C458.841095,123.623718 446.216003,123.623718 433.255188,123.623718 C433.255188,107.269127 433.255188,91.400673 433.255188,75.258148 C449.661865,75.258148 465.924103,75.258148 482.595398,75.258148 C482.595398,91.053337 482.595398,106.938377 482.595398,123.623825 C479.301575,123.623825 475.878021,123.623825 471.960327,123.623772 z" transform="matrix(1, 0, 0, 1, 250.387724, -7.000026)"/>
  <path fill="#BED0E7" opacity="1.000000" stroke="none" d=" M272.002716,393.369263 C272.766968,392.074707 273.520752,390.526367 274.288269,390.519531 C290.067688,390.378754 305.848663,390.413696 321.853577,390.413696 C321.853577,406.774811 321.853577,422.544312 321.853577,438.664368 C305.380280,438.664368 288.995728,438.664368 271.998627,438.664368 C271.998627,423.695312 271.998627,408.764313 272.002716,393.369263 z" transform="matrix(1, 0, 0, 1, 250.387724, -7.000026)"/>
  <path fill="#BED0E7" opacity="1.000000" stroke="none" d=" M462.999695,439.013977 C452.867493,439.013977 443.235199,439.013977 433.260864,439.013977 C433.260864,422.784393 433.260864,406.903046 433.260864,390.697876 C449.749878,390.697876 466.142151,390.697876 482.768921,390.697876 C482.768921,406.742584 482.768921,422.506378 482.768921,439.013977 C476.338379,439.013977 469.918945,439.013977 462.999695,439.013977 z" transform="matrix(1, 0, 0, 1, 250.387724, -7.000026)"/>
  <path fill="#394D64" opacity="1.000000" stroke="none" d=" M499.203735,44.258095 C499.330719,44.231815 499.625977,44.374214 500.036682,44.745018 C499.875366,44.815151 499.615295,44.632935 499.203735,44.258095 z" transform="matrix(1, 0, 0, 1, 250.387724, -7.000026)"/>
  <path fill="#394D64" opacity="1.000000" stroke="none" d=" M499.928284,469.143921 C500.005707,469.334595 499.808868,469.585876 499.290558,469.820892 C499.259308,469.645050 499.487640,469.445007 499.928284,469.143921 z" transform="matrix(1, 0, 0, 1, 250.387724, -7.000026)"/>
  <path opacity="1.000000" stroke="none" d=" M155.793427,123.825912 C140.861923,123.825951 126.404411,123.825951 111.598541,123.825951 C111.598541,107.430397 111.598541,91.532135 111.598541,75.272644 C128.096237,75.272644 144.504166,75.272644 161.337311,75.272644 C161.337311,91.100670 161.337311,106.993546 161.337311,123.550385 C159.753830,123.636429 158.010620,123.731155 155.793427,123.825912 z" transform="matrix(1, 0, 0, 1, 250.387724, -7.000026)" style="fill: rgba(198, 160, 160, 0.75);"/>
  <path opacity="1.000000" stroke="none" d=" M161.760040,414.000122 C161.760010,422.462708 161.760010,430.425323 161.760010,438.734253 C144.900955,438.734253 128.495316,438.734253 111.666199,438.734253 C111.666199,422.773773 111.666199,406.762573 111.666199,390.461334 C128.280624,390.461334 144.677307,390.461334 161.760056,390.461334 C161.760056,398.285706 161.760056,405.892914 161.760040,414.000122 z" transform="matrix(1, 0, 0, 1, 250.387724, -7.000026)" style="fill: rgba(198, 160, 160, 0.8);"/>
  <path opacity="1.000000" stroke="none" d=" M242.000366,113.952011 C242.000366,117.389290 242.000366,120.335304 242.000366,123.524719 C225.086945,123.524719 208.715378,123.524719 192.046783,123.524719 C192.046783,107.346779 192.046783,91.459435 192.046783,75.245880 C208.553787,75.245880 224.937286,75.245880 242.000366,75.245880 C242.000366,87.976555 242.000366,100.718658 242.000366,113.952011 z" transform="matrix(1, 0, 0, 1, 250.387724, -7.000026)" style="fill: rgba(198, 160, 160, 0.89);"/>
  <path opacity="1.000000" stroke="none" d=" M30.999607,112.967392 C30.999607,100.186432 30.999607,87.900864 30.999607,75.269623 C47.695118,75.269623 64.066734,75.269623 80.845779,75.269623 C80.845779,91.226654 80.845779,107.223465 80.845779,123.520149 C64.297218,123.520149 47.925945,123.520149 30.999607,123.520149 C30.999607,120.023018 30.999607,116.742905 30.999607,112.967392 z" transform="matrix(1, 0, 0, 1, 250.387724, -7.000026)" style="fill: rgba(198, 160, 160, 0.76);"/>
  <path opacity="1.000000" stroke="none" d=" M30.999624,396.157104 C30.999640,394.051331 30.999640,392.424896 30.999640,390.492432 C47.827148,390.492432 64.198471,390.492432 80.910751,390.492432 C80.910751,406.586029 80.910751,422.473297 80.910751,438.720886 C64.520210,438.720886 48.132355,438.720886 30.999609,438.720886 C30.999609,424.769409 30.999609,410.702942 30.999624,396.157104 z" transform="matrix(1, 0, 0, 1, 250.387724, -7.000026)" style="fill: rgba(198, 160, 160, 0.57);"/>
  <path opacity="1.000000" stroke="none" d=" M191.749237,408.001099 C191.749222,401.901886 191.749222,396.302277 191.749222,390.450348 C208.650803,390.450348 224.894638,390.450348 241.570129,390.450348 C241.570129,406.446899 241.570129,422.449158 241.570129,438.767029 C225.232819,438.767029 208.859909,438.767029 191.749268,438.767029 C191.749268,428.645416 191.749268,418.573090 191.749237,408.001099 z" transform="matrix(1, 0, 0, 1, 250.387724, -7.000026)" style="fill: rgb(198, 160, 160);"/>
  <path opacity="1.000000" stroke="none" d="M 485.68 275.588 C 484.925 267.084 484.57 258.594 484.452 250.153 C 484.327 241.115 484.424 232.084 484.424 222.707 L 484.424 221.145 C 487.942 221.145 492.207 221.145 495.701 221.145 L 496.751 221.145 C 496.751 238.376 496.751 257.168 496.751 275.427 L 496.751 276.99 L 495.701 276.99 C 492.976 276.99 490.096 276.99 486.711 276.946 L 485.798 276.933 L 485.68 275.588 Z" style="fill: rgb(255, 81, 95);"/>
  <path opacity="1.000000" stroke="none" d="M 518.013 243.88 C 518.013 255.141 518.013 265.578 518.013 276.482 C 514.53 276.482 511.269 276.482 507.703 276.482 C 507.703 258.293 507.703 239.976 507.703 221.184 C 510.891 221.184 514.15 221.184 518.013 221.184 C 518.013 228.374 518.013 235.716 518.013 243.88 Z" style="fill: rgb(242, 51, 104);"/>
  <ellipse style="stroke: rgb(0, 0, 0); fill: rgba(238, 8, 8, 0.11);" cx="501.133" cy="248.128" rx="43.44" ry="38.417"/>
</svg>