<svg version="1.1" id="Layer_1" xmlns="http://www.w3.org/2000/svg" xmlns:xlink="http://www.w3.org/1999/xlink" x="0px" y="0px"
	 width="100%" viewBox="0 0 512 512" enable-background="new 0 0 512 512" xml:space="preserve">
<path fill="#344759" opacity="1.000000" stroke="none" 
	d="
M513.000000,52.000004 
	C513.000000,188.356659 513.000000,324.713318 512.646301,461.488647 
	C508.589935,464.885925 505.854462,469.520599 499.928284,469.143921 
	C499.487640,469.445007 499.259308,469.645050 498.584198,469.926727 
	C418.560333,469.998993 339.005554,470.015594 259.450775,470.024139 
	C258.621399,470.024231 257.791992,469.918213 256.976868,469.401947 
	C256.979706,432.755707 256.968353,396.569275 257.413574,360.257446 
	C332.800446,360.132019 407.730713,360.132019 482.674805,360.132019 
	C482.674805,291.036926 482.674805,222.638809 482.674805,153.951523 
	C480.374908,153.951523 478.397003,153.951523 476.419128,153.951523 
	C405.419769,153.951523 334.420380,153.954453 263.421021,153.937485 
	C261.266479,153.936966 259.112000,153.728699 256.980957,153.173187 
	C256.990479,116.532135 256.976532,80.335190 257.430634,44.079605 
	C326.629761,43.999714 395.360840,43.971859 464.091919,43.963654 
	C475.739777,43.962261 487.387634,44.045361 499.203735,44.258095 
	C499.615295,44.632935 499.875366,44.815151 500.532898,44.982704 
	C502.854034,45.714363 504.949890,46.177364 506.696014,47.223923 
	C508.944000,48.571289 510.911621,50.386379 513.000000,52.000004 
M390.477478,74.985977 
	C378.018982,74.985977 365.560455,74.985977 352.858765,74.985977 
	C352.858765,91.279488 352.858765,107.164665 352.858765,123.327881 
	C369.401367,123.327881 385.613831,123.327881 402.148621,123.327881 
	C402.148621,107.146523 402.148621,91.260452 402.148621,74.985977 
	C398.415375,74.985977 394.940430,74.985977 390.477478,74.985977 
M353.408386,390.707184 
	C353.115295,392.454865 352.579681,394.200958 352.568329,395.950470 
	C352.492615,407.608246 352.528931,419.266785 352.528839,430.925049 
	C352.528839,433.522125 352.528839,436.119232 352.528839,438.716309 
	C369.511475,438.716309 385.756317,438.716309 402.061462,438.716309 
	C402.061462,422.531342 402.061462,406.647461 402.061462,390.461029 
	C385.853607,390.461029 370.052856,390.461029 353.408386,390.707184 
M288.503296,123.623825 
	C299.590698,123.623825 310.678131,123.623825 321.670532,123.623825 
	C321.670532,106.956261 321.670532,91.078812 321.670532,75.247131 
	C304.996399,75.247131 288.738403,75.247131 272.309631,75.247131 
	C272.309631,91.381905 272.309631,107.254158 272.309631,123.623718 
	C277.577240,123.623718 282.541534,123.623718 288.503296,123.623825 
M472.454468,123.623825 
	C475.878021,123.623825 479.301575,123.623825 482.595398,123.623825 
	C482.595398,106.938377 482.595398,91.053337 482.595398,75.258148 
	C465.924103,75.258148 449.661865,75.258148 433.255188,75.258148 
	C433.255188,91.400673 433.255188,107.269127 433.255188,123.623718 
	C446.216003,123.623718 458.841095,123.623718 472.454468,123.623825 
M271.998627,393.833344 
	C271.998627,408.764313 271.998627,423.695312 271.998627,438.664368 
	C288.995728,438.664368 305.380280,438.664368 321.853577,438.664368 
	C321.853577,422.544312 321.853577,406.774811 321.853577,390.413696 
	C305.848663,390.413696 290.067688,390.378754 274.288269,390.519531 
	C273.520752,390.526367 272.766968,392.074707 271.998627,393.833344 
M463.499542,439.013977 
	C469.918945,439.013977 476.338379,439.013977 482.768921,439.013977 
	C482.768921,422.506378 482.768921,406.742584 482.768921,390.697876 
	C466.142151,390.697876 449.749878,390.697876 433.260864,390.697876 
	C433.260864,406.903046 433.260864,422.784393 433.260864,439.013977 
	C443.235199,439.013977 452.867493,439.013977 463.499542,439.013977 
z"/>
<path fill="#405C73" opacity="1.000000" stroke="none" 
	d="
M256.956970,360.382843 
	C256.968353,396.569275 256.979706,432.755707 256.512695,469.448303 
	C177.506729,469.967773 98.979118,469.973083 20.451515,470.007843 
	C13.423545,470.010956 7.020937,468.780243 2.732909,462.417206 
	C2.488040,462.053894 1.592646,462.128937 1.000002,462.000000 
	C1.000000,325.645782 1.000000,189.291550 1.348179,52.588593 
	C7.289164,44.841251 15.105625,43.900517 23.699827,43.923149 
	C83.140320,44.079681 142.581421,43.995415 202.022324,44.011703 
	C220.335770,44.016720 238.649185,44.094036 256.962585,44.138248 
	C256.976532,80.335190 256.990479,116.532135 257.005981,153.292480 
	C257.007599,153.855896 257.034882,154.098190 256.575500,153.986481 
	C181.219330,153.874771 106.322510,153.874771 31.359409,153.874771 
	C31.359409,222.912384 31.359409,291.428650 31.359409,360.178375 
	C32.873062,360.178375 34.029152,360.178375 35.185242,360.178375 
	C107.811981,360.178528 180.438721,360.180145 253.065460,360.167297 
	C254.388794,360.167053 255.712112,359.994080 257.021484,360.022949 
	C257.007568,360.144135 256.956970,360.382843 256.956970,360.382843 
M156.267395,123.825874 
	C158.010620,123.731155 159.753830,123.636429 161.337311,123.550385 
	C161.337311,106.993546 161.337311,91.100670 161.337311,75.272644 
	C144.504166,75.272644 128.096237,75.272644 111.598541,75.272644 
	C111.598541,91.532135 111.598541,107.430397 111.598541,123.825951 
	C126.404411,123.825951 140.861923,123.825951 156.267395,123.825874 
M161.760056,413.500122 
	C161.760056,405.892914 161.760056,398.285706 161.760056,390.461334 
	C144.677307,390.461334 128.280624,390.461334 111.666199,390.461334 
	C111.666199,406.762573 111.666199,422.773773 111.666199,438.734253 
	C128.495316,438.734253 144.900955,438.734253 161.760010,438.734253 
	C161.760010,430.425323 161.760010,422.462708 161.760056,413.500122 
M242.000366,113.460754 
	C242.000366,100.718658 242.000366,87.976555 242.000366,75.245880 
	C224.937286,75.245880 208.553787,75.245880 192.046783,75.245880 
	C192.046783,91.459435 192.046783,107.346779 192.046783,123.524719 
	C208.715378,123.524719 225.086945,123.524719 242.000366,123.524719 
	C242.000366,120.335304 242.000366,117.389290 242.000366,113.460754 
M30.999607,113.462784 
	C30.999607,116.742905 30.999607,120.023018 30.999607,123.520149 
	C47.925945,123.520149 64.297218,123.520149 80.845779,123.520149 
	C80.845779,107.223465 80.845779,91.226654 80.845779,75.269623 
	C64.066734,75.269623 47.695118,75.269623 30.999607,75.269623 
	C30.999607,87.900864 30.999607,100.186432 30.999607,113.462784 
M30.999609,396.636475 
	C30.999609,410.702942 30.999609,424.769409 30.999609,438.720886 
	C48.132355,438.720886 64.520210,438.720886 80.910751,438.720886 
	C80.910751,422.473297 80.910751,406.586029 80.910751,390.492432 
	C64.198471,390.492432 47.827148,390.492432 30.999640,390.492432 
	C30.999640,392.424896 30.999640,394.051331 30.999609,396.636475 
M191.749268,408.500732 
	C191.749268,418.573090 191.749268,428.645416 191.749268,438.767029 
	C208.859909,438.767029 225.232819,438.767029 241.570129,438.767029 
	C241.570129,422.449158 241.570129,406.446899 241.570129,390.450348 
	C224.894638,390.450348 208.650803,390.450348 191.749222,390.450348 
	C191.749222,396.302277 191.749222,401.901886 191.749268,408.500732 
z"/>
<path fill="#000000" opacity="1.000000" stroke="none" 
	d="
M257.430664,44.079605 
	C238.649185,44.094036 220.335770,44.016720 202.022324,44.011703 
	C142.581421,43.995415 83.140320,44.079681 23.699827,43.923149 
	C15.105625,43.900517 7.289164,44.841251 1.348179,52.119934 
	C1.000000,35.012112 1.000000,18.024225 1.000002,1.042794 
	C171.666672,1.049249 342.333344,1.049249 513.000000,1.049249 
	C513.000000,17.753227 513.000000,34.407955 513.000000,51.531345 
	C510.911621,50.386379 508.944000,48.571289 506.696014,47.223923 
	C504.949890,46.177364 502.854034,45.714363 500.417419,44.754299 
	C499.625977,44.374214 499.330719,44.231815 499.035492,44.089420 
	C487.387634,44.045361 475.739777,43.962261 464.091919,43.963654 
	C395.360840,43.971859 326.629761,43.999714 257.430664,44.079605 
z"/>
<path fill="#000000" opacity="1.000000" stroke="none" 
	d="
M1.000002,462.468628 
	C1.592646,462.128937 2.488040,462.053894 2.732909,462.417206 
	C7.020937,468.780243 13.423545,470.010956 20.451515,470.007843 
	C98.979118,469.973083 177.506729,469.967773 256.498474,469.908142 
	C257.791992,469.918213 258.621399,470.024231 259.450775,470.024139 
	C339.005554,470.015594 418.560333,469.998993 498.821472,469.877045 
	C499.808868,469.585876 500.005707,469.334595 500.118317,469.017395 
	C505.854462,469.520599 508.589935,464.885925 512.646301,461.953674 
	C513.000000,478.987885 513.000000,495.975739 513.000000,512.957275 
	C342.333313,512.950928 171.666656,512.950928 1.000000,512.950928 
	C1.000000,496.247009 1.000000,479.592163 1.000002,462.468628 
z"/>
<path fill="#E0E7F1" opacity="1.000000" stroke="none" 
	d="
M256.982544,153.736588 
	C259.112000,153.728699 261.266479,153.936966 263.421021,153.937485 
	C334.420380,153.954453 405.419769,153.951523 476.419128,153.951523 
	C478.397003,153.951523 480.374908,153.951523 482.674805,153.951523 
	C482.674805,222.638809 482.674805,291.036926 482.674805,360.132019 
	C407.730713,360.132019 332.800446,360.132019 257.413574,360.257446 
	C256.956970,360.382843 257.007568,360.144135 257.015747,359.560608 
	C257.017853,338.498840 257.050018,318.020416 256.951263,297.542633 
	C256.940460,295.301361 256.176666,293.063721 255.928406,290.583252 
	C256.728210,289.904266 257.361725,289.466400 258.346405,288.972107 
	C272.242615,281.114868 285.846771,273.414307 299.308411,265.472198 
	C306.317261,261.337128 306.983978,253.199219 300.379913,249.239685 
	C286.419495,240.869568 272.141724,233.028839 257.814880,224.737457 
	C257.011688,224.061554 256.387726,223.619156 256.008057,222.823837 
	C256.503540,220.344849 256.966492,218.219437 256.973114,216.092606 
	C257.037384,195.427933 257.025238,174.763031 257.034882,154.098190 
	C257.034882,154.098190 257.007599,153.855896 256.982544,153.736588 
z"/>
<path fill="#BED0E7" opacity="1.000000" stroke="none" 
	d="
M390.971497,74.985977 
	C394.940430,74.985977 398.415375,74.985977 402.148621,74.985977 
	C402.148621,91.260452 402.148621,107.146523 402.148621,123.327881 
	C385.613831,123.327881 369.401367,123.327881 352.858765,123.327881 
	C352.858765,107.164665 352.858765,91.279488 352.858765,74.985977 
	C365.560455,74.985977 378.018982,74.985977 390.971497,74.985977 
z"/>
<path fill="#BED0E7" opacity="1.000000" stroke="none" 
	d="
M353.830261,390.584106 
	C370.052856,390.461029 385.853607,390.461029 402.061462,390.461029 
	C402.061462,406.647461 402.061462,422.531342 402.061462,438.716309 
	C385.756317,438.716309 369.511475,438.716309 352.528839,438.716309 
	C352.528839,436.119232 352.528839,433.522125 352.528839,430.925049 
	C352.528931,419.266785 352.492615,407.608246 352.568329,395.950470 
	C352.579681,394.200958 353.115295,392.454865 353.830261,390.584106 
z"/>
<path fill="#BED0E7" opacity="1.000000" stroke="none" 
	d="
M288.004578,123.623772 
	C282.541534,123.623718 277.577240,123.623718 272.309631,123.623718 
	C272.309631,107.254158 272.309631,91.381905 272.309631,75.247131 
	C288.738403,75.247131 304.996399,75.247131 321.670532,75.247131 
	C321.670532,91.078812 321.670532,106.956261 321.670532,123.623825 
	C310.678131,123.623825 299.590698,123.623825 288.004578,123.623772 
z"/>
<path fill="#BED0E7" opacity="1.000000" stroke="none" 
	d="
M471.960327,123.623772 
	C458.841095,123.623718 446.216003,123.623718 433.255188,123.623718 
	C433.255188,107.269127 433.255188,91.400673 433.255188,75.258148 
	C449.661865,75.258148 465.924103,75.258148 482.595398,75.258148 
	C482.595398,91.053337 482.595398,106.938377 482.595398,123.623825 
	C479.301575,123.623825 475.878021,123.623825 471.960327,123.623772 
z"/>
<path fill="#BED0E7" opacity="1.000000" stroke="none" 
	d="
M272.002716,393.369263 
	C272.766968,392.074707 273.520752,390.526367 274.288269,390.519531 
	C290.067688,390.378754 305.848663,390.413696 321.853577,390.413696 
	C321.853577,406.774811 321.853577,422.544312 321.853577,438.664368 
	C305.380280,438.664368 288.995728,438.664368 271.998627,438.664368 
	C271.998627,423.695312 271.998627,408.764313 272.002716,393.369263 
z"/>
<path fill="#BED0E7" opacity="1.000000" stroke="none" 
	d="
M462.999695,439.013977 
	C452.867493,439.013977 443.235199,439.013977 433.260864,439.013977 
	C433.260864,422.784393 433.260864,406.903046 433.260864,390.697876 
	C449.749878,390.697876 466.142151,390.697876 482.768921,390.697876 
	C482.768921,406.742584 482.768921,422.506378 482.768921,439.013977 
	C476.338379,439.013977 469.918945,439.013977 462.999695,439.013977 
z"/>
<path fill="#394D64" opacity="1.000000" stroke="none" 
	d="
M499.203735,44.258095 
	C499.330719,44.231815 499.625977,44.374214 500.036682,44.745018 
	C499.875366,44.815151 499.615295,44.632935 499.203735,44.258095 
z"/>
<path fill="#394D64" opacity="1.000000" stroke="none" 
	d="
M499.928284,469.143921 
	C500.005707,469.334595 499.808868,469.585876 499.290558,469.820892 
	C499.259308,469.645050 499.487640,469.445007 499.928284,469.143921 
z"/>
<path fill="#F3F5F9" opacity="1.000000" stroke="none" 
	d="
M255.762131,290.824402 
	C256.176666,293.063721 256.940460,295.301361 256.951263,297.542633 
	C257.050018,318.020416 257.017853,338.498840 257.029663,359.439392 
	C255.712112,359.994080 254.388794,360.167053 253.065460,360.167297 
	C180.438721,360.180145 107.811981,360.178528 35.185242,360.178375 
	C34.029152,360.178375 32.873062,360.178375 31.359409,360.178375 
	C31.359409,291.428650 31.359409,222.912384 31.359409,153.874771 
	C106.322510,153.874771 181.219330,153.874771 256.575500,153.986481 
	C257.025238,174.763031 257.037384,195.427933 256.973114,216.092606 
	C256.966492,218.219437 256.503540,220.344849 255.668091,222.744385 
	C243.694153,216.473053 232.307541,209.922821 220.913742,203.385101 
	C211.413116,197.933685 204.796860,201.605515 204.786469,212.400009 
	C204.757782,242.194702 204.754730,271.989471 204.788864,301.784149 
	C204.800873,312.259369 211.466003,315.991333 220.653183,310.767517 
	C232.353348,304.114838 244.058899,297.471649 255.762131,290.824402 
z"/>
<path fill="#DDE4EF" opacity="1.000000" stroke="none" 
	d="
M155.793427,123.825912 
	C140.861923,123.825951 126.404411,123.825951 111.598541,123.825951 
	C111.598541,107.430397 111.598541,91.532135 111.598541,75.272644 
	C128.096237,75.272644 144.504166,75.272644 161.337311,75.272644 
	C161.337311,91.100670 161.337311,106.993546 161.337311,123.550385 
	C159.753830,123.636429 158.010620,123.731155 155.793427,123.825912 
z"/>
<path fill="#DDE4EF" opacity="1.000000" stroke="none" 
	d="
M161.760040,414.000122 
	C161.760010,422.462708 161.760010,430.425323 161.760010,438.734253 
	C144.900955,438.734253 128.495316,438.734253 111.666199,438.734253 
	C111.666199,422.773773 111.666199,406.762573 111.666199,390.461334 
	C128.280624,390.461334 144.677307,390.461334 161.760056,390.461334 
	C161.760056,398.285706 161.760056,405.892914 161.760040,414.000122 
z"/>
<path fill="#DFE6F0" opacity="1.000000" stroke="none" 
	d="
M242.000366,113.952011 
	C242.000366,117.389290 242.000366,120.335304 242.000366,123.524719 
	C225.086945,123.524719 208.715378,123.524719 192.046783,123.524719 
	C192.046783,107.346779 192.046783,91.459435 192.046783,75.245880 
	C208.553787,75.245880 224.937286,75.245880 242.000366,75.245880 
	C242.000366,87.976555 242.000366,100.718658 242.000366,113.952011 
z"/>
<path fill="#DFE6F0" opacity="1.000000" stroke="none" 
	d="
M30.999607,112.967392 
	C30.999607,100.186432 30.999607,87.900864 30.999607,75.269623 
	C47.695118,75.269623 64.066734,75.269623 80.845779,75.269623 
	C80.845779,91.226654 80.845779,107.223465 80.845779,123.520149 
	C64.297218,123.520149 47.925945,123.520149 30.999607,123.520149 
	C30.999607,120.023018 30.999607,116.742905 30.999607,112.967392 
z"/>
<path fill="#DFE6F0" opacity="1.000000" stroke="none" 
	d="
M30.999624,396.157104 
	C30.999640,394.051331 30.999640,392.424896 30.999640,390.492432 
	C47.827148,390.492432 64.198471,390.492432 80.910751,390.492432 
	C80.910751,406.586029 80.910751,422.473297 80.910751,438.720886 
	C64.520210,438.720886 48.132355,438.720886 30.999609,438.720886 
	C30.999609,424.769409 30.999609,410.702942 30.999624,396.157104 
z"/>
<path fill="#DFE6F0" opacity="1.000000" stroke="none" 
	d="
M191.749237,408.001099 
	C191.749222,401.901886 191.749222,396.302277 191.749222,390.450348 
	C208.650803,390.450348 224.894638,390.450348 241.570129,390.450348 
	C241.570129,406.446899 241.570129,422.449158 241.570129,438.767029 
	C225.232819,438.767029 208.859909,438.767029 191.749268,438.767029 
	C191.749268,428.645416 191.749268,418.573090 191.749237,408.001099 
z"/>
<path fill="#FF515F" opacity="1.000000" stroke="none" 
	d="
M255.928406,290.583252 
	C244.058899,297.471649 232.353348,304.114838 220.653183,310.767517 
	C211.466003,315.991333 204.800873,312.259369 204.788864,301.784149 
	C204.754730,271.989471 204.757782,242.194702 204.786469,212.400009 
	C204.796860,201.605515 211.413116,197.933685 220.913742,203.385101 
	C232.307541,209.922821 243.694153,216.473053 255.423828,223.097321 
	C256.387726,223.619156 257.011688,224.061554 257.610657,225.098022 
	C257.399078,226.826340 257.051910,227.960281 257.049805,229.094833 
	C257.015594,247.643295 257.003662,266.191895 257.066498,284.740204 
	C257.071350,286.170685 257.671692,287.599152 257.995239,289.028564 
	C257.361725,289.466400 256.728210,289.904266 255.928406,290.583252 
z"/>
<path fill="#F23368" opacity="1.000000" stroke="none" 
	d="
M258.346405,288.972076 
	C257.671692,287.599152 257.071350,286.170685 257.066498,284.740204 
	C257.003662,266.191895 257.015594,247.643295 257.049805,229.094833 
	C257.051910,227.960281 257.399078,226.826340 257.789917,225.331543 
	C272.141724,233.028839 286.419495,240.869568 300.379913,249.239685 
	C306.983978,253.199219 306.317261,261.337128 299.308411,265.472198 
	C285.846771,273.414307 272.242615,281.114868 258.346405,288.972076 
z"/>
</svg>