<svg xmlns="http://www.w3.org/2000/svg" width="42.59" height="50" viewBox="0 0 42.59 50"><g transform="translate(-259.96 -135.76)"><path d="M13.515-52.2v12.473a19.426,19.426,0,0,0,.11,2.313,3.348,3.348,0,0,0,.5,1.459q1.129,1.79,4.46,1.79a28.282,28.282,0,0,0,3.524-.3v6.223a29.826,29.826,0,0,1-5.341.523,15.478,15.478,0,0,1-5.837-1,7.1,7.1,0,0,1-3.689-3.208,9.189,9.189,0,0,1-.991-2.808A20.132,20.132,0,0,1,6-38.128l.028-2.726V-52.2H.96V-57.98H6.026v-8.26h7.489v8.26h8.59V-52.2Z" transform="translate(259 202)" fill="#050704"/><path d="M29.226-47.883a8.855,8.855,0,0,1,1,3.015,30.865,30.865,0,0,1,.206,3.979v18.172H23.884v-3.634a12.1,12.1,0,0,1-4.35,3.414,14.279,14.279,0,0,1-5.782,1.046,11.163,11.163,0,0,1-5.328-1.2A8.314,8.314,0,0,1,5.01-26.352a9.108,9.108,0,0,1-1.17-4.571A9.527,9.527,0,0,1,5.354-36.4a9.865,9.865,0,0,1,4.984-3.5,28.4,28.4,0,0,1,4.708-1.225q2.781-.509,8.012-1.28a4.162,4.162,0,0,0-1.528-3.07,6.522,6.522,0,0,0-3.924-.977A7.757,7.757,0,0,0,14-45.571a4.654,4.654,0,0,0-2.34,2.753L4.886-44.965a11.075,11.075,0,0,1,4.35-6.085,14.328,14.328,0,0,1,8.37-2.23Q26.39-53.28,29.226-47.883ZM22.232-31.749a11.494,11.494,0,0,0,.771-4.6q-3.882.661-5.7,1.046a21.293,21.293,0,0,0-3.056.854,6.376,6.376,0,0,0-2.354,1.473,2.806,2.806,0,0,0-.73,1.941,2.852,2.852,0,0,0,1.115,2.382,4.884,4.884,0,0,0,3.07.867,7.739,7.739,0,0,0,3.332-.675,7.634,7.634,0,0,0,2.3-1.583A6.921,6.921,0,0,0,22.232-31.749Z" transform="translate(272.112 207.652)" fill="#050704"/><rect width="6" height="6" transform="translate(284.255 143.96)" fill="#64dd17"/><rect width="6" height="6" transform="translate(293.404 143.96)" fill="#64dd17"/></g></svg>