<?xml version="1.0" encoding="utf-8"?>
<svg xmlns="http://www.w3.org/2000/svg">
  <path opacity="1.000000" stroke="none" d=" M129.606018,441.999939 C129.606308,364.671875 130.101013,287.839172 129.372314,211.018036 C129.070999,179.253204 151.098694,148.824020 186.363434,144.089981 C188.664413,143.781097 191.010880,143.699249 193.336182,143.699127 C398.155426,143.687210 602.974670,143.680115 807.793884,143.711807 C843.643127,143.717361 872.325745,172.308731 872.337280,208.129898 C872.385925,359.119507 872.390320,510.109131 872.345581,661.098755 C872.335022,696.698181 843.730164,725.306885 808.201904,725.312073 C603.549377,725.341919 398.896851,725.339050 194.244324,725.309509 C158.293488,725.304321 129.704544,696.927246 129.646408,660.983276 C129.528625,588.155640 129.608734,515.327759 129.606018,441.999939 M162.035980,698.481873 C172.407791,707.477783 184.744781,710.613159 198.142807,710.613586 C360.134644,710.619080 522.126465,710.631287 684.118286,710.633850 C724.116211,710.634460 764.114380,710.679871 804.112061,710.569397 C836.395386,710.480225 857.659058,689.077454 857.659607,656.906189 C857.662354,507.913666 857.670410,358.921143 857.654114,209.928635 C857.650940,180.644958 836.155518,158.947189 806.939087,158.942108 C602.949585,158.906677 398.960144,158.926773 194.970657,158.944290 C191.143463,158.944626 187.305603,158.978485 183.538956,159.852386 C160.176880,165.272614 144.359756,185.209702 144.355240,209.527863 C144.327454,359.187012 144.341568,508.846161 144.337204,658.505310 C144.336761,674.166260 149.786255,687.445923 162.035980,698.481873 z" transform="matrix(1, 0, 0, 1, 263.679104, -139.916212)" style="fill: rgb(255, 255, 255);"/>
  <path opacity="1.000000" stroke="none" d=" M487.507782,529.568970 C469.166779,540.175232 451.163635,550.635437 433.100220,560.990479 C414.022552,571.926880 394.691803,560.685913 394.688202,538.681030 C394.678070,476.696289 394.678680,414.711578 394.712158,352.726837 C394.723083,332.519287 414.437103,320.917419 432.010162,331.012756 C486.029694,362.045746 539.986938,393.187836 593.877502,424.444275 C612.052673,434.985809 611.931580,457.651123 593.827332,468.138062 C558.515381,488.592560 523.157776,508.968262 487.507782,529.568970 M409.437500,536.102295 C409.034912,550.322083 418.012634,552.578735 428.089081,546.606995 C463.896851,525.385742 500.096222,504.825195 536.152588,484.023560 C552.882202,474.371887 569.656982,464.797943 586.345886,455.076416 C594.153198,450.528534 594.220337,442.419373 586.648071,437.591339 C585.385376,436.786224 584.068604,436.065460 582.770752,435.316223 C544.700134,413.340302 506.628204,391.366669 468.557861,369.390320 C453.993134,360.982758 439.500763,352.446686 424.841156,344.208008 C416.965668,339.782043 410.168579,343.741150 409.460876,352.802704 C409.357391,354.128082 409.406311,355.466431 409.406464,356.798767 C409.413239,416.258575 409.422394,475.718353 409.437500,536.102295 z" transform="matrix(1, 0, 0, 1, 263.679104, -139.916212)" style="fill: rgb(255, 255, 255);"/>
  <path opacity="1.000000" stroke="none" d=" M762.667114,628.039490 C762.648499,613.587646 763.452332,612.759949 777.220276,612.750977 C794.366821,612.739807 811.513489,612.726379 828.659973,612.756470 C837.069519,612.771240 839.358887,615.054871 839.368347,623.368469 C839.389832,642.179688 839.397522,660.990845 839.372498,679.802063 C839.362244,687.510071 836.886169,690.126526 829.366882,690.149597 C810.555786,690.207214 791.744202,690.211426 772.933167,690.141907 C765.124573,690.112976 762.667786,687.474854 762.660950,679.472168 C762.646484,662.492065 762.663391,645.511902 762.667114,628.039490 M824.667725,651.500000 C824.665527,645.510376 824.518738,639.516113 824.714050,633.532898 C824.836365,629.786194 823.645081,628.055847 819.635254,628.098145 C807.325073,628.227966 795.011719,628.186279 782.701172,628.056274 C778.875793,628.015930 777.301758,629.546631 777.332214,633.374146 C777.430176,645.685181 777.423950,657.997986 777.325256,670.309021 C777.299744,673.486755 778.489868,674.823853 781.705750,674.804504 C794.516357,674.727417 807.328125,674.705444 820.138245,674.815979 C823.684814,674.846558 824.781982,673.283813 824.699890,669.968506 C824.555847,664.148926 824.664429,658.323120 824.667725,651.500000 z" transform="matrix(1, 0, 0, 1, 263.679104, -139.916212)" style="fill: rgb(255, 255, 255);"/>
  <path opacity="1.000000" stroke="none" d=" M239.350159,653.000122 C239.345444,662.656128 239.383347,671.812378 239.320450,680.967957 C239.278702,687.046021 236.651001,690.055664 230.614487,690.099487 C210.805542,690.242981 190.994171,690.231079 171.185226,690.081665 C165.383301,690.037903 162.682129,687.067383 162.666092,681.309937 C162.610428,661.333435 162.603363,641.356567 162.672882,621.380066 C162.693344,615.497253 165.275894,612.850159 171.283112,612.815674 C190.926193,612.702820 210.570587,612.699463 230.213806,612.792664 C236.501083,612.822510 239.295715,615.795044 239.330078,622.035645 C239.386002,632.190186 239.348175,642.345215 239.350159,653.000122 M177.859314,629.359314 C176.688828,643.460632 177.622253,657.585632 177.387878,671.697571 C177.340393,674.556641 179.340012,674.768616 181.479141,674.768433 C194.287964,674.767334 207.097137,674.719910 219.905380,674.807007 C223.078735,674.828613 224.549225,673.454163 224.554306,670.388489 C224.574997,657.912720 224.562958,645.436951 224.592026,632.961182 C224.600494,629.326538 222.767151,627.989990 219.259720,628.119446 C215.106934,628.272827 210.939865,628.026611 206.785843,628.162659 C197.336990,628.472046 187.860474,627.378845 177.859314,629.359314 z" transform="matrix(1, 0, 0, 1, 263.679104, -139.916212)" style="fill: rgb(255, 255, 255);"/>
  <path opacity="1.000000" stroke="none" d=" M719.368774,677.882874 C719.327271,688.095032 717.342346,690.148926 707.771973,690.160889 C689.790894,690.183350 671.809814,690.186829 653.828796,690.150635 C644.891968,690.132629 642.658691,687.851257 642.654114,678.907532 C642.644592,660.260559 642.639832,641.613525 642.658630,622.966553 C642.666443,615.265198 645.055908,612.819702 652.813843,612.795532 C671.627197,612.737000 690.440857,612.730103 709.254333,612.764404 C716.947754,612.778442 719.356323,615.250061 719.364563,622.959106 C719.383911,641.106689 719.369873,659.254272 719.368774,677.882874 M689.490417,628.123779 C680.502319,628.114441 671.513550,628.162415 662.526367,628.066956 C659.024902,628.029785 657.310486,629.351196 657.333801,633.034424 C657.412964,645.517700 657.404297,658.002014 657.320496,670.485229 C657.301331,673.344849 658.164124,674.813904 661.278748,674.796265 C674.427734,674.721741 687.577454,674.746704 700.726746,674.777405 C703.433411,674.783691 704.662720,673.586792 704.654968,670.859009 C704.618286,658.042542 704.609009,645.225830 704.660522,632.409424 C704.672363,629.469910 703.397827,628.130005 700.470398,628.167786 C697.142517,628.210693 693.813171,628.143311 689.490417,628.123779 z" transform="matrix(1, 0, 0, 1, 263.679104, -139.916212)" style="fill: rgb(255, 255, 255);"/>
  <path opacity="1.000000" stroke="none" d=" M541.018311,690.177856 C537.193176,690.150635 533.849487,690.311157 530.538513,690.052185 C525.316223,689.643860 522.713074,686.897217 522.693787,681.620483 C522.620178,661.477051 522.623596,641.332947 522.697205,621.189514 C522.717163,615.726135 525.470459,612.869690 531.069763,612.833313 C550.879700,612.704529 570.691284,612.692871 590.501343,612.807312 C596.776306,612.843567 599.371826,615.781860 599.380798,622.244812 C599.407715,641.555969 599.392334,660.867371 599.355408,680.178528 C599.341553,687.443176 596.777100,690.108154 589.459778,690.146851 C573.478394,690.231323 557.496216,690.175842 541.018311,690.177856 M537.348267,639.551392 C537.348938,649.362732 537.515930,659.178223 537.272644,668.983459 C537.167664,673.216064 538.368164,674.951111 542.866089,674.862915 C555.000916,674.624756 567.145569,674.647217 579.281616,674.849121 C583.450867,674.918518 584.798401,673.419434 584.731567,669.329102 C584.535828,657.359192 584.494385,645.380493 584.746582,633.412659 C584.837402,629.103333 583.142700,628.000305 579.201416,628.062561 C568.727600,628.227966 558.249268,628.137695 547.772888,628.097107 C535.834717,628.050903 537.483154,627.514893 537.348267,639.551392 z" transform="matrix(1, 0, 0, 1, 263.679104, -139.916212)" style="fill: rgb(255, 255, 255);"/>
  <path opacity="1.000000" stroke="none" d=" M709.639893,200.897797 C717.511719,201.731766 719.373840,203.699066 719.380676,211.025955 C719.398499,230.332886 719.382385,249.639893 719.338135,268.946777 C719.323547,275.325470 716.622253,278.211365 710.343262,278.233185 C690.870178,278.300873 671.396240,278.305542 651.923401,278.198486 C645.243225,278.161774 642.696411,275.422302 642.679199,268.631805 C642.632385,250.157181 642.663879,231.682373 642.661133,213.207642 C642.659546,202.688614 644.479187,200.891464 655.255920,200.886398 C673.231384,200.877960 691.206848,200.889221 709.639893,200.897797 M686.498047,262.926270 C690.996948,262.918549 695.498047,262.821930 699.994019,262.932159 C703.392761,263.015472 704.729614,261.602570 704.697021,258.161987 C704.580566,245.832779 704.560974,233.500519 704.717224,221.172104 C704.763916,217.482773 703.419006,216.154877 699.762207,216.193298 C687.266663,216.324661 674.767822,216.330139 662.272461,216.189865 C658.607605,216.148727 657.260193,217.462067 657.304443,221.151123 C657.450195,233.313034 657.467102,245.479660 657.279419,257.640564 C657.218933,261.563416 658.665833,263.019836 662.505432,262.950012 C670.167480,262.810638 677.834167,262.919464 686.498047,262.926270 z" transform="matrix(1, 0, 0, 1, 263.679104, -139.916212)" style="fill: rgb(255, 255, 255);"/>
  <path opacity="1.000000" stroke="none" d=" M313.999786,612.729492 C325.985107,612.735107 337.470612,612.705200 348.955658,612.759399 C356.819000,612.796448 359.338379,615.375061 359.344116,623.276428 C359.357941,642.252136 359.362396,661.227844 359.333832,680.203552 C359.322968,687.417603 356.715485,690.109436 349.372833,690.136475 C330.397400,690.206360 311.421265,690.204041 292.445984,690.111694 C285.156464,690.076172 282.645905,687.394592 282.637634,680.048157 C282.615967,660.739563 282.614410,641.430969 282.654907,622.122437 C282.669189,615.308105 285.118317,612.869873 292.027466,612.783630 C299.183990,612.694336 306.342255,612.742065 313.999786,612.729492 M344.368286,630.307068 C343.473022,627.748779 341.227081,628.169189 339.315033,628.158264 C327.150848,628.088440 314.984985,628.188110 302.822449,628.025391 C298.758392,627.971008 297.217163,629.441833 297.283295,633.588684 C297.474609,645.583557 297.469818,657.585510 297.273560,669.580322 C297.210327,673.446045 298.405273,674.908630 302.381714,674.850098 C314.710266,674.668640 327.044434,674.687378 339.373688,674.845398 C343.216248,674.894653 344.741241,673.598206 344.684296,669.652039 C344.499084,656.823975 344.564758,643.992310 344.368286,630.307068 z" transform="matrix(1, 0, 0, 1, 263.679104, -139.916212)" style="fill: rgb(255, 255, 255);"/>
  <path opacity="1.000000" stroke="none" d=" M402.646729,679.784668 C402.653046,660.496643 402.642334,641.679993 402.672180,622.863403 C402.684357,615.180908 405.063385,612.796997 412.894531,612.775269 C431.711029,612.722900 450.527802,612.719604 469.344330,612.753479 C476.800568,612.766907 479.355469,615.292786 479.362244,622.553894 C479.380249,641.870056 479.372467,661.186279 479.340332,680.502441 C479.328857,687.404114 476.713837,690.113708 469.639069,690.143433 C450.656281,690.223206 431.672699,690.208374 412.689819,690.134033 C405.331116,690.105164 402.901215,687.590332 402.646729,679.784668 M464.656342,648.500366 C464.656738,643.339172 464.480957,638.169861 464.716400,633.019409 C464.887665,629.272400 463.381012,628.058167 459.767487,628.089294 C447.282074,628.197083 434.794037,628.162231 422.308746,628.025818 C418.756134,627.986938 417.235870,629.126526 417.288818,632.915771 C417.460785,645.233643 417.456360,657.556824 417.287476,669.874878 C417.237213,673.540100 418.447479,674.896423 422.158905,674.850830 C434.643829,674.697327 447.133240,674.679749 459.617706,674.848755 C463.645386,674.903320 464.823090,673.254944 464.708038,669.477417 C464.505341,662.823975 464.653198,656.159851 464.656342,648.500366 z" transform="matrix(1, 0, 0, 1, 263.679104, -139.916212)" style="fill: rgb(255, 255, 255);"/>
  <path opacity="1.000000" stroke="none" d=" M195.000000,200.875900 C206.648331,200.877731 217.796967,200.828796 228.944901,200.897614 C236.881378,200.946594 239.336624,203.473862 239.343430,211.404633 C239.359711,230.373627 239.363937,249.342651 239.339096,268.311646 C239.329666,275.512543 236.664001,278.229645 229.401733,278.248322 C210.432877,278.297150 191.463638,278.299347 172.494858,278.233673 C165.173370,278.208344 162.670914,275.599854 162.659576,268.243530 C162.630081,249.108170 162.625793,229.972733 162.644516,210.837372 C162.651718,203.477615 165.064621,201.012527 172.536331,200.905212 C179.856186,200.800064 187.178665,200.877945 195.000000,200.875900 M203.499710,216.255798 C196.334534,216.257538 189.167374,216.359207 182.005020,216.217682 C178.567154,216.149750 177.275345,217.484009 177.308334,220.929535 C177.427963,233.425797 177.418762,245.924469 177.308456,258.420929 C177.280533,261.584076 178.342087,262.953796 181.620316,262.929688 C194.450256,262.835205 207.281509,262.853729 220.111847,262.915802 C223.229721,262.930908 224.663025,261.743652 224.641983,258.495422 C224.559891,245.831970 224.563431,233.167389 224.636932,220.503830 C224.656219,217.181595 223.055618,216.163452 219.995453,216.229965 C214.832352,216.342194 209.664948,216.257767 203.499710,216.255798 z" transform="matrix(1, 0, 0, 1, 263.679104, -139.916212)" style="fill: rgb(255, 255, 255);"/>
  <path opacity="1.000000" stroke="none" d=" M282.634583,251.999802 C282.635651,238.022141 282.622070,224.544403 282.644012,211.066742 C282.656219,203.576859 284.996643,200.966492 292.318390,200.924652 C311.452789,200.815262 330.588440,200.814758 349.722992,200.900452 C356.710693,200.931747 359.333466,203.700974 359.343994,210.642151 C359.373322,229.943512 359.369629,249.244980 359.334991,268.546326 C359.322693,275.394867 356.567932,278.218781 349.645386,278.240845 C330.510620,278.301819 311.375214,278.303650 292.240601,278.217407 C285.233337,278.185822 282.710022,275.499329 282.651215,268.473267 C282.606628,263.149078 282.637482,257.824280 282.634583,251.999802 M307.549683,216.261887 C306.218903,216.260712 304.867889,216.408691 303.560974,216.231461 C298.903656,215.599915 297.101166,217.231552 297.241547,222.220093 C297.578369,234.187576 297.434906,246.171921 297.297607,258.147308 C297.258759,261.535187 298.370758,262.958191 301.865570,262.927582 C314.506683,262.816833 327.149994,262.809631 339.790924,262.928223 C343.501404,262.962982 344.724701,261.429932 344.685028,257.841187 C344.550903,245.699341 344.522278,233.553589 344.693695,221.412735 C344.748779,217.511292 343.377869,216.132507 339.475464,216.203690 C329.165405,216.391739 318.849640,216.264648 307.549683,216.261887 z" transform="matrix(1, 0, 0, 1, 263.679104, -139.916212)" style="fill: rgb(255, 255, 255);"/>
  <path opacity="1.000000" stroke="none" d=" M762.654175,253.999268 C762.658569,239.171951 762.630005,224.844360 762.682007,210.517059 C762.706177,203.851395 765.316406,201.014084 772.038269,200.968155 C791.529358,200.834900 811.022339,200.826416 830.513428,200.951065 C836.611694,200.990051 839.346741,203.938644 839.360718,209.941940 C839.406921,229.767029 839.406921,249.592438 839.344238,269.417480 C839.325378,275.376801 836.470886,278.200043 830.346375,278.221741 C810.854675,278.290771 791.362122,278.298157 771.870605,278.204407 C765.529053,278.173920 762.781250,275.285797 762.678711,268.992920 C762.600037,264.162781 762.657349,259.330444 762.654175,253.999268 M777.350708,235.500641 C777.350098,242.994736 777.483459,250.492233 777.292603,257.981476 C777.197144,261.726959 778.756287,262.971649 782.319458,262.942902 C794.975281,262.840729 807.632751,262.844727 820.288757,262.933411 C823.495056,262.955872 824.726562,261.718323 824.700500,258.500275 C824.597961,245.844452 824.611633,233.187027 824.691772,220.530899 C824.709778,217.681305 823.897766,216.209381 820.751770,216.228363 C807.596130,216.307755 794.439209,216.301575 781.283630,216.206116 C778.126587,216.183228 777.274231,217.670410 777.342285,220.513000 C777.453857,225.173096 777.359192,229.838135 777.350708,235.500641 z" transform="matrix(1, 0, 0, 1, 263.679104, -139.916212)" style="fill: rgb(255, 255, 255);"/>
  <path opacity="1.000000" stroke="none" d=" M522.648804,251.999786 C522.651733,237.833847 522.628418,224.167755 522.668945,210.501862 C522.688782,203.816818 525.234253,201.001892 531.995117,200.955475 C551.493042,200.821625 570.993103,200.828659 590.491089,200.961502 C596.624756,201.003296 599.357300,203.914108 599.371033,209.928040 C599.416443,229.760284 599.398071,249.592834 599.336731,269.425049 C599.318970,275.180389 596.533264,278.181946 590.840271,278.209351 C571.008423,278.304779 551.175354,278.307068 531.343811,278.179901 C525.408325,278.141846 522.758484,275.123444 522.681030,268.998749 C522.611511,263.499847 522.655090,257.999481 522.648804,251.999786 M582.811951,262.661102 C584.605042,262.016266 584.647583,260.488770 584.648193,258.964813 C584.653381,245.990341 584.592407,233.015427 584.688538,220.041672 C584.712830,216.763031 582.985474,216.215424 580.279663,216.225388 C567.471680,216.272552 554.662292,216.325409 541.855896,216.171936 C538.291321,216.129211 537.278687,217.541367 537.313843,220.908127 C537.442322,233.215881 537.485840,245.528091 537.276428,257.833771 C537.208069,261.846802 538.726868,263.022614 542.531006,262.971375 C555.669128,262.794464 568.810364,262.855042 582.811951,262.661102 z" transform="matrix(1, 0, 0, 1, 263.679104, -139.916212)" style="fill: rgb(255, 255, 255);"/>
  <path opacity="1.000000" stroke="none" d=" M479.166901,206.672028 C479.284760,228.077316 479.355804,249.048569 479.315308,270.019623 C479.305542,275.080933 476.391876,278.160583 471.249268,278.189819 C451.109985,278.304413 430.968842,278.306946 410.829987,278.148224 C405.453278,278.105865 402.715546,275.010468 402.696533,269.507416 C402.627502,249.533905 402.626495,229.559891 402.689636,209.586349 C402.707031,204.076538 405.302246,201.081024 410.895660,201.027023 C431.033264,200.832550 451.174042,200.902679 471.313171,200.984634 C474.900604,200.999222 477.694061,202.707794 479.166901,206.672028 M464.653625,258.161316 C464.652344,245.691528 464.588898,233.221237 464.693695,220.752335 C464.719727,217.658646 463.826508,216.186325 460.470551,216.213364 C447.502899,216.317841 434.533569,216.288971 421.565521,216.207306 C418.684875,216.189178 417.301666,217.105560 417.323181,220.208359 C417.411987,233.010025 417.402802,245.812958 417.320801,258.614746 C417.302246,261.508545 418.283722,262.921875 421.328766,262.910004 C434.463257,262.858795 447.598145,262.876923 460.732727,262.919373 C463.413147,262.928040 464.816254,261.849152 464.653625,258.161316 z" transform="matrix(1, 0, 0, 1, 263.679104, -139.916212)" style="fill: rgb(255, 255, 255);"/>
</svg>